<?xml version="1.0" encoding="utf-8"?>
<!-- Generator: Adobe Illustrator 27.5.0, SVG Export Plug-In . SVG Version: 6.00 Build 0)  -->
<svg version="1.1" xmlns="http://www.w3.org/2000/svg" xmlns:xlink="http://www.w3.org/1999/xlink" x="0px" y="0px"
	 viewBox="0 0 750 500" style="enable-background:new 0 0 750 500;" xml:space="preserve">
<g id="BACKGROUND">
	
		<linearGradient id="SVGID_1_" gradientUnits="userSpaceOnUse" x1="-4444.4985" y1="35" x2="-4444.4985" y2="494.0515" gradientTransform="matrix(-1 0 0 1 -4069.4983 0)">
		<stop  offset="0" style="stop-color:#6693B9"/>
		<stop  offset="1" style="stop-color:#FBE7C1"/>
	</linearGradient>
	<polygon style="fill:url(#SVGID_1_);" points="750,500 750,0 0,0 0,500 	"/>
</g>
<g id="OBJECTS">
	<g>
		<g>
			<defs>
				
					<rect id="SVGID_00000168117919309696206990000000618774219437285021_" x="125" y="-125" transform="matrix(-1.836970e-16 1 -1 -1.836970e-16 625 -125)" width="500" height="750"/>
			</defs>
			<clipPath id="SVGID_00000152967544263918272770000008166913107084641935_">
				<use xlink:href="#SVGID_00000168117919309696206990000000618774219437285021_"  style="overflow:visible;"/>
			</clipPath>
			<path style="opacity:0.44;clip-path:url(#SVGID_00000152967544263918272770000008166913107084641935_);fill:#8EB8D6;" d="
				M568.692,219.328c-19.47,0.926-39.451-2.824-58.224,2.397c-31.995,8.898-51.679,40.937-80.791,56.876
				c-62.814,34.39-138.921-15.71-210.519-12.29c-60.788,2.903-115.176,44.736-176.035,44.471
				c-46.996-0.205-80.313-14.074-139.118-16.626c61.938-13.43,96.375-26.605,146.102-35.618
				c59.331-10.754,127.939,10.663,176.223-25.333c23.232-17.32,36.913-45.331,60.884-61.621
				c38.175-25.943,89.672-15.09,134.795-25.017C539.522,120.712,581.393-20.323,690.204-63.328
				c125.694-49.678,94.34,103.209,51.282,165.533C704.549,155.669,636.455,216.104,568.692,219.328z"/>
			<path style="opacity:0.37;clip-path:url(#SVGID_00000152967544263918272770000008166913107084641935_);fill:#8EB8D6;" d="
				M671.873,59.121c-33.517,27.914-71.532,53.455-112.321,52.35c-16.295-0.441-32.548-5.171-48.733-2.564
				c-27.474,4.425-49.293,28.693-69.859,50.793c-34.34,36.901-73.662,72.536-119.68,78.373c-27.014,3.427-54.079-3.817-81.211-3.054
				c-76.251,2.144-140.352,65.049-207.453,108.702c-22.823,14.848-48.752,28.033-74.051,21.748
				c21.673-25.768,49.158-44.73,78.78-54.35c19.402-6.301,39.888-8.764,58.003-19.181c49.336-28.372,68.691-107.682,120.523-128.812
				c19.515-7.956,40.66-6.125,61.197-7.816c68.607-5.648,134.049-54.567,167.79-125.425c3.144-6.602,6.458-13.86,12.343-16.917
				c4.465-2.319,9.549-1.725,14.378-1.197c49.317,5.392,99.683-0.949,147.178-18.529c19.396-7.18,38.542-16.36,54.96-30.565
				c16.556-14.325,31.046-35.732,51.164-43.324c17.448-6.584,41.618-0.362,44.134,24.244c2.53,24.743-20.443,42.692-34.151,56.904
				C714.766,21.336,693.732,40.916,671.873,59.121z"/>
			<path style="opacity:0.11;clip-path:url(#SVGID_00000152967544263918272770000008166913107084641935_);fill:#FFFDDE;" d="
				M83.731,203.048c40.412-3.645,81.247-13.66,114.642-36.707c18.419-12.712,35.47-29.707,57.586-33.133
				c19.085-2.956,38.134,4.93,57.434,5.626c31.693,1.144,60.724-16.973,85.591-36.655c24.867-19.682,48.779-42.125,78.79-52.377
				c25.797-8.812,53.951-7.803,80.335-14.66c38.432-9.99,70.47-35.815,101.203-60.961c5.092-4.166,10.546-11.555,6.114-16.416
				c-2.942-3.226-8.125-2.42-12.359-1.355c-26.28,6.612-52.56,13.223-78.84,19.835c-24.029,6.045-48.437,12.244-69.765,24.856
				c-15.826,9.359-30.377,22.388-48.524,25.344c-28.179,4.59-58.152-16.408-84.263-4.861c-12.888,5.699-21.263,18.054-30.478,28.715
				c-21.414,24.773-50.684,42.65-82.501,50.388c-35.875,8.725-74.572,4.906-108.898,18.503c-18.176,7.2-34.176,18.952-51.802,27.409
				c-21.141,10.143-44.373,15.404-67.707,17.735c-20.099,2.008-42.273,1.915-59.523,13.956
				c-12.087,8.437-18.826,17.582-3.656,24.283c13.488,5.958,35.428,2.58,49.627,2.613C39.085,205.238,61.457,205.057,83.731,203.048
				z"/>
			<path style="opacity:0.3;clip-path:url(#SVGID_00000152967544263918272770000008166913107084641935_);fill:#FFFDDE;" d="
				M642.809,277.882c-39.884,8.77-85.614,4.293-116.946,30.484c-26.256,21.948-34.769,60.098-61.483,81.486
				c-31.467,25.193-76.583,19.268-116.609,14.496c-39.894-4.757-83.1-6.352-117.215,14.868
				c-19.645,12.22-34.767,31.229-55.628,41.233c-38.446,18.438-83.85,1.652-126.427,3.936
				c-43.09,2.312-84.522,25.931-108.463,61.833c-1.868,2.802-3.711,6.042-3.057,9.346c0.541,2.734,2.675,4.834,4.743,6.702
				c13.577,12.268,31.265,23.073,49.173,19.312c10.394-2.183,19.115-8.962,27.684-15.238
				c30.154-22.085,65.221-40.699,102.591-40.014c22.863,0.419,44.899,8.034,67.377,12.236c22.477,4.202,47.324,4.534,66.385-8.097
				c15.981-10.59,25.616-28.815,41.437-39.642c10.509-7.192,23.128-10.668,35.7-12.699c33.326-5.384,67.371-1.4,101.122-2.079
				c33.752-0.679,69.355-6.934,94.853-29.058c27.66-24.001,41.182-64.628,75.013-78.646c19.486-8.074,41.483-5.268,62.568-5.816
				c27.896-0.725,55.612-7.669,80.554-20.182c19.917-9.992,38.819-24.44,47.681-44.885c6.073-14.011,6.95-29.685,6.796-44.954
				c-0.156-15.532-1.41-31.528-8.34-45.429C785.389,173.174,697.065,265.951,642.809,277.882z"/>
			<path style="clip-path:url(#SVGID_00000152967544263918272770000008166913107084641935_);fill:#E0E0E5;" d="M768.269,214.282
				c-40.773,23.501-71.659-21.538-76.686-37.963c-6.34,8.761-17.17,14.079-27.979,13.74c-10.809-0.339-21.284-6.326-27.063-15.466
				c-0.899,9.185-12.319,14.366-21.188,11.813c-8.869-2.553-15.208-10.315-19.919-18.251c-6.71,6.602-20.567,7.232-28.813,2.692
				c-8.246-4.54-12.909-14.78-10.919-23.981c-4.272,8.247-36.884,18.814-43.632-12.875c-1.191-5.591,7.12-17.984,21.002-17.807
				c5.716,0.073,12.044,0.8,15.065,5.652c1.039-7.946,8.58-14.041,16.535-15.007c7.955-0.965,15.984-0.013,22.166,5.086
				c1.733-10.545,5.509-21.755,14.522-27.496c9.014-5.741,24.027-1.906,25.547,8.672c1.816-11.302,11.253-20.971,22.507-23.061
				s23.534,3.544,29.287,13.44c-3.993-7.207-5.527-16.329-1.789-23.672c3.738-7.343,13.808-11.489,20.787-7.109
				c-2.658-7.485-2.765-16.054,0.711-23.196c3.476-7.142,10.803-12.537,18.743-12.732c5.264-0.129,10.398,1.931,14.752,4.892
				c10.387,7.065,16.802,19.613,16.447,32.171c3.73-12.494,14.007-22.831,26.48-26.632c12.473-3.801,37.081,5.808,42.997,17.427
				C837.881,83.996,826.056,180.974,768.269,214.282z"/>
			<path style="clip-path:url(#SVGID_00000152967544263918272770000008166913107084641935_);fill:#E0E0E5;" d="M-58.841,89.641
				c5.77-15.285,19.768-26.76,35.24-28.888c-4.967-10.195-12.54-12.428-14.751-23.649c-2.45-12.432,1.94-28.323,12.78-33.854
				c40.581-20.706,63.914,8.465,60.267,29.645c10.111-6.425,23.438-7.555,33.801-1.592c10.363,5.963,16.784,19.369,13.926,31.446
				c15.343,4.605,25.307,23.552,20.884,39.713c10.755-4.347,25.556-3.262,35.144,3.468c9.588,6.73,15.796,18.524,16.141,30.663
				c5.418-8.897,24.084-19.441,40.751-6.788c8.02,6.088,16.333,25.305,8.691,42.041c7.309-11.769,19.036-20.601,33.975-14.276
				c7.672,3.248,14.811,13.356,14.811,23.343c4.889-5.138,20.797-13.307,35.19-6.906c9.667,4.299,15.459,24.27,10.004,32.594
				c6.84-4.338,17.032-2.492,23.678,2.169c6.646,4.661,10.396,13.527,9.245,21.855c12.061-6.1,27.159-4.912,38.229,3.006
				c11.07,7.919,17.697,22.272,16.779,36.343c8.399-2.749,22.899,0.941,34.24,12.899c6.946,7.324,9.284,20.418,10.321,30.568
				c0-16.693,1.505-30.752,21.505-32.86c11.05-1.165,21.476,6.589,27.681,16.3c2.652-9.27,19.984-20.697,31.319-18.309
				c11.335,2.388,23,11.147,26.372,24.869c9.918-10.277,22.933-17.285,36.834-16.865c13.9,0.42,27.911,10.236,30.988,24.534
				c5.48-1.876,11.409-3.722,17.217-3.965c5.165-3.696,10.591-6.927,16.407-9.395c16.571-7.032,37.201-6.695,50.578,5.787
				c4.13,3.854,7.439,8.707,12.019,11.948c16.691,11.809,38.956-2.951,58.948-0.744c32.629,3.603,59.968,90.97,16.539,90.399
				c-9.337-0.123-18.162-4.215-26.686-8.235c0.572,11.863-8.141,23.447-19.227,25.563c-11.086,2.116-23.097-5.513-26.506-16.835
				c-10.974,11.35-23.894,22.339-39.222,23.57c-14.319,1.15-30.082-10.36-30.232-24.945c-0.916,0.025-1.834,0.009-2.751-0.04
				c-5.996,6.228-12.224,12.27-19.566,16.555c-8.553,4.991-18.968,7.374-28.218,4.039c-5.597-2.018-10.471-6.515-13.136-12.003
				c-13.555,1.974-27.866-2.771-37.873-12.618c-15.14,13.572-35.301,20.786-55.143,19.625
				c-37.006-2.165-56.406-28.295-56.406-28.295s-29.024,12.396-48.88,4.845c-29.054-11.05-34.626-36.589-34.626-36.589
				s-26.095,5.945-41.254-7.087c-9.758-8.388-16.964-20.394-17.918-33.63c-9.782,7.286-22.758,9.618-34.514,7.2
				c-10.586-2.178-19.612-9.766-26.082-18.865c-6.47-9.099-10.719-19.699-14.904-30.18c-10.458,5.369-23.311,5.217-33.652-0.397
				c-10.341-5.614-20.429-17.963-19.855-28.651c-1.416,26.351-18.706,33.934-28.83,34.241c-16.811,0.51-35.533-7.139-41.656-23.654
				c-6.357,8.296-18.464,10.953-27.432,6.021c-8.968-4.932-13.831-16.92-11.018-27.164c-9.704,8.636-23.669,10.71-36,7.511
				c-12.331-3.199-23.167-11.117-32.236-20.489c-21.98-22.717-34.846-57.67-25.152-88.471
				C-61.919,123.406-64.61,104.926-58.841,89.641z"/>
			<path style="clip-path:url(#SVGID_00000152967544263918272770000008166913107084641935_);fill:#FFFEF0;" d="M756.357,456.775
				c-7.358,7.203-19.957,8.221-28.376,2.293c-1.748-1.231-3.555-2.793-5.688-2.646c-1.425,0.099-2.664,0.959-3.898,1.679
				c-5.546,3.24-13.93,3.329-17.195-2.202c-3.888,6.107-14.204,6.391-18.421,0.506c1.054,3.266-0.923,6.917-3.799,8.79
				c-2.876,1.873-6.43,2.334-9.857,2.523c-14.876,0.822-31.582-3.82-38.954-16.767c-8.919,6.659-19.44,11.604-30.552,12.249
				c-11.111,0.646-22.806-3.484-29.702-12.221c-3.237,1.667-6.673,3.379-10.308,3.171c-3.635-0.208-7.38-3.141-7.072-6.768
				c0.331-3.901,4.741-6.019,8.602-6.672c5.609-0.949,11.455-0.46,16.828,1.408c-1.369-4.61,0.415-9.985,4.269-12.86
				s9.515-3.056,13.544-0.43c-2.416-5.84,0.358-13.315,5.999-16.164c5.641-2.849,13.304-0.646,16.57,4.765
				c-3.101-5.948-1.616-13.657,2.731-18.765c4.347-5.108,11.099-7.773,17.796-8.164c5.112-0.298,10.451,0.701,14.599,3.704
				s6.862,8.234,6.015,13.284c4.119-3.386,10.341-3.946,14.998-1.35c4.657,2.596,7.453,8.182,6.739,13.466
				c3.387-2.79,8.538-3.203,12.326-0.988c3.788,2.215,5.955,6.906,5.185,11.226c4.908-4.804,12.629-6.493,19.094-4.177
				c6.466,2.316,11.357,8.524,12.098,15.352c1.742-3.378,5.661-5.497,9.441-5.105c3.781,0.392,7.181,3.27,8.193,6.933
				c0.442,1.599-0.861,4.087-2.153,3.047c7.383-1.557,15.113-3.106,22.38-1.076c7.268,2.029,13.791,8.88,12.726,16.35
				c0.665-4.664,15.72-4.606,18.64-2.775c4.392,2.753,3.889,7.082,9.89,5.839C793.095,472.12,769.925,467.177,756.357,456.775z"/>
			<path style="clip-path:url(#SVGID_00000152967544263918272770000008166913107084641935_);fill:#E0E0E5;" d="M-121.04,366.836
				c12.868,12.597,34.903,14.378,49.627,4.01c3.057-2.152,6.218-4.885,9.948-4.627c2.493,0.172,4.659,1.677,6.817,2.937
				c9.7,5.666,24.362,5.823,30.072-3.851c6.799,10.681,24.841,11.176,32.216,0.885c-1.844,5.711,1.614,12.097,6.643,15.372
				c5.029,3.275,11.246,4.081,17.238,4.412c26.017,1.437,55.233-6.681,68.126-29.324c15.598,11.645,33.999,20.294,53.432,21.423
				c19.433,1.129,39.886-6.094,51.946-21.374c5.66,2.915,11.671,5.91,18.028,5.546s12.906-5.493,12.368-11.837
				c-0.579-6.823-8.292-10.527-15.043-11.668c-9.81-1.659-20.034-0.804-29.431,2.462c2.395-8.062-0.725-17.462-7.466-22.491
				c-6.741-5.03-16.64-5.344-23.686-0.753c4.226-10.213-0.626-23.287-10.492-28.27c-9.866-4.983-23.268-1.129-28.979,8.333
				c5.423-10.402,2.826-23.885-4.777-32.819c-7.603-8.934-19.412-13.595-31.123-14.278c-8.94-0.521-18.278,1.226-25.532,6.478
				c-7.254,5.252-12.002,14.401-10.52,23.233c-7.204-5.921-18.085-6.901-26.23-2.36c-8.145,4.54-13.034,14.31-11.786,23.551
				c-5.923-4.88-14.932-5.602-21.557-1.728c-6.625,3.873-10.414,12.078-9.068,19.633c-8.583-8.402-22.087-11.356-33.394-7.305
				c-11.307,4.051-19.863,14.908-21.158,26.849c-3.047-5.908-9.9-9.613-16.512-8.928s-12.559,5.718-14.328,12.126
				c-0.772,2.797,1.505,7.148,3.766,5.329c-12.913-2.722-26.431-5.432-39.141-1.883c-12.711,3.549-24.118,15.53-22.256,28.595
				c-1.163-8.156-27.492-8.055-32.6-4.853c-7.681,4.815-6.802,12.386-17.297,10.211
				C-185.293,393.673-144.771,385.028-121.04,366.836z"/>
			<path style="clip-path:url(#SVGID_00000152967544263918272770000008166913107084641935_);fill:#E0E0E5;" d="M659.264,190.834
				c7.441,0,15.424,4.732,19.138,11.179c1.832-8.201,9.74-14.521,17.643-17.631c7.903-3.109,20.742,0.046,27.385,5.338
				c36.366-35.051,60.057,1.84,60.057,1.84c24.173-23.007,61.689-12.356,71.613,8.421c4.497,9.416,2.386,26.269-5.717,32.843
				c-9.844,7.986-24.978,2.218-34.068-6.616c-3.608,11.159-12.579,20.81-23.93,23.76c-11.35,2.95-24.668-1.744-30.477-11.932
				c-5.496,7.186-15.379,10.703-24.179,8.605c-8.8-2.099-16.032-9.698-17.693-18.591c-4.737,8.014-14.446,12.782-23.688,11.633
				c-9.311-1.16-17.043-8.015-20.068-16.761c-14.107,9.771-34.052,5.686-45.179-5.78
				C639.854,200.574,648.105,190.834,659.264,190.834z"/>
			<path style="clip-path:url(#SVGID_00000152967544263918272770000008166913107084641935_);fill:#FFFEF0;" d="M591.503,111.163
				c-6.1,2.621-11.552,6.6-18.145,8.01c-6.592,1.41-15.105-1.143-16.296-7.048c-4.09,6.945-12.586,11.687-21.435,11.965
				c-8.849,0.278-17.703-3.919-22.341-10.589c-11.132,6.761-27.701,8.34-33.663-9.218c-3.08,6.233-10.257,10.72-17.929,11.208
				c-7.672,0.488-15.502-3.043-19.56-8.822c-4.079,6.542-10.588,12.487-18.911,13.77c-8.322,1.282-18.033-3.89-18.288-11.357
				c-4.469,6.305-12.416,11.127-20.812,10.627c-8.395-0.5-16.16-7.63-14.621-14.946c-17.222,1.183-38.215-0.03-46.4-13.483
				c7.922,6.749,18.673,9.928,27.37,3.972c3.653-2.502,10.193-8.752,14.73-7.978c4.518,0.771,11.698,6.089,11.698,6.089
				s1.255-6.262,8.359-8.368c10.596-3.14,23.148,1.172,30.262,8.795c6.336-8.273,22.394-8.338,28.816-0.117
				c0.245-11.288,3.754-26.303,16.139-29.044c17.372-3.846,28.54,7.056,33.442,15.63c4.464-11.317,13.098-12.997,21.593-12.106
				c8.495,0.891,17.056,9.438,18.207,16.935c5.643-3.072,13.31-2.937,18.811,0.329c5.501,3.267,8.543,9.492,7.464,15.274
				c3.263-7.122,7.429-12.387,19.992-11.164c12.989,1.264,23.148,11.071,23.148,11.071s30.857,0.5,41.97,10.21
				C626.975,109.737,609.592,103.39,591.503,111.163z"/>
			<path style="clip-path:url(#SVGID_00000152967544263918272770000008166913107084641935_);fill:#FFFEF0;" d="M697.589,283.301
				c-13.337-0.503-26.097,10.511-27.548,23.778c-4.359-10.865-21.064-13.916-28.982-5.294c6.785-4.703,8.351-15.404,3.199-21.854
				c-5.152-6.45-15.934-7.287-22.02-1.71c4.263-13.155,7.602-27.89,1.811-40.447c-5.791-12.557-24.64-19.255-33.825-8.918
				c13.332-22.099-0.179-55.318-25.15-61.839s-52.998,15.853-52.172,41.649c-8.099-23.943-30.001-40.915-61.03-34.55
				c-24.821,5.092-35.535,32.247-24.427,47.462c-15.261-2.073-29.688,13.068-28.696,28.438c0.992,15.37,15.225,28.081,30.571,29.397
				c-12.044-2.887-23.669,9.064-24.775,21.4c-1.106,12.336,5.23,24.073,12.313,34.234c-6.477-9.295-15.976-17.05-27.152-18.908
				c-11.175-1.858-23.859,3.43-28.333,13.838c6.387-16.983,8.389-37.195-1.484-52.417c-9.873-15.222-34.748-20.56-46.307-6.575
				c-4.784-8.378-15.343-13-24.744-10.832c-9.401,2.168-16.869,10.948-17.501,20.575c-0.802,12.216,8.075,22.709,16.564,31.53
				c-10.096-8.203-24.53-10.713-36.802-6.399c-6.493,2.282-12.619,6.696-15.118,13.109c-2.499,6.413-0.251,14.849,5.981,17.772
				c-12.247-8.673-31.052-6.094-40.512,5.556c-9.46,11.65-8.124,30.584,2.879,40.79c-11.215,2.483-13.08,26.09,0.051,33.567
				c25.476,14.505,46.694,1.852,52.632-13.338c12.307,30.683,38.402,23.326,52.483,7.911c2.042,8.182,12.649,14.789,22.116,14.789
				c11.934,0,21.089-7.529,25.33-22.741c-0.965,11.456,11.085,24.852,22.377,27.011c11.292,2.158,25.458,2.546,32.305-8.715
				c0.047,6.473,5.564,17.943,22.151,21.405c14.604,3.047,30.73-4.97,34.433-19.422c3.506,15.834,22.031,26.495,37.483,21.571
				s24.394-24.336,18.094-39.28c9.674,6.966,24.243,2.826,31.85-6.352c7.607-9.178,9.59-21.789,9.49-33.71
				c6.121,6.516,16.321,8.817,24.646,5.561c8.326-3.256,14.258-11.867,14.333-20.807c-0.441,13.012,12.399,23.573,25.372,24.664
				c12.973,1.092,30.198,3.85,36.277-12.263c0,10.703,6.746,23.847,21.467,26.435c17.912,3.15,34.507-3.003,36.081-14.958
				c1.53,5.964,25.899,25.426,49.448,5.697c21.388-17.919,8.951-50.566-3.071-51.639c8.175-8.175,10.062-31.411-2.367-38.668
				c-22.098-12.903-37.204,2.15-43.888,18.894C721.743,295.588,711.423,283.823,697.589,283.301z"/>
			<path style="clip-path:url(#SVGID_00000152967544263918272770000008166913107084641935_);fill:#FFFEF0;" d="M-61.665,211.969
				c-1.919-20.221,33.632-27.163,33.632-27.163s-23.387-25.676,2.364-46.286c10.237-8.193,27.819-10.963,40.965-6.676
				c-0.974-12.094,7.535-25.008,22.062-31.662c14.526-6.654,33.867-8.71,45.723-0.677c3.844-19.187,29.159-35.718,55.549-36.275
				c26.39-0.557,50.273,14.936,52.408,33.997c9.692-7.653,24.938-12.139,37.953-9.24c13.015,2.898,21.427,14.377,15.426,23.745
				c9.787-3.34,19.237-1.539,25.996,4.531c6.759,6.069,9.278,19.686-0.583,23.773c13.697,0.385,25.923,7.725,28.928,17.369
				c1.53,4.909,0.323,10.802-4.49,14.513c7.594-3.89,19.382-2.773,23.975,2.833c5.131,6.263-0.413,16.062-10.386,18.356
				c5.641,2.977,8.26,8.638,6.368,13.763c-1.892,5.125-8.184,9.412-15.298,10.424c28.359-2.1,26.229,31.841-8.688,31.841
				c-10.506,0-20.417-4.592-24.315-11.528c-10.167,8.23-25.892,12.625-40.382,11.288c-14.49-1.338-27.292-8.367-32.876-18.051
				c-0.28,8.175-19.249,13.753-32.592,11.67c2.038,1.218,3.736,2.77,5.154,4.612c2.954,3.836,0.734,10.014-5.319,11.264
				c6.256,1.127,12.168,3.636,15.382,7.645c3.214,4.009,3.192,9.638-1.062,13.453c-2.414,2.164-5.889,3.567-9.427,4.553
				c-9.92,2.766-21.098,2.581-30.345-0.5c-9.247-3.081-16.446-9.021-19.542-16.124c-4.998,4.895-11.956,8.911-19.892,10.566
				c-7.936,1.655-16.828,0.725-22.777-3.047c-5.949-3.772-8.338-10.488-4.905-16.009c-11.77,5.868-27.35,10.123-40.003,6.555
				c-15.141-4.27-17.317-12.634-16.831-19.54c-6.287,3.619-9.574,4.642-17.318,5.543c-7.743,0.901-17.265-3.803-14.062-14.404
				C-29,240.142-58.934,240.754-61.665,211.969z"/>
			<path style="clip-path:url(#SVGID_00000152967544263918272770000008166913107084641935_);fill:#FFFEF0;" d="M-34.46,444.964
				c-1.881-6.331,0.57-13.713,5.863-17.663c5.293-3.95,13.068-4.197,18.601-0.591c-3.318-8.021,0.492-18.287,8.24-22.201
				c7.748-3.913,18.272-0.887,22.758,6.544c-4.259-8.169-2.219-18.757,3.751-25.773c5.971-7.016,15.244-10.677,24.441-11.213
				c7.021-0.409,14.354,0.963,20.051,5.087c5.697,4.124,9.425,11.309,8.262,18.245c5.657-4.65,14.202-5.419,20.599-1.854
				c6.396,3.565,10.236,11.238,9.256,18.495c4.652-3.832,11.726-4.399,16.929-1.357s8.179,9.485,7.121,15.418
				c6.741-6.598,17.455-9.21,26.225-5.736c36.251,14.359,20.9,33.231,7.431,43.548c-11.13,8.525-25.789,5.575-30.273-2.022
				c-5.339,8.388-19.508,8.777-25.3,0.695c1.448,4.485-11.549,18.367-24.003,19.713c-20.344,2.199-38.128-9.423-48.253-27.204
				c-12.249,9.145-26.7,15.937-41.961,16.824c-15.261,0.887-28.935-3.929-38.406-15.928c-4.445,2.289-11.553,3.784-16.545,3.499
				C-59.674,461.49-54.984,439.153-34.46,444.964z"/>
			<path style="clip-path:url(#SVGID_00000152967544263918272770000008166913107084641935_);fill:#FFFEF0;" d="M176.377,19.182
				c3.239-1.059,6.883,0.161,9.492,2.353c2.609,2.192,4.37,5.205,6.031,8.181c0.164-6.095,3.971-11.953,9.474-14.578
				c5.503-2.626,12.451-1.899,17.292,1.809c4.841,3.708,7.353,10.226,6.252,16.224c2.653-5.645,10.143-8.492,15.806-5.878
				c5.664,2.614,8.33,10.339,5.338,15.812c3.093-1.551,6.936-0.755,9.87,1.077c3.373,2.106,6.001,5.938,5.436,9.874
				c-0.589,4.107-4.425,7.069-8.401,8.257c-5.869,1.754-12.562,0.456-17.349-3.367c-3.223,5.552-10.183,7.479-16.602,7.55
				c-7.02,0.078-14.199-2.325-17.468-7.537c-2.116,4.67-8.622,7.616-16.14,5.827c-5.5-1.309-12.112-6.448-13.126-12.53
				c-1.603,2.921-4.828,4.725-8.13,5.167c-3.302,0.442-6.668-0.338-9.748-1.608c-2.491-1.027-4.915-2.432-6.541-4.58
				c-1.626-2.147-2.313-5.155-1.184-7.601c1.129-2.446,4.348-3.89,6.723-2.619c-1.98-3.205-2.543-8.815,0.488-11.846
				c5.468-5.468,15.447,1.633,15.447,1.633S169.483,21.435,176.377,19.182z"/>
			<g style="clip-path:url(#SVGID_00000152967544263918272770000008166913107084641935_);">
				<path style="fill:#353535;" d="M363.886,243.205c0,0,4.261,1.728,5.413,2.879c1.152,1.152,5.068,2.073,5.068,2.073V250h2.764
					l-0.576-1.958c0,0,2.563-0.202,3.801-1.44s3.57-4.089,5.759-4.089c0,0-3.801-0.461-6.68,2.534c0,0-2.073,1.196-3.225,1.196
					c0,0-0.77-1.418-2.188,0c0,0-2.591-0.333-3.801-1.542C369.011,243.493,366.765,243.205,363.886,243.205z"/>
				<path style="fill:#353535;" d="M228.972,434.986c0,0,2.952,3.525,3.429,5.082c0.477,1.557,3.502,4.209,3.502,4.209l-0.865,1.627
					l2.441,1.297l0.41-1.999c0,0,2.357,1.024,4.032,0.512c1.674-0.512,5.071-1.935,7.004-0.909c0,0-3.14-2.19-7.088-0.897
					c0,0-2.392,0.084-3.409-0.456c0,0-0.015-1.614-1.932-1.027c0,0-2.132-1.51-2.633-3.145
					C233.363,437.645,231.515,436.336,228.972,434.986z"/>
				<path style="fill:#353535;" d="M74.126,120.596c0,0,2.953,3.525,3.429,5.083c0.477,1.558,3.502,4.208,3.502,4.208l-0.865,1.627
					l2.441,1.297l0.41-1.999c0,0,2.358,1.024,4.032,0.512c1.674-0.512,5.071-1.935,7.004-0.909c0,0-3.14-2.19-7.088-0.897
					c0,0-2.392,0.084-3.409-0.457c0,0-0.015-1.614-1.932-1.027c0,0-2.132-1.51-2.633-3.145
					C78.517,123.255,76.669,121.947,74.126,120.596z"/>
				<path style="fill:#353535;" d="M131.46,205.431c0,0,3.441,4.994,3.874,7.099c0.433,2.104,4.078,5.96,4.078,5.96l-1.337,2.03
					l3.045,2.005l0.786-2.574c0,0,2.969,1.637,5.231,1.171c2.262-0.466,6.899-1.914,9.309-0.326c0,0-3.852-3.265-9.196-2.055
					c0,0-3.152-0.186-4.42-1.021c0,0,0.18-2.121-2.411-1.587c0,0-2.613-2.246-3.068-4.456
					C136.897,209.466,134.632,207.52,131.46,205.431z"/>
				<path style="fill:#353535;" d="M596.452,298.233c0,0,4.548,0.68,5.938,1.529c1.39,0.849,5.412,0.826,5.412,0.826l0.432,1.791
					l2.687-0.648l-1.019-1.768c0,0,2.444-0.797,3.357-2.291c0.913-1.494,2.511-4.812,4.639-5.326c0,0-3.803,0.444-5.899,4.03
					c0,0-1.735,1.65-2.854,1.92c0,0-1.081-1.198-2.127,0.514c0,0-2.597,0.284-4.056-0.607
					C601.502,297.31,599.251,297.557,596.452,298.233z"/>
				<path style="fill:#353535;" d="M395.844,464.065c0,0,3.334,0.498,4.353,1.121c1.019,0.623,3.968,0.606,3.968,0.606l0.317,1.313
					l1.97-0.475l-0.747-1.296c0,0,1.792-0.584,2.461-1.68c0.669-1.095,1.841-3.528,3.401-3.904c0,0-2.788,0.325-4.325,2.955
					c0,0-1.272,1.209-2.092,1.408c0,0-0.793-0.878-1.56,0.376c0,0-1.904,0.209-2.974-0.445
					C399.546,463.389,397.896,463.57,395.844,464.065z"/>
				<path style="fill:#353535;" d="M531.317,274.975c0,0,3.334,0.498,4.353,1.121c1.019,0.623,3.968,0.606,3.968,0.606l0.317,1.313
					l1.97-0.475l-0.747-1.296c0,0,1.792-0.585,2.461-1.68c0.669-1.095,1.841-3.528,3.401-3.904c0,0-2.788,0.326-4.325,2.955
					c0,0-1.272,1.209-2.092,1.408c0,0-0.793-0.878-1.56,0.376c0,0-1.904,0.209-2.974-0.445
					C535.019,274.299,533.369,274.48,531.317,274.975z"/>
				<path style="fill:#353535;" d="M531.538,442.784c0,0-0.08,2.171,2.413,3.458s3.217,2.734,3.217,2.734s-0.161,2.413,1.85,2.413
					c0,0,2.131-0.684,2.815,0c0,0-0.643-0.885-1.448-1.689c0,0,2.453-2.614,3.699-3.86c1.247-1.247,2.171-2.332,2.734-3.78
					c0,0-2.493,2.252-3.941,2.815c-1.448,0.563-3.217,2.252-3.217,3.539c0,0-0.808-1.305-1.608,0.08c0,0-1.206-3.217-2.976-3.619
					C533.308,444.473,532.624,443.87,531.538,442.784z"/>
				<path style="fill:#353535;" d="M504.633,257.281c0,0,0.449,2.126,3.179,2.77c2.731,0.644,3.784,1.872,3.784,1.872
					s0.429,2.38,2.38,1.892c0,0,1.902-1.18,2.731-0.683c0,0-0.839-0.702-1.814-1.287c0,0,1.746-3.131,2.653-4.642
					c0.907-1.512,1.541-2.789,1.736-4.33c0,0-1.872,2.789-3.14,3.686c-1.268,0.897-2.575,2.965-2.263,4.213
					c0,0-1.1-1.07-1.541,0.468c0,0-1.951-2.828-3.764-2.789C506.759,258.491,505.95,258.071,504.633,257.281z"/>
				<path style="fill:#353535;" d="M682.528,237.852c0,0,0.938,2.396-1.347,4.809c-2.285,2.412-2.529,4.313-2.529,4.313
					s1.122,2.635-1.126,3.42c0,0-2.65,0.068-3.147,1.099c0,0,0.374-1.24,0.959-2.453c0,0-3.763-1.964-5.643-2.871
					c-1.88-0.907-3.338-1.76-4.533-3.158c0,0,3.667,1.544,5.505,1.608c1.838,0.064,4.476,1.261,4.978,2.7
					c0,0,0.394-1.775,1.83-0.538c0,0,0.092-4.068,1.914-5.208C681.209,240.431,681.738,239.489,682.528,237.852z"/>
				<path style="fill:#353535;" d="M193.991,164.11c0,0,0.08,2.171-2.413,3.458c-2.493,1.287-3.217,2.734-3.217,2.734
					s0.161,2.413-1.85,2.413c0,0-2.131-0.684-2.815,0c0,0,0.643-0.885,1.448-1.689c0,0-2.453-2.614-3.699-3.86
					c-1.247-1.247-2.171-2.332-2.734-3.78c0,0,2.493,2.252,3.941,2.815c1.448,0.563,3.217,2.252,3.217,3.539
					c0,0,0.808-1.305,1.608,0.08c0,0,1.206-3.217,2.976-3.619S192.905,165.195,193.991,164.11z"/>
				<path style="fill:#353535;" d="M164.425,352.907c0,0-0.991,3.002-5.044,3.493c-4.053,0.491-5.774,2.098-5.774,2.098
					s-1.004,3.372-3.746,2.352c0,0-2.56-2.013-3.839-1.427c0,0,1.326-0.88,2.831-1.569c0,0-2.02-4.809-3.088-7.141
					c-1.068-2.332-1.779-4.282-1.812-6.542c0,0,2.258,4.335,3.947,5.837c1.689,1.502,3.245,4.702,2.593,6.457
					c0,0,1.764-1.37,2.153,0.925c0,0,3.277-3.775,5.894-3.427C161.156,354.313,162.394,353.837,164.425,352.907z"/>
			</g>
			<g style="clip-path:url(#SVGID_00000152967544263918272770000008166913107084641935_);">
				<path style="fill:#FFFFFF;" d="M409.57,29.975c0,0.802-0.65,1.453-1.453,1.453c-0.802,0-1.453-0.65-1.453-1.453
					c0-0.802,0.65-1.453,1.453-1.453C408.92,28.522,409.57,29.173,409.57,29.975z"/>
				<path style="fill:#FFFFFF;" d="M507.753,27.724c0,0.802-0.65,1.453-1.453,1.453c-0.802,0-1.453-0.65-1.453-1.453
					c0-0.802,0.65-1.453,1.453-1.453C507.103,26.271,507.753,26.921,507.753,27.724z"/>
				<path style="fill:#FFFFFF;" d="M697.232,165.874c0,0.802-0.65,1.453-1.453,1.453c-0.802,0-1.453-0.65-1.453-1.453
					c0-0.802,0.651-1.453,1.453-1.453C696.581,164.421,697.232,165.072,697.232,165.874z"/>
				<path style="fill:#FFFFFF;" d="M368.035,50.814c-0.695-0.401-0.933-1.29-0.532-1.984c0.401-0.695,1.29-0.933,1.984-0.532
					c0.695,0.401,0.933,1.29,0.532,1.984C369.618,50.978,368.73,51.216,368.035,50.814z"/>
				<path style="fill:#FFFFFF;" d="M58.234,293.815c-0.695-0.401-0.933-1.29-0.532-1.985c0.401-0.695,1.29-0.933,1.984-0.532
					c0.695,0.401,0.933,1.29,0.532,1.984C59.818,293.978,58.929,294.216,58.234,293.815z"/>
				<path style="fill:#FFFFFF;" d="M311.982,147.901c-0.695-0.401-0.933-1.29-0.532-1.984c0.401-0.695,1.29-0.933,1.984-0.532
					c0.695,0.401,0.933,1.29,0.532,1.985C313.565,148.064,312.676,148.303,311.982,147.901z"/>
				<path style="fill:#FFFFFF;" d="M404.176,194.107c0,0.802-0.65,1.453-1.453,1.453c-0.802,0-1.453-0.65-1.453-1.453
					c0-0.802,0.65-1.453,1.453-1.453C403.525,192.655,404.176,193.305,404.176,194.107z"/>
				<path style="fill:#FFFFFF;" d="M236.904,272.884c0,0.802-0.65,1.453-1.453,1.453c-0.802,0-1.453-0.651-1.453-1.453
					c0-0.802,0.65-1.453,1.453-1.453C236.254,271.432,236.904,272.082,236.904,272.884z"/>
				<path style="fill:#FFFFFF;" d="M349.232,204.736c0,0.802-0.65,1.453-1.453,1.453c-0.802,0-1.453-0.65-1.453-1.453
					c0-0.802,0.651-1.453,1.453-1.453C348.581,203.283,349.232,203.933,349.232,204.736z"/>
				<path style="fill:#FFFFFF;" d="M126.674,320.866c0,0.802-0.65,1.453-1.453,1.453s-1.453-0.65-1.453-1.453
					c0-0.802,0.65-1.453,1.453-1.453S126.674,320.064,126.674,320.866z"/>
				<path style="fill:#FFFFFF;" d="M381.328,154.204c0,0.802-0.65,1.453-1.453,1.453c-0.802,0-1.453-0.65-1.453-1.453
					c0-0.802,0.65-1.453,1.453-1.453C380.678,152.751,381.328,153.401,381.328,154.204z"/>
				<path style="fill:#FFFFFF;" d="M40.231,322.319c0,0.802-0.65,1.453-1.453,1.453s-1.453-0.651-1.453-1.453
					s0.651-1.453,1.453-1.453S40.231,321.516,40.231,322.319z"/>
				<path style="fill:#FFFFFF;" d="M196.584,74.267c0,0.802-0.65,1.453-1.453,1.453c-0.802,0-1.453-0.65-1.453-1.453
					s0.65-1.453,1.453-1.453C195.934,72.814,196.584,73.465,196.584,74.267z"/>
				<path style="fill:#FFFFFF;" d="M624.68,66.287c0,0.802-0.651,1.453-1.453,1.453c-0.802,0-1.453-0.65-1.453-1.453
					c0-0.802,0.65-1.453,1.453-1.453C624.03,64.834,624.68,65.484,624.68,66.287z"/>
				<path style="fill:#FFFFFF;" d="M723.232,118.844c0,0.802-0.65,1.453-1.453,1.453c-0.802,0-1.453-0.65-1.453-1.453
					c0-0.802,0.651-1.453,1.453-1.453C722.581,117.391,723.232,118.042,723.232,118.844z"/>
				<path style="fill:#FFFFFF;" d="M326.698,26.434c0,0.802-0.65,1.453-1.453,1.453s-1.453-0.65-1.453-1.453s0.65-1.453,1.453-1.453
					S326.698,25.632,326.698,26.434z"/>
				<path style="fill:#FFFFFF;" d="M489.749,141.988c0,0.802-0.65,1.453-1.453,1.453c-0.802,0-1.453-0.65-1.453-1.453
					c0-0.802,0.65-1.453,1.453-1.453C489.099,140.536,489.749,141.186,489.749,141.988z"/>
				<path style="fill:#FFFFFF;" d="M447.684,160.098c0,0.802-0.65,1.453-1.453,1.453c-0.802,0-1.453-0.65-1.453-1.453
					c0-0.802,0.65-1.453,1.453-1.453C447.034,158.645,447.684,159.295,447.684,160.098z"/>
				<path style="fill:#FFFFFF;" d="M460.118,64.834c0,0.802-0.651,1.453-1.453,1.453c-0.802,0-1.453-0.65-1.453-1.453
					s0.65-1.453,1.453-1.453C459.467,63.381,460.118,64.032,460.118,64.834z"/>
				<path style="fill:#FFFFFF;" d="M392.442,82.242c0,0.802-0.65,1.453-1.453,1.453c-0.802,0-1.453-0.65-1.453-1.453
					s0.65-1.453,1.453-1.453C391.792,80.79,392.442,81.44,392.442,82.242z"/>
				<path style="fill:#FFFFFF;" d="M246.684,85.148c0,0.802-0.65,1.453-1.453,1.453c-0.802,0-1.453-0.65-1.453-1.453
					c0-0.802,0.65-1.453,1.453-1.453C246.034,83.695,246.684,84.345,246.684,85.148z"/>
				<path style="fill:#FFFFFF;" d="M614.565,203.283c0,0.802-0.65,1.453-1.453,1.453s-1.453-0.65-1.453-1.453
					c0-0.802,0.651-1.453,1.453-1.453S614.565,202.48,614.565,203.283z"/>
				<path style="fill:#FFFFFF;" d="M593.119,382.435c0,0.802-0.65,1.453-1.453,1.453c-0.802,0-1.453-0.65-1.453-1.453
					c0-0.802,0.65-1.453,1.453-1.453C592.469,380.982,593.119,381.632,593.119,382.435z"/>
				<path style="fill:#FFFFFF;" d="M695.779,266.064c0,0.802-0.65,1.453-1.453,1.453c-0.802,0-1.453-0.65-1.453-1.453
					c0-0.802,0.65-1.453,1.453-1.453C695.128,264.612,695.779,265.262,695.779,266.064z"/>
				<path style="fill:#FFFFFF;" d="M105.684,41.857c0,0.802-0.65,1.453-1.453,1.453c-0.802,0-1.453-0.65-1.453-1.453
					c0-0.802,0.65-1.453,1.453-1.453C105.034,40.405,105.684,41.055,105.684,41.857z"/>
				<path style="fill:#FFFFFF;" d="M274.005,60.476c0,0.802-0.65,1.453-1.453,1.453c-0.802,0-1.453-0.65-1.453-1.453
					c0-0.802,0.65-1.453,1.453-1.453C273.354,59.023,274.005,59.674,274.005,60.476z"/>
				<path style="fill:#FFFFFF;" d="M282.616,24.981c0,0.802-0.65,1.453-1.453,1.453c-0.802,0-1.453-0.65-1.453-1.453
					c0-0.802,0.65-1.453,1.453-1.453C281.965,23.528,282.616,24.179,282.616,24.981z"/>
				<path style="fill:#FFFFFF;" d="M117.684,26.434c0,0.802-0.65,1.453-1.453,1.453c-0.802,0-1.453-0.65-1.453-1.453
					s0.65-1.453,1.453-1.453C117.034,24.981,117.684,25.632,117.684,26.434z"/>
				<path style="fill:#FFFFFF;" d="M323.793,83.695c0,0.802-0.651,1.453-1.453,1.453c-0.802,0-1.453-0.65-1.453-1.453
					c0-0.802,0.65-1.453,1.453-1.453C323.142,82.242,323.793,82.893,323.793,83.695z"/>
				<path style="fill:#FFFFFF;" d="M660.376,29.975c0,0.802-0.65,1.453-1.453,1.453c-0.802,0-1.453-0.65-1.453-1.453
					c0-0.802,0.65-1.453,1.453-1.453C659.725,28.522,660.376,29.173,660.376,29.975z"/>
				<path style="fill:#FFFFFF;" d="M402.723,226.823c0,0.802-0.651,1.453-1.453,1.453c-0.802,0-1.453-0.65-1.453-1.453
					c0-0.802,0.65-1.453,1.453-1.453C402.072,225.371,402.723,226.021,402.723,226.823z"/>
				<path style="fill:#FFFFFF;" d="M574.746,32.881c0,0.802-0.65,1.453-1.453,1.453c-0.802,0-1.453-0.65-1.453-1.453
					c0-0.802,0.65-1.453,1.453-1.453C574.095,31.428,574.746,32.078,574.746,32.881z"/>
			</g>
		</g>
	</g>
</g>
</svg>
