<?xml version="1.0" encoding="UTF-8" standalone="no"?>
<!-- Created with Inkscape (http://www.inkscape.org/) -->

<svg
   version="1.1"
   id="svg2"
   width="2829.3333"
   height="2829.3333"
   viewBox="0 0 2829.3333 2829.3333"
   xmlns="http://www.w3.org/2000/svg"
   xmlns:svg="http://www.w3.org/2000/svg">
  <defs
     id="defs6" />
  <g
     id="g8"
     transform="matrix(1.3333333,0,0,-1.3333333,0,2829.3333)">
    <g
       id="g10"
       transform="matrix(0.09904567,0,0,0.09627806,401.96711,42.099332)">
      <path
         d="m 17341.2,14637.2 c -85.8,345.7 -420.6,534.3 -726.4,679 -563.3,266.4 -1141.5,502.4 -1728.7,716.4 -400.6,146.2 -804.7,282.9 -1211.9,412.1 -344.2,487.9 -697.9,968.4 -1068.1,1433.8 -351.7,443.1 -718.4,872.6 -1105.6,1283.2 -209.5,222.5 -472.4,458.5 -790.7,481 -355.3,24.9 -637.6,-234.5 -869.62,-481 -8.48,-9 -16.46,-17.4 -24.95,-26.4 -708.94,-755.4 -1350.02,-1575.1 -1957.69,-2421.2 -1112.55,-344.2 -2208.65,-732.9 -3255.34,-1227.8 -27.94,-13 -55.88,-26.4 -83.82,-40.9 -251.95,-126.7 -510.38,-296.4 -618.14,-562.3 -133.71,-330.3 26.44,-679.5 188.58,-976.3 503.4,-919.5 1091.11,-1792.6 1715.73,-2641.7 -16.46,-1164.5 13.97,-2327.4 161.65,-3475.4 38.91,-303.3 112.75,-649.1 356.71,-854.1 272.9,-229 654.06,-185.1 986.33,-122.2 702.51,132.6 1396.43,309.2 2084.14,513.2 -37.51,-81.1 -68.2,-164 -91.12,-246.3 -26.19,-94 -42.11,-186.7 -46.32,-275.5 -13.56,-260.1 72.04,-485.6 291.91,-595.1 160.46,-79.5 308.28,-28.5 425.71,86.1 22.56,22 116.04,130.4 190.64,232 -59.8,-185.7 -92.4,-381.1 -102.2,-571.9 -13.8,-268.9 25.1,-538.4 110.4,-793.4 98.4,-294.3 260.5,-575.7 274.5,-891.9 21.3,-482.9 -308.2,-888.8 -402.4,-1348.6 -92.87,-452.9 46.9,-1083.7 475.9,-1325.1 47,-26.4 108.6,17.5 92.7,71.3 -73.2,248.7 -242,447.6 -302.1,703 -60.7,258.4 -10.8,501 75.6,746.6 133.9,380.8 346.4,735.3 326.8,1152.8 -24.2,513.2 -361.4,943.7 -395.4,1458.2 -17.7,268.7 26.1,517.2 106.4,755.6 97,-115.9 211.1,-211.7 356.1,-244.3 235.8,-52.9 487.5,95 599.3,309.2 59.4,113.7 88.4,233.9 92.1,355.6 4.6,127.5 -17.9,256.3 -60.5,380.3 756.9,-231.1 1521.4,-430.7 2296.3,-577.1 300.3,-56.4 651.5,-92.8 921.9,75.8 108.3,67.4 187.1,158.7 246.5,263.9 105.8,188.6 147.2,421.1 174.6,636.6 133.7,1039.8 171.6,2091.4 165.2,3145.6 579.2,773.3 1131,1565.1 1619.9,2392.8 100.3,169.6 197.6,341.2 292.4,513.8 146.6,268.5 289.8,591.2 213,900.6"
         style="fill:#f9e048;fill-opacity:1;fill-rule:nonzero;stroke:none"
         id="path12" />
      <path
         d="m 12425.5,7609.6 c -1491.7,443 -2958.01,1019.8 -4252.65,1882.9 -1295.16,863.1 -2416.69,2028.5 -3060.28,3445.4 -357.71,787.8 -556.27,1643.9 -594.19,2507.5 -251.95,-126.7 -510.38,-296.4 -618.14,-562.3 -133.71,-330.3 26.44,-679.5 188.58,-976.3 503.4,-919.5 1091.11,-1792.6 1715.73,-2641.7 -16.46,-1164.5 13.97,-2327.4 161.65,-3475.4 38.91,-303.3 112.75,-649.1 356.71,-854.1 272.9,-229 654.06,-185.1 986.33,-122.2 702.51,132.6 1396.43,309.2 2084.14,513.2 -37.51,-81.1 -68.2,-164 -91.12,-246.3 -26.19,-94 -42.11,-186.7 -46.32,-275.5 305.01,193.2 656.34,312 1016.06,341 411.7,32.7 832.2,-52.4 1199.9,-240.9 4.6,127.5 -17.9,256.3 -60.5,380.3 756.9,-231.1 1521.4,-430.7 2296.3,-577.1 300.3,-56.4 651.5,-92.8 921.9,75.8 108.3,67.4 187.1,158.7 246.5,263.9 -828.2,121.3 -1647.9,323.3 -2450.6,561.8"
         style="fill:#fcd039;fill-opacity:1;fill-rule:nonzero;stroke:none"
         id="path14" />
      <path
         d="m 7834.96,14280 c -560.08,0 -1014.11,-482.4 -1014.11,-1077.5 0,-7.7 0.09,-15.5 0.25,-23.2 -53.24,15.1 -109.72,23.2 -168.25,23.2 -318.91,0 -577.42,-241.2 -577.42,-538.7 0,-297.5 258.51,-538.7 577.42,-538.7 216.68,0 405.46,111.3 504.23,276.1 179.63,-171.7 417.27,-276.1 677.88,-276.1 560.08,0 1014.11,482.4 1014.11,1077.4 0,595.1 -454.03,1077.5 -1014.11,1077.5"
         style="fill:#fbf098;fill-opacity:1;fill-rule:nonzero;stroke:none"
         id="path16" />
      <path
         d="m 15001.9,13202.5 c -58.5,0 -115,-8.1 -168.2,-23.2 0.1,7.7 0.2,15.5 0.2,23.2 0,595.1 -454,1077.5 -1014.1,1077.5 -560.1,0 -1014.1,-482.4 -1014.1,-1077.5 0,-595 454,-1077.4 1014.1,-1077.4 260.6,0 498.2,104.4 677.9,276.1 98.8,-164.8 287.5,-276.1 504.2,-276.1 318.9,0 577.4,241.2 577.4,538.7 0,297.5 -258.5,538.7 -577.4,538.7"
         style="fill:#fbf098;fill-opacity:1;fill-rule:nonzero;stroke:none"
         id="path18" />
      <path
         d="m 7834.96,14280 c -560.08,0 -1014.11,-482.4 -1014.11,-1077.5 0,-7.7 0.09,-15.5 0.25,-23.2 6.15,-308.9 134.61,-585.7 335.98,-778.1 179.63,-171.7 417.27,-276.1 677.88,-276.1 560.08,0 1014.11,482.4 1014.11,1077.4 0,595.1 -454.03,1077.5 -1014.11,1077.5"
         style="fill:#2c1b2e;fill-opacity:1;fill-rule:nonzero;stroke:none"
         id="path20" />
      <path
         d="m 13819.8,14280 c -560.1,0 -1014.1,-482.4 -1014.1,-1077.5 0,-595 454,-1077.4 1014.1,-1077.4 260.6,0 498.2,104.4 677.9,276.1 201.3,192.4 329.8,469.2 336,778.1 0.1,7.7 0.2,15.5 0.2,23.2 0,595.1 -454,1077.5 -1014.1,1077.5"
         style="fill:#2c1b2e;fill-opacity:1;fill-rule:nonzero;stroke:none"
         id="path22" />
      <path
         d="m 11564.5,13492.1 c -102.9,-299.7 -401.4,-526.8 -720.1,-535.5 -326.6,-9 -633.9,242.3 -754.1,535.5 -17.2,41.8 -55.1,70.5 -102.26,58 -39.42,-10.3 -75.05,-60.7 -58.04,-102.2 148,-360.7 508.3,-668.7 914.4,-657.5 395.7,10.8 752.9,286.4 880.4,657.5 34.8,101.4 -125.7,144.9 -160.3,44.2"
         style="fill:#2c1b2e;fill-opacity:1;fill-rule:nonzero;stroke:none"
         id="path24" />
      <path
         d="m 10164.2,6527.8 c -59.8,-185.7 -92.4,-381.1 -102.2,-571.9 -13.8,-268.9 25.1,-538.4 110.4,-793.4 98.4,-294.3 260.5,-575.7 274.5,-891.9 21.3,-482.9 -308.2,-888.8 -402.4,-1348.6 -92.87,-452.9 46.9,-1083.7 475.9,-1325.1 47,-26.4 108.6,17.5 92.7,71.3 -73.2,248.7 -242,447.6 -302.1,703 -60.7,258.4 -10.8,501 75.6,746.6 133.9,380.8 346.4,735.3 326.8,1152.8 -24.2,513.2 -361.4,943.7 -395.4,1458.2 -17.7,268.7 26.1,517.2 106.4,755.6 -60.2,71.9 -113.8,151.5 -164.1,228.7 14.4,-22.2 -34.4,-101.5 -96.1,-185.3"
         style="fill:#f8a136;fill-opacity:1;fill-rule:nonzero;stroke:none"
         id="path26" />
      <path
         d="m 9393.38,7326.6 c -37.51,-81.1 -68.2,-164 -91.12,-246.3 -26.19,-94 -42.11,-186.7 -46.32,-275.5 305.01,193.2 656.34,312 1016.06,341 411.7,32.7 832.2,-52.4 1199.9,-240.9 4.6,127.5 -17.9,256.3 -60.5,380.3 -354.7,108.3 -707.7,223.5 -1059.3,343.4 -318.4,-105.6 -637.89,-206.8 -958.72,-302"
         style="fill:#fbc22e;fill-opacity:1;fill-rule:nonzero;stroke:none"
         id="path28" />
      <path
         d="m 10145.4,17085.5 c 477.7,181.4 856.9,939.6 319.1,1275.6 -422.7,264 -1232.61,-109.7 -1289.68,-593.5 -60.28,-510.9 525.6,-850.1 970.58,-682.1"
         style="fill:#fbee86;fill-opacity:1;fill-rule:nonzero;stroke:none"
         id="path30" />
      <path
         d="m 8682.39,16716.2 c -368.25,35.9 -783.35,-480.1 -661.48,-820.7 128.68,-359.6 630.3,-391.6 870.65,-132.9 257.74,278.4 259.46,907.9 -209.17,953.6"
         style="fill:#fbee86;fill-opacity:1;fill-rule:nonzero;stroke:none"
         id="path32" />
      <path
         d="m 10063.9,16472.1 c 0,135.8 -110.11,245.9 -245.93,245.9 -135.82,0 -245.92,-110.1 -245.92,-245.9 0,-135.9 110.1,-246 245.92,-246 135.82,0 245.93,110.1 245.93,246"
         style="fill:#fbee86;fill-opacity:1;fill-rule:nonzero;stroke:none"
         id="path34" />
      <path
         d="m 13889.1,8680.5 c -412.1,-42.9 -736,-535.9 -489.6,-910.3 233.4,-354.5 1010.2,-329.3 1236.3,41.3 287.7,471.7 -303.7,914.2 -746.7,869"
         style="fill:#fcd039;fill-opacity:1;fill-rule:nonzero;stroke:none"
         id="path36" />
      <path
         d="m 12396,9221.3 c -288.3,107.6 -666.5,-113.2 -626.3,-443.5 38.1,-312.9 562.9,-552.7 835.7,-381 347.2,218.6 100,708.2 -209.4,824.5"
         style="fill:#fcd039;fill-opacity:1;fill-rule:nonzero;stroke:none"
         id="path38" />
      <path
         d="m 13490.6,8838.9 c 105.8,53 148.6,181.8 95.5,287.6 -53,105.8 -181.8,148.5 -287.6,95.5 -105.7,-53.1 -148.5,-181.8 -95.5,-287.6 53.1,-105.8 181.8,-148.6 287.6,-95.5"
         style="fill:#fcd039;fill-opacity:1;fill-rule:nonzero;stroke:none"
         id="path40" />
      <path
         d="m 7863.57,13363.3 c -258.13,0 -467.39,-209.3 -467.39,-467.4 0,-258.2 209.26,-467.4 467.39,-467.4 258.13,0 467.39,209.2 467.39,467.4 0,258.1 -209.26,467.4 -467.39,467.4"
         style="fill:#ffffff;fill-opacity:1;fill-rule:nonzero;stroke:none"
         id="path42" />
      <path
         d="m 8350.36,13766.9 c -77.42,0 -140.17,-62.7 -140.17,-140.2 0,-77.4 62.75,-140.1 140.17,-140.1 77.4,0 140.16,62.7 140.16,140.1 0,77.5 -62.76,140.2 -140.16,140.2"
         style="fill:#ffffff;fill-opacity:1;fill-rule:nonzero;stroke:none"
         id="path44" />
      <path
         d="m 13848.4,13363.3 c -258.1,0 -467.4,-209.3 -467.4,-467.4 0,-258.2 209.3,-467.4 467.4,-467.4 258.1,0 467.4,209.2 467.4,467.4 0,258.1 -209.3,467.4 -467.4,467.4"
         style="fill:#ffffff;fill-opacity:1;fill-rule:nonzero;stroke:none"
         id="path46" />
      <path
         d="m 14335.2,13766.9 c -77.4,0 -140.2,-62.7 -140.2,-140.2 0,-77.4 62.8,-140.1 140.2,-140.1 77.4,0 140.2,62.7 140.2,140.1 0,77.5 -62.8,140.2 -140.2,140.2"
         style="fill:#ffffff;fill-opacity:1;fill-rule:nonzero;stroke:none"
         id="path48" />
      <path
         d="m 11023.8,12529.1 c -102.3,39.8 -225,51.6 -333.5,20.5 -145.5,-41.6 -274.7,-168.3 -50,-205.8 160,-26.7 735.8,48.4 383.5,185.3"
         style="fill:#fbc22e;fill-opacity:1;fill-rule:nonzero;stroke:none"
         id="path50" />
      <path
         d="m 10744.1,13942.4 c 71.2,-17.4 327.6,31.5 170.7,120.7 -45.5,25.9 -100.1,33.6 -148.5,13.4 -64.8,-27.1 -122.3,-109.7 -22.2,-134.1"
         style="fill:#fbf098;fill-opacity:1;fill-rule:nonzero;stroke:none"
         id="path52" />
      <path
         d="m 11500.5,19161.7 c -209.5,222.5 -472.4,458.5 -790.7,481 -355.3,24.9 -637.6,-234.5 -869.62,-481 -8.48,-9 -16.46,-17.4 -24.95,-26.4 700.97,-202.1 1712.77,-589.7 2790.87,-1256.8 -351.7,443.1 -718.4,872.6 -1105.6,1283.2"
         style="fill:#fcd039;fill-opacity:1;fill-rule:nonzero;stroke:none"
         id="path54" />
      <path
         d="m 16614.8,15316.2 c -563.3,266.4 -1141.5,502.4 -1728.7,716.4 726.4,-762.3 1402.4,-1688.3 1949.7,-2809.8 100.3,169.6 197.6,341.2 292.4,513.8 146.6,268.5 289.8,591.2 213,900.6 -85.8,345.7 -420.6,534.3 -726.4,679"
         style="fill:#fcd039;fill-opacity:1;fill-rule:nonzero;stroke:none"
         id="path56" />
    </g>
  </g>
</svg>
