<?xml version="1.0" encoding="utf-8"?>
<!-- Generator: Adobe Illustrator 27.5.0, SVG Export Plug-In . SVG Version: 6.00 Build 0)  -->
<svg version="1.1" xmlns="http://www.w3.org/2000/svg" xmlns:xlink="http://www.w3.org/1999/xlink" x="0px" y="0px"
	 viewBox="0 0 857 1200" style="enable-background:new 0 0 857 1200;" xml:space="preserve">
<g id="Background">
	
		<rect x="-171.5" y="171.5" transform="matrix(6.123234e-17 -1 1 6.123234e-17 -171.5 1028.5)" style="fill:#F3FFFD;" width="1200" height="857"/>
</g>
<g id="Graphic_elements">
	<g>
		<defs>
			
				<rect id="SVGID_1_" x="-171.5" y="171.5" transform="matrix(-1.836970e-16 1 -1 -1.836970e-16 1028.5 171.5)" width="1200" height="857"/>
		</defs>
		<clipPath id="SVGID_00000129925984071407527840000008742381636255349668_">
			<use xlink:href="#SVGID_1_"  style="overflow:visible;"/>
		</clipPath>
		<g style="clip-path:url(#SVGID_00000129925984071407527840000008742381636255349668_);">
			<polygon style="fill:#CFF7F1;" points="689.742,795.928 895.533,753.735 870.486,1220.17 			"/>
			<path style="fill:#E2F7F4;" d="M914.269,285.858c0.099,3.746,0.217,7.491,0.343,11.237
				c-0.868,74.018-1.875,148.034-2.934,222.049l-21.963,4.547L571.704-23.778l338.84-13.001
				c0.792,69.447,2.347,138.886,4.38,208.308C913.587,209.624,913.267,247.753,914.269,285.858z"/>
			<g>
				<path style="fill:#66B3A1;" d="M900.636-67.809c0.42,0.028,0.841,0.058,1.262,0.087l8.475,14.594
					c0.007,0.707,0.013,1.414,0.02,2.121L900.636-67.809z"/>
				<path style="fill:#66B4A2;" d="M910.575-34.186l-18.912-32.565l0.893-0.519l17.995,30.986
					C910.559-35.584,910.567-34.885,910.575-34.186z"/>
				<path style="fill:#67B5A3;" d="M910.784-17.317l-27.69-47.68l0.881-0.511l26.779,46.112
					C910.764-18.703,910.775-18.01,910.784-17.317z"/>
				<path style="fill:#68B6A4;" d="M911.023-0.398l-36.496-62.843l0.867-0.503l35.6,61.301
					C911.004-1.762,911.012-1.08,911.023-0.398z"/>
				<path style="fill:#68B6A5;" d="M911.298,16.581l-45.338-78.069l0.854-0.496l44.452,76.543
					C911.276,15.233,911.286,15.907,911.298,16.581z"/>
				<path style="fill:#68B7A6;" d="M911.597,33.606l-54.206-93.339l0.84-0.488l53.33,91.829
					C911.572,32.273,911.585,32.94,911.597,33.606z"/>
				<path style="fill:#69B8A7;" d="M911.921,50.672L848.822-57.98l0.827-0.48l62.231,107.158
					C911.894,49.356,911.908,50.014,911.921,50.672z"/>
				<path style="fill:#69B9A8;" d="M912.273,67.784L840.255-56.225l0.814-0.473L912.233,65.84
					C912.246,66.488,912.258,67.136,912.273,67.784z"/>
				<path style="fill:#6ABAA9;" d="M912.655,84.951L831.687-54.471l0.801-0.465l80.125,137.969
					C912.627,83.672,912.641,84.312,912.655,84.951z"/>
				<path style="fill:#6ABBAA;" d="M913.061,102.156L823.119-52.717l0.787-0.457l89.109,153.439
					C913.03,100.895,913.046,101.526,913.061,102.156z"/>
				<path style="fill:#6BBCAB;" d="M913.489,119.401L814.551-50.963l0.773-0.449l98.116,168.948
					C913.456,118.158,913.473,118.779,913.489,119.401z"/>
				<path style="fill:#6CBDAC;" d="M913.94,136.684L805.984-49.209l0.761-0.442L913.892,134.85
					C913.908,135.461,913.924,136.073,913.94,136.684z"/>
				<path style="fill:#6CBEAD;" d="M908.382,746.889l-3.78,5.146l3.587,8.42c-0.01,0.711-0.021,1.423-0.03,2.134l-4.449-10.442
					l-0.097-0.227l4.789-6.52C908.397,745.897,908.389,746.393,908.382,746.889z"/>
				<path style="fill:#6CBEAD;" d="M914.42,154.018L797.414-47.455l0.748-0.434l116.207,200.1
					C914.386,152.814,914.403,153.416,914.42,154.018z"/>
				<path style="fill:#6DBFAE;" d="M908.526,736.764l-12.507,17.027l11.871,27.863c-0.01,0.699-0.02,1.397-0.03,2.096
					l-12.717-29.848l-0.095-0.223l13.498-18.377C908.54,735.79,908.533,736.277,908.526,736.764z"/>
				<path style="fill:#6DBFAE;" d="M914.919,171.386L788.847-45.7l0.734-0.427l125.285,215.732
					C914.884,170.199,914.902,170.793,914.919,171.386z"/>
				<path style="fill:#6DC0AF;" d="M908.67,726.641l-21.234,28.907l20.16,47.32c-0.009,0.687-0.018,1.375-0.028,2.062
					l-20.993-49.274l-0.093-0.219l22.208-30.233C908.683,725.684,908.676,726.163,908.67,726.641z"/>
				<path style="fill:#6DC0AF;" d="M914.435,187.06L780.279-43.946L781-44.365l133.481,229.843
					C914.466,186.005,914.449,186.533,914.435,187.06z"/>
				<path style="fill:#6EC1B0;" d="M908.814,716.516l-29.962,40.789l28.457,66.793c-0.009,0.674-0.018,1.348-0.027,2.022
					l-29.273-68.709l-0.092-0.215l30.918-42.091C908.827,715.576,908.82,716.046,908.814,716.516z"/>
				<path style="fill:#6EC1B0;" d="M914.056,202.916L771.711-42.192l0.707-0.411l141.667,243.94
					C914.074,201.863,914.067,202.389,914.056,202.916z"/>
				<path style="fill:#6EC2B1;" d="M908.961,706.388l-38.692,52.675l36.752,86.266c-0.009,0.661-0.018,1.322-0.027,1.984
					l-37.553-88.145l-0.09-0.21l39.63-53.951C908.974,705.466,908.967,705.927,908.961,706.388z"/>
				<path style="fill:#6EC2B1;" d="M913.811,219L763.144-40.438l0.694-0.403l149.99,258.271
					C913.821,217.953,913.817,218.476,913.811,219z"/>
				<path style="fill:#6EC2B2;" d="M909.108,696.259l-47.423,64.561l45.051,105.743c-0.008,0.65-0.016,1.301-0.025,1.951
					l-45.839-107.592l-0.088-0.207l48.343-65.813C909.121,695.354,909.115,695.807,909.108,696.259z"/>
				<path style="fill:#6EC2B2;" d="M913.692,235.305L754.574-38.683l0.682-0.396l158.443,272.827
					C913.697,234.268,913.693,234.786,913.692,235.305z"/>
				<path style="fill:#6FC3B3;" d="M909.255,686.131l-56.153,76.446l53.365,125.259c-0.008,0.638-0.016,1.275-0.024,1.913
					l-54.138-127.071l-0.086-0.203l57.056-77.674C909.268,685.244,909.261,685.688,909.255,686.131z"/>
				<path style="fill:#6FC3B3;" d="M913.722,251.862L746.007-36.929l0.668-0.388l167.033,287.618
					C913.711,250.822,913.718,251.342,913.722,251.862z"/>
				<path style="fill:#70C4B4;" d="M909.403,676.003l-64.884,88.331l61.679,144.773c-0.008,0.626-0.016,1.252-0.024,1.878
					l-62.437-146.553l-0.084-0.199l65.768-89.535C909.415,675.133,909.408,675.568,909.403,676.003z"/>
				<path style="fill:#70C4B4;" d="M913.916,268.705L737.439-35.175l0.654-0.38l175.799,302.712
					C913.9,267.673,913.907,268.189,913.916,268.705z"/>
				<path style="fill:#70C5B5;" d="M909.549,665.874l-73.615,100.217l69.994,164.291c-0.007,0.612-0.016,1.224-0.023,1.836
					l-70.819-166.225l74.481-101.396C909.562,665.022,909.556,665.448,909.549,665.874z"/>
				<path style="fill:#70C5B5;" d="M914.268,285.817L728.871-33.421l0.641-0.373l184.721,318.075
					C914.246,284.794,914.255,285.306,914.268,285.817z"/>
				<path style="fill:#71C6B6;" d="M909.696,655.746l-82.345,112.102l78.326,183.847c-0.007,0.601-0.013,1.202-0.021,1.803
					l-79.054-185.556l-0.081-0.19l83.193-113.257C909.709,654.912,909.702,655.329,909.696,655.746z"/>
				<path style="fill:#71C6B6;" d="M914.541,302.798L720.303-31.667l0.628-0.365l193.628,333.413
					C914.553,301.854,914.547,302.326,914.541,302.798z"/>
				<path style="fill:#71C7B7;" d="M909.844,645.617l-91.076,123.988l86.666,203.421c-0.007,0.588-0.014,1.177-0.02,1.765
					l-87.379-205.094l-0.079-0.186l91.906-125.12C909.856,644.8,909.85,645.209,909.844,645.617z"/>
				<path style="fill:#71C7B7;" d="M914.346,318.968L711.735-29.912l0.615-0.357l202.013,347.85
					C914.357,318.043,914.351,318.506,914.346,318.968z"/>
				<path style="fill:#72C8B8;" d="M909.991,635.488l-99.807,135.874l95.004,222.995c-0.006,0.576-0.013,1.152-0.019,1.729
					l-95.702-224.633l-0.077-0.182l100.619-136.981C910.003,634.689,909.997,635.088,909.991,635.488z"/>
				<path style="fill:#72C8B8;" d="M914.15,335.139L703.167-28.158l0.602-0.35l210.398,362.289
					C914.161,334.234,914.156,334.686,914.15,335.139z"/>
				<path style="fill:#72C9B9;" d="M910.139,625.358L801.601,773.119l103.352,242.589c-0.006,0.565-0.011,1.129-0.017,1.694
					L800.9,773.207l-0.076-0.178l109.333-148.844C910.151,624.576,910.145,624.967,910.139,625.358z"/>
				<path style="fill:#72C9B9;" d="M913.955,351.309L694.599-26.404l0.588-0.342l218.784,376.729
					C913.965,350.425,913.96,350.867,913.955,351.309z"/>
				<path style="fill:#73CABA;" d="M913.748,367.459L686.031-24.65l0.574-0.334l227.159,391.151
					C913.759,366.598,913.753,367.028,913.748,367.459z"/>
				<path style="fill:#73CABA;" d="M910.287,615.229l-117.27,159.647l111.722,262.233c-0.005,0.552-0.011,1.105-0.017,1.657
					L792.332,774.962l-0.074-0.174l118.046-160.705C910.298,614.465,910.293,614.847,910.287,615.229z"/>
				<path style="fill:#74CBBB;" d="M910.435,605.099l-126,171.534l120.091,281.877c-0.005,0.54-0.011,1.079-0.016,1.619
					L783.765,776.718l-0.072-0.171L910.451,603.98C910.446,604.353,910.441,604.726,910.435,605.099z"/>
				<path style="fill:#74CBBB;" d="M913.536,383.604l-236.074-406.5l0.563-0.326l235.528,405.561
					C913.547,382.76,913.541,383.182,913.536,383.604z"/>
				<path style="fill:#74CCBC;" d="M910.583,594.97L775.851,778.39l128.461,301.523c-0.005,0.527-0.011,1.055-0.016,1.583
					l-129.1-303.023l-0.07-0.166l135.473-184.429C910.593,594.242,910.588,594.606,910.583,594.97z"/>
				<path style="fill:#74CCBC;" d="M913.324,399.747L668.895-21.142l0.549-0.318L913.34,398.51
					C913.335,398.922,913.329,399.335,913.324,399.747z"/>
				<path style="fill:#75CDBD;" d="M913.111,415.889L660.327-19.387l0.535-0.311l252.265,434.382
					C913.122,415.086,913.117,415.488,913.111,415.889z"/>
				<path style="fill:#75CDBD;" d="M910.731,584.84L767.268,780.147L904.13,1101.39c-0.004,0.516-0.008,1.033-0.013,1.549
					L766.629,780.227l-0.068-0.162l144.185-196.292C910.741,584.129,910.736,584.484,910.731,584.84z"/>
				<path style="fill:#75CEBE;" d="M910.879,574.711L758.684,781.904l145.269,340.974c-0.004,0.503-0.008,1.007-0.012,1.51
					L758.062,781.982l-0.067-0.158L910.894,573.67L910.879,574.711z"/>
				<path style="fill:#75CEBE;" d="M912.897,432.027L651.759-17.633l0.521-0.303l260.633,448.79
					C912.908,431.245,912.903,431.636,912.897,432.027z"/>
				<path style="fill:#76CFBF;" d="M911.025,564.584L750.101,783.661l153.674,360.703c-0.004,0.491-0.008,0.982-0.012,1.474
					L749.494,783.737l-0.065-0.154l161.61-220.011C911.034,563.91,911.029,564.247,911.025,564.584z"/>
				<path style="fill:#76CFBF;" d="M912.673,448.148L643.191-15.878l0.509-0.295l268.99,463.178
					C912.684,447.386,912.678,447.767,912.673,448.148z"/>
				<path style="fill:#76CFC0;" d="M912.449,464.27L634.622-14.125l0.496-0.288l277.346,477.569
					C912.46,463.528,912.454,463.899,912.449,464.27z"/>
				<path style="fill:#76CFC0;" d="M911.17,554.457L741.517,785.418l162.102,380.485c-0.003,0.48-0.005,0.961-0.009,1.441
					L740.926,785.493l-0.064-0.15L911.184,553.47C911.179,553.799,911.175,554.128,911.17,554.457z"/>
				<path style="fill:#77D0C1;" d="M911.316,544.332L732.934,787.175l170.55,400.314c-0.003,0.467-0.006,0.934-0.009,1.402
					L732.359,787.247l-0.062-0.146L911.329,543.37C911.325,543.691,911.32,544.011,911.316,544.332z"/>
				<path style="fill:#77D0C1;" d="M912.225,480.393L626.055-12.37l0.482-0.28L912.24,479.308
					C912.235,479.67,912.23,480.031,912.225,480.393z"/>
				<path style="fill:#77D1C2;" d="M912.001,496.514L617.487-10.616l0.469-0.273l294.06,506.349
					C912.011,495.812,912.006,496.163,912.001,496.514z"/>
				<path style="fill:#77D1C2;" d="M911.461,534.204l-187.11,254.729l178.998,420.143c-0.003,0.455-0.006,0.909-0.008,1.364
					L723.792,789.003l-0.06-0.143l187.743-255.59C911.47,533.581,911.466,533.893,911.461,534.204z"/>
				<path style="fill:#78D2C3;" d="M911.607,524.078l-195.84,266.61l187.452,439.988c-0.002,0.443-0.003,0.887-0.005,1.33
					l-187.99-441.25l-0.058-0.138L911.62,523.17C911.616,523.473,911.611,523.776,911.607,524.078z"/>
				<path style="fill:#78D2C3;" d="M911.772,512.627L608.919-8.862l0.455-0.265l302.412,520.73
					C911.781,511.945,911.777,512.286,911.772,512.627z"/>
				<path style="fill:#78D3C4;" d="M907.169,520.191L707.184,792.446l195.949,459.933c-0.002,0.431-0.003,0.861-0.005,1.292
					L706.656,792.513l-0.057-0.134l199.958-272.221L600.352-7.108l0.442-0.257l306.29,527.411L907.169,520.191z"/>
				<path style="fill:#79D4C5;" d="M896.457,1259.877l-198.369-465.61l-0.055-0.13l199.96-272.221L591.782-5.354l0.43-0.249
					l306.292,527.411l0.081,0.141L698.6,794.203l198.396,465.671C896.816,1259.875,896.636,1259.876,896.457,1259.877z"/>
				<path style="fill:#79D5C6;" d="M887.173,1259.952L689.522,796.023l-0.055-0.126l199.961-272.221L583.215-3.6l0.416-0.241
					L889.923,523.57l0.079,0.136L690.018,795.96l197.674,463.984C887.519,1259.946,887.346,1259.95,887.173,1259.952z"/>
			</g>
			<path style="fill:#E2F7F4;" d="M-34.885,68.606L2.374-39.525c12.718-0.32,25.434-0.669,38.149-1.064
				c43.409-0.372,86.816-0.94,130.22-1.685L210.381,0c0,0-200.202,277.967-204.31,277.155
				C1.963,276.343-34.885,68.606-34.885,68.606z"/>
			<path style="fill:#E2F7F4;" d="M-66.414,1233.376c-0.958-43.804-0.411-87.648-0.337-131.456
				c0.134-79.47,0.345-158.942,0.344-238.413c0.894-44.529,1.524-89.053,2.023-133.579l258.007-35.647L-23.21,953.006
				l-11.089,280.231C-45.004,1233.258-55.709,1233.308-66.414,1233.376z"/>
			<g>
				<path style="fill:#6ABAA9;" d="M-64.466,736.878l6.681-7.943l-6.394-18.248c0.009-0.906,0.019-1.812,0.028-2.718l7.326,20.91
					l0.088,0.249l-7.747,9.211C-64.478,737.851-64.471,737.365-64.466,736.878z"/>
				<path style="fill:#6ABBAA;" d="M-64.576,746.141l15.472-18.395l-14.817-42.289c0.009-0.894,0.017-1.788,0.025-2.682
					l15.737,44.915l0.086,0.245l-16.52,19.642C-64.588,747.097-64.582,746.619-64.576,746.141z"/>
				<path style="fill:#6BBCAB;" d="M-64.686,755.403l24.263-28.847l-23.259-66.385c0.008-0.879,0.017-1.757,0.025-2.636
					l24.163,68.966l0.085,0.241l-25.293,30.072C-64.697,756.344-64.692,755.873-64.686,755.403z"/>
				<path style="fill:#6CBDAC;" d="M-64.799,764.669l33.057-39.303l-31.712-90.509c0.008-0.865,0.016-1.73,0.023-2.595l32.602,93.05
					l0.083,0.237l-34.072,40.511C-64.813,765.596-64.805,765.133-64.799,764.669z"/>
				<path style="fill:#6CBEAD;" d="M-64.928,773.953l41.865-49.776L-63.23,609.536c0.008-0.85,0.015-1.701,0.023-2.551
					l41.041,117.138l0.081,0.233l-42.862,50.962C-64.941,774.863-64.934,774.408-64.928,773.953z"/>
				<path style="fill:#6DBFAE;" d="M-65.057,783.237l50.674-60.249l-48.623-138.776c0.005-0.569,0.01-1.138,0.015-1.708
					c0.002-0.265,0.005-0.53,0.007-0.795l49.481,141.227l0.08,0.228l-51.654,61.414C-65.069,784.131-65.063,783.684-65.057,783.237z
					"/>
				<path style="fill:#6DC0AF;" d="M-65.185,792.522l59.483-70.723l-57.078-162.908c0.007-0.82,0.015-1.639,0.022-2.459
					l57.921,165.315l0.078,0.224l-60.445,71.866C-65.197,793.399-65.192,792.961-65.185,792.522z"/>
				<path style="fill:#6EC1B0;" d="M-65.32,801.813l68.298-81.204l-65.532-187.039c0.007-0.804,0.014-1.607,0.021-2.411
					L3.904,720.779l-69.245,82.33C-65.335,802.677-65.327,802.245-65.32,801.813z"/>
				<path style="fill:#6EC2B1;" d="M-65.472,811.123l77.129-91.704l-73.987-211.17c0.007-0.79,0.013-1.581,0.02-2.371L12.492,719.37
					l0.076,0.216l-78.06,92.81C-65.485,811.972-65.478,811.548-65.472,811.123z"/>
				<path style="fill:#6EC2B2;" d="M-65.623,820.435l85.961-102.205l-82.451-235.326c0.007-0.776,0.013-1.552,0.02-2.329
					l83.249,237.606l0.074,0.212l-86.874,103.29C-65.637,821.268-65.63,820.852-65.623,820.435z"/>
				<path style="fill:#6FC3B3;" d="M-65.775,829.747l94.794-112.706l-90.915-259.483c0.006-0.76,0.013-1.52,0.02-2.28
					l91.697,261.716l0.073,0.207l-95.688,113.769C-65.788,830.563-65.782,830.155-65.775,829.747z"/>
				<path style="fill:#6FC3B3;" d="M-60.595,1233.339l-6.067-12.233c-0.009-0.598-0.019-1.195-0.027-1.792l6.953,14.02
					C-60.023,1233.336-60.309,1233.338-60.595,1233.339z"/>
				<path style="fill:#70C4B4;" d="M-51.348,1233.293l-15.538-31.33l-0.013-1.73l16.394,33.056
					C-50.786,1233.291-51.067,1233.292-51.348,1233.293z"/>
				<path style="fill:#70C4B4;" d="M-65.938,839.071L37.699,715.852l-99.381-283.648c0.006-0.746,0.012-1.493,0.018-2.24
					L38.485,715.805l0.071,0.204L-65.961,840.275C-65.954,839.874-65.945,839.472-65.938,839.071z"/>
				<path style="fill:#70C5B5;" d="M-66.117,848.416L46.379,714.663l-107.86-307.849c0.006-0.73,0.012-1.461,0.018-2.192
					L47.149,714.618l0.07,0.2L-66.139,849.596C-66.132,849.203-66.124,848.809-66.117,848.416z"/>
				<path style="fill:#70C5B5;" d="M-42.097,1233.252l-24.878-50.165l-0.003-1.675l25.708,51.839
					C-41.546,1233.251-41.821,1233.251-42.097,1233.252z"/>
				<path style="fill:#71C6B6;" d="M-66.296,857.761L55.06,713.474L-61.278,381.426c0.005-0.716,0.011-1.432,0.017-2.148
					L55.814,713.429l0.068,0.195l-122.2,145.291C-66.311,858.53-66.303,858.145-66.296,857.761z"/>
				<path style="fill:#71C6B6;" d="M-32.835,1233.234l-34.139-68.836c0.001-0.542,0.002-1.085,0.003-1.627l34.945,70.461
					C-32.295,1233.233-32.565,1233.233-32.835,1233.234z"/>
				<path style="fill:#71C7B7;" d="M63.741,712.285L-61.086,356.013c0.005-0.703,0.01-1.405,0.015-2.108l125.55,358.336l0.066,0.191
					L-66.403,868.123c0-0.368,0-0.737,0-1.105L63.741,712.285z"/>
				<path style="fill:#71C7B7;" d="M-23.569,1233.225l-43.346-87.402c0.002-0.529,0.004-1.058,0.007-1.588l44.134,88.99
					C-23.039,1233.226-23.304,1233.225-23.569,1233.225z"/>
				<path style="fill:#72C8B8;" d="M72.42,711.095L-60.905,330.563c0.005-0.687,0.01-1.374,0.015-2.062L73.142,711.052l0.065,0.188
					L-66.405,877.233c0-0.361,0-0.721,0-1.082L72.42,711.095z"/>
				<path style="fill:#72C8B8;" d="M-14.292,1233.237l-52.543-105.946c0.002-0.518,0.004-1.035,0.006-1.553l53.313,107.5
					C-13.774,1233.238-14.033,1233.238-14.292,1233.237z"/>
				<path style="fill:#72C9B9;" d="M81.101,709.906L-60.725,305.115c0.004-0.672,0.01-1.345,0.014-2.017L81.807,709.864l0.063,0.183
					L-66.408,886.344c0-0.352,0-0.704,0-1.056L81.101,709.906z"/>
				<path style="fill:#72C9B9;" d="M-5.004,1233.273l-61.764-124.539c0.001-0.508,0.002-1.015,0.004-1.523l62.521,126.066
					C-4.496,1233.276-4.75,1233.274-5.004,1233.273z"/>
				<path style="fill:#73CABA;" d="M89.782,708.717l-150.343-429.1c0.004-0.659,0.008-1.318,0.012-1.977l151.02,431.036l0.063,0.179
					L-66.412,895.456c0-0.345,0.001-0.689,0.001-1.034L89.782,708.717z"/>
				<path style="fill:#73CABA;" d="M4.291,1233.322l-71.021-143.206c0.001-0.497,0.001-0.995,0.002-1.492l71.764,144.703
					C4.788,1233.326,4.54,1233.324,4.291,1233.322z"/>
				<path style="fill:#74CBBB;" d="M98.461,707.527l-158.87-453.44c0.003-0.644,0.007-1.287,0.011-1.931L99.136,707.487l0.062,0.175
					L-66.42,904.574c0-0.337,0-0.674,0.001-1.011L98.461,707.527z"/>
				<path style="fill:#74CBBB;" d="M13.608,1233.413l-80.304-161.923c0.001-0.486,0.002-0.971,0.003-1.457l81.029,163.387
					C14.094,1233.418,13.851,1233.416,13.608,1233.413z"/>
				<path style="fill:#74CCBC;" d="M107.141,706.338L-60.256,228.559c0.003-0.628,0.008-1.256,0.011-1.884l168.044,479.623
					l0.061,0.171L-66.429,913.69c0-0.329,0-0.657,0.001-0.986L107.141,706.338z"/>
				<path style="fill:#74CCBC;" d="M22.932,1233.521l-89.592-180.651c0.001-0.474,0.001-0.948,0.002-1.421l90.302,182.084
					C23.408,1233.528,23.17,1233.524,22.932,1233.521z"/>
				<path style="fill:#75CDBD;" d="M115.822,705.149L-60.131,202.953c0.003-0.616,0.005-1.231,0.009-1.847L116.464,705.11
					l0.059,0.167l-182.96,217.531c0-0.321,0-0.641,0-0.962L115.822,705.149z"/>
				<path style="fill:#75CDBD;" d="M32.274,1233.664l-98.898-199.415c0.001-0.463,0.002-0.925,0.003-1.388l99.591,200.813
					C32.738,1233.671,32.506,1233.668,32.274,1233.664z"/>
				<path style="fill:#75CEBE;" d="M124.502,703.959L-60.013,177.327c0.003-0.602,0.006-1.203,0.008-1.805l185.134,528.4
					l0.057,0.162L-66.447,931.928c0-0.313,0.001-0.627,0.001-0.94L124.502,703.959z"/>
				<path style="fill:#75CEBE;" d="M41.634,1233.844l-108.221-218.216c0.001-0.451,0.002-0.902,0.002-1.353l108.9,219.584
					C42.088,1233.854,41.861,1233.849,41.634,1233.844z"/>
				<path style="fill:#76CFBF;" d="M133.182,702.77L-59.895,151.698c0.002-0.586,0.005-1.173,0.007-1.759l193.681,552.795
					l0.056,0.158L-66.461,941.051l0.001-0.915L133.182,702.77z"/>
				<path style="fill:#76CFBF;" d="M51.004,1234.046L-66.552,997.007c0.001-0.44,0.001-0.879,0.002-1.319l118.219,238.374
					C51.448,1234.056,51.226,1234.052,51.004,1234.046z"/>
				<path style="fill:#76CFC0;" d="M141.863,701.581l-201.68-575.624c0.001-0.573,0.003-1.146,0.005-1.719l202.27,577.308
					l0.054,0.154L-66.474,950.174l0.001-0.891L141.863,701.581z"/>
				<path style="fill:#76CFC0;" d="M60.406,1234.31L-66.519,978.381c0-0.428,0.001-0.857,0.002-1.285l127.572,257.232
					C60.839,1234.323,60.622,1234.317,60.406,1234.31z"/>
				<path style="fill:#77D0C1;" d="M69.821,1234.599L-66.487,959.751c0.001-0.441,0.001-0.882,0.002-1.322l217.029-258.037
					L-59.741,100.208c0.001-0.557,0.003-1.113,0.005-1.67l210.857,601.82l0.053,0.15L-66.237,959l136.692,275.622
					C70.243,1234.615,70.032,1234.606,69.821,1234.599z"/>
				<path style="fill:#77D1C2;" d="M79.26,1234.94L-58.139,957.89l-0.079-0.159l217.442-258.528L-58.013,79.175l0.512-0.179
					l217.288,620.173l0.051,0.146L-57.574,957.808l137.451,277.154C79.672,1234.954,79.466,1234.948,79.26,1234.94z"/>
				<path style="fill:#78D2C3;" d="M88.719,1235.321L-49.462,956.696l-0.076-0.155l217.441-258.528L-49.336,77.981l0.498-0.174
					l217.288,620.174l0.049,0.142L-48.913,956.616l138.233,278.73C89.12,1235.337,88.92,1235.329,88.719,1235.321z"/>
				<path style="fill:#78D3C4;" d="M98.208,1235.76L-40.783,955.501l-0.074-0.15l217.44-258.528L-40.656,76.787l0.482-0.169
					l217.288,620.174l0.049,0.138L-40.25,955.424l139.043,280.364C98.599,1235.778,98.404,1235.77,98.208,1235.76z"/>
				<path style="fill:#79D4C5;" d="M107.726,1236.256l-139.83-281.949l-0.071-0.146l217.439-258.527L-31.977,75.594l0.469-0.164
					L185.78,695.604l0.047,0.133L-31.587,954.232l139.882,282.054C108.105,1236.276,107.915,1236.266,107.726,1236.256z"/>
				<path style="fill:#79D5C6;" d="M117.271,1236.811L-23.425,953.113l-0.069-0.141l217.439-258.526L-23.298,74.401l0.453-0.159
					l217.288,620.174l0.046,0.129L-22.924,953.04l140.75,283.806C117.64,1236.834,117.455,1236.822,117.271,1236.811z"/>
			</g>
		</g>
	</g>
</g>
</svg>
