<?xml version="1.0" encoding="UTF-8" standalone="no"?>
<svg
   version="1.1"
   width="1711"
   height="1770"
   id="svg48"
   sodipodi:docname="rocket.svg"
   inkscape:version="1.3 (0e150ed6c4, 2023-07-21)"
   xmlns:inkscape="http://www.inkscape.org/namespaces/inkscape"
   xmlns:sodipodi="http://sodipodi.sourceforge.net/DTD/sodipodi-0.dtd"
   xmlns="http://www.w3.org/2000/svg"
   xmlns:svg="http://www.w3.org/2000/svg">
  <defs
     id="defs48" />
  <sodipodi:namedview
     id="namedview48"
     pagecolor="#ffffff"
     bordercolor="#000000"
     borderopacity="0.25"
     inkscape:showpageshadow="2"
     inkscape:pageopacity="0.0"
     inkscape:pagecheckerboard="0"
     inkscape:deskcolor="#d1d1d1"
     inkscape:zoom="0.32798569"
     inkscape:cx="792.71752"
     inkscape:cy="751.55718"
     inkscape:window-width="1920"
     inkscape:window-height="1017"
     inkscape:window-x="-8"
     inkscape:window-y="-8"
     inkscape:window-maximized="1"
     inkscape:current-layer="svg48" />
  <path
     d="m 3.0643007,16.951086 c 0.6243,16.827632 2.0842,33.574134 3.609,50.338875 0.2049,2.25252 0.4087,4.505126 0.6125,6.757744 3.9952003,44.091965 9.5463003,87.865595 16.5215003,131.590885 0.2792,1.75812 0.2792,1.75812 0.5641,3.55176 1.0944,6.69713 2.4028,13.32197 3.8544,19.95044 0.927,4.2567 1.8142,8.52068 2.6963,12.78686 7.0394,33.93251 14.8361,67.731 28.1117,99.87891 1.9418,4.79707 3.4645,9.67384 4.9519,14.62842 1.7193,5.71501 3.5359,11.39875 5.3559,17.08227 0.425504,1.332 0.848904,2.66469 1.270104,3.99805 2.4324,7.69687 5.0625,15.21856 8.2528,22.64258 1.1084,2.63722 2.1029,5.28541 3.06,7.98071 2.7505,7.69241 5.8493,15.24493 8.9228,22.8125 0.3252,0.80146 0.6504,1.60293 0.9855,2.42868 11.037195,27.16957 22.543395,54.10826 35.189795,80.57132 0.3713,0.77747 0.7426,1.55493 1.1252,2.35596 2.2087,4.59198 4.5097,9.12949 6.8722,13.64404 0.663,1.27279 0.663,1.27279 1.3393,2.57129 25.0067,47.75747 56.462,93.93843 99.718,126.96582 2.0266,1.55379 4.04,3.12349 6.0512,4.69726 15.6637,12.25558 31.3552,24.45983 47.6676,35.84375 4.4023,3.0731 8.7567,6.21028 13.1049,9.35938 0.7464,0.54036 1.4927,1.08072 2.2617,1.63745 1.511,1.0944 3.0218,2.18904 4.5324,3.28394 3.7513,2.71759 7.5071,5.42905 11.2624,8.14111 1.4995,1.0833 2.999,2.16664 4.4984,3.25 8.997,6.5 8.997,6.5 11.2455,8.12427 1.5022,1.08542 3.0042,2.17119 4.5058,3.25732 3.7055,2.6794 7.4149,5.35281 11.1342,8.01294 11.7089,8.38925 23.176,17.07509 34.5939,25.85547 0.6325,0.48598 1.2651,0.97195 1.9168,1.47266 2.6169,2.01078 5.2319,4.024 7.8455,6.03906 4.6375,3.57287 9.2916,7.12404 13.9426,10.6792 4.184,3.19908 8.3618,6.40574 12.5329,9.62158 5.7565,4.43293 11.5299,8.8435 17.3067,13.25 0.9045,0.69158 1.8091,1.38316 2.741,2.0957 3.8762,2.95874 7.7549,5.90714 11.7073,8.76367 0.5688,0.41371 1.1377,0.82742 1.7237,1.25367 1.4515,1.04981 2.9113,2.08806 4.3719,3.12524 0.6224,0.56074 1.2448,1.12149 1.886,1.69922 0,3.89037 -1.3393,5.27624 -3.4988,8.5 -8.2964,12.98088 -13.18,27.42004 -16.9176,42.27588 -0.564,2.17591 -1.1796,4.32963 -1.8144,6.48584 -9.5009,32.85221 -13.1058,69.57653 -13.7571,103.73828 -0.026,0.92458 -0.051,1.84916 -0.078,2.80176 -1.379,53.29985 7.4345,106.67685 22.3431,157.69825 0.7023,2.4141 1.3921,4.8314 2.0784,7.25 1.9382,6.7856 3.9518,13.4562 6.697,19.9688 0.9824,2.3618 1.8463,4.7443 2.6983,7.1562 8.2829,22.9055 17.8621,45.5811 29.2402,67.125 0.4661,0.8848 0.9323,1.7696 1.4126,2.6812 26.0139,49.1639 58.1095,94.8964 95.5274,136.0766 1.7665,1.9543 3.4953,3.9328 5.2131,5.9297 10.3492,11.8448 21.3854,23.0558 32.5174,34.1587 2.1811,2.1764 4.3568,4.3582 6.532,6.5405 1.4133,1.4131 2.8269,2.8259 4.2408,4.2383 0.6364,0.6386 1.2728,1.2773 1.9285,1.9353 3.7921,3.7739 7.6955,7.3647 11.751,10.8542 2.9555,2.5704 5.7851,5.2726 8.6333,7.9605 5.0449,4.727 10.2174,9.2001 15.6158,13.5234 2.5412,2.0816 4.9601,4.252 7.3765,6.4766 4.3446,3.9566 8.8733,7.586 13.5137,11.1826 4.8424,3.763 9.5731,7.648 14.2894,11.5674 6.07477,5.0321 12.23418,9.8879 18.5924,14.5596 2.13063,1.5783 4.24549,3.1767 6.36016,4.7763 9.234,6.9795 18.52909,13.8405 28.01866,20.4683 2.76844,1.9352 5.52939,3.8801 8.28091,5.8394 9.5003,6.7605 19.1091,13.3357 28.8221,19.7863 2.27088,1.5084 4.53925,3.0204 6.80728,4.533 13.80246,9.194 27.68793,18.2595 41.7594,27.0371 0.99402,0.6205 1.98804,1.241 3.01217,1.8804 19.71717,12.2751 39.61519,24.2532 59.65427,35.9946 1.03235,0.6054 2.06471,1.2108 3.12834,1.8345 3.22553,1.8904 6.45234,3.7785 9.67985,5.6655 1.47629,0.8637 1.47629,0.8637 2.9824,1.7449 5.69484,3.3224 11.41978,6.5804 17.19832,9.7551 -1.2888,-2.7882 -2.68529,-4.99 -4.72107,-7.2852 -0.53341,-0.6069 -1.06682,-1.2139 -1.6164,-1.8393 -0.85255,-0.9593 -0.85255,-0.9593 -1.72232,-1.938 -1.19084,-1.3571 -2.38054,-2.7152 -3.56911,-4.0742 -0.58021,-0.6631 -1.16041,-1.3261 -1.7582,-2.0093 -2.79798,-3.2263 -5.48527,-6.539 -8.17206,-9.8579 -1.892,-2.3301 -3.7952,-4.6488 -5.70902,-6.9609 -5.95783,-7.1995 -11.86495,-14.426 -17.60516,-21.8006 -3.45058,-4.4241 -6.98911,-8.7704 -10.54553,-13.1096 -4.81311,-5.887 -9.44247,-11.8833 -13.97211,-17.9905 -3.74477,-5.0422 -7.5832,-10.0034 -11.45684,-14.947 -6.62416,-8.473 -13.01522,-17.104 -19.35971,-25.7876 -1.76828,-2.4137 -3.5461,-4.82 -5.32731,-7.2241 -7.11313,-9.6047 -14.09519,-19.2883 -20.95048,-29.0786 -1.49384,-2.1288 -2.99472,-4.2524 -4.498,-6.3745 -0.5082,-0.7179 -1.0164,-1.4357 -1.54001,-2.1753 -0.93555,-1.3211 -1.87167,-2.6418 -2.80862,-3.962 -9.59245,-13.5663 -18.87823,-27.3499 -28.17388,-41.1203 -1.24767,-1.8472 -2.49659,-3.6936 -3.74679,-5.5391 -7.98569,-11.7886 -15.78322,-23.6683 -23.31981,-35.7493 -2.3928,-3.8211 -4.81686,-7.6223 -7.23608,-11.4267 -6.32238,-9.9883 -12.46248,-20.0865 -18.57774,-30.2026 -1.29658,-2.144 -2.59689,-4.2857 -3.89908,-6.4263 -22.18343,-36.579 -42.91183,-74.2562 -59.74553,-113.6211 -0.306,-0.7145 -0.6119,-1.4289 -0.9272,-2.165 -4.2698,-10.0097 -8.1752,-20.1273 -11.9435,-30.335 -0.6444,-1.6963 -1.2909,-3.3918 -1.9407,-5.0859 -3.652,-9.6165 -6.6915,-19.2537 -9.3011,-29.2002 -0.7903,-2.8439 -1.6547,-5.6617 -2.5194,-8.4836 -2.9284,-9.6452 -5.043,-19.3208 -6.8569,-29.2303 -0.223,-1.1964 -0.223,-1.1964 -0.4506,-2.417 -2.5663,-13.7943 -4.6482,-27.6039 -5.9222,-41.583 -0.091,-0.9302 -0.1827,-1.8604 -0.2768,-2.8188 -3.4017,-38.2194 -5.5876,-94.44522 14.2721,-129.18121 1.0064,0.77602 2.0128,1.55203 3.0497,2.35156 10.8737,8.36292 21.8732,16.54123 32.9382,24.64844 1.5113,1.10922 3.0225,2.21859 4.5336,3.32812 3.4858,2.55905 6.9731,5.11611 10.4613,7.67188 -0.9384,1.1066 -1.8785,2.2118 -2.8193,3.3164 -0.785,0.92341 -0.785,0.92341 -1.5859,1.86551 -2.0942,2.3905 -4.3116,4.6049 -6.5911,6.8181 1.6066,4.8781 4.3946,8.636 7.3726,12.75 1.0909,1.5259 2.1817,3.052 3.2723,4.5781 0.5577,0.7767 1.1153,1.5533 1.6899,2.3535 2.5728,3.5921 5.1149,7.2056 7.6585,10.8184 0.9995,1.4168 1.9992,2.8335 2.999,4.25 0.4948,0.7013 0.9897,1.4025 1.4995,2.125 33.48875,47.4583 66.97749,94.9167 100.46624,142.375 0.49556,0.7026 0.99112,1.4052 1.50169,2.1292 0.99104,1.4037 1.98336,2.8066 2.97703,4.2084 2.6429,3.7325 5.25584,7.4822 7.83355,11.2601 0.54315,0.7889 1.08631,1.5778 1.64593,2.3906 1.04694,1.5217 2.08599,3.0489 3.11614,4.582 1.23128,1.7808 2.56669,3.4887 3.9186,5.1797 3.67124,0 4.08013,-0.6765 6.65792,-3.1484 0.70625,-0.6711 1.4125,-1.3421 2.14015,-2.0335 0.74604,-0.7237 1.49207,-1.4474 2.26072,-2.1931 0.76472,-0.7308 1.52944,-1.4616 2.31733,-2.2146 4.90973,-4.7076 9.73233,-9.4938 14.50904,-14.3362 1.89277,-1.8653 3.82908,-3.6048 5.8535,-5.3242 3.95844,-3.3803 7.58814,-7.0522 11.24622,-10.75 4.16506,-4.2101 8.35005,-8.2724 12.87458,-12.0977 3.59111,-3.2218 6.93243,-6.6966 10.32295,-10.1272 3.54176,-3.5678 7.15135,-6.9845 11.00972,-10.2126 2.37038,-2.08 4.56532,-4.3178 6.77898,-6.5625 -0.0501,0.641 -0.10019,1.282 -0.15181,1.9424 -0.42899,5.5018 -0.85228,11.0041 -1.26959,16.5068 -0.37019,4.879 -0.75657,9.7562 -1.15586,14.6328 -6.97619,87.4028 18.5237,171.2269 74.55303,238.918 2.2876,2.635 4.611,5.2258 6.9742,7.793 1.7674,1.9283 3.4608,3.8955 5.1468,5.8945 8.17994,9.39 17.24694,18.4031 26.86594,26.3125 0.515,0.4343 1.03,0.8685 1.5605,1.3159 23.9233,20.1704 49.937,35.7912 78.4126,48.6841 0.6727,0.3207 1.3454,0.6413 2.0384,0.9717 4.6229,2.1405 4.6229,2.1405 7.9583,1.0283 -0.6662,-0.6316 -1.3325,-1.2633 -2.0189,-1.9141 -23.9438,-23.2484 -42.0891,-54.0354 -48.5422,-86.9394 -0.2791,-1.4205 -0.5705,-2.8386 -0.8748,-4.2539 -5.0314,-23.6255 -4.1165,-49.4342 1.4527,-72.8926 0.3299,-0.33 0.6598,-0.66 0.9996,-1 0.8215,1.5314 0.8215,1.5314 1.6596,3.0938 10.3044,18.989 21.8016,37.306 34.3284,54.9062 0.7528,1.0618 0.7528,1.0618 1.5209,2.145 14.1961,19.9781 28.9644,39.6506 45.5296,57.7417 1.8019,1.97 3.56,3.9695 5.3069,5.9883 8.2368,9.4356 16.8181,18.4892 25.6879,27.3269 1.6284,1.6236 3.2514,3.2526 4.874,4.8821 5.5109,5.5162 11.108,10.8588 17.0471,15.916 1.6071,1.4545 3.2113,2.9122 4.8108,4.375 5.2498,4.7271 10.6541,9.2285 16.1821,13.625 0.6498,0.5172 1.2996,1.0345 1.9691,1.5674 25.8615,20.5137 53.2137,38.32 82.0027,54.4326 0.7978,0.4525 1.5956,0.9049 2.4176,1.3711 11.8789,6.698 24.1913,12.1847 36.7567,17.4414 0.7486,0.3147 1.4972,0.6295 2.2686,0.9538 10.3256,4.3237 20.7494,8.1162 31.4048,11.5442 3.0303,0.9823 6.0497,1.9966 9.0693,3.0113 5.5415,1.8291 11.157,3.4221 16.7671,5.0254 1.4665,0.4195 2.9319,0.8427 4.396,1.2705 24.0077,6.9701 49.0117,10.9644 73.8604,13.3823 1.3427,0.131 1.3427,0.131 2.7126,0.2646 7.372,0.6685 14.6836,0.9092 22.0837,0.9385 1.784,0.011 1.784,0.011 3.6041,0.021 3.8204,0.017 7.6407,0.024 11.4612,0.026 1.9557,10e-4 1.9557,10e-4 3.9509,0 18.9065,-0.015 37.44,-0.3398 56.1539,-3.252 1.1477,-0.1716 2.2954,-0.3432 3.4778,-0.52 20.3384,-3.1123 40.797,-7.3592 60.1002,-14.594 2.8488,-1.0518 5.7294,-1.9235 8.6477,-2.761 5.0906,-1.5424 10.0483,-3.3031 14.995,-5.25 0.6562,-0.2538 1.3124,-0.5076 1.9886,-0.769 4.6382,-1.8641 4.6382,-1.8641 5.7588,-4.106 -1.232,-0.3751 -2.4639,-0.7502 -3.7331,-1.1367 -9.3088,-2.8653 -18.3356,-5.9343 -27.2565,-9.8633 -1.6105,-0.6793 -3.222,-1.3562 -4.8343,-2.0312 -10.2537,-4.3094 -20.3334,-8.8185 -30.2003,-13.9551 -2.0101,-1.0434 -4.0292,-2.0679 -6.0493,-3.0918 -29.3239,-15.0203 -56.2972,-35.1164 -80.368,-57.5323 -1.4653,-1.3514 -2.9521,-2.6795 -4.4394,-4.0068 -38.3205,-34.3117 -67.9944,-79.5084 -88.4742,-126.4453 -0.3885,-0.8903 -0.777,-1.7805 -1.1773,-2.6978 -3.1149,-7.3015 -5.7672,-14.7467 -8.3819,-22.2397 -0.4427,-1.2582 -0.8857,-2.5162 -1.3289,-3.7742 -5.4716,-15.5568 -10.6867,-31.1043 -15.048,-47.0149 -1.709,-6.1196 -3.6597,-12.1667 -5.6158,-18.2109 -0.2748,-0.8519 -0.5496,-1.7038 -0.8327,-2.5815 -0.9027,-2.7876 -1.8142,-5.5722 -2.7286,-8.356 -0.2808,-0.8643 -0.5616,-1.7286 -0.851,-2.6191 -1.6412,-4.9508 -3.5252,-9.6836 -5.6934,-14.4261 -1.1553,-2.6171 -2.0207,-5.293 -2.8899,-8.0173 -11.3359,-32.1407 -29.9661,-59.1946 -53.9818,-83 20.393,9.8118 39.8732,20.1389 57.3674,34.6631 1.5885,1.3168 3.1923,2.6128 4.7992,3.9072 13.8609,11.2983 26.2423,23.9974 36.8001,38.4297 0.4299,0.5799 0.8598,1.1598 1.3028,1.7573 5.4761,7.4013 10.4999,14.9711 15.1956,22.8911 0.4935,0.7761 0.987,1.5521 1.4955,2.3516 0.3299,0 0.6598,0 0.9997,0 0.579,-63.3862 -22.5348,-124.3781 -64.4383,-172.189 -1.958,-2.3033 -3.8318,-4.6702 -5.7217,-7.0297 -4.7405,-5.8118 -9.8641,-11.1293 -15.1863,-16.4063 -0.8685,-0.8766 -1.7371,-1.7531 -2.6319,-2.6562 -6.0177,-6.002 -12.3456,-11.422 -18.9858,-16.7188 -1.1733,-0.9767 -2.344,-1.9567 -3.5106,-2.9414 -41.4554,-34.4813 -92.2241,-57.1987 -142.0655,-76.68361 -0.842,-0.32989 -1.6839,-0.65978 -2.5514,-0.99966 -9.4824,-3.70273 -19.0046,-7.1695 -28.6809,-10.33176 -4.6946,-1.54022 -9.2839,-3.23112 -13.8502,-5.12268 -4.3635,-1.76508 -8.8236,-3.26368 -13.2729,-4.7959 -0.9884,-0.34225 -1.9769,-0.68449 -2.9953,-1.03711 -8.9752,-3.09875 -17.9772,-6.11485 -26.9946,-9.08789 -0.3216,-2.9566 -0.3216,-2.9566 1.3096,-4.55884 0.6065,-0.54906 1.2129,-1.09812 1.8378,-1.66382 0.6707,-0.61617 1.3414,-1.23234 2.0325,-1.86718 0.7236,-0.65098 1.4471,-1.30196 2.1926,-1.97266 1.4773,-1.35411 2.9534,-2.70958 4.4282,-4.06641 0.7213,-0.66145 1.4426,-1.3229 2.1858,-2.00439 2.5731,-2.39191 5.0438,-4.86095 7.5063,-7.3667 2.6676,-2.7039 5.3522,-5.2921 8.2472,-7.75 4.6181,-3.94362 8.8238,-8.28939 13.081,-12.61377 3.7833,-3.82364 7.6436,-7.4086 11.9028,-10.70654 1.2573,-1.42779 1.2573,-1.42779 1.2573,-5.42779 -1.458,-1.51709 -1.458,-1.51709 -3.5223,-2.96094 -0.7647,-0.54696 -1.5294,-1.09393 -2.3173,-1.65747 -0.8358,-0.57967 -1.6715,-1.15935 -2.5326,-1.75659 -1.7497,-1.24908 -3.4978,-2.50044 -5.2443,-3.75391 -0.8955,-0.63953 -1.7909,-1.27907 -2.7135,-1.93798 -4.1105,-2.98313 -8.1058,-6.10672 -12.098,-9.24561 -5.6879,-4.45521 -11.4072,-8.8549 -17.2012,-13.17188 -4.4769,-3.34513 -8.9099,-6.7482 -13.351,-10.14062 -7.0326,-5.37085 -14.0915,-10.70375 -21.1804,-16 -7.1678,-5.35798 -14.2558,-10.80815 -21.3048,-16.32129 -5.3671,-4.19142 -10.7885,-8.30222 -16.246,-12.37475 -5.6096,-4.1893 -11.1794,-8.42935 -16.7434,-12.67896 -6.2283,-4.75586 -12.4679,-9.49459 -18.7437,-14.1875 -5.3345,-3.99027 -10.64344,-8.01185 -15.93224,-12.0625 -1.0293,-0.78697 -1.0293,-0.78697 -2.0794,-1.58984 -4.1083,-3.14337 -8.205,-6.30115 -12.2947,-9.46875 -1.8938,-1.45971 -3.7877,-2.91934 -5.6816,-4.37891 -0.8933,-0.69577 -1.7866,-1.39154 -2.7069,-2.1084 -0.8438,-0.64872 -1.68761,-1.29744 -2.55699,-1.96582 -0.74515,-0.5771 -1.4903,-1.15419 -2.25803,-1.74878 -2.22483,-1.4895 -2.22483,-1.4895 -7.22315,-3.4895 -3.95867,3.63 -7.91734,7.26 -11.99597,11 -8.53579,-11.50347 -16.75237,-23.20348 -24.90228,-34.98291 -3.39659,-4.90643 -6.80367,-9.80556 -10.21092,-14.70459 -0.66453,-0.95584 -1.32906,-1.91168 -2.01373,-2.89648 -4.84216,-6.96225 -9.70128,-13.91246 -14.56712,-20.85816 -4.44176,-6.3431 -8.86546,-12.69863 -13.28411,-19.05786 -5.55281,-7.9915 -11.12179,-15.97136 -16.70532,-23.94141 -4.44189,-6.34337 -8.86579,-12.69912 -13.2846,-19.05859 -4.98581,-7.17549 -9.98161,-14.34374 -14.99496,-21.5 -7.01094,-10.00886 -13.98767,-20.04137 -20.96073,-30.07666 -4.00617,-5.76478 -8.01498,-11.52773 -12.0233,-17.29102 -3.35815,-4.82865 -6.71565,-9.65776 -10.07181,-14.48779 -6.39689,-9.20462 -12.80208,-18.40307 -19.23572,-27.58203 -4.53558,-6.47154 -9.03567,-12.96561 -13.50059,-19.48608 -3.69154,-5.38326 -7.43088,-10.7322 -11.17862,-16.07642 -4.59104,-6.54749 -9.15223,-13.11349 -13.67118,-19.71094 -4.07898,-5.94903 -8.19825,-11.86969 -12.32008,-17.78906 -4.95032,-7.10976 -9.88441,-14.2297 -14.78115,-21.37646 -3.958,-5.76952 -7.9593,-11.50853 -11.9599,-17.24854 -6.6551,-9.55313 -13.2321,-19.1572 -19.7785,-28.78516 -4.3597,-6.41178 -8.7528,-12.80036 -13.1498,-19.18652 -2.2714,-3.29979 -4.5397,-6.60168 -6.8083,-9.90332 -2.7249,-3.96534 -5.4501,-7.93048 -8.1769,-11.89453 -0.4435,-0.64485 -0.8869,-1.28971 -1.3438,-1.9541 -0.9015,-1.31074 -1.8032,-2.62129 -2.7052,-3.93164 -2.5229,-3.66815 -5.0341,-7.34386 -7.5331,-11.02832 C 618.104,276.4468 596.2933,250.27 568.53,229.2172 c -1.5759,-1.20549 -3.1294,-2.44019 -4.6815,-3.67627 -24.6044,-19.48101 -52.288,-34.94228 -79.9458,-49.58984 -1.7873,-0.95547 -3.5745,-1.9112 -5.3615,-2.86719 -11.5592,-6.15329 -23.2839,-11.9011 -35.1283,-17.48242 -3.2417,-1.5306 -6.4796,-3.06898 -9.7162,-4.61014 -34.3427,-16.35058 -69.0525,-31.49718 -104.2592,-45.8862 -7.7323,-3.16486 -15.4178,-6.410714 -23.0628,-9.78296 -11.8463,-5.221344 -23.7646,-10.197547 -35.8378,-14.871094 -0.9383,-0.36489 -0.9383,-0.36489 -1.8957,-0.737152 -6.7624,-2.62309 -13.5536,-5.096527 -20.4444,-7.356598 -4.9863,-1.636287 -9.8466,-3.419191 -14.6977,-5.414551 -5.1149,-2.01978 -10.35,-3.702951 -15.5695,-5.429199 -1.1941,-0.396145 -2.3882,-0.79229 -3.6184,-1.200439 -8.3617,-2.757051 -16.7449,-5.375623 -25.2176,-7.767334 -2.2368,-0.636166 -4.468,-1.290058 -6.6989,-1.94629 -25.2899,-7.400241 -50.7658,-13.62058 -76.5778,-18.875488 -3.446,-0.703554 -6.888595,-1.421326 -10.330495,-2.144043 -26.720204,-5.55759 -53.449604,-9.302459 -80.594004,-11.929687 -0.7338,-0.0716 -1.4676,-0.143207 -2.2235,-0.21698 C 9.4425007,17.129572 6.3097007,16.951086 3.0643007,16.951086 Z"
     fill="#9bfdcb"
     id="path2"
     style="stroke-width:0.999832" />
  <path
     d="m 960.74241,738.95109 c -4.01382,1.64082 -6.88842,4.44397 -9.99664,7.375 -0.85085,0.79314 -0.85085,0.79314 -1.7189,1.60229 -4.46951,4.19333 -8.80299,8.51321 -13.10839,12.87403 -2.61776,2.64035 -5.26936,5.17898 -8.1025,7.58618 -3.72083,3.1626 -7.12876,6.59221 -10.55895,10.0625 -3.38892,3.42845 -6.74967,6.82261 -10.43399,9.9375 -4.57448,3.8765 -8.70944,8.18775 -12.92291,12.44678 -3.54847,3.57254 -7.16433,6.96169 -11.01045,10.21338 -3.59803,3.22804 -6.94545,6.71008 -10.34272,10.14697 -2.82152,2.84209 -5.64884,5.60527 -8.70947,8.19287 -3.90389,3.30823 -7.46281,6.92764 -11.05879,10.5625 -5.34285,5.41495 -5.34285,5.41495 -10.9963,10.5 -4.55706,3.85122 -8.66811,8.14663 -12.86067,12.38452 -3.54839,3.57246 -7.16418,6.96152 -11.01021,10.21314 -3.59803,3.22804 -6.94545,6.71008 -10.34272,10.14697 -2.82152,2.84209 -5.64884,5.60527 -8.70947,8.19287 -4.57448,3.8765 -8.70944,8.18775 -12.92291,12.44678 -3.54848,3.57254 -7.16433,6.96169 -11.01046,10.21338 -3.59802,3.22804 -6.94544,6.71008 -10.34271,10.14697 -2.82152,2.84209 -5.64884,5.60527 -8.70948,8.19287 -4.57448,3.8765 -8.70943,8.18775 -12.9229,12.44678 -3.54848,3.57254 -7.16433,6.96169 -11.01046,10.21338 -3.59803,3.22804 -6.94544,6.71008 -10.34271,10.14697 -2.82152,2.84209 -5.64884,5.60527 -8.7095,8.19287 -4.5721,3.8745 -8.7051,8.18327 -12.9163,12.44019 -3.6051,3.62964 -7.2778,7.08668 -11.185,10.39184 -4.1776,3.70267 -8.0401,7.74808 -11.9491,11.73048 1.6066,4.8781 4.3946,8.636 7.3726,12.75 1.0909,1.5259 2.1817,3.052 3.2723,4.5781 0.5577,0.7767 1.1153,1.5533 1.6899,2.3535 2.5728,3.5921 5.1149,7.2056 7.6585,10.8184 0.9995,1.4168 1.9992,2.8335 2.999,4.25 0.4948,0.7013 0.9897,1.4025 1.4995,2.125 33.48875,47.4583 66.97749,94.9167 100.46624,142.375 0.49556,0.7026 0.99112,1.4052 1.50169,2.1292 0.99104,1.4037 1.98336,2.8066 2.97703,4.2084 2.6429,3.7325 5.25584,7.4822 7.83355,11.2601 0.54315,0.7889 1.08631,1.5778 1.64593,2.3906 1.04694,1.5217 2.08599,3.0489 3.11614,4.582 1.23128,1.7808 2.56669,3.4887 3.9186,5.1797 3.67124,0 4.08013,-0.6765 6.65792,-3.1484 0.70625,-0.6711 1.4125,-1.3421 2.14015,-2.0335 0.74604,-0.7237 1.49207,-1.4474 2.26072,-2.1931 0.76472,-0.7308 1.52944,-1.4616 2.31733,-2.2146 4.90973,-4.7076 9.73233,-9.4938 14.50904,-14.3362 1.89277,-1.8653 3.82908,-3.6048 5.8535,-5.3242 3.95844,-3.3803 7.58814,-7.0522 11.24622,-10.75 4.16506,-4.2101 8.35005,-8.2724 12.87458,-12.0977 3.59111,-3.2218 6.93243,-6.6966 10.32295,-10.1272 3.54176,-3.5678 7.15135,-6.9845 11.00972,-10.2126 2.37038,-2.08 4.56532,-4.3178 6.77898,-6.5625 -0.0501,0.641 -0.10019,1.282 -0.15181,1.9424 -0.42899,5.5018 -0.85228,11.0041 -1.26959,16.5068 -0.37019,4.879 -0.75657,9.7562 -1.15586,14.6328 -6.97619,87.4028 18.5237,171.2269 74.55303,238.918 2.2876,2.635 4.611,5.2258 6.9742,7.793 1.7674,1.9283 3.4608,3.8955 5.1468,5.8945 8.17994,9.39 17.24694,18.4031 26.86594,26.3125 0.515,0.4343 1.03,0.8685 1.5605,1.3159 23.9233,20.1704 49.937,35.7912 78.4126,48.6841 0.6727,0.3207 1.3454,0.6413 2.0384,0.9717 4.6229,2.1405 4.6229,2.1405 7.9583,1.0283 -0.6662,-0.6316 -1.3325,-1.2633 -2.0189,-1.9141 -23.9438,-23.2484 -42.0891,-54.0354 -48.5422,-86.9394 -0.2791,-1.4205 -0.5705,-2.8386 -0.8748,-4.2539 -5.0314,-23.6255 -4.1165,-49.4342 1.4527,-72.8926 0.3299,-0.33 0.6598,-0.66 0.9996,-1 0.5477,1.0209 1.0954,2.0419 1.6596,3.0938 10.3044,18.989 21.8016,37.306 34.3284,54.9062 0.7528,1.0618 0.7528,1.0618 1.5209,2.145 14.1961,19.9781 28.9644,39.6506 45.5296,57.7417 1.8019,1.97 3.56,3.9695 5.3069,5.9883 8.2368,9.4356 16.8181,18.4892 25.6879,27.3269 1.6284,1.6236 3.2514,3.2526 4.874,4.8821 5.5109,5.5162 11.108,10.8588 17.0471,15.916 1.6071,1.4545 3.2113,2.9122 4.8108,4.375 5.2498,4.7271 10.6541,9.2285 16.1821,13.625 0.6498,0.5172 1.2996,1.0345 1.9691,1.5674 25.8615,20.5137 53.2137,38.32 82.0027,54.4326 0.7978,0.4525 1.5956,0.9049 2.4176,1.3711 11.8789,6.698 24.1913,12.1847 36.7567,17.4414 0.7486,0.3147 1.4972,0.6295 2.2686,0.9538 10.3256,4.3237 20.7494,8.1162 31.4048,11.5442 3.0303,0.9823 6.0497,1.9966 9.0693,3.0113 5.5415,1.8291 11.157,3.4221 16.7671,5.0254 1.4665,0.4195 2.9319,0.8427 4.396,1.2705 24.0077,6.9701 49.0117,10.9644 73.8604,13.3823 0.8951,0.087 1.7903,0.1747 2.7126,0.2646 7.372,0.6685 14.6836,0.9092 22.0837,0.9385 1.1894,0.01 2.3787,0.014 3.6041,0.021 3.8204,0.017 7.6407,0.024 11.4612,0.026 1.9557,10e-4 1.9557,10e-4 3.9509,0 18.9065,-0.015 37.44,-0.3398 56.1539,-3.252 1.1477,-0.1716 2.2954,-0.3432 3.4778,-0.52 20.3384,-3.1123 40.797,-7.3592 60.1002,-14.594 2.8488,-1.0518 5.7294,-1.9235 8.6477,-2.761 5.0906,-1.5424 10.0483,-3.3031 14.995,-5.25 0.6562,-0.2538 1.3124,-0.5076 1.9886,-0.769 4.6382,-1.8641 4.6382,-1.8641 5.7588,-4.106 -1.8479,-0.5627 -1.8479,-0.5627 -3.7331,-1.1367 -9.3088,-2.8653 -18.3356,-5.9343 -27.2565,-9.8633 -1.6105,-0.6793 -3.222,-1.3562 -4.8343,-2.0312 -10.2537,-4.3094 -20.3334,-8.8185 -30.2003,-13.9551 -2.0101,-1.0434 -4.0292,-2.0679 -6.0493,-3.0918 -29.3239,-15.0203 -56.2972,-35.1164 -80.368,-57.5323 -1.4653,-1.3514 -2.9521,-2.6795 -4.4394,-4.0068 -38.3205,-34.3117 -67.9944,-79.5084 -88.4742,-126.4453 -0.3885,-0.8903 -0.777,-1.7805 -1.1773,-2.6978 -3.1149,-7.3015 -5.7672,-14.7467 -8.3819,-22.2397 -0.4427,-1.2582 -0.8857,-2.5162 -1.3289,-3.7742 -5.4716,-15.5568 -10.6867,-31.1043 -15.048,-47.0149 -1.709,-6.1196 -3.6597,-12.1667 -5.6158,-18.2109 -0.2748,-0.8519 -0.5496,-1.7038 -0.8327,-2.5815 -0.9027,-2.7876 -1.8142,-5.5722 -2.7286,-8.356 -0.2808,-0.8643 -0.5616,-1.7286 -0.851,-2.6191 -1.6412,-4.9508 -3.5252,-9.6836 -5.6934,-14.4261 -1.1553,-2.6171 -2.0207,-5.293 -2.8899,-8.0173 -11.3359,-32.1407 -29.9661,-59.1946 -53.9818,-83 20.393,9.8118 39.8732,20.1389 57.3674,34.6631 1.5885,1.3168 3.1923,2.6128 4.7992,3.9072 13.8609,11.2983 26.2423,23.9974 36.8001,38.4297 0.4299,0.5799 0.8598,1.1598 1.3028,1.7573 5.4761,7.4013 10.4999,14.9711 15.1956,22.8911 0.4935,0.7761 0.987,1.5521 1.4955,2.3516 0.3299,0 0.6598,0 0.9997,0 0.579,-63.3862 -22.5348,-124.3781 -64.4383,-172.189 -1.958,-2.3033 -3.8318,-4.6702 -5.7217,-7.0297 -4.7405,-5.8118 -9.8641,-11.1293 -15.1863,-16.4063 -0.8685,-0.8766 -1.7371,-1.7531 -2.6319,-2.6562 -6.0177,-6.002 -12.3456,-11.422 -18.9858,-16.7188 -1.1733,-0.9767 -2.344,-1.9567 -3.5106,-2.9414 -41.4554,-34.4813 -92.2241,-57.1987 -142.0655,-76.68361 -0.842,-0.32989 -1.6839,-0.65978 -2.5514,-0.99966 -9.4824,-3.70273 -19.0046,-7.1695 -28.6809,-10.33176 -4.6946,-1.54022 -9.2839,-3.23112 -13.8502,-5.12268 -4.3635,-1.76508 -8.8236,-3.26368 -13.2729,-4.7959 -0.9884,-0.34225 -1.9769,-0.68449 -2.9953,-1.03711 -8.9752,-3.09875 -17.9772,-6.11485 -26.9946,-9.08789 -0.3216,-2.9566 -0.3216,-2.9566 1.3096,-4.55884 0.9097,-0.82359 0.9097,-0.82359 1.8378,-1.66382 0.6707,-0.61617 1.3414,-1.23234 2.0325,-1.86718 0.7236,-0.65098 1.4471,-1.30196 2.1926,-1.97266 1.4773,-1.35411 2.9534,-2.70958 4.4282,-4.06641 0.7213,-0.66145 1.4426,-1.3229 2.1858,-2.00439 2.5731,-2.39191 5.0438,-4.86095 7.5063,-7.3667 2.6676,-2.7039 5.3522,-5.2921 8.2472,-7.75 4.6181,-3.94362 8.8238,-8.28939 13.081,-12.61377 3.7833,-3.82364 7.6436,-7.4086 11.9028,-10.70654 1.2574,-1.42779 1.2574,-1.42779 1.2574,-5.42779 -1.458,-1.51709 -1.458,-1.51709 -3.5223,-2.96094 -1.1471,-0.82045 -1.1471,-0.82045 -2.3173,-1.65747 -0.8358,-0.57967 -1.6715,-1.15935 -2.5326,-1.75659 -1.7497,-1.24908 -3.4978,-2.50044 -5.2443,-3.75391 -0.8955,-0.63953 -1.7909,-1.27907 -2.7135,-1.93798 -4.1105,-2.98313 -8.1058,-6.10672 -12.098,-9.24561 -5.6879,-4.45521 -11.4072,-8.8549 -17.2012,-13.17188 -4.4769,-3.34513 -8.9099,-6.7482 -13.351,-10.14062 -7.0326,-5.37085 -14.0915,-10.70375 -21.1804,-16 -7.1678,-5.35798 -14.2558,-10.80815 -21.3048,-16.32129 -5.3671,-4.19142 -10.7885,-8.30222 -16.246,-12.37475 -5.6096,-4.1893 -11.1794,-8.42935 -16.7434,-12.67896 -6.2283,-4.75586 -12.4679,-9.49459 -18.7437,-14.1875 -7.4929,-5.60486 -14.92364,-11.28892 -22.35044,-16.98096 -4.584,-3.51096 -9.1726,-7.0158 -13.7625,-10.51904 -1.365,-1.04366 -1.365,-1.04366 -2.7576,-2.1084 -1.27539,-0.97308 -1.27539,-0.97308 -2.57653,-1.96582 -1.13343,-0.86564 -1.13343,-0.86564 -2.28976,-1.74878 -1.62874,-1.2143 -3.30668,-2.36234 -4.99686,-3.4895 z"
     fill="#f9a30b"
     id="path3"
     style="stroke-width:0.999832" />
  <path
     d="m 465.9087,829.95109 c -13.2816,12.81722 -19.0125,32.27549 -23.4154,49.77588 -0.564,2.17591 -1.1796,4.32963 -1.8144,6.48584 -9.5009,32.85221 -13.1058,69.57653 -13.7571,103.73828 -0.026,0.92458 -0.051,1.84916 -0.078,2.80176 -1.379,53.29985 7.4345,106.67685 22.3431,157.69825 0.7023,2.4141 1.3921,4.8314 2.0784,7.25 1.9382,6.7856 3.9518,13.4562 6.697,19.9688 0.9824,2.3618 1.8463,4.7443 2.6983,7.1562 8.2829,22.9055 17.8621,45.5811 29.2402,67.125 0.6992,1.3272 0.6992,1.3272 1.4126,2.6812 26.0139,49.1639 58.1095,94.8964 95.5274,136.0766 1.7665,1.9543 3.4953,3.9328 5.2131,5.9297 10.3492,11.8448 21.3854,23.0558 32.5174,34.1587 2.1811,2.1764 4.3568,4.3582 6.532,6.5405 1.4133,1.4131 2.8269,2.8259 4.2408,4.2383 0.6364,0.6386 1.2728,1.2773 1.9285,1.9353 3.7921,3.7739 7.6955,7.3647 11.751,10.8542 2.9555,2.5704 5.7851,5.2726 8.6333,7.9605 5.0449,4.727 10.2174,9.2001 15.6158,13.5234 2.5412,2.0816 4.9601,4.252 7.3765,6.4766 4.3446,3.9566 8.8733,7.586 13.5137,11.1826 4.8424,3.763 9.5731,7.648 14.2894,11.5674 6.07477,5.0321 12.23418,9.8879 18.5924,14.5596 2.13063,1.5783 4.24549,3.1767 6.36016,4.7763 9.234,6.9795 18.52909,13.8405 28.01866,20.4683 2.76844,1.9352 5.52939,3.8801 8.28091,5.8394 9.5003,6.7605 19.1091,13.3357 28.8221,19.7863 2.27088,1.5084 4.53925,3.0204 6.80728,4.533 13.80246,9.194 27.68793,18.2595 41.7594,27.0371 0.99402,0.6205 1.98804,1.241 3.01217,1.8804 19.71717,12.2751 39.61519,24.2532 59.65427,35.9946 1.03235,0.6054 2.06471,1.2108 3.12834,1.8345 3.22553,1.8904 6.45234,3.7785 9.67985,5.6655 0.9842,0.5758 1.96839,1.1516 2.9824,1.7449 5.69484,3.3224 11.41978,6.5804 17.19832,9.7551 -1.2888,-2.7882 -2.68529,-4.99 -4.72107,-7.2852 -0.53341,-0.6069 -1.06682,-1.2139 -1.6164,-1.8393 -0.85255,-0.9593 -0.85255,-0.9593 -1.72232,-1.938 -1.19084,-1.3571 -2.38054,-2.7152 -3.56911,-4.0742 -0.87031,-0.9946 -0.87031,-0.9946 -1.7582,-2.0093 -2.79798,-3.2263 -5.48527,-6.539 -8.17206,-9.8579 -1.892,-2.3301 -3.7952,-4.6488 -5.70902,-6.9609 -5.95783,-7.1995 -11.86495,-14.426 -17.60516,-21.8006 -3.45058,-4.4241 -6.98911,-8.7704 -10.54553,-13.1096 -4.81311,-5.887 -9.44247,-11.8833 -13.97211,-17.9905 -3.74477,-5.0422 -7.5832,-10.0034 -11.45684,-14.947 -6.62416,-8.473 -13.01522,-17.104 -19.35971,-25.7876 -1.76828,-2.4137 -3.5461,-4.82 -5.32731,-7.2241 -7.11313,-9.6047 -14.09519,-19.2883 -20.95048,-29.0786 -1.49384,-2.1288 -2.99472,-4.2524 -4.498,-6.3745 -0.5082,-0.7179 -1.0164,-1.4357 -1.54001,-2.1753 -0.93555,-1.3211 -1.87167,-2.6418 -2.80862,-3.962 -9.59245,-13.5663 -18.87823,-27.3499 -28.17388,-41.1203 -1.24767,-1.8472 -2.49659,-3.6936 -3.74679,-5.5391 -7.98569,-11.7886 -15.78322,-23.6683 -23.31981,-35.7493 -2.3928,-3.8211 -4.81686,-7.6223 -7.23608,-11.4267 -6.32238,-9.9883 -12.46248,-20.0865 -18.57774,-30.2026 -1.29658,-2.144 -2.59689,-4.2857 -3.89908,-6.4263 -22.18343,-36.579 -42.91183,-74.2562 -59.74553,-113.6211 -0.306,-0.7145 -0.6119,-1.4289 -0.9272,-2.165 -4.2698,-10.0097 -8.1752,-20.1273 -11.9435,-30.335 -0.6444,-1.6963 -1.2909,-3.3918 -1.9407,-5.0859 -3.652,-9.6165 -6.6915,-19.2537 -9.3011,-29.2002 -0.7903,-2.8439 -1.6547,-5.6617 -2.5194,-8.4836 -2.9284,-9.6452 -5.043,-19.3208 -6.8569,-29.2303 -0.1487,-0.7976 -0.2973,-1.5952 -0.4506,-2.417 -2.5663,-13.7943 -4.6482,-27.6039 -5.9222,-41.583 -0.137,-1.3953 -0.137,-1.3953 -0.2768,-2.8188 -3.3443,-37.5747 -5.1902,-90.24356 12.2728,-125.18121 0.5193,-2.75 0.5193,-2.75 0,-6 -2.1167,-2.42712 -4.6816,-4.16136 -7.3101,-6 -0.763,-0.5576 -1.5261,-1.1152 -2.3122,-1.6897 -1.6236,-1.18448 -3.2531,-2.3608 -4.888,-3.52954 -3.1957,-2.29091 -6.3506,-4.63452 -9.5078,-6.97803 -3.1797,-2.35659 -6.3719,-4.69609 -9.5634,-7.03662 -3.9726,-2.91552 -7.9376,-5.84129 -11.9033,-8.76611 -1.5827,-1.16672 -3.1655,-2.33338 -4.7484,-3.5 -0.7835,-0.5775 -1.5669,-1.155 -2.3742,-1.75 -7.1226,-5.25 -7.1226,-5.25 -9.4963,-6.99951 -1.5846,-1.16807 -3.169,-2.33637 -4.7533,-3.50488 -3.9283,-2.897 -7.8592,-5.79022 -11.7963,-8.6753 -8.3556,-6.12972 -16.6488,-12.3295 -24.8745,-18.63281 -6.4094,-4.91155 -12.8635,-9.73937 -19.4309,-14.4375 -8.427,-6.02953 -16.6612,-12.29617 -24.8862,-18.59766 -6.9915,-5.35576 -14.0428,-10.63137 -21.0984,-15.90234 z"
     fill="#fe2199"
     id="path4"
     style="stroke-width:0.999832" />
  <path
     d="m 770.80625,497.95109 c -0.65977,0 -1.31955,0 -1.99932,0 -1.45974,2.30628 -2.80076,4.6158 -4.12362,7 -15.17174,26.53025 -33.64943,51.27589 -52.85721,75 -0.6843,0.8482 -1.3685,1.69641 -2.0735,2.57031 -9.3457,11.51395 -19.0128,22.68985 -29.1458,33.51587 -1.3334,1.44208 -2.6535,2.89657 -3.9669,4.35694 -7.7786,8.61282 -15.9229,16.83592 -24.1379,25.03125 -2.3525,2.3479 -4.6996,4.70115 -7.0462,7.05493 -1.518,1.5179 -3.0364,3.03549 -4.5551,4.55273 -0.6896,0.69181 -1.3791,1.38362 -2.0896,2.09639 -3.9329,3.91566 -7.965,7.65783 -12.1732,11.27649 -2.7675,2.39876 -5.4226,4.91446 -8.093,7.42009 -4.791,4.45879 -9.7061,8.68621 -14.8114,12.78516 -3.3057,2.69494 -6.5218,5.48236 -9.7428,8.27734 -6.0076,5.19022 -12.1964,10.07681 -18.5319,14.85791 -2.6093,1.98138 -5.1864,4.0045 -7.7718,6.01709 -8.1189,6.26705 -16.4535,12.23494 -24.8041,18.1875 -0.809,0.57831 -1.6179,1.15661 -2.4514,1.75244 -11.0435,7.87937 -22.2305,15.43745 -33.7821,22.55176 -1.9668,1.21135 -3.931,2.427 -5.8935,3.64551 -16.6367,10.3208 -33.5044,19.9401 -50.8418,29.05029 -1.8007,0.95468 -3.6009,1.91034 -5.4005,2.86719 -3.8606,2.05187 -7.7254,4.09558 -11.5938,6.13281 1.3848,3.27532 2.8309,4.91082 5.7169,6.96094 0.7577,0.54656 1.5154,1.09312 2.2961,1.65625 0.8195,0.58008 1.6391,1.16015 2.4835,1.75781 1.7405,1.25571 3.4795,2.51357 5.217,3.77344 0.884,0.64034 1.768,1.28068 2.6788,1.94043 3.9307,2.88852 7.7654,5.89381 11.5976,8.91113 6.8251,5.35477 13.7492,10.55319 20.747,15.67969 5.7775,4.23323 11.5176,8.51324 17.2403,12.82031 7.2508,5.45433 14.5369,10.85745 21.8481,16.23047 5.7388,4.22248 11.4449,8.48676 17.1388,12.76953 8.8365,6.64484 17.7234,13.21855 26.6321,19.76611 3.9544,2.90761 7.9044,5.82105 11.8549,8.73389 1.5828,1.16669 3.1656,2.33336 4.7484,3.5 1.1753,0.86625 1.1753,0.86625 2.3742,1.75 7.1226,5.25 7.1226,5.25 9.4995,7.00195 1.5739,1.16011 3.1478,2.32027 4.7216,3.48047 4.0931,3.01733 8.1869,6.03376 12.2818,9.04883 0.8453,0.62262 1.6906,1.24523 2.5616,1.88672 1.6021,1.17997 3.2044,2.35968 4.807,3.53906 1.4558,1.07237 2.9102,2.14653 4.3632,3.22266 1.4556,1.07476 2.9167,2.14214 4.3824,3.20312 1.0735,0.78504 1.0735,0.78504 2.1687,1.58594 0.6395,0.46342 1.2791,0.92684 1.938,1.4043 1.8969,1.4675 1.8969,1.4675 3.6343,4.37695 0.6598,0 1.3196,0 1.9993,0 1.2978,0.82753 2.5544,1.71997 3.7878,2.64062 0.7684,0.57001 1.5367,1.14002 2.3284,1.7273 0.8269,0.62109 1.6539,1.24217 2.5059,1.88208 0.8528,0.63462 1.7055,1.26924 2.5841,1.9231 2.5999,1.93698 5.1945,3.88076 7.7875,5.8269 0.7322,0.54898 1.4645,1.09796 2.2189,1.66357 2.6553,1.99118 5.3099,3.98326 7.9617,5.97901 6.8906,5.18149 13.8461,10.27365 20.8089,15.35742 8.7511,-3.87082 15.6622,-12.61175 22.3146,-19.34106 3.38265,-3.40879 6.85425,-6.61539 10.51816,-9.72144 3.00139,-2.69781 5.8169,-5.56794 8.65334,-8.4375 3.38892,-3.42845 6.74967,-6.82261 10.43399,-9.9375 4.57448,-3.8765 8.70944,-8.18775 12.9229,-12.44678 3.54848,-3.57254 7.16434,-6.96169 11.01046,-10.21338 3.59803,-3.22804 6.94545,-6.71008 10.34272,-10.14697 2.82152,-2.84209 5.64884,-5.60527 8.70947,-8.19287 4.57448,-3.8765 8.70944,-8.18775 12.92291,-12.44678 3.54848,-3.57254 7.16433,-6.96169 11.01046,-10.21338 3.59802,-3.22804 6.94544,-6.71008 10.34271,-10.14697 2.82152,-2.84209 5.64884,-5.60527 8.70948,-8.19287 3.90388,-3.30823 7.4628,-6.92764 11.05878,-10.5625 5.34285,-5.41495 5.34285,-5.41495 10.9963,-10.5 4.55706,-3.85122 8.66811,-8.14663 12.86067,-12.38452 3.5484,-3.57246 7.16418,-6.96152 11.01022,-10.21314 3.59802,-3.22804 6.94544,-6.71008 10.34271,-10.14697 2.82152,-2.84209 5.64884,-5.60527 8.70948,-8.19287 4.57448,-3.8765 8.70943,-8.18775 12.9229,-12.44678 3.54848,-3.57254 7.16433,-6.96169 11.01046,-10.21338 3.59341,-3.2239 6.93676,-6.70115 10.32953,-10.13379 2.94877,-2.97039 5.91918,-5.85314 9.09753,-8.58105 2.80064,-2.40648 5.55857,-4.8431 8.24723,-7.375 0.68168,-0.63293 1.36337,-1.26586 2.06571,-1.91797 1.37063,-1.89453 1.37063,-1.89453 1.08216,-3.81372 -1.16279,-3.4021 -3.33612,-6.17089 -5.39712,-9.08081 -0.4875,-0.69859 -0.975,-1.39718 -1.47728,-2.11694 -1.60557,-2.29823 -3.21933,-4.59058 -4.83309,-6.88306 -1.09402,-1.56336 -2.1874,-3.12717 -3.28015,-4.69141 -2.3234,-3.32477 -4.64986,-6.64738 -6.97812,-9.96875 -3.9253,-5.60366 -7.83074,-11.22104 -11.73434,-16.83984 -5.55275,-7.99154 -11.12179,-15.97136 -16.70532,-23.94141 -4.44189,-6.34337 -8.86579,-12.69912 -13.2846,-19.05859 -5.55281,-7.9915 -11.12179,-15.97136 -16.70532,-23.94141 -4.44189,-6.34337 -8.86579,-12.69912 -13.2846,-19.05859 -4.98581,-7.17549 -9.98161,-14.34374 -14.99496,-21.5 -7.01094,-10.00886 -13.98767,-20.04137 -20.96073,-30.07666 -2.67749,-3.85284 -5.35625,-7.70478 -8.03514,-11.55664 -1.32729,-1.90846 -2.65448,-3.81699 -3.98157,-5.72559 -3.39325,-4.88002 -6.7876,-9.75926 -10.18384,-14.6372 -0.68667,-0.9867 -1.37335,-1.9734 -2.08084,-2.98999 -1.35326,-1.94406 -2.70728,-3.8876 -4.06211,-5.83057 -3.04732,-4.37548 -6.07742,-8.76006 -9.05506,-13.18335 -0.51054,-0.75547 -1.02108,-1.51094 -1.54709,-2.28931 -0.93938,-1.39363 -1.87318,-2.79106 -2.80033,-4.19287 -1.04015,-1.54108 -2.14861,-3.0357 -3.27112,-4.51782 z"
     fill="#9bfdcb"
     id="path5"
     style="stroke-width:0.999832" />
  <path
     d="m 848.34269,510.38859 c -0.67971,0.0972 -1.35942,0.19439 -2.05973,0.29453 -19.34308,2.817 -38.37037,7.92413 -56.48309,15.26797 5.91958,9.70604 12.50428,18.93455 19.04487,28.22607 3.28964,4.68423 6.55473,9.38549 9.82043,14.08643 0.998,1.43581 0.998,1.43581 2.01617,2.90063 2.03565,2.92876 4.07093,5.85778 6.1061,8.78687 8.21702,11.82627 16.44048,23.64771 24.70312,35.44214 4.44176,6.3431 8.86546,12.69863 13.28411,19.05786 5.5513,7.98933 11.11842,15.96728 16.70093,23.93481 3.79665,5.42139 7.58115,10.85103 11.35287,16.2898 1.36342,1.95997 2.73283,3.91579 4.10849,5.86719 3.15581,4.4867 6.21369,8.97904 9.04652,13.67773 6.88595,11.1842 6.88595,11.1842 11.83977,12.61719 3.50249,-0.21925 6.54625,-0.9635 9.93025,-1.88672 2.64702,-0.36991 5.28065,-0.7018 7.93483,-1 1.20487,-0.165 2.40974,-0.33 3.65112,-0.5 11.53863,-1.40478 23.10203,-1.70378 34.71101,-1.6875 1.1057,4.1e-4 1.1057,4.1e-4 2.2338,8.2e-4 13.5578,0.0228 26.95464,0.73076 40.43934,2.18668 0.9106,0.0912 1.8212,0.1824 2.7594,0.27637 26.1931,2.67318 52.1645,8.70462 77.2138,16.72363 0.8674,0.27763 1.7348,0.55526 2.6285,0.84131 39.5768,12.77416 77.5276,30.81115 113.5184,51.54443 2.7458,1.57565 5.501,3.13303 8.2605,4.68457 11.7513,6.62289 23.2044,13.61871 34.5391,20.92969 1.4083,0.90257 2.8166,1.80492 4.2252,2.70703 29.0864,18.68027 57.4847,38.36127 85.4698,58.64746 2.2792,1.64917 4.5623,3.29271 6.8468,4.93457 17.0426,12.25569 33.7349,24.95945 50.4088,37.71094 0.9771,0.74709 0.9771,0.74709 1.974,1.50928 12.6046,9.64556 25.0458,19.47435 37.3448,29.50634 2.853,2.32599 5.721,4.63148 8.6026,6.92188 6.0435,4.82006 11.9909,9.75728 17.951,14.67969 3.2288,2.66545 6.4745,5.30914 9.7272,7.94531 5.6092,4.58394 11.0649,9.33904 16.5257,14.09766 3.6974,3.22039 7.423,6.4068 11.1525,9.58984 4.8849,4.17507 9.697,8.41955 14.4561,12.7383 2.0569,1.85901 4.1336,3.69101 6.2245,5.51171 3.898,3.3962 7.7337,6.859 11.5703,10.3242 2.0621,1.8502 4.1415,3.6752 6.2362,5.4883 5.2678,4.591 10.364,9.3701 15.4889,14.1191 2.7269,2.5265 5.4566,5.0498 8.1906,7.5684 0.9381,0.8663 1.8763,1.7325 2.8428,2.625 2.4849,2.2226 5.0292,4.3204 7.6537,6.375 -1.4023,-4.5947 -3.2784,-8.7826 -5.4903,-13.0312 -0.3417,-0.6641 -0.6834,-1.3282 -1.0354,-2.0123 -1.1106,-2.1547 -2.2279,-4.3057 -3.346,-6.4565 -0.777,-1.5015 -1.5539,-3.0031 -2.3307,-4.5046 -5.1305,-9.896 -10.3828,-19.7182 -15.7648,-29.47979 -2.9106,-5.28649 -5.7478,-10.61121 -8.5825,-15.93872 -6.4183,-12.06202 -12.9926,-24.01581 -19.8464,-35.83667 -1.7326,-2.99653 -3.4516,-6.00067 -5.1691,-9.00586 -11.4487,-19.99984 -23.3548,-39.6938 -35.7405,-59.12646 -1.8632,-2.92536 -3.7202,-5.85467 -5.5777,-8.78369 -7.0309,-11.06435 -14.1199,-22.06227 -21.6514,-32.79297 -1.5796,-2.25494 -3.1474,-4.5178 -4.7147,-6.78125 -12.099,-17.43448 -24.7115,-34.46531 -37.6944,-51.25 -0.4805,-0.62246 -0.961,-1.24491 -1.456,-1.88623 -5.7963,-7.49541 -11.7587,-14.81583 -17.9125,-22.02002 -2.4633,-2.88926 -4.86,-5.82893 -7.2475,-8.78125 -3.6245,-4.45441 -7.3969,-8.74199 -11.2619,-12.98828 -1.855,-2.04464 -3.6757,-4.11206 -5.4825,-6.19922 -6.6869,-7.66688 -13.5546,-15.14484 -20.8055,-22.28125 -1.7732,-1.80433 -3.4203,-3.66865 -5.0608,-5.59375 -6.6904,-7.7647 -14.084,-14.9681 -21.8833,-21.60938 -2.0417,-1.8021 -3.9471,-3.70001 -5.8574,-5.64062 -3.1701,-3.21435 -6.4537,-6.21751 -9.8756,-9.16016 -2.3452,-2.03493 -4.6369,-4.12275 -6.9312,-6.21484 -5.2472,-4.73115 -10.6896,-9.18377 -16.1821,-13.625 -1.2308,-1.01083 -2.4608,-2.0226 -3.6902,-3.03516 -21.3384,-17.5375 -43.7484,-33.5107 -67.286,-47.96484 -0.9867,-0.60836 -0.9867,-0.60836 -1.9934,-1.229 -31.1317,-19.13908 -63.8486,-35.68046 -97.973,-48.771 -0.6204,-0.24025 -1.2409,-0.4805 -1.8802,-0.72803 -7.6872,-2.97142 -15.4242,-5.77112 -23.2363,-8.39697 -0.6789,-0.22945 -1.3577,-0.45891 -2.0572,-0.69531 -26.2815,-8.71087 -53.4771,-14.82775 -80.79,-19.17969 -1.7065,-0.2782 -1.7065,-0.2782 -3.44754,-0.56201 -7.8327,-1.2684 -15.6748,-2.41621 -23.5434,-3.43799 -0.9138,-0.12004 -1.8276,-0.24009 -2.7691,-0.36377 -40.97371,-5.08648 -83.88257,-2.08135 -124.62557,3.80127 z"
     fill="#fe2199"
     id="path6"
     style="stroke-width:0.999832" />
  <path
     d="m 960.74241,738.95109 c -4.01382,1.64082 -6.88842,4.44397 -9.99664,7.375 -0.56723,0.52876 -1.13447,1.05751 -1.7189,1.60229 -4.46951,4.19333 -8.80299,8.51321 -13.10839,12.87403 -2.61776,2.64035 -5.26936,5.17898 -8.1025,7.58618 -3.72083,3.1626 -7.12876,6.59221 -10.55895,10.0625 -3.38892,3.42845 -6.74967,6.82261 -10.43399,9.9375 -4.57448,3.8765 -8.70944,8.18775 -12.92291,12.44678 -3.54847,3.57254 -7.16433,6.96169 -11.01045,10.21338 -3.59803,3.22804 -6.94545,6.71008 -10.34272,10.14697 -2.82152,2.84209 -5.64884,5.60527 -8.70947,8.19287 -3.90389,3.30823 -7.46281,6.92764 -11.05879,10.5625 -5.34285,5.41495 -5.34285,5.41495 -10.9963,10.5 -4.55706,3.85122 -8.66811,8.14663 -12.86067,12.38452 -3.54839,3.57246 -7.16418,6.96152 -11.01021,10.21314 -3.59803,3.22804 -6.94545,6.71008 -10.34272,10.14697 -2.82152,2.84209 -5.64884,5.60527 -8.70947,8.19287 -4.57448,3.8765 -8.70944,8.18775 -12.92291,12.44678 -3.54848,3.57254 -7.16433,6.96169 -11.01046,10.21338 -3.59802,3.22804 -6.94544,6.71008 -10.34271,10.14697 -2.82152,2.84209 -5.64884,5.60527 -8.70948,8.19287 -4.57448,3.8765 -8.70943,8.18775 -12.9229,12.44678 -3.54848,3.57254 -7.16433,6.96169 -11.01046,10.21338 -3.59803,3.22804 -6.94544,6.71008 -10.34271,10.14697 -2.82152,2.84209 -5.64884,5.60527 -8.7095,8.19287 -4.5721,3.8745 -8.7051,8.18327 -12.9163,12.44019 -3.6051,3.62964 -7.2778,7.08668 -11.185,10.39184 -4.1776,3.70267 -8.0401,7.74808 -11.9491,11.73048 1.6066,4.8781 4.3946,8.636 7.3726,12.75 1.0909,1.5259 2.1817,3.052 3.2723,4.5781 0.5577,0.7767 1.1153,1.5533 1.6899,2.3535 2.5728,3.5921 5.1149,7.2056 7.6585,10.8184 0.9995,1.4168 1.9992,2.8335 2.999,4.25 0.4948,0.7013 0.9897,1.4025 1.4995,2.125 33.48875,47.4583 66.97749,94.9167 100.46624,142.375 0.49556,0.7026 0.99112,1.4052 1.50169,2.1292 0.99104,1.4037 1.98336,2.8066 2.97703,4.2084 2.6429,3.7325 5.25584,7.4822 7.83355,11.2601 0.54315,0.7889 1.08631,1.5778 1.64593,2.3906 1.04694,1.5217 2.08599,3.0489 3.11614,4.582 1.23128,1.7808 2.56669,3.4887 3.9186,5.1797 3.67124,0 4.08013,-0.6765 6.65792,-3.1484 0.70625,-0.6711 1.4125,-1.3421 2.14015,-2.0335 0.74604,-0.7237 1.49207,-1.4474 2.26072,-2.1931 0.76472,-0.7308 1.52944,-1.4616 2.31733,-2.2146 4.90973,-4.7076 9.73233,-9.4938 14.50904,-14.3362 1.89277,-1.8653 3.82908,-3.6048 5.8535,-5.3242 3.95844,-3.3803 7.58814,-7.0522 11.24622,-10.75 4.16506,-4.2101 8.35005,-8.2724 12.87458,-12.0977 3.59803,-3.228 6.94544,-6.71 10.34272,-10.1469 2.82151,-2.8421 5.64884,-5.6053 8.70947,-8.1929 4.57448,-3.8765 8.70944,-8.1877 12.9229,-12.4468 3.54848,-3.5725 7.16434,-6.9617 11.01046,-10.2134 3.59803,-3.228 6.94544,-6.71 10.34272,-10.1469 2.82152,-2.8421 5.64884,-5.6053 8.70947,-8.1929 4.57448,-3.8765 8.70944,-8.1877 12.92291,-12.4468 3.54847,-3.5725 7.16433,-6.9617 11.01045,-10.2134 3.59802,-3.228 6.94542,-6.71 10.34272,-10.1469 2.8215,-2.8421 5.6488,-5.6053 8.7095,-8.1929 4.5744,-3.8765 8.7094,-8.1877 12.9229,-12.4468 3.54854,-3.5725 7.16434,-6.9617 11.01044,-10.2134 3.5981,-3.228 6.9455,-6.71 10.3427,-10.1469 2.8216,-2.8421 5.6489,-5.6053 8.7095,-8.1929 3.9039,-3.3082 7.4628,-6.9276 11.0588,-10.5625 5.3429,-5.4149 5.3429,-5.4149 10.9963,-10.5 4.5571,-3.85121 8.6681,-8.14664 12.8607,-12.38453 3.5484,-3.57246 7.1642,-6.96152 11.0102,-10.21314 3.598,-3.22804 6.9454,-6.71008 10.3427,-10.14697 2.8215,-2.84209 5.6488,-5.60527 8.7095,-8.19287 4.5745,-3.8765 8.7094,-8.18775 12.9229,-12.44678 3.5485,-3.57254 7.1643,-6.96169 11.0104,-10.21338 3.5981,-3.22804 6.9455,-6.71008 10.3428,-10.14697 2.8215,-2.84209 5.6488,-5.60527 8.7094,-8.19287 4.5653,-3.86873 8.6996,-8.16608 12.8944,-12.427 3.783,-3.8234 7.6431,-7.40808 11.902,-10.70581 1.2574,-1.42969 1.2574,-1.42969 1.2574,-5.42969 -1.458,-1.51709 -1.458,-1.51709 -3.5223,-2.96094 -1.1471,-0.82045 -1.1471,-0.82045 -2.3173,-1.65747 -1.2536,-0.86951 -1.2536,-0.86951 -2.5326,-1.75659 -1.7497,-1.24908 -3.4978,-2.50044 -5.2443,-3.75391 -0.8955,-0.63953 -1.7909,-1.27907 -2.7135,-1.93798 -4.1105,-2.98313 -8.1058,-6.10672 -12.098,-9.24561 -5.6879,-4.45521 -11.4072,-8.8549 -17.2012,-13.17188 -4.4769,-3.34513 -8.9099,-6.7482 -13.351,-10.14062 -7.0326,-5.37085 -14.0915,-10.70375 -21.1804,-16 -7.1678,-5.35798 -14.2558,-10.80815 -21.3048,-16.32129 -5.3671,-4.19142 -10.7885,-8.30222 -16.246,-12.37475 -5.6096,-4.1893 -11.1794,-8.42935 -16.7434,-12.67896 -6.2283,-4.75586 -12.4679,-9.49459 -18.7437,-14.1875 -7.4929,-5.60486 -14.92364,-11.28892 -22.35044,-16.98096 -4.584,-3.51096 -9.1726,-7.0158 -13.7625,-10.51904 -0.91,-0.69577 -1.82,-1.39154 -2.7576,-2.1084 -0.8503,-0.64872 -1.70051,-1.29744 -2.57653,-1.96582 -0.75562,-0.5771 -1.51124,-1.15419 -2.28976,-1.74878 -1.62874,-1.2143 -3.30668,-2.36234 -4.99686,-3.4895 z"
     fill="#fe2199"
     id="path7"
     style="stroke-width:0.999832" />
  <path
     d="m 1075.7936,978.9589 c -3.1966,1.51815 -5.5596,3.88199 -8.0871,6.30469 -0.8509,0.7999 -0.8509,0.7999 -1.7189,1.61597 -4.4599,4.21888 -8.7973,8.55679 -13.1106,12.92483 -2.5964,2.61921 -5.2245,5.13761 -8.0378,7.52171 -3.922,3.3324 -7.5046,6.9692 -11.1213,10.625 -4.165,4.2101 -8.35,8.2724 -12.8746,12.0977 -3.598,3.228 -6.9454,6.71 -10.3427,10.1469 -2.8215,2.8421 -5.6488,5.6053 -8.7094,8.1929 -4.57454,3.8765 -8.70954,8.1877 -12.92304,12.4468 -3.5484,3.5725 -7.1643,6.9617 -11.0104,10.2134 -3.5891,3.22 -6.93,6.6919 -10.31636,10.1228 -3.62581,3.6562 -7.33783,7.1287 -11.30919,10.4123 -1.48778,1.3672 -1.48778,1.3672 -3.48711,4.3672 0.77123,2.3071 0.77123,2.3071 1.99933,5 1.2792,4.4287 2.37948,8.9034 3.49882,13.375 0.31523,1.2561 0.63047,2.5122 0.95525,3.8064 1.89714,7.7275 3.45995,15.3139 4.25394,23.2288 0.28897,2.5898 0.28897,2.5898 1.28863,5.5898 0.47445,4.0284 0.71534,8.0792 0.99966,12.125 0.0883,1.2369 0.17655,2.4737 0.26749,3.748 0.59545,8.8465 0.95178,17.6827 1.17868,26.5456 1.06992,41.7592 3.11326,83.0831 32.54236,115.5814 0.82864,0.9591 1.65724,1.9181 2.51094,2.9063 10.1379,11.5911 22.048,21.0765 34.4767,30.0937 0,-3.6564 -1.0786,-4.9318 -2.999,-8 -9.1884,-17.6581 -5.2003,-36.6926 0.4959,-54.8477 2.5826,-7.9792 5.3622,-15.9041 8.5284,-23.6718 6.8603,-17.289 10.1631,-36.6992 4.2369,-54.6485 -1.4348,-3.2116 -3.2403,-5.9615 -5.2639,-8.832 7.2112,5.2119 13.9678,10.6008 20.4814,16.6797 2.0988,1.9394 4.24,3.7585 6.4471,5.5703 26.6867,23.3858 43.9748,58.9795 60.4797,89.6875 6.0573,11.2699 12.4479,22.3252 18.9531,33.3413 1.4854,2.5224 2.9585,5.0515 4.4257,7.5845 18.5242,31.9262 42.6565,62.5741 72.1515,85.1367 1.5,1.1911 1.5,1.1911 3.0303,2.4063 7.4802,5.9118 15.2518,11.2886 23.2475,16.477 1.5233,0.9932 3.0345,2.0048 4.5439,3.019 6.4669,4.2772 13.2119,7.7189 20.1651,11.1133 3.6702,1.8001 7.2333,3.7462 10.805,5.7344 5.5708,3.0346 11.1756,5.2473 17.1817,7.25 1.2939,0.4718 2.5854,0.9505 3.8737,1.4375 0.6392,0.2385 1.2783,0.477 1.9368,0.7227 1.6527,0.6347 3.2966,1.2924 4.9359,1.9609 9.2386,3.7082 18.6218,6.3798 28.2405,8.8789 1.5463,0.4157 1.5463,0.4157 3.1239,0.8398 17.1259,4.3062 35.7243,7.4384 53.4196,7.2227 0.7223,0 1.4445,-0.01 2.1887,-0.014 1.7488,-0.012 3.4976,-0.03 5.2463,-0.049 -1.6955,-3.3921 -5.6347,-4.1464 -8.997,-5.5625 -23.1654,-10.0604 -44.1002,-23.2097 -62.7094,-40.3516 -2.0964,-1.9274 -4.2318,-3.7935 -6.3924,-5.6484 -6.8714,-6.0197 -12.8818,-12.4759 -18.5953,-19.6055 -1.4531,-1.8108 -2.925,-3.6068 -4.4204,-5.3828 -4.6339,-5.5141 -8.9251,-11.2048 -13.0971,-17.0742 -0.4953,-0.6924 -0.9905,-1.3848 -1.5007,-2.0981 -3.0168,-4.294 -5.6653,-8.6854 -8.165,-13.2989 -1.19,-2.178 -2.4921,-4.2631 -3.8298,-6.353 -15.1683,-25.2111 -25.3512,-54.9859 -31.7608,-83.5703 -0.509,-2.1865 -1.0779,-4.3526 -1.6498,-6.5234 -9.4066,-37.1775 -9.4473,-75.7832 -9.459,-113.8701 0,-3.3755 -0.014,-6.751 -0.027,-10.1265 0,-2.3221 0.011,-4.6436 0.025,-6.9656 0.015,-21.284 -5.6789,-42.5503 -20.3579,-58.5691 -5.275,-4.7924 -10.7865,-8.5526 -16.9943,-12 10.5073,2.3285 20.7684,5.0319 31.0013,8.3633 1.9998,0.6406 4.0062,1.2522 6.0175,1.8555 14.4117,4.337 28.0196,10.1378 41.6311,16.53 0.9057,0.4206 1.8114,0.8413 2.7446,1.2746 0.8103,0.3808 1.6205,0.7616 2.4553,1.1538 2.1213,0.8228 2.1213,0.8228 5.1203,0.8228 -10.5127,-22.9562 -26.9671,-43.6438 -46.9842,-59 -1.0064,-0.7992 -2.0128,-1.5984 -3.0497,-2.4219 -5.7014,-4.5065 -11.5388,-8.7708 -17.5684,-12.8281 -0.5724,-0.3879 -1.1449,-0.7759 -1.7347,-1.1755 -22.9829,-15.2186 -49.5791,-23.1826 -75.4815,-31.8401 -18.6551,-5.8661 -18.6551,-5.8661 -36.4955,-13.73441 -0.6535,-0.33757 -1.307,-0.67515 -1.9803,-1.02295 -1.8876,-0.98003 -3.7659,-1.97557 -5.6422,-2.97705 -1.5309,-0.80824 -1.5309,-0.80824 -3.0927,-1.63281 -5.3957,-2.89584 -10.592,-5.99823 -15.7096,-9.36328 -2.1906,-1.00341 -2.1906,-1.00341 -4.1001,-0.9956 z"
     fill="#fe610f"
     id="path8"
     style="stroke-width:0.999832" />
  <path
     d="m 373.9396,308.95109 c -0.6894,0.21608 -1.3788,0.43216 -2.0891,0.65479 -41.6107,13.11593 -75.0235,40.96562 -95.1985,79.70458 -18.4587,36.98113 -22.0459,80.14262 -9.7272,119.63282 1.7883,5.12055 3.7822,10.08 6.0488,15.00781 0.2782,0.6057 0.5564,1.2114 0.843,1.83545 18.8771,40.61629 51.4159,68.6181 92.7622,84.56689 3.7531,1.33533 7.5287,2.51239 11.3595,3.59766 0.6674,0.19755 1.3347,0.3951 2.0223,0.59863 22.664,6.44746 51.1105,5.83716 73.9522,0.40137 0.7855,-0.18272 1.5711,-0.36545 2.3805,-0.55371 20.0818,-4.87504 39.0362,-14.14054 55.6,-26.44629 0.9329,-0.69223 1.8659,-1.38445 2.8272,-2.09766 16.8602,-13.1919 30.6229,-29.2947 41.158,-47.90234 0.3323,-0.58556 0.6646,-1.17111 1.007,-1.77441 8.4649,-15.16826 13.8033,-32.18066 16.9869,-49.22559 0.2037,-1.04156 0.4073,-2.08313 0.617,-3.15625 6.6943,-39.26166 -4.2125,-82.05582 -27.0846,-114.44922 -26.2589,-35.60803 -63.8835,-58.50863 -107.4873,-65.39453 -21.5999,-3.17515 -45.1804,-1.85355 -65.9779,5 z"
     fill="#fea312"
     id="path9"
     style="stroke-width:0.999832" />
  <path
     d="m 327.9551,105.95109 c -0.04,0.60135 -0.079,1.2027 -0.1201,1.82227 -1.4145,20.68587 -3.7288,41.30303 -9.8765,61.17773 -0.2355,0.77344 -0.471,1.54687 -0.7137,2.34375 -7.4104,24.10831 -17.8484,47.00379 -33.1028,67.20654 -2.2919,3.05456 -3.8273,5.88852 -5.1704,9.44971 0.7762,0.70546 1.5525,1.41092 2.3523,2.13776 8.4217,7.69247 16.5502,15.63814 24.5956,23.72161 1.2812,1.28345 2.5626,2.56667 3.8441,3.84968 3.3268,3.33161 6.6505,6.66622 9.9735,10.00152 3.4098,3.42126 6.8225,6.83958 10.2349,10.25818 6.6614,6.67427 13.3196,13.35171 19.9757,20.03125 4.6464,-1.54186 9.2901,-3.08593 13.9055,-4.71875 10.6176,-3.69512 20.9264,-6.7251 32.0791,-8.28125 0.9943,-0.14031 0.9943,-0.14031 2.0088,-0.28345 29.855,-3.80702 61.025,0.79747 87.9609,14.28345 0.7033,0.34434 1.4066,0.68868 2.1311,1.04346 9.747,4.80167 18.4066,10.08948 26.8592,16.95654 0.9329,0.7309 1.8659,1.4618 2.8271,2.21484 31.8577,25.32555 51.606,63.36657 56.403,103.59766 3.2648,31.40085 -1.3589,68.35143 -19.2436,95.1875 0.3412,3.09205 1.4427,4.85594 3.4832,7.14453 0.5162,0.58661 1.0324,1.17321 1.5642,1.77759 0.8417,0.93574 0.8417,0.93574 1.7004,1.89038 1.1911,1.34881 2.3821,2.69777 3.573,4.04687 0.6113,0.68772 1.2226,1.37543 1.8524,2.08399 2.8205,3.18355 5.6012,6.40118 8.3824,9.61914 0.5363,0.61899 1.0725,1.23798 1.625,1.87573 9.3447,10.7885 18.5996,21.65217 27.8026,32.56177 3.174,-1.39313 5.2079,-3.00439 7.5717,-5.52734 0.9944,-1.05659 0.9944,-1.05659 2.0089,-2.13453 0.694,-0.75095 1.388,-1.50191 2.103,-2.27563 0.7166,-0.76836 1.4331,-1.53672 2.1714,-2.32837 4.5769,-4.94339 8.9379,-9.9821 13.1282,-15.25757 2.106,-2.59858 4.313,-5.06915 6.5681,-7.53906 4.3727,-4.81241 8.4254,-9.8195 12.4333,-14.9375 0.786,-0.99129 1.5721,-1.98258 2.382,-3.00391 2.8912,-3.64999 5.7568,-7.31957 8.6143,-10.99609 0.6092,-0.78343 1.2184,-1.56686 1.846,-2.37402 7.8338,-10.10324 15.4374,-20.29684 22.5764,-30.90454 3.1172,-4.62777 6.3332,-9.1415 9.6911,-13.59644 7.6837,-10.26059 14.4918,-21.15774 21.46564,-31.90649 3.75001,-5.77268 7.5658,-11.50036 11.39833,-17.21851 -3.13661,-6.01343 -6.68281,-11.44826 -10.72296,-16.89453 -2.4934,-3.40708 -4.88991,-6.86943 -7.27101,-10.35547 -4.5466,-6.64983 -9.1381,-13.26712 -13.7454,-19.875 -6.6553,-9.55299 -13.2321,-19.1572 -19.7785,-28.78516 -4.3597,-6.41178 -8.7528,-12.80036 -13.1498,-19.18652 -2.2714,-3.29979 -4.5397,-6.60168 -6.8083,-9.90332 -2.7249,-3.96534 -5.4501,-7.93048 -8.1769,-11.89453 -0.4435,-0.64485 -0.8869,-1.28971 -1.3438,-1.9541 -0.9015,-1.31074 -1.8032,-2.62129 -2.7052,-3.93164 -2.5229,-3.66815 -5.0341,-7.34386 -7.5331,-11.02832 C 618.104,276.4468 596.2933,250.27 568.53,229.2172 c -1.5759,-1.20549 -3.1294,-2.44019 -4.6815,-3.67627 -24.6044,-19.48101 -52.288,-34.94228 -79.9458,-49.58984 -1.7873,-0.95547 -3.5745,-1.9112 -5.3615,-2.86719 -11.5592,-6.15329 -23.2839,-11.9011 -35.1283,-17.48242 -3.2417,-1.5306 -6.4796,-3.06898 -9.7162,-4.61014 -30.1827,-14.36998 -60.5932,-27.9502 -91.5042,-40.68087 -0.789,-0.32539 -1.5779,-0.65078 -2.3908,-0.98603 -8.2168,-3.37335 -8.2168,-3.37335 -11.8466,-3.37335 z"
     fill="#5efca3"
     id="path10"
     style="stroke-width:0.999832" />
  <path
     d="m 3.0643007,16.951086 c 0.6243,16.827632 2.0842,33.574134 3.609,50.338875 0.2049,2.25252 0.4087,4.505126 0.6125,6.757744 3.9952003,44.091965 9.5463003,87.865595 16.5215003,131.590885 0.1862,1.17208 0.3723,2.34416 0.5641,3.55176 1.0944,6.69713 2.4028,13.32197 3.8544,19.95044 0.927,4.2567 1.8142,8.52068 2.6963,12.78686 7.1626,34.52613 14.7192,69.64835 29.1231,102.02344 9.808704,0.37166 19.119604,-0.60414 28.802504,-2.02637 2.3802,-0.34948 4.762,-0.68609 7.1444,-1.02051 C 154.5383,332.59918 211.6178,311.27315 255.702,271.00578 c 1.9505,-1.76035 3.9362,-3.44653 5.9629,-5.11719 3.8617,-3.29831 7.039,-7.06464 10.309,-10.9375 1.2197,-1.37092 1.2197,-1.37092 2.464,-2.76953 26.4105,-29.91655 44.0045,-68.96273 50.5182,-108.23047 0.148,-0.8843 0.2961,-1.76859 0.4486,-2.67969 1.9792,-12.17341 2.9917,-23.99165 2.5504,-36.32031 C 256.7813,72.476692 182.5175,47.339364 105.8169,31.724035 102.3709,31.020481 98.928305,30.302709 95.486405,29.579992 68.766201,24.022402 42.036801,20.277533 14.892401,17.650305 13.791701,17.5429 13.791701,17.5429 12.668901,17.433325 9.4425007,17.129572 6.3097007,16.951086 3.0643007,16.951086 Z"
     fill="#fe2199"
     id="path11"
     style="stroke-width:0.999832" />
  <path
     d="m 770.80625,497.95109 c -0.65977,0 -1.31955,0 -1.99932,0 -1.45974,2.30628 -2.80076,4.6158 -4.12362,7 -15.17174,26.53025 -33.64943,51.27589 -52.85721,75 -0.6843,0.8482 -1.3685,1.69641 -2.0735,2.57031 -9.4541,11.64746 -19.2556,22.925 -29.4896,33.89014 -2.2092,2.38537 -4.3733,4.81128 -6.5491,7.22705 -3.4167,3.77067 -6.9308,7.36251 -10.598,10.89062 -0.8271,0.8022 -1.6543,1.6044 -2.5065,2.43091 -1.6576,1.60039 -3.3277,3.18789 -5.011,4.76123 -0.7588,0.73453 -1.5177,1.46905 -2.2995,2.22583 -0.6891,0.65154 -1.3782,1.30308 -2.0882,1.97437 -1.3638,2.02954 -1.3638,2.02954 -1.189,4.63672 1.0537,3.05667 2.5842,4.69214 4.8235,7.01782 3.2346,3.45475 6.338,6.94077 9.3094,10.625 3.4368,4.24373 6.938,8.42106 10.4965,12.5625 0.504,0.5866 1.008,1.17321 1.5273,1.77759 2.0715,2.40843 4.1454,4.81489 6.2191,7.22143 5.7832,6.71488 11.5043,13.4627 17.089,20.34473 3.2416,3.93452 6.5718,7.79021 9.899,11.65234 3.03,3.52459 6.00931,7.0819 8.9384,10.69141 3.43092,4.22792 6.94317,8.37528 10.49647,12.5 4.31789,5.01315 8.5481,10.08538 12.71838,15.22266 2.55852,3.1213 5.16155,6.20184 7.77473,9.27734 4.11851,4.84815 8.16522,9.74846 12.1795,14.68359 2.59341,3.15427 5.23104,6.26816 7.87626,9.37891 4.58207,5.39991 9.05898,10.86666 13.43298,16.4375 0.49323,0.62471 0.98645,1.24942 1.49462,1.89307 12.53991,15.89688 24.39188,32.17364 35.49295,49.10693 1.32942,2.00234 2.66366,4.00137 3.99866,6 3.13774,-1.38758 5.22079,-2.99523 7.60681,-5.44922 0.67267,-0.68385 1.34533,-1.36769 2.03838,-2.07226 0.69328,-0.71479 1.38657,-1.42957 2.10086,-2.16602 4.62178,-4.742 9.29619,-9.28977 14.31648,-13.60864 3.12062,-2.75775 6.01413,-5.7287 8.92571,-8.70386 4.1626,-4.21238 8.35028,-8.27262 12.87458,-12.09766 3.59802,-3.22804 6.94544,-6.71008 10.34271,-10.14697 2.82152,-2.84209 5.64884,-5.60527 8.70948,-8.19287 4.57448,-3.8765 8.70943,-8.18775 12.9229,-12.44678 3.54848,-3.57254 7.16433,-6.96169 11.01046,-10.21338 3.59341,-3.2239 6.93676,-6.70115 10.32953,-10.13379 2.94877,-2.97039 5.91918,-5.85314 9.09753,-8.58105 2.80064,-2.40648 5.55857,-4.8431 8.24723,-7.375 0.68168,-0.63293 1.36337,-1.26586 2.06571,-1.91797 1.37063,-1.89453 1.37063,-1.89453 1.08216,-3.81372 -1.16279,-3.4021 -3.33612,-6.17089 -5.39712,-9.08081 -0.4875,-0.69859 -0.975,-1.39718 -1.47728,-2.11694 -1.60557,-2.29823 -3.21933,-4.59058 -4.83309,-6.88306 -1.09402,-1.56336 -2.1874,-3.12717 -3.28015,-4.69141 -2.3234,-3.32477 -4.64986,-6.64738 -6.97812,-9.96875 -3.9253,-5.60366 -7.83074,-11.22104 -11.73434,-16.83984 -5.55275,-7.99154 -11.12179,-15.97136 -16.70532,-23.94141 -4.44189,-6.34337 -8.86579,-12.69912 -13.2846,-19.05859 -5.55281,-7.9915 -11.12179,-15.97136 -16.70532,-23.94141 -4.44189,-6.34337 -8.86579,-12.69912 -13.2846,-19.05859 -4.98581,-7.17549 -9.98161,-14.34374 -14.99496,-21.5 -7.01094,-10.00886 -13.98767,-20.04137 -20.96073,-30.07666 -2.67749,-3.85284 -5.35625,-7.70478 -8.03514,-11.55664 -1.32729,-1.90846 -2.65448,-3.81699 -3.98157,-5.72559 -3.39325,-4.88002 -6.7876,-9.75926 -10.18384,-14.6372 -0.68667,-0.9867 -1.37335,-1.9734 -2.08084,-2.98999 -1.35326,-1.94406 -2.70728,-3.8876 -4.06211,-5.83057 -3.04732,-4.37548 -6.07742,-8.76006 -9.05506,-13.18335 -0.51054,-0.75547 -1.02108,-1.51094 -1.54709,-2.28931 -0.93938,-1.39363 -1.87318,-2.79106 -2.80033,-4.19287 -1.04015,-1.54108 -2.14861,-3.0357 -3.27112,-4.51782 z"
     fill="#5efca3"
     id="path12"
     style="stroke-width:0.999832" />
  <path
     d="m 960.74241,738.95109 c -4.01382,1.64082 -6.88842,4.44397 -9.99664,7.375 -0.56723,0.52876 -1.13447,1.05751 -1.7189,1.60229 -4.46951,4.19333 -8.80299,8.51321 -13.10839,12.87403 -2.61776,2.64035 -5.26936,5.17898 -8.1025,7.58618 -3.72083,3.1626 -7.12876,6.59221 -10.55895,10.0625 -3.38892,3.42845 -6.74967,6.82261 -10.43399,9.9375 -4.57448,3.8765 -8.70944,8.18775 -12.92291,12.44678 -3.54847,3.57254 -7.16433,6.96169 -11.01045,10.21338 -3.59803,3.22804 -6.94545,6.71008 -10.34272,10.14697 -2.82152,2.84209 -5.64884,5.60527 -8.70947,8.19287 -4.56557,3.86895 -8.69655,8.16871 -12.89655,12.4248 -3.77674,3.80982 -7.62614,7.42986 -11.80218,10.80567 -1.35502,1.33203 -1.35502,1.33203 -2.35468,4.33203 0.65978,0 1.31955,0 1.99933,0 0.25515,0.59297 0.51029,1.18594 0.77317,1.79687 1.35235,2.42987 2.70907,3.69549 4.84994,5.45313 2.92753,2.47391 5.68881,5.01267 8.37218,7.75 2.49856,2.53815 5.03613,4.94128 7.7474,7.25 3.59396,3.08562 6.92104,6.38199 10.24655,9.75 3.1818,3.22212 6.34477,6.39053 9.80921,9.3125 4.12315,3.50197 7.88056,7.34615 11.68357,11.1875 4.3345,4.37817 8.66318,8.64397 13.38613,12.60547 3.7434,3.36326 7.22212,7.00881 10.71563,10.62939 1.42677,1.45799 2.90399,2.86621 4.38866,4.26514 0.65978,0 1.31956,0 1.99933,0 0.26898,0.59941 0.53796,1.19881 0.81509,1.81638 1.19068,2.1955 2.29675,3.4599 4.13741,5.12149 0.59334,0.54295 1.18668,1.0859 1.79801,1.6453 0.64114,0.57777 1.28229,1.15554 1.94286,1.75081 1.37227,1.25893 2.7429,2.51964 4.11202,3.78199 0.69963,0.64492 1.39926,1.28984 2.12009,1.95431 3.18322,2.96921 6.28668,6.01551 9.37788,9.08011 0.60742,0.6022 1.21484,1.20439 1.84067,1.82484 1.90374,1.89148 3.80455,3.78587 5.70464,5.68102 0.66734,0.66474 1.33468,1.32948 2.02225,2.01436 3.52198,3.50835 7.04122,7.01943 10.558,10.533 3.58766,3.58341 7.18466,7.15742 10.78376,10.72938 2.8114,2.79364 5.616,5.59411 8.4189,8.39642 1.3221,1.3195 2.6466,2.6366 3.9738,3.9509 7.6409,7.5722 14.68554,15.2869 21.16934,23.8795 1.6479,2.1325 3.2223,4.02 5.1937,5.8402 0.7268,-0.7444 0.7268,-0.7444 1.4683,-1.5039 3.2881,-3.3335 6.5782,-6.5948 10.1528,-9.6211 3.9952,-3.4278 7.6718,-7.1353 11.3712,-10.875 5.3429,-5.415 5.3429,-5.415 10.9963,-10.5 4.5571,-3.85121 8.6681,-8.14664 12.8607,-12.38453 3.5484,-3.57246 7.1642,-6.96152 11.0102,-10.21314 3.598,-3.22804 6.9454,-6.71008 10.3427,-10.14697 2.8215,-2.84209 5.6488,-5.60527 8.7095,-8.19287 4.5745,-3.8765 8.7094,-8.18775 12.9229,-12.44678 3.5485,-3.57254 7.1643,-6.96169 11.0104,-10.21338 3.5981,-3.22804 6.9455,-6.71008 10.3428,-10.14697 2.8215,-2.84209 5.6488,-5.60527 8.7094,-8.19287 4.5653,-3.86873 8.6996,-8.16608 12.8944,-12.427 3.783,-3.8234 7.6431,-7.40808 11.902,-10.70581 1.2574,-1.42969 1.2574,-1.42969 1.2574,-5.42969 -1.458,-1.51709 -1.458,-1.51709 -3.5223,-2.96094 -1.1471,-0.82045 -1.1471,-0.82045 -2.3173,-1.65747 -1.2536,-0.86951 -1.2536,-0.86951 -2.5326,-1.75659 -1.7497,-1.24908 -3.4978,-2.50044 -5.2443,-3.75391 -0.8955,-0.63953 -1.7909,-1.27907 -2.7135,-1.93798 -4.1105,-2.98313 -8.1058,-6.10672 -12.098,-9.24561 -5.6879,-4.45521 -11.4072,-8.8549 -17.2012,-13.17188 -4.4769,-3.34513 -8.9099,-6.7482 -13.351,-10.14062 -7.0326,-5.37085 -14.0915,-10.70375 -21.1804,-16 -7.1678,-5.35798 -14.2558,-10.80815 -21.3048,-16.32129 -5.3671,-4.19142 -10.7885,-8.30222 -16.246,-12.37475 -5.6096,-4.1893 -11.1794,-8.42935 -16.7434,-12.67896 -6.2283,-4.75586 -12.4679,-9.49459 -18.7437,-14.1875 -7.4929,-5.60486 -14.92364,-11.28892 -22.35044,-16.98096 -4.584,-3.51096 -9.1726,-7.0158 -13.7625,-10.51904 -0.91,-0.69577 -1.82,-1.39154 -2.7576,-2.1084 -0.8503,-0.64872 -1.70051,-1.29744 -2.57653,-1.96582 -0.75562,-0.5771 -1.51124,-1.15419 -2.28976,-1.74878 -1.62874,-1.2143 -3.30668,-2.36234 -4.99686,-3.4895 z"
     fill="#cc1088"
     id="path13"
     style="stroke-width:0.999832" />
  <path
     d="m 373.9396,308.95109 c -0.6894,0.21608 -1.3788,0.43216 -2.0891,0.65479 -41.6107,13.11593 -75.0235,40.96562 -95.1985,79.70458 -18.4587,36.98113 -22.0459,80.14262 -9.7272,119.63282 1.7883,5.12055 3.7822,10.08 6.0488,15.00781 0.2782,0.6057 0.5564,1.2114 0.843,1.83545 18.8771,40.61629 51.4159,68.6181 92.7622,84.56689 3.7531,1.33533 7.5287,2.51239 11.3595,3.59766 0.6674,0.19755 1.3347,0.3951 2.0223,0.59863 22.664,6.44746 51.1105,5.83716 73.9522,0.40137 0.7855,-0.18272 1.5711,-0.36545 2.3805,-0.55371 20.0818,-4.87504 39.0362,-14.14054 55.6,-26.44629 0.9329,-0.69223 1.8659,-1.38445 2.8272,-2.09766 16.8602,-13.1919 30.6229,-29.2947 41.158,-47.90234 0.3323,-0.58556 0.6646,-1.17111 1.007,-1.77441 8.4649,-15.16826 13.8033,-32.18066 16.9869,-49.22559 0.2037,-1.04156 0.4073,-2.08313 0.617,-3.15625 6.6943,-39.26166 -4.2125,-82.05582 -27.0846,-114.44922 -26.2589,-35.60803 -63.8835,-58.50863 -107.4873,-65.39453 -21.5999,-3.17515 -45.1804,-1.85355 -65.9779,5 z m 72.9755,42 c 0.7372,0.1882 1.4744,0.37641 2.2339,0.57031 27.2743,7.04177 51.1318,25.39445 65.7433,49.42969 5.3817,9.59995 10.2663,19.66714 13.1206,30.3125 0.3324,1.21301 0.6649,2.42602 1.0074,3.67578 6.8785,29.06591 0.8618,60.11993 -14.2381,85.47608 -7.5307,12.04845 -17.1599,23.44279 -28.8802,31.53564 -1.6198,1.12148 -1.6198,1.12148 -3.2723,2.26562 -12.7025,8.57416 -25.9358,13.90694 -40.7129,17.73438 -0.9201,0.24879 -1.8402,0.49758 -2.7881,0.75391 -18.6359,4.23146 -41.4378,1.79737 -59.1911,-4.75391 -0.9819,-0.35965 -1.9638,-0.7193 -2.9755,-1.08984 -12.8386,-5.03212 -23.6428,-11.8786 -34.012,-20.91016 -0.6328,-0.50016 -1.2655,-1.00031 -1.9174,-1.51563 -19.5494,-15.57322 -32.7146,-43.24353 -35.8136,-67.7373 -3.1078,-33.31442 4.7139,-63.42988 25.9185,-89.42285 2.2002,-2.52256 4.4695,-4.93581 6.8141,-7.32422 0.7848,-0.80953 1.5696,-1.61906 2.3782,-2.45313 19.9228,-19.35141 47.505,-29.71188 75.0062,-29.7871 2.1214,-0.01 4.2418,-0.0407 6.3629,-0.0723 8.7624,-0.0682 16.749,0.9248 25.2161,3.3125 z"
     fill="#fe2298"
     id="path14"
     style="stroke-width:0.999832" />
  <path
     d="m 465.9087,829.95109 c -13.2816,12.81722 -19.0125,32.27549 -23.4154,49.77588 -0.564,2.17591 -1.1796,4.32963 -1.8144,6.48584 -11.4052,39.43697 -14.3861,83.43657 -13.7922,124.33599 0.055,3.8938 -0.022,7.7051 -0.3358,11.5859 -0.2672,4.3688 -0.1292,7.6616 1.3706,11.8164 4.116,3.8752 8.6981,5.6936 13.9128,7.7505 3.4938,1.4167 6.912,2.9763 10.333,4.5581 129.9733,59.6914 129.9733,59.6914 171.6883,59.6914 -0.1445,-2.3959 -0.2905,-4.7917 -0.4373,-7.1875 -0.039,-0.6542 -0.079,-1.3084 -0.1191,-1.9824 -0.1959,-3.1809 -0.4002,-6.3562 -0.6883,-9.5303 -3.3278,-37.6434 -5.2576,-90.29061 12.2411,-125.29981 0.5193,-2.75 0.5193,-2.75 0,-6 -2.1167,-2.42712 -4.6816,-4.16136 -7.3101,-6 -1.1445,-0.8364 -1.1445,-0.8364 -2.3122,-1.6897 -1.6236,-1.18448 -3.2531,-2.3608 -4.888,-3.52954 -3.1957,-2.29091 -6.3506,-4.63452 -9.5078,-6.97803 -3.1797,-2.35659 -6.3719,-4.69609 -9.5634,-7.03662 -3.9726,-2.91552 -7.9376,-5.84129 -11.9033,-8.76611 -1.5827,-1.16672 -3.1655,-2.33338 -4.7484,-3.5 -0.7835,-0.5775 -1.5669,-1.155 -2.3742,-1.75 -7.1226,-5.25 -7.1226,-5.25 -9.4963,-6.99951 -1.5846,-1.16807 -3.169,-2.33637 -4.7533,-3.50488 -3.9283,-2.897 -7.8592,-5.79022 -11.7963,-8.6753 -8.3556,-6.12972 -16.6488,-12.3295 -24.8745,-18.63281 -6.4094,-4.91155 -12.8635,-9.73937 -19.4309,-14.4375 -8.427,-6.02953 -16.6612,-12.29617 -24.8862,-18.59766 -6.9915,-5.35576 -14.0428,-10.63137 -21.0984,-15.90234 z"
     fill="#cc1088"
     id="path15"
     style="stroke-width:0.999832" />
  <path
     d="m 930.4401,504.70109 c -1.00727,-6.7e-4 -2.01453,-0.001 -3.05232,-0.002 -26.54799,0.028 -52.77071,1.89595 -79.04509,5.68954 -0.67971,0.0972 -1.35942,0.19439 -2.05973,0.29453 -19.34308,2.817 -38.37037,7.92413 -56.48309,15.26797 5.91958,9.70604 12.50428,18.93455 19.04487,28.22607 3.28964,4.68423 6.55473,9.38549 9.82043,14.08643 0.66533,0.95721 1.33067,1.91442 2.01617,2.90063 2.03565,2.92876 4.07093,5.85778 6.1061,8.78687 8.21702,11.82627 16.44048,23.64771 24.70312,35.44214 4.44176,6.3431 8.86546,12.69863 13.28411,19.05786 5.5513,7.98933 11.11842,15.96728 16.70093,23.93481 3.79665,5.42139 7.58115,10.85103 11.35287,16.2898 1.36342,1.95997 2.73283,3.91579 4.10849,5.86719 3.15581,4.4867 6.21369,8.97904 9.04652,13.67773 6.88595,11.1842 6.88595,11.1842 11.83977,12.61719 3.50249,-0.21925 6.54625,-0.9635 9.93025,-1.88672 2.64702,-0.36991 5.28065,-0.7018 7.93483,-1 1.20487,-0.165 2.40974,-0.33 3.65112,-0.5 11.53889,-1.40481 23.10188,-1.70231 34.71101,-1.6875 0.7345,-6e-5 1.469,-1.2e-4 2.2257,-1.8e-4 17.5756,0.0204 34.92314,1.2816 52.31844,3.81268 4.3874,0.52666 8.7105,0.56185 13.1206,0.375 -0.6099,-5.53621 -1.5462,-10.83984 -2.8545,-16.25 -0.1819,-0.76705 -0.3638,-1.53411 -0.5513,-2.3244 -0.5887,-2.47632 -1.1839,-4.95103 -1.7799,-7.4256 -0.4127,-1.72295 -0.8252,-3.44593 -1.2376,-5.16895 -1.0075,-4.2024 -2.0213,-8.40323 -3.0365,-12.60376 -0.7347,-3.04819 -1.4589,-6.09885 -2.1847,-9.14917 -3.3366,-13.8667 -7.3554,-27.46887 -11.6999,-41.05102 -0.702,-2.19767 -1.4002,-4.39651 -2.0982,-6.59546 -9.9076,-31.17362 -20.72864,-61.77874 -33.49704,-91.90503 -0.7476,-1.8158 -1.4191,-3.66362 -2.0399,-5.52661 -2.5821,-0.31523 -5.1646,-0.6272 -7.7474,-0.9375 -0.71,-0.087 -1.42,-0.17402 -2.1516,-0.26367 -2.36353,-0.28247 -4.72856,-0.54412 -7.09525,-0.79883 -0.8269,-0.0926 -1.6538,-0.1853 -2.50575,-0.28076 -10.24109,-1.00976 -20.51482,-0.96302 -30.79556,-0.96924 z"
     fill="#cc1088"
     id="path16"
     style="stroke-width:0.999832" />
  <path
     d="m 729.82003,438.95109 c -3.58133,1.19418 -3.90634,1.99984 -5.82617,5.13672 -0.54444,0.87608 -1.08889,1.75216 -1.64983,2.65478 -0.58439,0.95568 -1.16879,1.91136 -1.77089,2.896 -7.27164,11.65941 -14.92154,23.01649 -22.74234,34.3125 -0.5929,0.85868 -1.1859,1.71735 -1.7968,2.60205 -11.6142,16.80033 -23.6327,33.2903 -36.1904,49.39795 -0.8904,1.14971 -1.7807,2.29946 -2.671,3.44922 -4.9807,6.40931 -10.0699,12.70209 -15.345,18.87158 -2.8251,3.30461 -5.5737,6.65684 -8.2877,10.0542 -4.2836,5.27326 -8.8776,10.21882 -13.5475,15.14795 -2.8148,2.97336 -5.5682,5.96851 -8.2225,9.08642 -4.9025,5.64341 -10.2378,10.87066 -15.5292,16.14527 -1.8088,1.80398 -3.6121,3.61325 -5.415,5.42309 -5.8174,5.82271 -11.6796,11.48765 -17.9529,16.82227 -1.7751,1.61968 -3.5459,3.24412 -5.3107,4.875 -4.4096,4.01881 -8.9219,7.85365 -13.5658,11.59766 -2.3288,1.87782 -4.6282,3.78758 -6.9195,5.71093 -9.6804,8.1043 -19.6256,15.73178 -29.8562,23.12696 -2.2153,1.60742 -4.4173,3.2313 -6.6159,4.86132 -39.6152,29.22842 -82.8126,53.81872 -127.5041,74.35547 -3.0836,1.4357 -6.1263,2.93648 -9.161,4.47266 3.7679,3.97012 7.7714,7.21126 12.1835,10.4375 5.9753,4.42498 11.8859,8.92079 17.744,13.5 1.4994,1.16943 2.9989,2.3387 4.4985,3.50781 0.7461,0.58169 1.4922,1.16338 2.2609,1.7627 3.9054,3.04277 7.815,6.07983 11.7344,9.10449 0.7157,0.55744 1.4315,1.11488 2.1689,1.68921 0.6644,0.51119 1.3288,1.02239 2.0133,1.54907 0.5817,0.45029 1.1634,0.90057 1.7628,1.3645 1.6149,1.08472 1.6149,1.08472 4.6139,2.08472 2.4533,-0.96533 2.4533,-0.96533 5.3888,-2.50781 1.0897,-0.56767 2.1793,-1.13534 3.3019,-1.72022 1.1854,-0.6317 2.3705,-1.26404 3.5552,-1.89697 1.2259,-0.64701 2.452,-1.29365 3.6782,-1.93994 35.1382,-18.59032 68.8195,-39.64361 101.0366,-62.93506 0.7609,-0.54866 1.5219,-1.09731 2.3059,-1.6626 9.873,-7.13759 19.5039,-14.4919 28.9024,-22.24365 3.6418,-2.99975 7.3594,-5.89336 11.09,-8.78125 5.3086,-4.1288 10.308,-8.4753 15.241,-13.05078 2.0946,-1.94109 4.217,-3.83156 6.3767,-5.69922 4.8602,-4.2255 9.5773,-8.60626 14.3094,-12.97388 1.2218,-1.11054 2.4564,-2.20698 3.7004,-3.29248 8.4303,-7.41162 16.2937,-15.39806 24.2165,-23.34375 2.5097,-2.51588 5.0247,-5.02636 7.5402,-7.53637 1.6176,-1.61882 3.2349,-3.23795 4.8519,-4.85743 0.7416,-0.7398 1.4832,-1.47961 2.2472,-2.24183 4.0468,-4.06621 7.9298,-8.22031 11.668,-12.57277 2.228,-2.58113 4.555,-5.06113 6.8786,-7.55649 4.2707,-4.62397 8.3091,-9.38515 12.2537,-14.29297 2.1726,-2.6575 4.3999,-5.25013 6.6562,-7.83594 6.46404,-7.422 12.40052,-15.1474 18.22897,-23.0747 1.39987,-1.88523 2.82396,-3.74822 4.26126,-5.60498 14.47862,-18.78327 27.28667,-38.88962 39.19776,-59.37891 -3.3372,-6.13711 -7.23105,-11.78923 -11.24622,-17.5 -1.42667,-2.04032 -2.85327,-4.08069 -4.27981,-6.12109 -0.73323,-1.04656 -1.46646,-2.09312 -2.22191,-3.17139 -3.67466,-5.24934 -7.33346,-10.5097 -10.9924,-15.77002 -0.66654,-0.95648 -1.33309,-1.91297 -2.01983,-2.89844 -3.12136,-4.48395 -6.22104,-8.97638 -9.22639,-13.53906 z"
     fill="#fe2299"
     id="path17"
     style="stroke-width:0.999832" />
  <path
     d="M 4.0640007,17.951086 C 18.056501,28.680661 32.159101,39.241066 46.383701,49.66007 c 10.0814,7.388739 20.0877,14.864425 30.015104,22.459229 5.3341,4.080438 10.6905,8.128016 16.073,12.144287 11.518695,8.614306 22.723895,17.598804 33.867495,26.691414 2.9386,2.39605 5.8969,4.76549 8.8681,7.12109 5.4544,4.35406 10.7697,8.86948 16.0776,13.3999 1.7588,1.50059 3.5205,2.99765 5.2824,4.49463 6.3689,5.42393 12.6193,10.94297 18.7788,16.60547 2.7373,2.44462 5.5499,4.76018 8.4074,7.0625 3.7646,3.03944 7.2321,6.17844 10.5941,9.65234 2.3152,2.32698 4.7977,4.43567 7.2827,6.57813 3.5436,3.11777 6.9924,6.33658 10.4442,9.55542 2.8954,2.6913 5.8258,5.32963 8.811,7.92114 4.199,3.65844 8.2502,7.45916 12.2889,11.29297 5.2575,4.97378 10.5353,9.92122 15.8696,14.8125 4.1425,3.80099 8.1638,7.69403 12.1053,11.70312 2.517,2.47473 5.1851,4.7545 7.8607,7.05469 3.1274,2.77396 6.0486,5.74603 8.9618,8.74219 4.2918,-3.98039 7.4737,-8.30579 10.6839,-13.1875 0.5209,-0.79028 1.0419,-1.58055 1.5786,-2.39478 17.2151,-26.45235 29.5426,-56.19557 34.7217,-87.41772 0.148,-0.8843 0.2961,-1.76859 0.4486,-2.67969 1.9792,-12.17341 2.9917,-23.99165 2.5504,-36.32031 C 256.7813,72.476692 182.5175,47.339364 105.8169,31.724035 c -3.446,-0.703554 -6.888595,-1.421326 -10.330495,-2.144043 -23.4127,-4.86966 -46.901604,-8.533266 -70.679404,-11.003906 -0.867,-0.09153 -1.7341,-0.183067 -2.6274,-0.277374 -2.4608,-0.256948 -4.9225,-0.503689 -7.3849,-0.746064 -0.7389,-0.07676 -1.4778,-0.153529 -2.2391,-0.23262 -3.2183003,-0.303317 -5.3857003,-0.40459 -8.4916003,0.631058 z"
     fill="#9b217a"
     id="path18"
     style="stroke-width:0.999832" />
  <path
     d="m 729.82003,438.95109 c -3.58133,1.19418 -3.90634,1.99984 -5.82617,5.13672 -0.54444,0.87608 -1.08889,1.75216 -1.64983,2.65478 -0.58439,0.95568 -1.16879,1.91136 -1.77089,2.896 -7.27164,11.65941 -14.92154,23.01649 -22.74234,34.3125 -0.5929,0.85868 -1.1859,1.71735 -1.7968,2.60205 -11.6142,16.80033 -23.6327,33.2903 -36.1904,49.39795 -0.8904,1.14971 -1.7807,2.29946 -2.671,3.44922 -4.9807,6.40931 -10.0699,12.70209 -15.345,18.87158 -2.8251,3.30461 -5.5737,6.65684 -8.2877,10.0542 -4.8601,5.98304 -10.1427,11.54503 -15.4245,17.15234 -8.9354,9.49352 -8.9354,9.49352 -12.2537,14.47266 13.9953,16.33333 27.9906,32.66667 41.9859,49 3.9795,-1.60178 6.6527,-4.38231 9.61,-7.38281 0.5325,-0.5331 1.065,-1.0662 1.6136,-1.61545 1.1256,-1.12908 2.2489,-2.26057 3.3699,-3.39432 1.6921,-1.71078 3.3919,-3.41359 5.0932,-5.11523 5.1147,-5.1333 10.1463,-10.28733 14.8542,-15.80176 2.2004,-2.57057 4.5143,-5.02661 6.8202,-7.50293 4.2707,-4.62397 8.3091,-9.38515 12.2537,-14.29297 2.1726,-2.6575 4.3999,-5.25013 6.6562,-7.83594 6.46404,-7.422 12.40052,-15.1474 18.22897,-23.0747 1.39987,-1.88523 2.82396,-3.74822 4.26126,-5.60498 14.47862,-18.78327 27.28667,-38.88962 39.19776,-59.37891 -3.3372,-6.13711 -7.23105,-11.78923 -11.24622,-17.5 -1.42667,-2.04032 -2.85327,-4.08069 -4.27981,-6.12109 -0.73323,-1.04656 -1.46646,-2.09312 -2.22191,-3.17139 -3.67466,-5.24934 -7.33346,-10.5097 -10.9924,-15.77002 -0.66654,-0.95648 -1.33309,-1.91297 -2.01983,-2.89844 -3.12136,-4.48395 -6.22104,-8.97638 -9.22639,-13.53906 z"
     fill="#9b227a"
     id="path21"
     style="stroke-width:0.999832" />
  <path
     d="m 114.5268,375.13859 c -2.7486,0.89361 -3.6741,1.62098 -5.4981,3.8125 -10.694495,27.05988 6.5192,60.77905 16.9943,85 0.6896,1.60392 0.6896,1.60392 1.3931,3.24023 5.1964,12.06553 10.477,24.05539 16.5423,35.71192 1.1623,2.24925 2.2972,4.51137 3.4324,6.77441 5.1826,10.22698 10.8092,20.13222 16.8068,29.89844 0.6527,1.06589 1.3054,2.13179 1.9779,3.22998 4.3166,6.95004 8.953,13.57902 13.8293,20.14502 1.1538,1.58984 2.3058,3.18094 3.4559,4.77344 6.079,8.35885 12.2609,16.52196 19.0366,24.32812 2.3372,2.71058 4.5791,5.47541 6.8102,8.27344 9.5952,11.72959 20.3649,22.4029 31.052,33.125 0.5158,0.51856 1.0315,1.03711 1.5628,1.57138 5.8389,5.86384 11.7587,11.5531 18.0557,16.92862 1.6071,1.45446 3.2113,2.91221 4.8108,4.375 4.3615,3.93599 8.8427,7.68908 13.4135,11.37891 1.8093,1.46786 3.6039,2.95424 5.381,4.46093 15.7074,13.24525 34.8051,26.94021 56.3678,25.78516 0.6598,-0.33 1.3195,-0.66 1.9993,-1 -0.5017,-9.53475 -7.3017,-16.86211 -13.9953,-23 -1.1443,-1.17563 -1.1443,-1.17563 -2.3117,-2.375 -10.7176,-10.47189 -22.5668,-19.17775 -34.6134,-28.05176 -9.329,-6.88774 -17.7358,-14.50978 -26.0537,-22.57324 -0.5345,-0.51804 -1.0689,-1.03608 -1.6196,-1.56982 -5.0467,-4.91773 -9.9448,-9.92634 -14.5156,-15.29346 -1.8536,-2.13074 -3.77,-4.19375 -5.7005,-6.25464 -5.9446,-6.36967 -11.3549,-13.04474 -16.6563,-19.95435 -1.5576,-2.00902 -3.1433,-3.99307 -4.7357,-5.97461 -28.0711,-35.12681 -53.4297,-76.50753 -68.7347,-118.95312 -0.3453,-0.90621 -0.6907,-1.81242 -1.0465,-2.74609 -1.8283,-4.84648 -3.3876,-9.69733 -4.764,-14.69141 -17.2951,-61.529 -17.2951,-61.529 -32.6766,-60.375 z"
     fill="#c3fee3"
     id="path22"
     style="stroke-width:0.999832" />
  <path
     d="m 410.115,367.76359 c -0.8511,-0.0122 -1.7023,-0.0245 -2.5792,-0.0371 -14.736,-0.0337 -29.9758,5.08035 -40.7812,15.29102 -5.4381,5.7499 -9.1588,11.46002 -10.3091,19.37109 1.2206,8.69935 4.9158,15.73218 11.4962,21.5625 14.478,10.41918 30.7858,11.11263 48.0541,12.76758 22.3312,2.3184 39.2882,12.5529 54.3465,28.95312 5.1237,5.40338 11.0102,9.2839 18.6212,9.8418 7.2727,-1.0393 12.1666,-5.08842 16.6819,-10.73438 5.5241,-8.0818 5.9925,-17.32724 5.2482,-26.82812 -2.8013,-13.739 -9.355,-24.067 -18.9936,-34 -0.5296,-0.60328 -1.0593,-1.20656 -1.6049,-1.82813 -18.3888,-20.2392 -53.4796,-34.33942 -80.1801,-34.35937 z"
     fill="#fbfed7"
     id="path23"
     style="stroke-width:0.999832" />
  <path
     d="m 481.9034,1109.9511 c -4.7043,0.7059 -4.7043,0.7059 -5.998,2 -0.4296,6.2101 0.8311,11.8973 2.1867,17.9375 0.2248,1.0176 0.4496,2.0353 0.6812,3.0837 1.6395,7.2389 3.6165,14.2765 5.9377,21.3226 1.2104,3.7158 2.275,7.4519 3.3153,11.2187 1.3213,4.676 2.8604,9.0075 4.8734,13.4375 0.7166,1.8509 1.4234,3.7056 2.1243,5.5625 5.6628,14.7658 11.5196,29.3394 18.8164,43.3799 1.1248,2.2003 2.2064,4.4185 3.2816,6.6435 6.0905,12.549 12.9194,24.5741 20.0606,36.5523 1.5574,2.6193 3.097,5.2479 4.6303,7.8813 11.9116,20.3316 25.2454,39.8976 39.0572,58.9805 0.5456,0.7568 1.0911,1.5137 1.6532,2.2935 7.1371,9.8793 14.4906,19.5163 22.2411,28.9213 3.0182,3.667 5.9355,7.4065 8.8447,11.1602 3.835,4.9306 7.8505,9.6156 12.0819,14.2148 2.2321,2.4868 4.324,5.0514 6.4119,7.6602 4.0981,5.0742 8.4808,9.8123 12.9478,14.5576 3.2419,3.4627 6.3298,6.9851 9.2947,10.6924 4.0145,5.0161 8.3113,9.708 12.7164,14.3789 2.7507,2.9195 5.4404,5.8702 8.0579,8.9102 12.4553,14.3083 26.1285,27.3743 41.7047,38.2109 0.55943,0.3994 1.11885,0.7989 1.69523,1.2104 8.99636,6.395 8.99636,6.395 15.29906,5.7896 2.3742,-1.6875 2.3742,-1.6875 3.99865,-4 0.50003,-3.3384 0.20511,-4.6842 -1.65179,-7.543 -0.75384,-0.8727 -1.50769,-1.7454 -2.28438,-2.6445 -1.09598,-1.2897 -1.09598,-1.2897 -2.2141,-2.6055 -0.94672,-1.0709 -1.89596,-2.1396 -2.8467,-3.207 -0.6444,-0.7315 -1.28879,-1.4629 -1.95272,-2.2166 -5.6609,-6.3719 -11.56523,-12.4571 -17.60325,-18.4709 -0.8936,-0.8978 -1.7873,-1.7957 -2.708,-2.7207 -4.472,-4.4669 -8.9971,-8.7951 -13.7915,-12.9133 -3.5042,-3.0448 -6.8669,-6.2415 -10.2415,-9.4285 -0.7388,-0.6974 -1.4777,-1.3948 -2.239,-2.1133 -8.511,-8.0593 -16.8509,-16.1905 -24.4395,-25.1367 -0.9011,-1.0386 -1.8032,-2.0762 -2.7061,-3.1133 -6.4971,-7.4849 -12.7331,-15.1283 -18.7945,-22.9692 -1.5984,-2.0547 -3.215,-4.0941 -4.8343,-6.1323 -7.8298,-9.8951 -15.1043,-20.0572 -22.1303,-30.5362 -1.881,-2.7868 -3.8019,-5.5445 -5.7248,-8.3025 -10.7641,-15.4769 -20.4866,-31.5535 -29.7818,-47.9465 -0.528,-0.9249 -1.056,-1.8498 -1.6,-2.8027 -8.6114,-15.0964 -16.7423,-30.3987 -24.6541,-45.8685 -2.0393,-3.9834 -4.1036,-7.9528 -6.1842,-11.9147 -5.5226,-10.5182 -10.8863,-21.077 -15.9539,-31.8221 -4.617,-9.747 -9.4434,-19.3873 -14.2742,-29.0295 -0.6028,-1.2031 -0.6028,-1.2031 -1.2177,-2.4305 -1.5662,-3.1252 -3.133,-6.2501 -4.7015,-9.3741 -1.8641,-3.7127 -3.7252,-7.4268 -5.5777,-11.1454 -3.5139,-7.053 -7.0447,-14.0927 -10.7456,-21.05 -0.3847,-0.7303 -0.7694,-1.4605 -1.1657,-2.2129 -2.7685,-5.2226 -2.7685,-5.2226 -3.8951,-6.3496 z"
     fill="#ff49ce"
     id="path24"
     style="stroke-width:0.999832" />
  <path
     d="m 1054.7109,559.95109 c -0.6598,0.66 -1.3196,1.32 -1.9994,2 0.1815,2.66784 0.6792,3.71421 2.6832,5.50098 5.9107,3.73696 11.9564,7.07241 18.1848,10.24902 2.062,1.06344 4.1238,2.12725 6.1854,3.19141 1.0129,0.52094 2.0258,1.04188 3.0693,1.57861 3.9276,2.02802 7.8331,4.09671 11.7383,6.16748 5.9193,3.13349 11.8654,6.21148 17.8299,9.25781 16.3025,8.33182 32.4698,16.79621 48.2728,26.05469 0.8422,0.49274 1.6843,0.98549 2.5519,1.49316 9.333,5.48396 18.5401,11.15768 27.6685,16.97559 0.9466,0.60316 1.8932,1.20631 2.8684,1.82774 9.5033,6.0694 18.9452,12.23057 28.3603,18.43569 2.7903,1.83755 5.5846,3.66893 8.379,5.50024 23.3291,15.33607 45.6233,31.96326 67.1259,49.76758 0.5825,0.48211 1.1649,0.96422 1.765,1.46094 7.0165,5.82755 13.8238,11.84272 20.5127,18.04297 2.2884,2.10468 4.6056,4.15678 6.9625,6.18359 4.1191,3.57227 7.9277,7.42421 11.746,11.3125 2.5081,2.52112 5.0269,5.02777 7.5756,7.50781 5.363,5.25497 10.2938,10.60987 14.9833,16.48828 3.3748,4.16713 6.8976,8.19803 10.4196,12.24073 3.2181,3.69522 6.4139,7.40722 9.5854,11.14257 6.2813,7.38929 12.7611,14.56577 19.4153,21.62061 0.6456,0.68836 1.2912,1.37672 1.9564,2.08594 12.1332,12.56367 12.1332,12.56367 17.6933,13.23437 2.3429,-0.32031 2.3429,-0.32031 4.7171,-1.88281 1.6245,-2.4375 1.6245,-2.4375 1.4683,-5.61719 -0.9587,-4.34205 -2.4982,-7.5706 -4.7172,-11.38281 -0.3984,-0.694 -0.7968,-1.388 -1.2074,-2.10303 -4.3228,-7.32653 -9.4861,-13.80962 -14.9122,-20.33447 -0.4414,-0.53379 -0.8828,-1.06758 -1.3376,-1.61754 -7.5375,-9.08371 -15.5541,-17.56632 -23.9371,-25.87147 -1.9837,-1.96594 -3.9591,-3.93997 -5.9335,-5.91529 -5.4626,-5.44871 -10.9139,-10.83007 -16.7942,-15.83032 -4.7028,-4.1914 -9.0545,-8.78135 -13.4769,-13.26538 -11.4483,-11.6078 -11.4483,-11.6078 -17.6616,-16.91699 -3.1431,-2.7161 -6.128,-5.60031 -9.1419,-8.45801 -5.2252,-4.91994 -10.5426,-9.57875 -16.1508,-14.05859 -2.5318,-2.06754 -4.9369,-4.22754 -7.3413,-6.44141 -5.5577,-5.05895 -11.4499,-9.63501 -17.3892,-14.23096 -1.7194,-1.33764 -3.427,-2.68863 -5.1306,-4.04638 -46.5575,-37.06317 -97.949,-71.65725 -153.6085,-93.34766 -1.9387,-0.82898 -3.8757,-1.66208 -5.8106,-2.5 -13.0789,-5.41747 -26.4713,-9.73546 -40.1115,-13.5 -1.1193,-0.31501 -2.2386,-0.63003 -3.3919,-0.95459 -1.5819,-0.42467 -1.5819,-0.42467 -3.1957,-0.85791 -0.9355,-0.25395 -1.8709,-0.50789 -2.8347,-0.76953 -2.8968,-0.4593 -4.8388,-0.2745 -7.6344,0.58203 z"
     fill="#ff49ce"
     id="path26"
     style="stroke-width:0.999832" />
  <path
     d="m 1444.6423,1119.8261 c -1.0651,0.01 -2.1301,0.018 -3.2274,0.027 -2.6107,0.024 -5.2209,0.056 -7.8314,0.098 3.0955,2.5286 6.2279,4.8577 9.5593,7.0625 10.3374,7.217 18.8479,15.8933 26.4286,25.9375 0.4045,0.5296 0.809,1.0593 1.2257,1.605 22.077,29.0809 33.7595,65.9707 33.9656,102.4341 0.01,0.8353 0.014,1.6707 0.021,2.5314 0.017,2.6849 0.024,5.3696 0.026,8.0545 7e-4,0.9178 10e-4,1.8357 0,2.7813 -0.016,14.0529 -0.4559,27.7764 -3.2509,41.5937 -0.2494,1.2542 -0.2494,1.2542 -0.5038,2.5337 -2.2813,11.028 -5.7397,21.4185 -9.9895,31.8418 -0.3387,0.8377 -0.6774,1.6754 -1.0263,2.5386 -0.3085,0.742 -0.6169,1.484 -0.9348,2.2485 -0.5413,1.8374 -0.5413,1.8374 0.4584,3.8374 29.501,-24.8687 51.4365,-55.9885 55.7586,-95.3491 2.849,-33.9303 -5.529,-68.0432 -27.2799,-94.7095 -5.2584,-6.2181 -10.6492,-12.2555 -16.4827,-17.9414 -0.5696,-0.6033 -1.1392,-1.2066 -1.726,-1.8281 -4.9678,-5.1872 -10.2424,-9.2787 -16.268,-13.1719 -0.8273,-0.5375 -1.6546,-1.0751 -2.507,-1.6289 -5.5863,-3.4948 -11.2479,-6.2426 -17.4863,-8.3711 -1.0077,-0.3635 -2.0154,-0.727 -3.0536,-1.1016 -5.1908,-1.4541 -10.5342,-1.1097 -15.8775,-1.0234 z"
     fill="#f9a30d"
     id="path27"
     style="stroke-width:0.999832" />
  <path
     d="m 34.803601,87.513586 c -3.9482,0.12084 -6.6709,0.830072 -9.609,3.707275 -3.9435,5.999315 -3.493,14.986169 -3.4491,21.917729 0.01,1.41841 0.01,1.41841 0.015,2.86548 0.5363,33.38731 10.9487,65.76841 20.2879,97.52466 0.7701,2.6287 1.5281,5.25986 2.2756,7.89502 21.4575,72.86715 21.4575,72.86715 39.713204,87.52734 6.7902,0.75472 6.7902,0.75472 10.4965,-1.5625 2.0621,-3.35213 1.7515,-5.52423 1.4995,-9.4375 -0.7284,-2.66406 -1.5061,-5.15981 -2.4484,-7.74219 -0.2544,-0.72664 -0.5089,-1.45327 -0.771,-2.20193 -0.8119,-2.31405 -1.6381,-4.62261 -2.4662,-6.93088 -1.0721,-3.01613 -2.1375,-6.03453 -3.1982,-9.05469 -0.2634,-0.74869 -0.5268,-1.49738 -0.7982,-2.26877 -2.3011,-6.6126 -4.2827,-13.29988 -6.2158,-20.02761 -1.1243,-3.86966 -2.3478,-7.69244 -3.6179,-11.51587 -4.5291,-13.66195 -8.011004,-27.56715 -11.517904,-41.51734 -0.9732,-3.80925 -1.9888,-7.60521 -3.0136,-11.40088 -1.7609,-6.58304 -3.3719,-13.17992 -4.8148,-19.83984 -0.2511,-1.15854 -0.5022,-2.31709 -0.761,-3.51074 -2.5719,-12.29657 -4.4225,-24.69973 -6.1815,-37.13574 -5.3098,-36.99848 -5.3098,-36.99848 -15.425,-37.291024 z"
     fill="#ff49ce"
     id="path28"
     style="stroke-width:0.999832" />
  <path
     d="m 498.8976,806.95109 c -1.9368,1.5625 -1.9368,1.5625 -2.9989,4 -0.042,4.81857 1.014,7.41769 4.2095,10.86719 1.3707,1.35326 2.7592,2.68854 4.1626,4.00781 1.0994,1.06142 1.0994,1.06142 2.221,2.14429 5.5615,5.31723 11.269,10.32425 17.3974,14.98071 0.7325,0.56074 1.4649,1.12148 2.2195,1.69922 2.5661,1.96175 5.1388,3.91445 7.7147,5.86328 0.8102,0.61367 1.6205,1.22735 2.4552,1.85962 5.2083,3.90124 10.5275,7.5794 15.9568,11.16504 4.5723,3.01986 9.1124,6.08741 13.6554,9.15112 0.906,0.61088 1.812,1.22176 2.7455,1.85115 1.8781,1.26649 3.7561,2.53315 5.634,3.79997 2.8307,1.90937 5.6622,3.81762 8.4937,5.72583 9.5342,6.42893 19.0463,12.88737 28.5124,19.41626 13.2595,9.14507 26.5538,18.25771 40.0114,27.10913 2.6804,1.76368 5.3217,3.57773 7.9583,5.40625 1.5109,1.02646 3.0221,2.0525 4.5336,3.07813 0.6862,0.48646 1.3724,0.97292 2.0794,1.47412 4.883,3.27188 8.096,4.14336 13.9777,3.40088 3.4954,-2.98664 4.7842,-4.92899 5.6856,-9.4375 -1.5509,-8.03926 -9.1093,-12.69291 -15.4323,-17.1875 -0.831,-0.60119 -1.662,-1.20237 -2.5182,-1.82178 -1.7251,-1.2467 -3.4529,-2.48969 -5.1833,-3.729 -2.4045,-1.72345 -4.7999,-3.45859 -7.1919,-5.19922 -10.7405,-7.80759 -21.584,-15.46636 -32.4452,-23.10449 -8.8302,-6.21233 -17.6225,-12.4725 -26.3668,-18.80542 -5.0521,-3.65885 -10.1171,-7.29841 -15.2005,-10.91358 -3.1752,-2.26167 -6.3329,-4.54482 -9.4751,-6.85229 -56.7631,-41.59874 -56.7631,-41.59874 -72.8115,-39.94922 z"
     fill="#c3fee3"
     id="path29"
     style="stroke-width:0.999832" />
  <path
     d="m 727.8949,1012.5488 c -4.00488,0.7771 -5.4658,2.2092 -8.07151,5.4023 -1.57983,6.5322 0.50585,10.5937 3.8737,16.1875 1.65715,2.6397 3.37374,5.2333 5.12328,7.8125 0.59293,0.8766 0.59293,0.8766 1.19784,1.771 8.51257,12.453 17.90899,24.3151 27.2301,36.1665 0.44168,0.5621 0.88336,1.1242 1.33842,1.7034 1.92851,2.4522 3.85888,4.9026 5.80176,7.3435 7.14932,8.984 13.9665,18.1174 20.47554,27.5781 30.98688,45.0196 30.98688,45.0196 44.10236,48.2109 2.81937,0.2266 2.81937,0.2266 4.69374,-0.7734 1.72557,-3.0687 1.3596,-5.5169 1.12462,-9 -0.90096,-2.5292 -1.80989,-4.7466 -2.99899,-7.125 -0.31821,-0.6532 -0.63642,-1.3065 -0.96428,-1.9795 -8.45946,-17.0279 -20.29106,-31.9982 -32.05563,-46.8398 -8.14082,-10.297 -15.666,-21.004 -23.04792,-31.8538 -12.1188,-17.8098 -24.61051,-35.058 -38.90025,-51.2019 -0.53092,-0.6162 -1.06183,-1.2323 -1.60884,-1.8672 -2.2083,-1.7995 -4.57102,-1.6619 -7.31394,-1.5351 z"
     fill="#ff49ce"
     id="path31"
     style="stroke-width:0.999832" />
  <path
     d="m 822.78878,917.95109 c -2.30624,1.5115 -2.87349,2.64275 -3.78388,5.23437 -0.30068,3.87188 1.0665,5.59194 3.15909,8.82813 0.36493,0.56654 0.72985,1.13309 1.10583,1.7168 10.57049,16.17709 23.56886,30.47511 36.59244,44.67895 0.94271,1.02819 1.88511,2.05667 2.82717,3.08545 2.12614,2.32179 4.25531,4.64037 6.39629,6.94849 5.21727,5.68501 9.99006,11.63232 14.72162,17.71872 7.95895,10.2242 16.07334,20.3456 24.95255,29.7891 0.7139,0.7786 1.4278,1.5572 2.16333,2.3594 6.20158,6.5325 15.06557,14.6258 24.32776,16.0156 2.49916,-0.375 2.49916,-0.375 4.81088,-2 2.21903,-3.1241 2.05232,-4.5729 1.68694,-8.375 -1.04586,-2.6996 -2.11437,-5.1336 -3.43635,-7.6875 -0.35896,-0.7033 -0.71792,-1.4067 -1.08777,-2.1313 -3.39265,-6.4183 -7.58993,-11.8163 -12.47017,-17.1812 -0.89809,-1.0254 -0.89809,-1.0254 -1.81433,-2.0715 -7.1229,-8.0718 -14.77912,-15.57591 -22.4573,-23.11235 -6.66106,-6.54664 -12.9896,-13.10045 -18.80081,-20.42431 -2.53432,-3.16962 -5.24943,-6.13191 -8.03538,-9.07935 -1.0343,-1.10734 -2.06781,-2.21541 -3.10052,-3.32422 -0.48227,-0.5174 -0.96454,-1.03479 -1.46142,-1.56787 -1.63953,-1.77624 -3.23079,-3.59033 -4.80991,-5.42041 -8.63176,-9.9309 -17.54333,-19.37411 -27.49076,-28 -1.14817,-0.99773 -1.14817,-0.99773 -2.31953,-2.01563 -3.84513,-3.12978 -6.5068,-5.06661 -11.67577,-3.98437 z"
     fill="#ff49ce"
     id="path32"
     style="stroke-width:0.999832" />
  <path
     d="m 940.74913,812.95109 c -2.53489,3.80362 -2.57543,5.48335 -1.99932,10 1.55181,2.73951 3.5499,4.9494 5.68558,7.25 0.59068,0.65404 1.18136,1.30808 1.78993,1.98193 9.75638,10.58916 20.90745,18.5757 32.81174,26.58448 12.2952,8.28671 23.94674,17.4313 35.61694,26.56591 4.9965,3.90542 10.0214,7.77371 15.0653,11.61768 0.6047,0.46084 1.2093,0.92168 1.8324,1.39648 7.6556,5.82044 15.3808,11.5347 23.2216,17.10352 1.0347,0.73839 1.0347,0.73839 2.0902,1.4917 10.8252,7.63289 10.8252,7.63289 15.5289,8.5083 3.2671,-0.70663 4.3653,-1.78979 6.3104,-4.5 0.9997,-3.4375 0.9997,-3.4375 0.9997,-7 -2.5267,-3.68328 -5.4479,-6.36622 -8.9345,-9.125 -3.5854,-2.87115 -7.129,-5.77167 -10.6088,-8.77026 -7.4948,-6.44803 -15.3156,-12.42109 -23.1924,-18.39136 -6.0927,-4.64118 -12.1185,-9.36979 -18.154,-14.08496 -1.9313,-1.50541 -3.868,-3.00364 -5.8067,-4.49951 -6.0577,-4.69153 -11.9475,-9.51852 -17.71284,-14.56641 -40.88664,-35.7408 -40.88664,-35.7408 -54.54413,-31.5625 z"
     fill="#fe49cd"
     id="path33"
     style="stroke-width:0.999832" />
  <path
     d="m 449.7267,742.13859 c -3.3199,2.14019 -4.9423,3.291 -6.8102,6.8125 -0.8508,5.59141 -1.1264,11.12109 2.0618,16 3.2952,3.78703 6.964,6.44148 11.9491,7.37891 5.1532,0.30496 8.1464,-1.06664 11.9803,-4.37891 3.2613,-3.77742 4.7416,-6.82664 4.4399,-11.91797 -1.2125,-5.72144 -4.575,-9.80843 -9.3132,-13.08203 -5.0126,-2.78987 -8.9276,-2.81754 -14.3077,-0.8125 z"
     fill="#ffa015"
     id="path40"
     style="stroke-width:0.999832" />
  <path
     d="m 520.8903,697.95109 c -3.8927,1.32248 -5.6513,2.60749 -8.3722,5.6875 -2.5304,5.15975 -2.3952,9.04503 -0.5623,14.4375 2.7986,4.15422 6.4231,7.61888 10.9338,9.875 5.035,0.55259 8.9184,0.5393 13.4954,-1.75 3.0909,-2.78268 4.2973,-4.70019 4.8344,-8.83594 0.084,-6.00825 -0.133,-9.75678 -4.3345,-14.41406 -5.4145,-4.77153 -8.9058,-5.64575 -15.9946,-5 z"
     fill="#ffa114"
     id="path41"
     style="stroke-width:0.999832" />
  <path
     d="m 582.8694,644.95109 c -3.9832,2.06607 -6.619,4.21315 -8.997,8 -0.9765,5.80371 -0.4053,11.11879 2.999,16 5.2736,5.1769 8.9532,6.40877 16.2251,6.35156 4.3523,-0.55266 5.8828,-2.097 8.7665,-5.35156 2.6924,-3.55019 2.5137,-7.71835 1.9994,-12 -3.2665,-9.61037 -11.262,-14.19629 -20.993,-13 z"
     fill="#ffa114"
     id="path42"
     style="stroke-width:0.999832" />
  <path
     d="m 710.8264,499.95109 c -3.4329,2.00011 -6.2097,4.42351 -7.9973,8 -0.6309,5.95946 -0.043,10.72609 2.999,16 4.0751,4.2992 7.9118,6.13944 13.80785,6.375 3.67284,-0.0268 5.82423,-0.33486 8.68459,-2.6875 4.25797,-4.57886 4.95155,-7.13647 4.81088,-13.1875 -0.63941,-5.117 -3.70173,-8.09056 -7.435,-11.3125 -4.8248,-3.67228 -8.88833,-4.16097 -14.87002,-3.1875 z"
     fill="#fda113"
     id="path43"
     style="stroke-width:0.999832" />
  <path
     d="m 660.8432,569.95109 c -3.1685,1.28133 -4.5766,2.52002 -6.8102,5.0625 -2.1869,5.41141 -1.9235,10.76848 -0.062,16.25 2.8776,4.12593 6.0066,7.06538 10.8714,8.6875 4.0617,0.48953 8.1621,0.90077 11.9139,-0.94141 4.4892,-3.53711 5.794,-6.89244 6.5174,-12.37109 -0.718,-6.05323 -3.6656,-10.08149 -8.1223,-14.125 -4.6832,-3.16538 -8.757,-3.04418 -14.3077,-2.5625 z"
     fill="#fda113"
     id="path44"
     style="stroke-width:0.999832" />
  <path
     d="m 506.895,543.95109 c -3.581,2.21028 -5.3985,4.15509 -6.9977,8 -0.5854,4.25134 -0.4668,7.92599 1.2496,11.875 2.46,2.98822 4.4288,4.86429 8.298,5.62891 5.0864,0.10795 8.5531,0.0279 12.57,-3.31641 3.2066,-3.10797 3.8169,-5.49438 4.1861,-10 -0.073,-4.39634 -1.3654,-6.85313 -4.3111,-10.1875 -4.9112,-3.54182 -9.3242,-3.54898 -14.9949,-2 z"
     fill="#b6086f"
     id="path45"
     style="stroke-width:0.999832" />
  <path
     d="m 313.6474,541.63859 c -3.907,3.36296 -5.4963,5.57722 -6.0604,10.75 0.5336,5.07156 2.1149,8.1124 5.4356,11.9375 4.3176,2.38925 8.1159,2.63675 12.9332,1.625 3.9739,-2.28486 6.54,-4.62655 7.9973,-9 0.5023,-3.76855 0.8369,-7.41269 -0.9762,-10.85156 -5.2377,-6.52513 -11.8114,-8.2922 -19.3295,-4.46094 z"
     fill="#b6086e"
     id="path46"
     style="stroke-width:0.999832" />
  <path
     d="m 508.8943,355.95109 c -3.581,2.21028 -5.3985,4.15509 -6.9977,8 -0.5788,4.20366 -0.4239,7.91614 1.1247,11.875 2.9013,3.28925 5.7043,4.77132 10.0513,5.48047 4.1384,0.25787 6.9464,0.0159 10.2543,-2.60547 3.9533,-4.24398 5.0512,-6.75314 4.8734,-12.72266 -0.5322,-3.45391 -2.0304,-5.44578 -4.3111,-8.02734 -4.9111,-3.54182 -9.3242,-3.54898 -14.9949,-2 z"
     fill="#b6086f"
     id="path47"
     style="stroke-width:0.999832" />
  <path
     d="m 318.9581,348.95109 c -3.4554,2.04573 -4.7769,3.6678 -6.9976,7 -0.6478,4.34474 -0.9786,8.94505 0.945,12.98437 2.5085,3.18801 5.1033,5.18895 9.0516,6.01563 6.5181,-0.1035 9.4498,-1.34465 13.9953,-6 2.5456,-3.47238 2.4345,-6.79212 1.9993,-11 -4.609,-8.56257 -9.6317,-10.27831 -18.9936,-9 z"
     fill="#b6086f"
     id="path48"
     style="stroke-width:0.999832" />
</svg>
