<?xml version="1.0" encoding="UTF-8"?>
<svg version="1.1" xmlns="http://www.w3.org/2000/svg" width="504" height="288">
<path d="M0 0 C166.32 0 332.64 0 504 0 C504 95.04 504 190.08 504 288 C337.68 288 171.36 288 0 288 C0 192.96 0 97.92 0 0 Z " fill="#A8E4FE" transform="translate(0,0)"/>
<path d="M0 0 C8.60281602 5.07180944 14.70067384 12.28823862 17.54296875 21.87890625 C18.13511047 24.62705115 18.21520666 27.20231346 18 30 C18.87011719 29.94779297 18.87011719 29.94779297 19.7578125 29.89453125 C25.009134 29.71255476 28.39511219 30.16622289 33 33 C33.25523438 32.40445313 33.51046875 31.80890625 33.7734375 31.1953125 C36.16684226 26.91157533 40.50538495 24.03901452 44.98828125 22.171875 C54.06519865 19.62524487 61.63913163 20.79012614 70 25 C75.69121964 28.36299342 79.86793057 34.84662838 81.6015625 41.20703125 C81.875 43.125 81.875 43.125 82 46 C82.9075 46.226875 83.815 46.45375 84.75 46.6875 C88.44888324 48.18127977 89.77905658 49.75400577 92 53 C92.4125 52.46890625 92.825 51.9378125 93.25 51.390625 C97.75067258 45.885338 101.95765679 41.78196766 109.19140625 40.66015625 C115.57250465 40.38271719 121.79976204 41.61402377 126.98046875 45.4765625 C131.24896549 49.4629198 133.66648826 53.67959323 136 59 C137.010625 58.34 138.02125 57.68 139.0625 57 C142.9393678 54.83670777 145.50859556 54.31487051 150 55 C153.45360302 56.46347694 156.73346655 58.15969947 160 60 C160.25265625 59.23945313 160.5053125 58.47890625 160.765625 57.6953125 C162.1048827 54.77098397 163.16123764 53.71121516 165.75 51.875 C166.40484375 51.39804688 167.0596875 50.92109375 167.734375 50.4296875 C176.12962646 45.13199434 184.19319247 44.55116145 193.91796875 46.62109375 C201.48134189 49.25947973 207.00138851 54.03195383 210.60546875 61.1875 C211.83176943 64.10039349 212.96498776 67.01438777 214 70 C215.299375 69.071875 215.299375 69.071875 216.625 68.125 C222.91563449 64.16423014 228.66431639 63.11351255 236 64 C243.20543878 66.06540265 249.54018947 70.06430316 253.54296875 76.46875 C255.728596 80.63184952 257 83.22260216 257 88 C258.3303125 88.0928125 258.3303125 88.0928125 259.6875 88.1875 C263.81511055 89.19993278 265.29983793 90.77480642 268 94 C268.69409784 95.31926131 269.36692273 96.65039436 270 98 C270.7425 96.205625 270.7425 96.205625 271.5 94.375 C273.91094203 89.50990908 277.38243364 86.74019852 282 84 C287.65834379 82.1138854 293.73654939 82.08852931 299.25 84.5 C304.81740175 87.67815242 308.07187272 92.63749419 310.375 98.5 C310.58125 99.325 310.7875 100.15 311 101 C319.88740629 87.32221869 324.71444716 72.59578105 329 57 C329.19867676 56.29004883 329.39735352 55.58009766 329.60205078 54.84863281 C334.4963966 37.06113279 336.1331737 18.38269571 337 0 C336.34 0 335.68 0 335 0 C335 -0.99 335 -1.98 335 -3 C339.29 -3 343.58 -3 348 -3 C348 -2.01 348 -1.02 348 0 C347.34 0 346.68 0 346 0 C347.47880117 24.8480677 350.25749453 49.42032954 355.52441406 73.76708984 C356.39110543 77.83626808 357.1923489 81.91876175 358 86 C359.299375 85.9175 360.59875 85.835 361.9375 85.75 C371.27849962 85.7939232 377.52604711 90.7200893 384 97 C384.29132813 96.32453125 384.58265625 95.6490625 384.8828125 94.953125 C389.25969367 85.42859114 389.25969367 85.42859114 395 83 C398.03450213 82.71147357 400.96420291 82.75713623 404 83 C404.04125 82.030625 404.0825 81.06125 404.125 80.0625 C405.06319825 73.88290088 408.54550725 69.16208026 413.1640625 65.09375 C419.82436686 60.49445187 426.07616383 59.93452333 434 61 C436.66470275 61.73813195 438.5488798 62.64406117 441 64 C442.2065625 64.5878125 442.2065625 64.5878125 443.4375 65.1875 C443.953125 65.455625 444.46875 65.72375 445 66 C445.1134375 65.26652344 445.226875 64.53304687 445.34375 63.77734375 C446.88121167 57.27058633 451.07160182 52.30369334 456.5 48.5625 C463.50709932 44.34656191 467.40546669 44 476 44 C476 76.34 476 108.68 476 142 C309.68 142 143.36 142 -28 142 C-28 94.48 -28 46.96 -28 -2 C-18.29207518 -5.88316993 -9.49671517 -4.03431885 0 0 Z " fill="#FEFEFE" transform="translate(28,146)"/>
<path d="M0 0 C2.44033619 1.43917262 3.94200521 1.77745356 6.6875 2.25 C11.44179118 3.15331532 14.53868168 5.32121218 18.296875 8.29296875 C20.41971535 9.68308666 20.41971535 9.68308666 23.04296875 9.1796875 C25.49315683 8.46065229 25.49315683 8.46065229 28 7.375 C36.96297699 4.93055173 45.32388429 6.01057193 53.4375 10.4375 C58.42834381 13.51975738 62.04382157 18.10997677 64.4375 23.4375 C64.4375 24.7575 64.4375 26.0775 64.4375 27.4375 C65.118125 27.210625 65.79875 26.98375 66.5 26.75 C71.07671281 26.26311566 74.62951269 28.06592342 78.25 30.8125 C79.76573535 32.88666417 80.58914096 35.02293965 81.4375 37.4375 C81.51226562 36.8084375 81.58703125 36.179375 81.6640625 35.53125 C82.68472692 28.88692478 84.45385991 24.08134644 89.4375 19.4375 C94.85314969 15.59985858 100.24301207 13.5809431 106.9140625 13.94921875 C112.67191926 15.06335512 117.57180965 17.67000387 121.8125 21.6875 C124.04175734 25.46008934 125.77817267 29.38626997 127.4375 33.4375 C128.159375 32.674375 128.88125 31.91125 129.625 31.125 C135.57703488 25.4375 135.57703488 25.4375 139.4375 25.4375 C135.86576058 44.69184473 129.98490473 65.31763299 118.4375 81.4375 C118.1075 81.4375 117.7775 81.4375 117.4375 81.4375 C117.210625 80.261875 116.98375 79.08625 116.75 77.875 C115.38016093 72.53735122 113.12970492 68.47014469 108.68359375 65.11328125 C103.48401377 62.11958369 98.33183329 61.38982098 92.4375 62.4375 C86.39891237 64.65826384 82.40799979 67.61532042 79.4375 73.4375 C78.19425853 76.6624208 78.19425853 76.6624208 77.4375 79.4375 C77.169375 78.880625 76.90125 78.32375 76.625 77.75 C73.54189706 71.72521306 73.54189706 71.72521306 68.4375 67.4375 C67.77363281 67.35242188 67.10976563 67.26734375 66.42578125 67.1796875 C64.4375 66.4375 64.4375 66.4375 63.3828125 64.1796875 C63.11210937 63.23351562 62.84140625 62.28734375 62.5625 61.3125 C60.16100007 54.13592463 57.04966296 49.56838127 50.25 46.0625 C43.94300604 43.20133903 37.6565947 42.05515686 30.921875 44.26171875 C28.71047766 45.24659604 26.57328309 46.29896971 24.4375 47.4375 C23.10509003 48.1060102 21.77202807 48.77322818 20.4375 49.4375 C20.22996094 48.73625 20.02242188 48.035 19.80859375 47.3125 C17.09672734 38.96131308 13.42215294 32.6098773 5.75 28 C-2.02034747 24.33474176 -11.65093025 23.78655218 -19.81640625 26.53125 C-25.68918084 29.53555374 -29.26131466 32.74580114 -32.5625 38.4375 C-37.5625 36.4375 -37.5625 36.4375 -39.9375 35.3125 C-45.16480498 33.57006501 -49.1448983 34.01852707 -54 36.4375 C-55.19503055 37.09057172 -56.38539824 37.75264079 -57.5625 38.4375 C-57.84222656 37.78523438 -58.12195313 37.13296875 -58.41015625 36.4609375 C-61.24845197 30.2732703 -64.13743737 26.48238297 -69.5625 22.4375 C-70.2225 21.7775 -70.8825 21.1175 -71.5625 20.4375 C-66.32286476 15.94638408 -62.58848979 14.07447936 -55.56640625 14.234375 C-52.72165834 14.52273151 -50.20624177 15.38000329 -47.5625 16.4375 C-47.18738281 15.84582031 -46.81226563 15.25414062 -46.42578125 14.64453125 C-40.92093975 6.14461225 -34.6439715 -1.06248732 -24.5625 -3.875 C-15.9710137 -5.61335521 -7.56714314 -4.61411167 0 0 Z " fill="#70C3FF" transform="translate(220.5625,167.5625)"/>
<path d="M0 0 C7.1618859 4.01737037 9.61239321 9.45725257 12.625 16.8125 C13.7078125 15.6678125 13.7078125 15.6678125 14.8125 14.5 C20.76453488 8.8125 20.76453488 8.8125 24.625 8.8125 C21.05326058 28.06684473 15.17240473 48.69263299 3.625 64.8125 C3.295 64.8125 2.965 64.8125 2.625 64.8125 C2.398125 63.636875 2.17125 62.46125 1.9375 61.25 C0.56766093 55.91235122 -1.68279508 51.84514469 -6.12890625 48.48828125 C-11.32848623 45.49458369 -16.48066671 44.76482098 -22.375 45.8125 C-28.41358763 48.03326384 -32.40450021 50.99032042 -35.375 56.8125 C-36.61824147 60.0374208 -36.61824147 60.0374208 -37.375 62.8125 C-37.643125 62.255625 -37.91125 61.69875 -38.1875 61.125 C-41.27060294 55.10021306 -41.27060294 55.10021306 -46.375 50.8125 C-47.03886719 50.72742188 -47.70273437 50.64234375 -48.38671875 50.5546875 C-50.375 49.8125 -50.375 49.8125 -51.4296875 47.5546875 C-51.70039063 46.60851562 -51.97109375 45.66234375 -52.25 44.6875 C-54.92402912 36.74769047 -58.2534619 32.6762107 -65.75 28.875 C-67.28430009 28.17121338 -68.82362865 27.47781143 -70.375 26.8125 C-68.29219767 20.9374255 -64.69945915 18.4174837 -59.75 15 C-53.67211662 12.86148548 -47.51419459 12.69579046 -41.41015625 14.8671875 C-34.72727273 18.10795455 -34.72727273 18.10795455 -33.375 20.8125 C-33.30023438 20.1834375 -33.22546875 19.554375 -33.1484375 18.90625 C-32.12777308 12.26192478 -30.35864009 7.45634644 -25.375 2.8125 C-17.17220148 -3.00017274 -9.17284693 -4.23672549 0 0 Z " fill="#5FB2FF" transform="translate(335.375,184.1875)"/>
<path d="M0 0 C0 3.63 0 7.26 0 11 C-1.16015625 11.14695313 -1.16015625 11.14695313 -2.34375 11.296875 C-11.68077405 12.63733885 -18.75832933 14.57747272 -25 22 C-27.45619297 25.54860741 -29.63090759 28.89272278 -31 33 C-31.70125 32.71125 -32.4025 32.4225 -33.125 32.125 C-41.27886285 28.93435801 -49.34943056 26.92303394 -57.890625 30.0625 C-65.09268183 34.03010017 -68.99086864 39.18226175 -71.3125 47 C-71.539375 47.99 -71.76625 48.98 -72 50 C-72.58007812 50.02578125 -73.16015625 50.0515625 -73.7578125 50.078125 C-79.18544827 50.47221077 -82.91925421 51.10905634 -87 55 C-88.63460309 58.24374508 -89.88000939 61.54779365 -91 65 C-91.4125 64.61328125 -91.825 64.2265625 -92.25 63.828125 C-100.22590689 56.63556611 -107.3749801 54.34583585 -118 53 C-118.53341184 51.42085985 -119.05125763 49.83645613 -119.5625 48.25 C-119.85253906 47.36828125 -120.14257812 46.4865625 -120.44140625 45.578125 C-121.01697435 42.92165684 -120.89248371 41.52968894 -120 39 C-118.35 40.98 -116.7 42.96 -115 45 C-114.69707031 44.46890625 -114.39414062 43.9378125 -114.08203125 43.390625 C-110.7004663 37.68878625 -107.23790749 33.63605562 -101 31 C-98.640625 30.8046875 -98.640625 30.8046875 -96.25 30.875 C-95.45078125 30.89304688 -94.6515625 30.91109375 -93.828125 30.9296875 C-93.22484375 30.95289063 -92.6215625 30.97609375 -92 31 C-91.68546875 30.33613281 -91.3709375 29.67226562 -91.046875 28.98828125 C-86.58799264 19.78847879 -82.84121529 14.59875665 -73 11 C-64.25776513 8.96055972 -56.87771384 10.45952404 -49 14.5625 C-47 16 -47 16 -45 18 C-44.5978125 17.14728516 -44.5978125 17.14728516 -44.1875 16.27734375 C-39.73854712 7.51115042 -33.27675576 1.45752811 -24 -2 C-16.01695557 -3.99576111 -7.54978231 -3.01991292 0 0 Z " fill="#66B9FF" transform="translate(504,179)"/>
<path d="M0 0 C1.39456452 0.00667256 2.78911118 0.01863093 4.18359375 0.03515625 C4.89451172 0.03966797 5.60542969 0.04417969 6.33789062 0.04882812 C8.09899388 0.06064761 9.86005411 0.07858362 11.62109375 0.09765625 C12.12655411 2.17967153 12.6252621 4.26332692 13.12109375 6.34765625 C13.39953125 7.5078125 13.67796875 8.66796875 13.96484375 9.86328125 C14.62109375 13.09765625 14.62109375 13.09765625 14.62109375 17.09765625 C13.39132812 17.02804688 13.39132812 17.02804688 12.13671875 16.95703125 C11.0590625 16.9209375 9.98140625 16.88484375 8.87109375 16.84765625 C7.80375 16.80125 6.73640625 16.75484375 5.63671875 16.70703125 C2.5447332 16.85978795 2.5447332 16.85978795 0.26171875 18.8359375 C-2.04105822 22.01048004 -1.95984675 24.09251093 -1.74609375 27.90234375 C-1.14749312 31.48121134 -0.31237438 32.93247739 2.62109375 35.09765625 C7.85952387 35.9156171 11.94309889 35.57078752 16.62109375 33.09765625 C17.45972067 80.34030595 17.45972067 80.34030595 8.62109375 95.09765625 C6.31109375 95.09765625 4.00109375 95.09765625 1.62109375 95.09765625 C-2.96441989 84.58668447 -7.43069109 74.20415994 -10.37890625 63.09765625 C-10.59160156 62.30359375 -10.80429687 61.50953125 -11.0234375 60.69140625 C-16.00718818 40.32615168 -14.90808946 19.41608651 -4.37890625 1.09765625 C-3.37890625 0.09765625 -3.37890625 0.09765625 0 0 Z " fill="#FCFDFE" transform="translate(361.37890625,43.90234375)"/>
<path d="M0 0 C7.1618859 4.01737037 9.61239321 9.45725257 12.625 16.8125 C13.346875 16.049375 14.06875 15.28625 14.8125 14.5 C20.76453488 8.8125 20.76453488 8.8125 24.625 8.8125 C23.45945193 14.8634304 22.17156904 20.84716226 20.625 26.8125 C19.3875 26.9053125 19.3875 26.9053125 18.125 27 C14.18128083 27.91550624 11.66366554 29.49341291 8.359375 31.75390625 C6.625 32.8125 6.625 32.8125 4.625 32.8125 C4.33625 33.410625 4.0475 34.00875 3.75 34.625 C2.625 36.8125 2.625 36.8125 0.625 39.8125 C-1.45662131 39.34215604 -3.3755659 38.81226355 -5.34765625 37.98828125 C-11.67966664 35.37262836 -16.887289 35.70890886 -23.375 37.8125 C-25.07028757 38.76317231 -26.74616219 39.75199768 -28.375 40.8125 C-28.50777344 39.76449219 -28.64054687 38.71648437 -28.77734375 37.63671875 C-28.95557235 36.25779222 -29.13396641 34.87888707 -29.3125 33.5 C-29.39951172 32.80970703 -29.48652344 32.11941406 -29.57617188 31.40820312 C-29.96710135 28.41107712 -30.4165004 25.68799881 -31.375 22.8125 C-32.035 22.4825 -32.695 22.1525 -33.375 21.8125 C-32.55825981 14.1520403 -31.21276211 8.14367945 -25.375 2.8125 C-17.16303077 -2.99251273 -9.18028306 -4.24016006 0 0 Z " fill="#76C9FF" transform="translate(335.375,184.1875)"/>
<path d="M0 0 C8.11980287 3.5569048 12.52520055 11.39815685 16.375 19 C16.87531738 19.97767334 16.87531738 19.97767334 17.38574219 20.97509766 C27.4862113 41.83521346 21.83632984 67.61676345 14.70458984 88.50878906 C12.38032452 95.12239163 9.82406166 101.58167804 7 108 C3.37 108 -0.26 108 -4 108 C-4 107.67 -4 107.34 -4 107 C-1.03 106.505 -1.03 106.505 2 106 C2.62972446 103.56363885 3.25380086 101.12603705 3.875 98.6875 C4.04902344 98.01654297 4.22304688 97.34558594 4.40234375 96.65429688 C7.38590279 84.88581398 8.50489987 73.39685944 9.125 61.3125 C9.21160526 59.72457465 9.29884032 58.13668352 9.38671875 56.54882812 C9.59839912 52.69957421 9.80158465 48.84995953 10 45 C9.38954834 45.48460693 8.77909668 45.96921387 8.15014648 46.46850586 C4.93272026 48.76019596 2.27081037 48.60533523 -1.58203125 48.46875 C-4 48 -4 48 -7.125 45.5625 C-9.33374933 42.23359923 -9.73504949 39.0662324 -9.46875 35.125 C-9 33 -9 33 -7.125 29.9375 C-2.7800725 27.24364495 1.00495675 27.38114508 6 28 C6.66 28.33 7.32 28.66 8 29 C6.515 20.585 6.515 20.585 5 12 C0.38 12 -4.24 12 -9 12 C-7.29638905 8.5927781 -5.86767864 6.51964294 -3.375 3.75 C-2.74335938 3.04359375 -2.11171875 2.3371875 -1.4609375 1.609375 C-0.97882813 1.07828125 -0.49671875 0.5471875 0 0 Z " fill="#E8ECED" transform="translate(368,32)"/>
<path d="M0 0 C6.42835379 0.23375832 9.79012331 1.82616731 14.82421875 5.8203125 C16.97355925 7.24821734 16.97355925 7.24821734 19.609375 6.74609375 C22.0557845 6.02212663 22.0557845 6.02212663 24.5625 4.9375 C33.52547699 2.49305173 41.88638429 3.57307193 50 8 C54.99084381 11.08225738 58.60632157 15.67247677 61 21 C61 22.32 61 23.64 61 25 C61.680625 24.773125 62.36125 24.54625 63.0625 24.3125 C67.09833957 23.88315536 69.43790622 25.15298841 73 27 C74.9375 28.6875 74.9375 28.6875 76 30 C75.505 31.485 75.505 31.485 75 33 C73.9275 32.34 72.855 31.68 71.75 31 C66.2605697 28.28929017 61.00175521 28.08514638 55 29 C49.34371679 31.05071784 45.3890609 33.98418987 42 39 C41.34 39.66 40.68 40.32 40 41 C37.00831032 39.50415516 36.46960347 36.93920694 35 34 C32.60496076 30.80661435 29.76659606 30.08812775 26 29 C25.91363281 28.29875 25.82726562 27.5975 25.73828125 26.875 C24.74783366 20.18720712 23.06422499 15.41379588 19 10 C16.77382267 11.05354071 15.12920379 11.87079621 13.375 13.625 C12.92125 14.07875 12.4675 14.5325 12 15 C11.34 15 10.68 15 10 15 C9.18432826 13.56429734 8.37257907 12.12636566 7.5625 10.6875 C7.11003906 9.88699219 6.65757812 9.08648437 6.19140625 8.26171875 C5 6 5 6 4 3 C1.99983534 1.79117904 1.99983534 1.79117904 0 1 C0 0.67 0 0.34 0 0 Z " fill="#7ECFFF" transform="translate(224,170)"/>
<path d="M0 0 C4.46146261 2.27143808 8.14234941 5.46215872 11.1875 9.4375 C11.1875 10.0975 11.1875 10.7575 11.1875 11.4375 C10.135625 11.47617188 10.135625 11.47617188 9.0625 11.515625 C1.4730361 11.96934295 -4.34878808 12.98039822 -9.859375 18.48046875 C-11.57759796 20.4220607 -13.22242189 22.39027443 -14.8125 24.4375 C-15.34875 23.674375 -15.885 22.91125 -16.4375 22.125 C-18.62413554 19.25028797 -18.62413554 19.25028797 -21.875 18.1875 C-25.70449477 15.90609886 -26.1869262 13.81845145 -27.46484375 9.69140625 C-27.85667762 7.15109002 -27.85536156 5.79124829 -26.8125 3.4375 C-19.10319532 -2.70408444 -9.03007846 -3.53217355 0 0 Z " fill="#70C3FF" transform="translate(134.8125,175.5625)"/>
<path d="M0 0 C3.76422743 2.53509194 4.75784002 4.15244006 6 8.5 C6 13.13391009 4.52710536 15.12083741 1.6953125 18.60546875 C-1.15800702 20.95255416 -3.98390444 20.59376651 -7.546875 20.46875 C-10 20 -10 20 -13.125 17.5625 C-15.33374933 14.23359923 -15.73504949 11.0662324 -15.46875 7.125 C-15 5 -15 5 -13.125 1.9375 C-8.72930779 -0.78782917 -5.04149985 -1.01823396 0 0 Z " fill="#0740F1" transform="translate(374,60)"/>
<path d="M0 0 C0 0.66 0 1.32 0 2 C-2.1700263 3.59226248 -4.44632228 4.95731902 -6.73828125 6.3671875 C-9.04362885 8.03149717 -10.42820049 9.64993084 -12 12 C-12.804375 11.690625 -13.60875 11.38125 -14.4375 11.0625 C-18.62249087 9.81434483 -22.66306101 9.3662304 -27 9 C-27.05399736 7.54207116 -27.09279177 6.08357288 -27.125 4.625 C-27.15980469 3.40683594 -27.15980469 3.40683594 -27.1953125 2.1640625 C-27 0 -27 0 -25 -2 C-16.84096264 -4.80973472 -7.73635162 -3.28208857 0 0 Z " fill="#75C8FF" transform="translate(73,167)"/>
<path d="M0 0 C0.33 0 0.66 0 1 0 C3 7 5 14 7 21 C6.28972656 21.33773437 5.57945312 21.67546875 4.84765625 22.0234375 C3.92855469 22.46945313 3.00945312 22.91546875 2.0625 23.375 C1.14597656 23.81585938 0.22945313 24.25671875 -0.71484375 24.7109375 C-3.12903802 25.79199162 -3.12903802 25.79199162 -4 28 C-4.66 28 -5.32 28 -6 28 C-7.03033882 25.87959258 -8.04902854 23.75352092 -9.0625 21.625 C-9.63097656 20.44164063 -10.19945312 19.25828125 -10.78515625 18.0390625 C-11.18605469 17.03617188 -11.58695312 16.03328125 -12 15 C-11.67 14.34 -11.34 13.68 -11 13 C-9.02 13.495 -9.02 13.495 -7 14 C-3.73339019 9.4943313 -1.81545828 5.264829 0 0 Z " fill="#FA1B09" transform="translate(348,107)"/>
<path d="M0 0 C0.66 0 1.32 0 2 0 C2.36351562 1.04800781 2.36351562 1.04800781 2.734375 2.1171875 C3.06953125 3.02726562 3.4046875 3.93734375 3.75 4.875 C4.07484375 5.77992187 4.3996875 6.68484375 4.734375 7.6171875 C5.8200867 10.09240305 5.8200867 10.09240305 7.953125 11.3828125 C10.16657453 12.2648295 10.16657453 12.2648295 13 11 C11.25192871 16.46737191 9.34205919 21.75824848 7 27 C6.154375 26.236875 5.30875 25.47375 4.4375 24.6875 C1.17996332 21.9508582 -2.03723128 20.50585211 -6 19 C-4.12275039 12.62267685 -2.14328358 6.29304541 0 0 Z " fill="#FC1B07" transform="translate(389,109)"/>
<path d="M0 0 C3.64134049 1.50082277 5.68756186 3.60620562 8.25 6.5625 C8.95640625 7.36816406 9.6628125 8.17382812 10.390625 9.00390625 C12 11 12 11 12 12 C5.07 12 -1.86 12 -9 12 C-7.29638905 8.5927781 -5.86767864 6.51964294 -3.375 3.75 C-2.74335938 3.04359375 -2.11171875 2.3371875 -1.4609375 1.609375 C-0.97882813 1.07828125 -0.49671875 0.5471875 0 0 Z " fill="#FB1704" transform="translate(368,32)"/>
<path d="M0 0 C8.19800459 -0.4554447 16.24000099 1.04266739 23 6 C23 6.33 23 6.66 23 7 C21.91332031 7.16435547 21.91332031 7.16435547 20.8046875 7.33203125 C15.33834783 8.22851096 10.87892257 9.24778727 6 12 C5.34 12 4.68 12 4 12 C3.67 8.37 3.34 4.74 3 1 C2.01 0.67 1.02 0.34 0 0 Z " fill="#89D5FF" transform="translate(200,163)"/>
<path d="M0 0 C2.71372659 2.00579792 3.03939963 3.17275223 3.8125 6.5625 C3.874375 7.696875 3.93625 8.83125 4 10 C3.34 10.66 2.68 11.32 2 12 C0.70756464 7.8803623 -0.26252625 4.33168317 0 0 Z " fill="#1851D8" transform="translate(376,62)"/>
<path d="M0 0 C-0.99 2.97 -1.98 5.94 -3 9 C-3.99 9 -4.98 9 -6 9 C-5.71848913 7.68528432 -5.42446661 6.37324233 -5.125 5.0625 C-4.96257812 4.33160156 -4.80015625 3.60070312 -4.6328125 2.84765625 C-3.73508672 0.22651863 -2.68779246 0 0 0 Z " fill="#90CCF6" transform="translate(386,119)"/>
</svg>
