<?xml version="1.0" encoding="utf-8"?>
<!-- Generator: Adobe Illustrator 27.5.0, SVG Export Plug-In . SVG Version: 6.00 Build 0)  -->
<svg version="1.1" xmlns="http://www.w3.org/2000/svg" xmlns:xlink="http://www.w3.org/1999/xlink" x="0px" y="0px"
	 viewBox="0 0 675 1200" style="enable-background:new 0 0 675 1200;" xml:space="preserve">
<g id="Background">
	
		<rect x="-262.5" y="262.5" transform="matrix(-1.836970e-16 1 -1 -1.836970e-16 937.5 262.5)" style="fill:#F3FFFD;" width="1200" height="675"/>
</g>
<g id="Graphic_elements">
	<g>
		<defs>
			<rect id="SVGID_1_" width="675" height="1200"/>
		</defs>
		<clipPath id="SVGID_00000009587741140780719720000002753685614100587908_">
			<use xlink:href="#SVGID_1_"  style="overflow:visible;"/>
		</clipPath>
		<g style="clip-path:url(#SVGID_00000009587741140780719720000002753685614100587908_);">
			<path style="fill:#E2F7F4;" d="M-40.957,68.606L-3.697-39.525c12.718-0.32,25.434-0.669,38.149-1.064
				c43.409-0.372,86.816-0.94,130.22-1.685L204.31,0C204.31,0,4.108,277.967,0,277.155C-4.108,276.343-40.957,68.606-40.957,68.606z
				"/>
			<path style="fill:#E2F7F4;" d="M-72.485,1233.376c-0.958-43.804-0.411-87.648-0.337-131.456
				c0.134-79.47,0.345-158.942,0.344-238.413c0.894-44.529,1.524-89.053,2.023-133.579l258.007-35.647L-29.281,953.006
				l-11.089,280.231C-51.075,1233.258-61.78,1233.308-72.485,1233.376z"/>
			<g>
				<path style="fill:#6ABAA9;" d="M-70.537,736.878l6.681-7.943l-6.393-18.248c0.009-0.906,0.019-1.812,0.028-2.718l7.326,20.91
					l0.088,0.249l-7.747,9.211C-70.549,737.851-70.542,737.365-70.537,736.878z"/>
				<path style="fill:#6ABBAA;" d="M-70.647,746.141l15.472-18.395l-14.817-42.289c0.009-0.894,0.017-1.788,0.025-2.682
					l15.737,44.915l0.086,0.245l-16.52,19.642C-70.659,747.097-70.653,746.619-70.647,746.141z"/>
				<path style="fill:#6BBCAB;" d="M-70.757,755.403l24.263-28.847l-23.259-66.385c0.008-0.879,0.017-1.757,0.025-2.636
					l24.163,68.966l0.085,0.241l-25.293,30.072C-70.768,756.344-70.763,755.873-70.757,755.403z"/>
				<path style="fill:#6CBDAC;" d="M-70.87,764.669l33.057-39.303l-31.712-90.509c0.008-0.865,0.016-1.73,0.023-2.595l32.602,93.05
					l0.083,0.237L-70.89,766.06C-70.884,765.596-70.876,765.133-70.87,764.669z"/>
				<path style="fill:#6CBEAD;" d="M-70.999,773.953l41.865-49.776l-40.166-114.641c0.008-0.85,0.015-1.701,0.023-2.551
					l41.041,117.138l0.081,0.233l-42.862,50.962C-71.012,774.863-71.005,774.408-70.999,773.953z"/>
				<path style="fill:#6DBFAE;" d="M-71.128,783.237l50.674-60.249l-48.623-138.776c0.005-0.569,0.01-1.138,0.015-1.708
					c0.002-0.265,0.005-0.53,0.007-0.795l49.481,141.227l0.08,0.228l-51.654,61.414C-71.14,784.131-71.134,783.684-71.128,783.237z"
					/>
				<path style="fill:#6DC0AF;" d="M-71.256,792.522l59.483-70.723l-57.078-162.908c0.007-0.82,0.015-1.639,0.022-2.459
					l57.921,165.315l0.078,0.224l-60.445,71.866C-71.268,793.399-71.263,792.961-71.256,792.522z"/>
				<path style="fill:#6EC1B0;" d="M-71.391,801.813l68.298-81.204l-65.532-187.039c0.007-0.804,0.014-1.607,0.021-2.411
					l66.436,189.619l-69.245,82.33C-71.406,802.677-71.398,802.245-71.391,801.813z"/>
				<path style="fill:#6EC2B1;" d="M-71.543,811.123L5.587,719.42L-68.4,508.25c0.007-0.79,0.013-1.581,0.02-2.371L6.42,719.37
					l0.076,0.216l-78.06,92.81C-71.557,811.972-71.549,811.548-71.543,811.123z"/>
				<path style="fill:#6EC2B2;" d="M-71.694,820.435l85.962-102.205l-82.451-235.326c0.007-0.776,0.013-1.552,0.02-2.329
					l83.249,237.606l0.074,0.212l-86.874,103.29C-71.708,821.268-71.701,820.852-71.694,820.435z"/>
				<path style="fill:#6FC3B3;" d="M-71.846,829.747l94.794-112.706l-90.914-259.483c0.006-0.76,0.013-1.52,0.02-2.28L23.75,716.994
					l0.073,0.207l-95.688,113.769C-71.859,830.563-71.853,830.155-71.846,829.747z"/>
				<path style="fill:#6FC3B3;" d="M-66.666,1233.339l-6.067-12.233c-0.009-0.598-0.019-1.195-0.027-1.792l6.953,14.02
					C-66.094,1233.336-66.38,1233.338-66.666,1233.339z"/>
				<path style="fill:#70C4B4;" d="M-57.419,1233.293l-15.538-31.33l-0.013-1.73l16.394,33.056
					C-56.857,1233.291-57.138,1233.292-57.419,1233.293z"/>
				<path style="fill:#70C4B4;" d="M-72.009,839.071L31.628,715.852l-99.381-283.648c0.006-0.746,0.012-1.493,0.018-2.24
					L32.414,715.805l0.071,0.204L-72.032,840.275C-72.025,839.874-72.016,839.472-72.009,839.071z"/>
				<path style="fill:#70C5B5;" d="M-72.188,848.416L40.308,714.663l-107.86-307.849c0.006-0.73,0.012-1.461,0.018-2.192
					L41.078,714.618l0.07,0.2L-72.21,849.596C-72.203,849.203-72.195,848.809-72.188,848.416z"/>
				<path style="fill:#70C5B5;" d="M-48.168,1233.252l-24.878-50.165l-0.003-1.675l25.708,51.839
					C-47.617,1233.251-47.893,1233.251-48.168,1233.252z"/>
				<path style="fill:#71C6B6;" d="M-72.367,857.761L48.989,713.474L-67.35,381.426c0.005-0.716,0.011-1.432,0.017-2.148
					L49.743,713.429l0.068,0.195l-122.2,145.291C-72.382,858.53-72.374,858.145-72.367,857.761z"/>
				<path style="fill:#71C6B6;" d="M-38.906,1233.234l-34.139-68.836c0.001-0.542,0.003-1.085,0.004-1.627l34.945,70.461
					C-38.366,1233.233-38.636,1233.233-38.906,1233.234z"/>
				<path style="fill:#71C7B7;" d="M57.669,712.285L-67.157,356.013c0.005-0.703,0.01-1.405,0.015-2.108l125.55,358.336l0.066,0.191
					L-72.474,868.123c0-0.368,0-0.737,0-1.105L57.669,712.285z"/>
				<path style="fill:#71C7B7;" d="M-29.64,1233.225l-43.346-87.402c0.003-0.529,0.004-1.058,0.007-1.588l44.134,88.99
					C-29.11,1233.226-29.375,1233.225-29.64,1233.225z"/>
				<path style="fill:#72C8B8;" d="M66.349,711.095L-66.977,330.563c0.005-0.687,0.01-1.374,0.015-2.062L67.071,711.052l0.065,0.188
					L-72.477,877.233c0-0.361,0-0.721,0.001-1.082L66.349,711.095z"/>
				<path style="fill:#72C8B8;" d="M-20.363,1233.237l-52.543-105.946c0.002-0.518,0.004-1.035,0.006-1.553l53.313,107.5
					C-19.845,1233.238-20.104,1233.238-20.363,1233.237z"/>
				<path style="fill:#72C9B9;" d="M75.03,709.906L-66.796,305.115c0.004-0.672,0.01-1.345,0.014-2.017L75.736,709.864l0.063,0.183
					L-72.479,886.344c0.001-0.352,0.001-0.704,0.001-1.056L75.03,709.906z"/>
				<path style="fill:#72C9B9;" d="M-11.075,1233.273l-61.764-124.539c0.002-0.508,0.002-1.015,0.004-1.523l62.521,126.066
					C-10.567,1233.276-10.821,1233.274-11.075,1233.273z"/>
				<path style="fill:#73CABA;" d="M83.711,708.717l-150.343-429.1c0.004-0.659,0.008-1.318,0.012-1.977L84.4,708.676l0.063,0.179
					L-72.483,895.456c0.001-0.345,0.001-0.689,0.001-1.034L83.711,708.717z"/>
				<path style="fill:#73CABA;" d="M-1.78,1233.322L-72.8,1090.116c0.001-0.497,0.001-0.995,0.002-1.492l71.764,144.703
					C-1.283,1233.326-1.531,1233.324-1.78,1233.322z"/>
				<path style="fill:#74CBBB;" d="M92.39,707.527l-158.87-453.44c0.003-0.644,0.007-1.287,0.011-1.931L93.065,707.487l0.062,0.175
					L-72.491,904.574c0-0.337,0-0.674,0.001-1.011L92.39,707.527z"/>
				<path style="fill:#74CBBB;" d="M7.537,1233.413l-80.304-161.923c0.001-0.486,0.002-0.971,0.003-1.457L8.265,1233.42
					C8.023,1233.418,7.78,1233.416,7.537,1233.413z"/>
				<path style="fill:#74CCBC;" d="M101.07,706.338L-66.327,228.56c0.003-0.628,0.008-1.256,0.011-1.884l168.044,479.623l0.06,0.171
					L-72.5,913.69c0.001-0.329,0.001-0.657,0.001-0.986L101.07,706.338z"/>
				<path style="fill:#74CCBC;" d="M16.861,1233.521l-89.592-180.651c0.001-0.474,0.002-0.948,0.003-1.421l90.302,182.084
					C17.337,1233.528,17.099,1233.524,16.861,1233.521z"/>
				<path style="fill:#75CDBD;" d="M109.751,705.149L-66.202,202.953c0.003-0.616,0.005-1.231,0.009-1.847L110.393,705.11
					l0.059,0.167l-182.96,217.531c0-0.321,0-0.641,0.001-0.962L109.751,705.149z"/>
				<path style="fill:#75CDBD;" d="M26.203,1233.664l-98.898-199.415c0.001-0.463,0.002-0.925,0.003-1.388l99.591,200.813
					C26.667,1233.671,26.435,1233.668,26.203,1233.664z"/>
				<path style="fill:#75CEBE;" d="M118.431,703.959L-66.084,177.327c0.003-0.602,0.006-1.203,0.008-1.805l185.134,528.4
					l0.057,0.162L-72.519,931.928c0.001-0.313,0.001-0.627,0.002-0.94L118.431,703.959z"/>
				<path style="fill:#75CEBE;" d="M35.563,1233.844l-108.221-218.216c0.001-0.451,0.002-0.902,0.002-1.353l108.9,219.584
					C36.017,1233.854,35.79,1233.849,35.563,1233.844z"/>
				<path style="fill:#76CFBF;" d="M127.111,702.77L-65.966,151.698c0.002-0.586,0.005-1.173,0.007-1.759l193.681,552.795
					l0.056,0.158L-72.532,941.051l0.002-0.915L127.111,702.77z"/>
				<path style="fill:#76CFBF;" d="M44.933,1234.046L-72.623,997.007c0.001-0.44,0.002-0.879,0.003-1.319l118.219,238.374
					C45.376,1234.056,45.155,1234.052,44.933,1234.046z"/>
				<path style="fill:#76CFC0;" d="M135.792,701.581l-201.68-575.625c0.002-0.573,0.003-1.146,0.005-1.719l202.27,577.308
					l0.054,0.154L-72.545,950.174l0.001-0.891L135.792,701.581z"/>
				<path style="fill:#76CFC0;" d="M54.335,1234.31L-72.59,978.381c0-0.428,0.001-0.857,0.002-1.285l127.572,257.232
					C54.768,1234.323,54.551,1234.317,54.335,1234.31z"/>
				<path style="fill:#77D0C1;" d="M63.75,1234.599L-72.559,959.751c0.001-0.441,0.001-0.882,0.002-1.322l217.029-258.037
					L-65.812,100.208c0.001-0.557,0.003-1.113,0.005-1.67l210.857,601.82l0.053,0.15L-72.308,959l136.692,275.622
					C64.172,1234.615,63.961,1234.606,63.75,1234.599z"/>
				<path style="fill:#77D1C2;" d="M73.189,1234.94L-64.21,957.89l-0.079-0.159l217.442-258.528L-64.084,79.175l0.512-0.179
					l217.288,620.173l0.051,0.146L-63.645,957.808l137.451,277.154C73.601,1234.954,73.395,1234.948,73.189,1234.94z"/>
				<path style="fill:#78D2C3;" d="M82.648,1235.321L-55.533,956.696l-0.076-0.155l217.441-258.528L-55.407,77.981l0.498-0.174
					L162.38,697.981l0.049,0.142L-54.984,956.616l138.233,278.73C83.049,1235.337,82.849,1235.329,82.648,1235.321z"/>
				<path style="fill:#78D3C4;" d="M92.137,1235.76L-46.854,955.501l-0.074-0.15l217.44-258.528L-46.727,76.788l0.482-0.169
					l217.288,620.174l0.049,0.138L-46.321,955.424l139.043,280.364C92.528,1235.778,92.333,1235.77,92.137,1235.76z"/>
				<path style="fill:#79D4C5;" d="M101.655,1236.256l-139.83-281.949l-0.071-0.146l217.439-258.527L-38.048,75.594l0.469-0.164
					l217.288,620.174l0.047,0.133L-37.659,954.232l139.882,282.054C102.034,1236.276,101.844,1236.266,101.655,1236.256z"/>
				<path style="fill:#79D5C6;" d="M111.2,1236.811L-29.497,953.113l-0.069-0.141l217.439-258.526L-29.369,74.401l0.453-0.159
					l217.288,620.174l0.046,0.129L-28.996,953.04l140.75,283.806C111.569,1236.834,111.384,1236.822,111.2,1236.811z"/>
			</g>
			<polygon style="fill:#CFF7F1;" points="534.813,795.928 740.604,753.735 715.557,1220.17 			"/>
			<path style="fill:#E2F7F4;" d="M759.339,285.858c0.099,3.746,0.217,7.491,0.343,11.237
				c-0.868,74.018-1.875,148.034-2.934,222.049l-21.963,4.547L416.775-23.777l338.84-13.001
				c0.792,69.447,2.347,138.886,4.38,208.308C758.658,209.624,758.338,247.754,759.339,285.858z"/>
			<g>
				<path style="fill:#66B3A1;" d="M745.707-67.809c0.42,0.028,0.841,0.058,1.262,0.087l8.475,14.593
					c0.007,0.707,0.013,1.414,0.02,2.121L745.707-67.809z"/>
				<path style="fill:#66B4A2;" d="M755.646-34.186l-18.912-32.565l0.893-0.519l17.995,30.986
					C755.63-35.584,755.638-34.885,755.646-34.186z"/>
				<path style="fill:#67B5A3;" d="M755.855-17.317l-27.69-47.68l0.881-0.511l26.779,46.112
					C755.835-18.703,755.846-18.01,755.855-17.317z"/>
				<path style="fill:#68B6A4;" d="M756.093-0.398l-36.496-62.843l0.867-0.503l35.6,61.301
					C756.075-1.762,756.083-1.08,756.093-0.398z"/>
				<path style="fill:#68B6A5;" d="M756.368,16.581L711.03-61.488l0.854-0.496l44.452,76.543
					C756.346,15.233,756.357,15.907,756.368,16.581z"/>
				<path style="fill:#68B7A6;" d="M756.668,33.606l-54.206-93.339l0.84-0.488l53.33,91.829
					C756.643,32.274,756.656,32.94,756.668,33.606z"/>
				<path style="fill:#69B8A7;" d="M756.992,50.672L693.893-57.98l0.827-0.48l62.231,107.158
					C756.964,49.356,756.979,50.014,756.992,50.672z"/>
				<path style="fill:#69B9A8;" d="M757.343,67.784L685.326-56.225l0.814-0.473L757.303,65.84
					C757.317,66.488,757.329,67.136,757.343,67.784z"/>
				<path style="fill:#6ABAA9;" d="M757.726,84.952L676.757-54.471l0.801-0.465l80.125,137.969
					C757.698,83.672,757.711,84.312,757.726,84.952z"/>
				<path style="fill:#6ABBAA;" d="M758.132,102.156L668.19-52.717l0.787-0.457l89.109,153.439
					C758.101,100.895,758.117,101.526,758.132,102.156z"/>
				<path style="fill:#6BBCAB;" d="M758.56,119.401L659.622-50.963l0.773-0.449l98.116,168.948
					C758.527,118.158,758.544,118.779,758.56,119.401z"/>
				<path style="fill:#6CBDAC;" d="M759.011,136.684L651.054-49.209l0.761-0.442l107.148,184.5
					C758.979,135.461,758.994,136.073,759.011,136.684z"/>
				<path style="fill:#6CBEAD;" d="M753.453,746.889l-3.78,5.146l3.587,8.42c-0.01,0.711-0.021,1.423-0.03,2.134l-4.449-10.442
					l-0.097-0.227l4.789-6.52C753.467,745.897,753.46,746.393,753.453,746.889z"/>
				<path style="fill:#6CBEAD;" d="M759.49,154.019L642.485-47.455l0.748-0.434l116.207,200.1
					C759.457,152.814,759.473,153.416,759.49,154.019z"/>
				<path style="fill:#6DBFAE;" d="M753.597,736.764l-12.507,17.027l11.871,27.863c-0.01,0.699-0.02,1.397-0.03,2.096
					l-12.717-29.848l-0.095-0.223l13.499-18.377C753.61,735.79,753.604,736.277,753.597,736.764z"/>
				<path style="fill:#6DBFAE;" d="M759.989,171.386L633.918-45.7l0.734-0.427l125.285,215.732
					C759.955,170.199,759.972,170.793,759.989,171.386z"/>
				<path style="fill:#6DC0AF;" d="M753.74,726.641l-21.234,28.907l20.16,47.32c-0.009,0.687-0.019,1.375-0.028,2.062
					l-20.993-49.274l-0.093-0.219l22.208-30.233C753.753,725.684,753.747,726.163,753.74,726.641z"/>
				<path style="fill:#6DC0AF;" d="M759.505,187.06L625.35-43.946l0.721-0.419l133.481,229.843
					C759.537,186.005,759.52,186.533,759.505,187.06z"/>
				<path style="fill:#6EC1B0;" d="M753.884,716.516l-29.962,40.789l28.457,66.793c-0.009,0.674-0.018,1.348-0.027,2.022
					l-29.273-68.709l-0.092-0.215l30.918-42.091C753.898,715.576,753.891,716.046,753.884,716.516z"/>
				<path style="fill:#6EC1B0;" d="M759.127,202.916L616.782-42.191l0.707-0.411l141.667,243.94
					C759.145,201.863,759.137,202.39,759.127,202.916z"/>
				<path style="fill:#6EC2B1;" d="M754.032,706.388l-38.692,52.675l36.752,86.266c-0.009,0.661-0.018,1.322-0.027,1.984
					l-37.553-88.145l-0.09-0.21l39.63-53.951C754.045,705.466,754.038,705.927,754.032,706.388z"/>
				<path style="fill:#6EC2B1;" d="M758.881,219L608.214-40.438l0.694-0.403l149.99,258.271
					C758.892,217.953,758.887,218.476,758.881,219z"/>
				<path style="fill:#6EC2B2;" d="M754.179,696.259l-47.423,64.561l45.051,105.743c-0.008,0.65-0.016,1.301-0.024,1.951
					l-45.839-107.592l-0.088-0.207l48.343-65.813C754.192,695.354,754.185,695.807,754.179,696.259z"/>
				<path style="fill:#6EC2B2;" d="M758.762,235.305L599.645-38.683l0.682-0.396L758.77,233.749
					C758.768,234.268,758.764,234.787,758.762,235.305z"/>
				<path style="fill:#6FC3B3;" d="M754.326,686.132l-56.153,76.445l53.365,125.259c-0.008,0.638-0.016,1.275-0.024,1.913
					l-54.138-127.071l-0.086-0.203l57.056-77.674C754.339,685.244,754.332,685.688,754.326,686.132z"/>
				<path style="fill:#6FC3B3;" d="M758.793,251.862L591.078-36.929l0.668-0.388l167.033,287.618
					C758.782,250.822,758.789,251.342,758.793,251.862z"/>
				<path style="fill:#70C4B4;" d="M754.473,676.003l-64.884,88.331l61.679,144.773c-0.008,0.626-0.016,1.252-0.024,1.878
					l-62.436-146.553l-0.084-0.199l65.768-89.535C754.485,675.133,754.479,675.568,754.473,676.003z"/>
				<path style="fill:#70C4B4;" d="M758.987,268.705L582.509-35.175l0.654-0.38l175.799,302.712
					C758.97,267.673,758.978,268.189,758.987,268.705z"/>
				<path style="fill:#70C5B5;" d="M754.62,665.874l-73.615,100.217L751,930.382c-0.007,0.612-0.016,1.224-0.023,1.836
					l-70.819-166.225l74.481-101.396C754.632,665.022,754.627,665.448,754.62,665.874z"/>
				<path style="fill:#70C5B5;" d="M759.339,285.817L573.942-33.42l0.641-0.373l184.721,318.075
					C759.317,284.794,759.325,285.306,759.339,285.817z"/>
				<path style="fill:#71C6B6;" d="M754.767,655.746l-82.345,112.102l78.326,183.847c-0.007,0.601-0.013,1.202-0.021,1.803
					l-79.054-185.556l-0.081-0.19l83.193-113.257C754.779,654.912,754.773,655.329,754.767,655.746z"/>
				<path style="fill:#71C6B6;" d="M759.612,302.798L565.374-31.667l0.628-0.365L759.63,301.381
					C759.624,301.854,759.618,302.326,759.612,302.798z"/>
				<path style="fill:#71C7B7;" d="M754.915,645.617l-91.076,123.987l86.666,203.421c-0.007,0.588-0.014,1.177-0.02,1.765
					l-87.379-205.094l-0.079-0.186l91.906-125.12C754.926,644.8,754.92,645.209,754.915,645.617z"/>
				<path style="fill:#71C7B7;" d="M759.417,318.968L556.805-29.912l0.615-0.357l202.013,347.85
					C759.428,318.043,759.422,318.506,759.417,318.968z"/>
				<path style="fill:#72C8B8;" d="M755.062,635.488l-99.807,135.874l95.004,222.995c-0.006,0.576-0.013,1.152-0.02,1.729
					l-95.702-224.633l-0.077-0.182L755.08,634.289C755.074,634.689,755.068,635.088,755.062,635.488z"/>
				<path style="fill:#72C8B8;" d="M759.221,335.139L548.238-28.158l0.602-0.35l210.398,362.289
					C759.232,334.234,759.227,334.686,759.221,335.139z"/>
				<path style="fill:#72C9B9;" d="M755.21,625.358L646.672,773.119l103.352,242.589c-0.006,0.565-0.011,1.129-0.017,1.694
					L645.97,773.207l-0.076-0.178l109.333-148.844C755.221,624.576,755.216,624.967,755.21,625.358z"/>
				<path style="fill:#72C9B9;" d="M759.026,351.309L539.669-26.404l0.588-0.342l218.784,376.729
					C759.036,350.425,759.031,350.867,759.026,351.309z"/>
				<path style="fill:#73CABA;" d="M758.818,367.459L531.102-24.65l0.574-0.334l227.159,391.151
					C758.83,366.598,758.824,367.028,758.818,367.459z"/>
				<path style="fill:#73CABA;" d="M755.358,615.229L638.089,774.876l111.722,262.233c-0.005,0.552-0.011,1.105-0.017,1.657
					L637.403,774.962l-0.074-0.174l118.046-160.705C755.369,614.465,755.363,614.847,755.358,615.229z"/>
				<path style="fill:#74CBBB;" d="M755.505,605.099l-126,171.534l120.091,281.877c-0.005,0.54-0.011,1.079-0.016,1.619
					L628.836,776.718l-0.072-0.171L755.522,603.98C755.517,604.353,755.511,604.726,755.505,605.099z"/>
				<path style="fill:#74CBBB;" d="M758.607,383.604L522.533-22.896l0.563-0.326l235.528,405.561
					C758.618,382.76,758.612,383.182,758.607,383.604z"/>
				<path style="fill:#74CCBC;" d="M755.653,594.97L620.922,778.39l128.461,301.523c-0.005,0.527-0.011,1.055-0.016,1.583
					l-129.1-303.023l-0.07-0.166l135.473-184.429C755.664,594.242,755.659,594.606,755.653,594.97z"/>
				<path style="fill:#74CCBC;" d="M758.395,399.747L513.965-21.142l0.549-0.318l243.896,419.97
					C758.405,398.923,758.4,399.335,758.395,399.747z"/>
				<path style="fill:#75CDBD;" d="M758.182,415.889L505.398-19.387l0.535-0.311l252.265,434.382
					C758.193,415.086,758.188,415.488,758.182,415.889z"/>
				<path style="fill:#75CDBD;" d="M755.801,584.84L612.339,780.147l136.862,321.243c-0.004,0.516-0.008,1.033-0.013,1.549
					L611.7,780.227l-0.068-0.162l144.186-196.292C755.812,584.129,755.807,584.484,755.801,584.84z"/>
				<path style="fill:#75CEBE;" d="M755.949,574.711L603.755,781.904l145.268,340.974c-0.004,0.503-0.008,1.007-0.012,1.51
					L603.132,781.982l-0.067-0.158L755.964,573.67L755.949,574.711z"/>
				<path style="fill:#75CEBE;" d="M757.968,432.027L496.83-17.633l0.521-0.303l260.633,448.79
					C757.979,431.245,757.973,431.636,757.968,432.027z"/>
				<path style="fill:#76CFBF;" d="M756.095,564.584L595.172,783.661l153.674,360.703c-0.004,0.491-0.008,0.982-0.012,1.474
					L594.565,783.737l-0.065-0.154l161.61-220.011C756.105,563.91,756.1,564.247,756.095,564.584z"/>
				<path style="fill:#76CFBF;" d="M757.744,448.148L488.261-15.878l0.509-0.295l268.99,463.178
					C757.755,447.386,757.749,447.767,757.744,448.148z"/>
				<path style="fill:#76CFC0;" d="M757.52,464.27L479.693-14.125l0.496-0.288l277.346,477.569
					C757.53,463.528,757.525,463.899,757.52,464.27z"/>
				<path style="fill:#76CFC0;" d="M756.241,554.457L586.588,785.418l162.102,380.485c-0.003,0.48-0.005,0.961-0.009,1.441
					L585.997,785.493l-0.063-0.15L756.255,553.47C756.25,553.799,756.246,554.128,756.241,554.457z"/>
				<path style="fill:#77D0C1;" d="M756.386,544.332L578.005,787.175l170.55,400.314c-0.003,0.467-0.006,0.934-0.009,1.402
					L577.429,787.247l-0.062-0.146L756.4,543.37C756.396,543.691,756.391,544.011,756.386,544.332z"/>
				<path style="fill:#77D0C1;" d="M757.296,480.393L471.126-12.37l0.482-0.28l285.703,491.958
					C757.306,479.67,757.301,480.031,757.296,480.393z"/>
				<path style="fill:#77D1C2;" d="M757.072,496.514L462.557-10.616l0.469-0.273l294.06,506.349
					C757.082,495.812,757.077,496.163,757.072,496.514z"/>
				<path style="fill:#77D1C2;" d="M756.532,534.204l-187.11,254.729l178.997,420.143c-0.002,0.455-0.006,0.909-0.008,1.364
					L568.863,789.003l-0.061-0.143l187.743-255.59C756.541,533.581,756.537,533.893,756.532,534.204z"/>
				<path style="fill:#78D2C3;" d="M756.678,524.078l-195.84,266.61l187.452,439.988c-0.002,0.443-0.003,0.887-0.005,1.33
					l-187.99-441.25l-0.059-0.138L756.691,523.17C756.687,523.473,756.682,523.776,756.678,524.078z"/>
				<path style="fill:#78D2C3;" d="M756.842,512.627L453.99-8.862l0.455-0.265l302.412,520.73
					C756.852,511.945,756.847,512.286,756.842,512.627z"/>
				<path style="fill:#78D3C4;" d="M752.24,520.191L552.255,792.446l195.949,459.933c-0.002,0.431-0.003,0.861-0.005,1.292
					L551.727,792.513l-0.057-0.134l199.958-272.221L445.422-7.108l0.442-0.257l306.29,527.411L752.24,520.191z"/>
				<path style="fill:#79D4C5;" d="M741.527,1259.877l-198.369-465.61l-0.055-0.13l199.96-272.221L436.853-5.354l0.43-0.249
					l306.292,527.411l0.081,0.141L543.67,794.203l198.396,465.671C741.886,1259.875,741.707,1259.876,741.527,1259.877z"/>
				<path style="fill:#79D5C6;" d="M732.243,1259.952L534.592,796.023l-0.055-0.126l199.961-272.221L428.286-3.6l0.416-0.241
					L734.994,523.57l0.079,0.136L535.089,795.96l197.674,463.984C732.589,1259.946,732.417,1259.95,732.243,1259.952z"/>
			</g>
		</g>
	</g>
</g>
</svg>
