<?xml version="1.0" encoding="UTF-8" standalone="no"?>
<!-- Created with Inkscape (http://www.inkscape.org/) -->

<svg
   width="280mm"
   height="472mm"
   viewBox="0 0 280 472"
   version="1.1"
   id="svg1"
   inkscape:version="1.3 (0e150ed6c4, 2023-07-21)"
   sodipodi:docname="stars.svg"
   xmlns:inkscape="http://www.inkscape.org/namespaces/inkscape"
   xmlns:sodipodi="http://sodipodi.sourceforge.net/DTD/sodipodi-0.dtd"
   xmlns="http://www.w3.org/2000/svg"
   xmlns:svg="http://www.w3.org/2000/svg">
  <sodipodi:namedview
     id="namedview1"
     pagecolor="#ffffff"
     bordercolor="#000000"
     borderopacity="0.25"
     inkscape:showpageshadow="2"
     inkscape:pageopacity="0.0"
     inkscape:pagecheckerboard="0"
     inkscape:deskcolor="#d1d1d1"
     inkscape:document-units="mm"
     inkscape:zoom="0.73139029"
     inkscape:cx="397.18876"
     inkscape:cy="1108.1635"
     inkscape:window-width="1920"
     inkscape:window-height="1017"
     inkscape:window-x="-8"
     inkscape:window-y="-8"
     inkscape:window-maximized="1"
     inkscape:current-layer="layer1" />
  <defs
     id="defs1" />
  <g
     inkscape:label="Layer 1"
     inkscape:groupmode="layer"
     id="layer1">
    <path
       d="m 58.48983,38.598032 c -0.97619,-0.47112 -1.646238,-0.59097 -2.667365,-0.25078 -0.978673,0.67309 -1.835458,1.46732 -2.706795,2.27236 -2.484131,2.59401 -2.484131,2.59401 -5.629642,3.94878 -0.562519,-0.094 -1.066642,-0.24441 -1.605156,-0.43165 -0.193488,-0.0578 -0.386969,-0.11558 -0.586316,-0.17512 -0.410095,-0.123 -0.818962,-0.25016 -1.226567,-0.38116 -0.862038,-0.27616 -1.729479,-0.53111 -2.599541,-0.78076 -0.413584,-0.11897 -0.826134,-0.2416 -1.237407,-0.36832 -1.050625,-0.30978 -1.833771,-0.51321 -2.874955,-0.11072 -0.707276,0.59083 -0.707276,0.59083 -1.21106,1.40126 0.123563,1.82619 0.838735,3.38031 1.562011,5.04376 0.330252,0.76966 0.659116,1.5397 0.982453,2.3123 0.178727,0.42409 0.363089,0.84593 0.556621,1.26347 0.393967,0.91946 0.488095,1.3211 0.118481,2.26765 -0.473398,0.89196 -0.986587,1.70723 -1.56165,2.53679 -0.205147,0.30084 -0.410151,0.60178 -0.615018,0.9028 -0.319418,0.4665 -0.639906,0.93212 -0.962995,1.39608 -0.314644,0.45309 -0.624511,0.90918 -0.933858,1.36592 -0.185658,0.26898 -0.371316,0.53795 -0.562598,0.81508 -0.470715,0.90836 -0.562769,1.47537 -0.477911,2.49031 0.379884,0.85521 0.942353,1.21532 1.801019,1.55655 1.528424,0.0921 3.012211,-0.0692 4.530884,-0.23688 0.616766,-0.06 1.233716,-0.11763 1.850739,-0.17487 0.382532,-0.0364 0.764878,-0.0748 1.146965,-0.11562 0.832076,-0.0869 1.537139,-0.11227 2.372698,-0.008 0.406644,0.31668 0.406644,0.31668 0.76583,0.74924 0.210441,0.23937 0.210441,0.23937 0.42512,0.4836 0.739627,0.88659 1.452202,1.79161 2.154708,2.70782 0.217915,0.28165 0.217915,0.28165 0.440242,0.56899 0.75166,0.96899 0.75166,0.96899 1.467052,1.9646 0.537499,0.74629 1.1109,1.37086 1.913634,1.81782 0.829717,0.0971 1.214143,-0.0474 2.038618,-0.33633 0.784938,-1.02567 1.075138,-2.10641 1.348908,-3.34622 0.09043,-0.38188 0.181009,-0.76372 0.271744,-1.14552 0.138917,-0.59642 0.27617,-1.19312 0.410372,-1.79061 0.13149,-0.58071 0.269488,-1.15957 0.408385,-1.73854 0.03797,-0.17745 0.07593,-0.35492 0.115029,-0.53775 0.314801,-1.28699 0.810032,-1.88602 1.883248,-2.64339 0.567368,-0.30264 0.567368,-0.30264 1.147661,-0.4889 0.210566,-0.0746 0.421139,-0.1492 0.638084,-0.22606 0.219814,-0.0745 0.439643,-0.1491 0.666113,-0.22591 0.226634,-0.0806 0.453267,-0.16122 0.686763,-0.24427 0.985049,-0.34995 1.972737,-0.68732 2.96638,-1.01212 2.186106,-0.74055 2.186106,-0.74055 2.81862,-1.63067 0.306516,-0.78459 0.385139,-1.09799 0.225092,-1.9037 -1.107297,-1.41408 -2.82292,-2.30508 -4.33683,-3.2236 -3.157884,-1.67409 -3.157884,-1.67409 -5.002705,-4.4835 -0.08179,-0.96383 -0.08773,-1.89416 -0.05541,-2.86056 -0.0019,-0.47647 -0.0051,-0.95293 -0.01005,-1.42937 -5.77e-4,-0.22093 -0.0012,-0.44187 -0.0017,-0.6695 -0.0016,-0.23537 -0.0033,-0.47073 -0.0049,-0.71323 -0.0017,-0.28951 -0.0034,-0.57903 -0.0051,-0.87732 -0.07594,-2.25689 -0.07594,-2.25689 -0.837857,-3.30458 z"
       fill="#f9a30c"
       id="path25"
       style="stroke-width:0.264539" />
    <path
       d="m 97.866374,147.88 c -0.58113,0.20851 -0.897305,0.43288 -1.166756,0.98354 -0.11726,0.6663 -0.136634,1.33146 -0.157433,2.00684 0.06213,2.04479 0.06213,2.04479 -0.643235,3.86354 -0.262805,0.19096 -0.525132,0.33577 -0.816176,0.4798 -0.100783,0.0556 -0.201472,0.11106 -0.305209,0.16829 -0.213688,0.1175 -0.428578,0.23284 -0.644531,0.34614 -0.456325,0.23997 -0.906203,0.49059 -1.354973,0.7444 -0.21343,0.12055 -0.42797,0.23916 -0.643631,0.35567 -0.545289,0.30316 -0.940584,0.54011 -1.192728,1.12379 -0.04228,0.52322 -0.04228,0.52322 0.08583,1.05142 0.791267,0.67882 1.708133,1.00874 2.672669,1.37898 0.44453,0.1731 0.888663,0.34691 1.331616,0.52399 0.243665,0.0967 0.488627,0.1902 0.735515,0.27828 0.53082,0.20701 0.731568,0.32911 0.968577,0.85714 0.173374,0.54842 0.299709,1.08237 0.40716,1.64719 0.04029,0.20344 0.0807,0.40685 0.121243,0.61026 0.06201,0.31602 0.123216,0.63211 0.182728,0.94859 0.05839,0.3087 0.12004,0.61668 0.182098,0.92468 0.03515,0.18285 0.0703,0.36563 0.106505,0.55397 0.181106,0.55387 0.374718,0.81762 0.820918,1.18833 0.499102,0.1871 0.869955,0.1023 1.351376,-0.11024 0.647583,-0.58419 1.174473,-1.25133 1.712593,-1.9353 0.22181,-0.27455 0.44471,-0.5482 0.6678,-0.82171 0.13789,-0.16998 0.27494,-0.34061 0.41091,-0.51212 0.29686,-0.37275 0.56801,-0.66934 0.94389,-0.96721 0.291,-0.0388 0.291,-0.0388 0.61014,-0.012 0.18124,0.0105 0.18124,0.0105 0.36618,0.0203 0.65546,0.0535 1.30762,0.12527 1.96029,0.20563 0.20141,0.0239 0.20141,0.0239 0.40691,0.0483 0.69375,0.0815 0.69375,0.0815 1.38382,0.1883 0.51776,0.0795 1.00042,0.096 1.50247,-0.0517 0.37072,-0.29829 0.46548,-0.51217 0.67723,-0.96249 -0.10335,-0.72836 -0.42654,-1.27771 -0.82093,-1.88388 -0.11905,-0.1892 -0.23799,-0.37844 -0.3569,-0.56772 -0.18681,-0.29459 -0.37447,-0.58853 -0.56362,-0.88158 -0.18344,-0.28522 -0.36351,-0.57239 -0.54327,-0.85997 -0.057,-0.0863 -0.11386,-0.17251 -0.17255,-0.26141 -0.39718,-0.64169 -0.44283,-1.08202 -0.32207,-1.8204 0.10359,-0.35131 0.10359,-0.35131 0.25955,-0.66142 0.0537,-0.11538 0.10744,-0.23068 0.1629,-0.34949 0.0574,-0.119 0.11491,-0.23811 0.17414,-0.3608 0.0577,-0.12423 0.1155,-0.24847 0.17494,-0.37651 0.25108,-0.5399 0.50832,-1.07584 0.77305,-1.6092 0.57188,-1.18377 0.57188,-1.18377 0.46277,-1.79609 -0.19638,-0.43776 -0.29231,-0.59481 -0.68353,-0.85145 -1.01654,-0.11468 -2.06343,0.22662 -3.04099,0.47497 -1.94081,0.61459 -1.94081,0.61459 -3.81865,0.24249 -0.42423,-0.35156 -0.80457,-0.72054 -1.18425,-1.11951 -0.19437,-0.1894 -0.38877,-0.37876 -0.58479,-0.56646 -0.0899,-0.0879 -0.17991,-0.17601 -0.2728,-0.26648 -0.0965,-0.0932 -0.19206,-0.18708 -0.291376,-0.28306 -0.118428,-0.1148 -0.236063,-0.23032 -0.358065,-0.34857 -0.94717,-0.87018 -0.94717,-0.87018 -1.677022,-0.97887 z"
       fill="#f9a30c"
       id="path25-0"
       style="stroke-width:0.150678" />
    <path
       d="m 225.39821,159.63319 c -0.80832,0.0478 -1.28907,0.21342 -1.83148,0.80693 -0.3936,0.79521 -0.66359,1.62513 -0.93916,2.46739 -0.67685,2.59624 -0.67685,2.59624 -2.2361,4.6246 -0.40124,0.14321 -0.78484,0.22865 -1.20429,0.30242 -0.14735,0.0328 -0.29454,0.0654 -0.44624,0.0991 -0.31229,0.0689 -0.62532,0.13478 -0.93892,0.19762 -0.66288,0.13355 -1.32158,0.28276 -1.98006,0.43645 -0.3131,0.0729 -0.6269,0.1429 -0.94131,0.20993 -0.79816,0.18018 -1.38313,0.33241 -1.91596,0.97384 -0.24642,0.64284 -0.24642,0.64284 -0.28023,1.35487 0.74513,1.14644 1.77715,1.90019 2.85426,2.72229 0.49552,0.38197 0.99026,0.76472 1.48232,1.15111 0.27094,0.21167 0.54468,0.41978 0.82285,0.62181 0.59159,0.4565 0.79913,0.6843 0.90243,1.43633 0.0156,0.75418 -0.0225,1.47277 -0.0959,2.22325 -0.0245,0.27091 -0.0487,0.54181 -0.0728,0.81276 -0.0386,0.42058 -0.0784,0.84098 -0.12039,1.26124 -0.0406,0.41005 -0.0766,0.8204 -0.11221,1.23091 -0.0233,0.24309 -0.0466,0.48609 -0.0705,0.73649 0.0234,0.76388 0.16966,1.16729 0.59429,1.79859 0.55903,0.41974 1.05705,0.44997 1.74138,0.36025 1.03067,-0.49606 1.94008,-1.14107 2.86984,-1.80313 0.38052,-0.2636 0.76207,-0.52565 1.14381,-0.78751 0.23631,-0.16298 0.47179,-0.3271 0.70623,-0.49274 0.51122,-0.35947 0.96197,-0.6326 1.54499,-0.86866 0.38052,0.0587 0.38052,0.0587 0.77228,0.21015 0.22421,0.0801 0.22421,0.0801 0.45333,0.16078 0.80511,0.30934 1.59932,0.64049 2.391,0.98263 0.24463,0.10444 0.24463,0.10444 0.49424,0.21108 0.84296,0.35875 0.84296,0.35875 1.67195,0.74794 0.62222,0.29128 1.22355,0.49023 1.90992,0.4897 0.57667,-0.2385 0.77489,-0.47268 1.20765,-0.96121 0.13892,-0.95477 -0.0649,-1.76544 -0.33747,-2.67391 -0.08,-0.28206 -0.15976,-0.56414 -0.23952,-0.84624 -0.12635,-0.4397 -0.25396,-0.8789 -0.38378,-1.31754 -0.12558,-0.42668 -0.2461,-0.85456 -0.36614,-1.28285 -0.0398,-0.12957 -0.0796,-0.25914 -0.12054,-0.39269 -0.26289,-0.95419 -0.15775,-1.52519 0.26688,-2.40982 0.26008,-0.40387 0.26008,-0.40387 0.57085,-0.73654 0.11024,-0.12544 0.22039,-0.25063 0.33406,-0.37967 0.11626,-0.1285 0.23254,-0.25722 0.35237,-0.38975 0.11841,-0.13509 0.2371,-0.27005 0.35919,-0.40923 0.51533,-0.58673 1.03694,-1.16622 1.56705,-1.73967 1.1568,-1.27856 1.1568,-1.27856 1.24558,-2.08941 -0.0854,-0.62344 -0.14825,-0.85648 -0.5458,-1.32392 -1.23694,-0.51968 -2.68043,-0.47674 -4.00234,-0.52517 -2.66937,0.0568 -2.66937,0.0568 -4.89518,-1.10487 -0.40406,-0.59906 -0.74644,-1.20386 -1.07695,-1.84615 -0.17466,-0.31012 -0.34939,-0.62021 -0.52674,-0.92879 -0.0807,-0.14383 -0.16144,-0.28794 -0.24493,-0.43609 -0.0869,-0.15285 -0.17261,-0.30635 -0.26217,-0.46382 -0.10653,-0.1882 -0.21203,-0.37702 -0.32189,-0.57087 -0.87068,-1.44483 -0.87068,-1.44483 -1.74902,-1.85111 z"
       fill="#f9a30c"
       id="path25-0-7"
       style="stroke-width:0.197616" />
    <path
       d="m 54.482684,241.42194 c -0.406139,-0.0513 -0.660439,-0.0136 -0.985082,0.23107 -0.2694,0.35869 -0.480589,0.74608 -0.695697,1.1391 -0.577291,1.22747 -0.577291,1.22747 -1.540421,2.09083 -0.212695,0.0339 -0.411267,0.0408 -0.62657,0.0386 -0.07627,0.003 -0.152439,0.005 -0.230966,0.008 -0.161589,0.005 -0.323271,0.009 -0.484961,0.0111 -0.341827,0.005 -0.683036,0.0179 -1.024546,0.0332 -0.162377,0.007 -0.324807,0.0128 -0.487292,0.017 -0.413391,0.0155 -0.718232,0.0369 -1.042557,0.30619 -0.182114,0.29662 -0.182114,0.29662 -0.26499,0.64734 0.263932,0.6389 0.706883,1.10926 1.165901,1.61777 0.210815,0.23582 0.421175,0.47194 0.629864,0.70963 0.115011,0.13033 0.231747,0.25916 0.351242,0.38537 0.251646,0.28178 0.333654,0.41424 0.315209,0.79756 -0.06222,0.37627 -0.14784,0.72986 -0.253949,1.09602 -0.0373,0.13237 -0.07447,0.26475 -0.111592,0.39717 -0.05822,0.20544 -0.116985,0.41068 -0.176859,0.61564 -0.05821,0.20002 -0.114209,0.40061 -0.169986,0.60132 -0.03414,0.11865 -0.06826,0.23725 -0.103366,0.35949 -0.05924,0.3818 -0.02399,0.59586 0.128454,0.94901 0.238877,0.26046 0.483575,0.32171 0.831999,0.34061 0.558255,-0.15089 1.070063,-0.38706 1.593566,-0.62982 0.213572,-0.0957 0.427512,-0.19052 0.641524,-0.28523 0.132562,-0.0591 0.264822,-0.11879 0.396703,-0.17935 0.287424,-0.13122 0.536778,-0.22512 0.848434,-0.28835 0.18366,0.0645 0.18366,0.0645 0.364304,0.17611 0.103996,0.0606 0.103996,0.0606 0.210374,0.12198 0.371422,0.22845 0.735398,0.46672 1.097098,0.71022 0.111884,0.0746 0.111884,0.0746 0.22604,0.15076 0.38564,0.25652 0.38564,0.25652 0.761519,0.52686 0.282201,0.2025 0.562587,0.35717 0.903747,0.42059 0.308723,-0.065 0.428967,-0.16301 0.689369,-0.36563 0.157632,-0.46161 0.131557,-0.88341 0.0804,-1.36019 -0.01358,-0.1476 -0.02705,-0.29519 -0.04051,-0.4428 -0.022,-0.23024 -0.04466,-0.46036 -0.06847,-0.6904 -0.02282,-0.22369 -0.04301,-0.44753 -0.06293,-0.67151 -0.0077,-0.0681 -0.01553,-0.13619 -0.02347,-0.20636 -0.04211,-0.4986 0.06312,-0.77262 0.356242,-1.17286 0.166732,-0.17658 0.166732,-0.17658 0.352048,-0.31307 0.06642,-0.0521 0.132784,-0.10411 0.201251,-0.15769 0.06971,-0.0531 0.139434,-0.10625 0.211291,-0.161 0.07138,-0.0562 0.142888,-0.11221 0.216478,-0.17005 0.310554,-0.24377 0.623556,-0.48336 0.940219,-0.71917 0.693545,-0.52808 0.693545,-0.52808 0.812909,-0.92281 0.01539,-0.31777 0.0058,-0.43941 -0.148401,-0.70861 -0.566508,-0.37304 -1.287878,-0.48565 -1.940347,-0.63239 -1.331886,-0.21948 -1.331886,-0.21948 -2.330275,-1.00332 -0.145223,-0.33522 -0.259255,-0.66756 -0.363912,-1.01744 -0.05802,-0.17032 -0.116087,-0.34064 -0.175597,-0.51046 -0.02675,-0.0789 -0.05351,-0.15807 -0.08126,-0.23945 -0.02902,-0.084 -0.05735,-0.16828 -0.08725,-0.25484 -0.03549,-0.10337 -0.07039,-0.20705 -0.107,-0.31358 -0.29864,-0.79884 -0.29864,-0.79884 -0.697459,-1.08226 z"
       fill="#f9a30c"
       id="path25-0-7-8"
       style="stroke-width:0.0999082" />
    <path
       d="m 128.90426,347.41597 c -0.97619,-0.47112 -1.64624,-0.59097 -2.66737,-0.25078 -0.97867,0.67309 -1.83545,1.46732 -2.70679,2.27236 -2.48413,2.59401 -2.48413,2.59401 -5.62964,3.94878 -0.56252,-0.094 -1.06664,-0.24441 -1.60516,-0.43165 -0.19349,-0.0578 -0.38697,-0.11558 -0.58631,-0.17512 -0.4101,-0.123 -0.81897,-0.25016 -1.22657,-0.38116 -0.86204,-0.27616 -1.72948,-0.53111 -2.59954,-0.78076 -0.41359,-0.11897 -0.82614,-0.2416 -1.23741,-0.36832 -1.05062,-0.30978 -1.83377,-0.51321 -2.87495,-0.11072 -0.70728,0.59083 -0.70728,0.59083 -1.21106,1.40126 0.12356,1.82619 0.83873,3.38031 1.56201,5.04376 0.33025,0.76966 0.65911,1.5397 0.98245,2.3123 0.17873,0.42409 0.36309,0.84593 0.55662,1.26347 0.39397,0.91946 0.4881,1.3211 0.11848,2.26765 -0.4734,0.89196 -0.98659,1.70723 -1.56165,2.53679 -0.20515,0.30084 -0.41015,0.60178 -0.61502,0.9028 -0.31941,0.4665 -0.6399,0.93212 -0.96299,1.39608 -0.31465,0.45309 -0.62451,0.90918 -0.93386,1.36592 -0.18566,0.26898 -0.37132,0.53795 -0.5626,0.81508 -0.47071,0.90836 -0.56277,1.47537 -0.47791,2.49031 0.37989,0.85521 0.94235,1.21532 1.80102,1.55655 1.52842,0.0921 3.01221,-0.0692 4.53088,-0.23688 0.61677,-0.06 1.23372,-0.11763 1.85074,-0.17487 0.38254,-0.0364 0.76488,-0.0748 1.14697,-0.11562 0.83207,-0.0869 1.53714,-0.11227 2.3727,-0.008 0.40664,0.31668 0.40664,0.31668 0.76583,0.74924 0.21044,0.23937 0.21044,0.23937 0.42512,0.4836 0.73962,0.88659 1.4522,1.79161 2.1547,2.70782 0.21792,0.28165 0.21792,0.28165 0.44025,0.56899 0.75166,0.96899 0.75166,0.96899 1.46705,1.9646 0.5375,0.74629 1.1109,1.37086 1.91363,1.81782 0.82972,0.0971 1.21415,-0.0474 2.03862,-0.33633 0.78494,-1.02567 1.07514,-2.10641 1.34891,-3.34622 0.0904,-0.38188 0.18101,-0.76372 0.27174,-1.14552 0.13892,-0.59642 0.27617,-1.19312 0.41037,-1.79061 0.1315,-0.58071 0.26949,-1.15957 0.40839,-1.73854 0.038,-0.17745 0.0759,-0.35492 0.11503,-0.53775 0.3148,-1.28699 0.81003,-1.88602 1.88325,-2.64339 0.56736,-0.30264 0.56736,-0.30264 1.14766,-0.4889 0.21056,-0.0746 0.42114,-0.1492 0.63808,-0.22606 0.21982,-0.0745 0.43964,-0.1491 0.66611,-0.22591 0.22664,-0.0806 0.45327,-0.16122 0.68677,-0.24427 0.98505,-0.34995 1.97273,-0.68732 2.96638,-1.01212 2.1861,-0.74055 2.1861,-0.74055 2.81862,-1.63067 0.30651,-0.78459 0.38514,-1.09799 0.22509,-1.9037 -1.1073,-1.41408 -2.82292,-2.30508 -4.33683,-3.2236 -3.15788,-1.67409 -3.15788,-1.67409 -5.00271,-4.4835 -0.0818,-0.96383 -0.0877,-1.89416 -0.0554,-2.86056 -0.002,-0.47647 -0.005,-0.95293 -0.0101,-1.42937 -5.7e-4,-0.22093 -0.001,-0.44187 -0.002,-0.6695 -0.002,-0.23537 -0.003,-0.47073 -0.005,-0.71323 -0.002,-0.28951 -0.003,-0.57903 -0.005,-0.87732 -0.0759,-2.25689 -0.0759,-2.25689 -0.83785,-3.30458 z"
       fill="#f9a30c"
       id="path25-8"
       style="stroke-width:0.264539" />
    <path
       d="m 153.44888,259.90378 c -0.58113,0.20851 -0.8973,0.43288 -1.16675,0.98354 -0.11726,0.6663 -0.13664,1.33146 -0.15744,2.00684 0.0621,2.04479 0.0621,2.04479 -0.64323,3.86354 -0.26281,0.19096 -0.52513,0.33577 -0.81618,0.4798 -0.10078,0.0556 -0.20147,0.11106 -0.30521,0.16829 -0.21368,0.1175 -0.42857,0.23284 -0.64453,0.34614 -0.45632,0.23997 -0.9062,0.49059 -1.35497,0.7444 -0.21343,0.12055 -0.42797,0.23916 -0.64363,0.35567 -0.54529,0.30316 -0.94058,0.54011 -1.19273,1.12379 -0.0423,0.52322 -0.0423,0.52322 0.0858,1.05142 0.79127,0.67882 1.70813,1.00874 2.67267,1.37898 0.44453,0.1731 0.88866,0.34691 1.33162,0.52399 0.24366,0.0967 0.48862,0.1902 0.73551,0.27828 0.53082,0.20701 0.73157,0.32911 0.96858,0.85714 0.17337,0.54842 0.29971,1.08237 0.40716,1.64719 0.0403,0.20344 0.0807,0.40685 0.12124,0.61026 0.062,0.31602 0.12322,0.63211 0.18273,0.94859 0.0584,0.3087 0.12004,0.61668 0.1821,0.92468 0.0351,0.18285 0.0703,0.36563 0.1065,0.55397 0.18111,0.55387 0.37472,0.81762 0.82092,1.18833 0.4991,0.1871 0.86996,0.1023 1.35138,-0.11024 0.64758,-0.58419 1.17447,-1.25133 1.71259,-1.9353 0.22181,-0.27455 0.44471,-0.5482 0.6678,-0.82171 0.13789,-0.16998 0.27494,-0.34061 0.41091,-0.51212 0.29686,-0.37275 0.56801,-0.66934 0.94389,-0.96721 0.291,-0.0388 0.291,-0.0388 0.61014,-0.012 0.18124,0.0105 0.18124,0.0105 0.36618,0.0203 0.65546,0.0535 1.30762,0.12527 1.96029,0.20563 0.20141,0.0239 0.20141,0.0239 0.40691,0.0483 0.69375,0.0815 0.69375,0.0815 1.38382,0.1883 0.51776,0.0795 1.00042,0.096 1.50247,-0.0517 0.37072,-0.29829 0.46548,-0.51217 0.67723,-0.96249 -0.10335,-0.72836 -0.42654,-1.27771 -0.82093,-1.88388 -0.11905,-0.1892 -0.23799,-0.37844 -0.3569,-0.56772 -0.18681,-0.29459 -0.37447,-0.58853 -0.56362,-0.88158 -0.18344,-0.28522 -0.36351,-0.57239 -0.54327,-0.85997 -0.057,-0.0863 -0.11386,-0.17251 -0.17255,-0.26141 -0.39718,-0.64169 -0.44283,-1.08202 -0.32207,-1.8204 0.10359,-0.35131 0.10359,-0.35131 0.25955,-0.66142 0.0537,-0.11538 0.10744,-0.23068 0.1629,-0.34949 0.0574,-0.119 0.11491,-0.23811 0.17414,-0.3608 0.0577,-0.12423 0.1155,-0.24847 0.17494,-0.37651 0.25108,-0.5399 0.50832,-1.07584 0.77305,-1.6092 0.57188,-1.18377 0.57188,-1.18377 0.46277,-1.79609 -0.19638,-0.43776 -0.29231,-0.59481 -0.68353,-0.85145 -1.01654,-0.11468 -2.06343,0.22662 -3.04099,0.47497 -1.94081,0.61459 -1.94081,0.61459 -3.81865,0.24249 -0.42423,-0.35156 -0.80457,-0.72054 -1.18425,-1.11951 -0.19437,-0.1894 -0.38877,-0.37876 -0.58479,-0.56646 -0.0899,-0.0879 -0.17991,-0.17601 -0.2728,-0.26648 -0.0965,-0.0932 -0.19206,-0.18708 -0.29138,-0.28306 -0.11842,-0.1148 -0.23606,-0.23032 -0.35806,-0.34857 -0.94717,-0.87018 -0.94717,-0.87018 -1.67702,-0.97887 z"
       fill="#f9a30c"
       id="path25-0-2"
       style="stroke-width:0.150678" />
    <path
       d="m 222.73833,391.39754 c -0.80832,0.0478 -1.28907,0.21342 -1.83148,0.80693 -0.3936,0.79521 -0.66359,1.62513 -0.93916,2.46739 -0.67685,2.59624 -0.67685,2.59624 -2.2361,4.6246 -0.40124,0.14321 -0.78484,0.22865 -1.20429,0.30242 -0.14735,0.0328 -0.29454,0.0654 -0.44624,0.0991 -0.31229,0.0689 -0.62532,0.13478 -0.93892,0.19762 -0.66288,0.13355 -1.32158,0.28276 -1.98006,0.43645 -0.3131,0.0729 -0.6269,0.1429 -0.94131,0.20993 -0.79816,0.18018 -1.38313,0.33241 -1.91596,0.97384 -0.24642,0.64284 -0.24642,0.64284 -0.28023,1.35487 0.74513,1.14644 1.77715,1.90019 2.85426,2.72229 0.49552,0.38197 0.99026,0.76472 1.48232,1.15111 0.27094,0.21167 0.54468,0.41978 0.82285,0.62181 0.59159,0.4565 0.79913,0.6843 0.90243,1.43633 0.0156,0.75418 -0.0225,1.47277 -0.0959,2.22325 -0.0245,0.27091 -0.0487,0.54181 -0.0728,0.81276 -0.0386,0.42058 -0.0784,0.84098 -0.12039,1.26124 -0.0406,0.41005 -0.0766,0.8204 -0.11221,1.23091 -0.0233,0.24309 -0.0466,0.48609 -0.0705,0.73649 0.0234,0.76388 0.16966,1.16729 0.59429,1.79859 0.55903,0.41974 1.05705,0.44997 1.74138,0.36025 1.03067,-0.49606 1.94008,-1.14107 2.86984,-1.80313 0.38052,-0.2636 0.76207,-0.52565 1.14381,-0.78751 0.23631,-0.16298 0.47179,-0.3271 0.70623,-0.49274 0.51122,-0.35947 0.96197,-0.6326 1.54499,-0.86866 0.38052,0.0587 0.38052,0.0587 0.77228,0.21015 0.22421,0.0801 0.22421,0.0801 0.45333,0.16078 0.80511,0.30934 1.59932,0.64049 2.391,0.98263 0.24463,0.10444 0.24463,0.10444 0.49424,0.21108 0.84296,0.35875 0.84296,0.35875 1.67195,0.74794 0.62222,0.29128 1.22355,0.49023 1.90992,0.4897 0.57667,-0.2385 0.77489,-0.47268 1.20765,-0.96121 0.13892,-0.95477 -0.0649,-1.76544 -0.33747,-2.67391 -0.08,-0.28206 -0.15976,-0.56414 -0.23952,-0.84624 -0.12635,-0.4397 -0.25396,-0.8789 -0.38378,-1.31754 -0.12558,-0.42668 -0.2461,-0.85456 -0.36614,-1.28285 -0.0398,-0.12957 -0.0796,-0.25914 -0.12054,-0.39269 -0.26289,-0.95419 -0.15775,-1.52519 0.26688,-2.40982 0.26008,-0.40387 0.26008,-0.40387 0.57085,-0.73654 0.11024,-0.12544 0.22039,-0.25063 0.33406,-0.37967 0.11626,-0.1285 0.23254,-0.25722 0.35237,-0.38975 0.11841,-0.13509 0.2371,-0.27005 0.35919,-0.40923 0.51533,-0.58673 1.03694,-1.16622 1.56705,-1.73967 1.1568,-1.27856 1.1568,-1.27856 1.24558,-2.08941 -0.0854,-0.62344 -0.14825,-0.85648 -0.5458,-1.32392 -1.23694,-0.51968 -2.68043,-0.47674 -4.00234,-0.52517 -2.66937,0.0568 -2.66937,0.0568 -4.89518,-1.10487 -0.40406,-0.59906 -0.74644,-1.20386 -1.07695,-1.84615 -0.17466,-0.31012 -0.34939,-0.62021 -0.52674,-0.92879 -0.0807,-0.14383 -0.16144,-0.28794 -0.24493,-0.43609 -0.0869,-0.15285 -0.17261,-0.30635 -0.26217,-0.46382 -0.10653,-0.1882 -0.21203,-0.37702 -0.32189,-0.57087 -0.87068,-1.44483 -0.87068,-1.44483 -1.74902,-1.85111 z"
       fill="#f9a30c"
       id="path25-0-7-4"
       style="stroke-width:0.197616" />
    <path
       d="m 53.269824,442.79895 c -0.40614,-0.0513 -0.66044,-0.0136 -0.98508,0.23107 -0.2694,0.35869 -0.48059,0.74608 -0.6957,1.1391 -0.57729,1.22747 -0.57729,1.22747 -1.54042,2.09083 -0.21269,0.0339 -0.41126,0.0408 -0.62657,0.0386 -0.0763,0.003 -0.15244,0.005 -0.23096,0.008 -0.16159,0.005 -0.32327,0.009 -0.48496,0.0111 -0.34183,0.005 -0.68304,0.0179 -1.02455,0.0332 -0.16238,0.007 -0.32481,0.0128 -0.48729,0.017 -0.41339,0.0155 -0.71823,0.0369 -1.04256,0.30619 -0.18211,0.29662 -0.18211,0.29662 -0.26499,0.64734 0.26393,0.6389 0.70688,1.10926 1.1659,1.61777 0.21082,0.23582 0.42118,0.47194 0.62987,0.70963 0.11501,0.13033 0.23174,0.25916 0.35124,0.38537 0.25164,0.28178 0.33365,0.41424 0.31521,0.79756 -0.0622,0.37627 -0.14784,0.72986 -0.25395,1.09602 -0.0373,0.13237 -0.0745,0.26475 -0.11159,0.39717 -0.0582,0.20544 -0.11699,0.41068 -0.17686,0.61564 -0.0582,0.20002 -0.11421,0.40061 -0.16999,0.60132 -0.0341,0.11865 -0.0683,0.23725 -0.10336,0.35949 -0.0592,0.3818 -0.024,0.59586 0.12845,0.94901 0.23888,0.26046 0.48358,0.32171 0.832,0.34061 0.55825,-0.15089 1.07006,-0.38706 1.59356,-0.62982 0.21358,-0.0957 0.42752,-0.19052 0.64153,-0.28523 0.13256,-0.0591 0.26482,-0.11879 0.3967,-0.17935 0.28743,-0.13122 0.53678,-0.22512 0.84844,-0.28835 0.18366,0.0645 0.18366,0.0645 0.3643,0.17611 0.104,0.0606 0.104,0.0606 0.21037,0.12198 0.37143,0.22845 0.7354,0.46672 1.0971,0.71022 0.11189,0.0746 0.11189,0.0746 0.22604,0.15076 0.38564,0.25652 0.38564,0.25652 0.76152,0.52686 0.2822,0.2025 0.56259,0.35717 0.90375,0.42059 0.30872,-0.065 0.42896,-0.16301 0.68937,-0.36563 0.15763,-0.46161 0.13155,-0.88341 0.0804,-1.36019 -0.0136,-0.1476 -0.0271,-0.29519 -0.0405,-0.4428 -0.022,-0.23024 -0.0447,-0.46036 -0.0685,-0.6904 -0.0228,-0.22369 -0.043,-0.44753 -0.0629,-0.67151 -0.008,-0.0681 -0.0155,-0.13619 -0.0235,-0.20636 -0.0421,-0.4986 0.0631,-0.77262 0.35624,-1.17286 0.16673,-0.17658 0.16673,-0.17658 0.35205,-0.31307 0.0664,-0.0521 0.13278,-0.10411 0.20125,-0.15769 0.0697,-0.0531 0.13943,-0.10625 0.21129,-0.161 0.0714,-0.0562 0.14289,-0.11221 0.21648,-0.17005 0.31055,-0.24377 0.62355,-0.48336 0.94022,-0.71917 0.69354,-0.52808 0.69354,-0.52808 0.8129,-0.92281 0.0154,-0.31777 0.006,-0.43941 -0.1484,-0.70861 -0.5665,-0.37304 -1.28787,-0.48565 -1.94034,-0.63239 -1.33189,-0.21948 -1.33189,-0.21948 -2.33028,-1.00332 -0.14522,-0.33522 -0.25925,-0.66756 -0.36391,-1.01744 -0.058,-0.17032 -0.11609,-0.34064 -0.1756,-0.51046 -0.0267,-0.0789 -0.0535,-0.15807 -0.0813,-0.23945 -0.029,-0.084 -0.0574,-0.16828 -0.0873,-0.25484 -0.0355,-0.10337 -0.0704,-0.20705 -0.107,-0.31358 -0.29864,-0.79884 -0.29864,-0.79884 -0.69746,-1.08226 z"
       fill="#f9a30c"
       id="path25-0-7-8-9"
       style="stroke-width:0.0999082" />
  </g>
</svg>
