<?xml version="1.0" encoding="UTF-8" standalone="no"?>
<!-- Generator: Adobe Illustrator 27.5.0, SVG Export Plug-In . SVG Version: 6.00 Build 0)  -->

<svg
   version="1.1"
   x="0px"
   y="0px"
   viewBox="0 0 750 335"
   xml:space="preserve"
   id="svg228"
   sodipodi:docname="teachers-bg.svg"
   width="750"
   height="335"
   inkscape:version="1.3 (0e150ed6c4, 2023-07-21)"
   xmlns:inkscape="http://www.inkscape.org/namespaces/inkscape"
   xmlns:sodipodi="http://sodipodi.sourceforge.net/DTD/sodipodi-0.dtd"
   xmlns="http://www.w3.org/2000/svg"
   xmlns:svg="http://www.w3.org/2000/svg"><defs
   id="defs228" /><sodipodi:namedview
   id="namedview228"
   pagecolor="#ffffff"
   bordercolor="#000000"
   borderopacity="0.25"
   inkscape:showpageshadow="2"
   inkscape:pageopacity="0.0"
   inkscape:pagecheckerboard="0"
   inkscape:deskcolor="#d1d1d1"
   inkscape:zoom="1.5493333"
   inkscape:cx="325.3012"
   inkscape:cy="146.83735"
   inkscape:window-width="1920"
   inkscape:window-height="1017"
   inkscape:window-x="-8"
   inkscape:window-y="-8"
   inkscape:window-maximized="1"
   inkscape:current-layer="svg228" />&#10;&#10;<g
   id="OBJECTS"
   transform="matrix(1.1229376,0,0,1.1229376,-45.77895,-142.2017)">&#10;	<g
   id="g42">&#10;		<g
   id="g5">&#10;			<path
   style="fill:#994239"
   d="m 553.556,287.226 c 0,0 -1.751,3.457 -2.001,5.582 -0.25,2.125 3.125,9.375 3.125,9.375 0,0 3.125,-1.5 3.125,-1.875 0,-0.375 1.75,-6.5 1.75,-6.5 l -1.375,-6.582 z"
   id="path1" />&#10;			<g
   id="g4">&#10;				<path
   style="fill:#105e99"
   d="m 571.76,318.438 h -3.6 v 2.78 l -20.94,-5.24 c 0,0 -1.54,-23.92 -1.54,-24.33 0,-0.41 1.54,-0.92 1.54,-0.92 l 16.83,2.26 4.11,0.82 z"
   id="path2" />&#10;				<path
   style="fill:#0d527c"
   d="m 571.76,318.438 h -3.6 c 0,0 -2.605,-20.04 -2.605,-22.38 0,-2.33 2.605,-2.25 2.605,-2.25 z"
   id="path3" />&#10;				<path
   style="fill:#cfd8dc"
   d="m 565.951,294.742 4.48,24.316 h -0.875 v 0.875 h -1.365 c 0,0 -2.26,-18.875 -2.635,-21.625 -0.375,-2.75 0.395,-3.566 0.395,-3.566 z"
   id="path4" />&#10;			</g>&#10;			<path
   style="fill:#b0574d"
   d="m 557.43,273.043 2,14.016 1.16,5.5 h -3.16 c 0,0 -0.5,4.75 -1.75,5.25 -1.25,0.5 -2.75,1.309 -2.75,1.309 0,0 -2,-1.059 0,-2.059 2,-1 0.986,-3.5 0.625,-4.5 -0.361,-1 0.375,-4.194 0.375,-4.194 l -0.75,-2.284 -3,-14.522 z"
   id="path5" />&#10;		</g>&#10;		<path
   style="fill:#b72e48"
   d="m 540.006,170.675 c 4.758,2.717 13.591,56.396 14.758,57.473 1.167,1.077 0,3.577 0,3.577 0,0 4.333,30.463 5.5,35.982 1.167,5.518 -1.167,10.602 -1.167,10.602 l 0.333,3.75 c 0,0 -4.833,2.333 -7.833,0.667 l -0.333,-3.787 c 0,0 -4.333,-6.858 -4.833,-8.952 -0.5,-2.094 -4.782,-29.725 -4.782,-29.725 0,0 0.5,-4.666 0,-6 -0.5,-1.333 -1.877,-4.488 -1.881,-5.504 -0.004,-1.016 -5.67,-33.42 -5.67,-33.42 z"
   id="path6" />&#10;		<polygon
   style="fill:#b0574d"
   points="475.055,252.026 471.805,261.515 482.93,272.308 485.555,278.308 491.18,267.676 484.805,264.026 "
   id="polygon6" />&#10;		<path
   style="fill:#b72e48"
   d="m 482.005,172.287 c -4.908,0.771 -38.746,48.169 -38.333,52.316 0.413,4.147 20.092,32.508 24.092,35.315 l 4,4.108 c 0,0 6.667,-3.137 8,-7.552 l -1.333,-2.286 c 0,0 0.667,-8.887 -2,-12.175 -2.667,-3.288 -11,-17.662 -11,-17.662 l 19,-20.884 z"
   id="path7" />&#10;		<g
   id="g9">&#10;			<path
   style="fill:#072228"
   d="m 576.742,422.381 c 0,1.088 -0.111,1.854 -0.111,1.854 h -31.453 c 0,-0.622 0.011,-1.243 0.044,-1.854 0.355,-8.227 2.953,-15.366 2.953,-15.366 l 7.861,-3.375 c 0.677,4.052 2.42,6.639 4.608,8.327 0.577,0.455 1.177,0.833 1.799,1.155 0.289,0.156 0.577,0.3 0.877,0.433 0.655,0.3 1.332,0.544 2.01,0.744 2.776,0.844 5.585,1.021 7.55,1.321 3.351,0.521 3.862,4.396 3.862,6.761 z"
   id="path8" />&#10;			<path
   style="fill:#0e3944"
   d="m 564.673,414.892 c 0,0 -3.225,0.167 -3.029,1.083 0.196,0.917 2.779,2.5 5.696,2.75 2.917,0.25 6.333,-1.917 6.333,-1.917 0,0 -0.25,-0.25 -3.583,-0.75 -3.334,-0.5 -5.417,-1.166 -5.417,-1.166 z"
   id="path9" />&#10;		</g>&#10;		<g
   id="g11">&#10;			<path
   style="fill:#072228"
   d="m 518.521,417.384 c -2.257,-1.185 -2.963,-5.081 -3.171,-7.993 h -13.762 c -2.167,5.512 -3.461,8.69 -2.575,12.989 0.133,0.633 0.322,1.244 0.589,1.854 h 20.951 c 0,0 0.278,-0.788 0.355,-1.854 0.145,-1.598 -0.144,-3.819 -2.387,-4.996 z"
   id="path10" />&#10;			<path
   style="fill:#0e3944"
   d="m 503.798,417.226 c 0,0 4.18,-1.921 8.75,-1.543 4.57,0.377 6.983,2.75 6.792,3 -1.522,1.992 -6.917,-1 -10.667,0.625 -3.75,1.625 -4.875,-2.082 -4.875,-2.082 z"
   id="path11" />&#10;		</g>&#10;		<path
   style="fill:#0e3944"
   d="m 486.589,258.808 c 2.084,62.785 10,115.667 10.75,137.917 0.384,11.397 1.675,19.085 1.675,19.085 0,0 10.858,-8.777 17.009,-2.256 l -0.208,-9.915 -1.134,-5.981 -2.733,-110.982 4.851,-0.311 23.207,111.026 c 0,0 5.127,14.68 5.171,19.835 l 16.466,-5.26 -4.355,-11.88 0.455,-3.358 -2.195,-8.671 c 0,0 -20.188,-118.324 -18.881,-130.261 0,0 0.089,-1.989 -1.077,-2.489 -9.484,-4.065 -40.252,-2.372 -48.668,-0.925 -1.51,0.26 -0.333,4.426 -0.333,4.426 z"
   id="path12" />&#10;		<path
   style="fill:#072228"
   d="m 486.921,250.225 v 4.158 c 0,0 11.431,4.425 27.716,4.425 16.285,0 20.951,-3.5 20.951,-3.5 l 0.025,-3.917 z"
   id="path13" />&#10;		<path
   style="fill:#0e3944"
   d="m 500.673,251.183 c 0,0 -0.375,4.625 0,7.625 h -2.375 c 0,0 -0.625,-3.75 0,-7.625 z"
   id="path14" />&#10;		<path
   style="fill:#0e3944"
   d="m 526.908,258.89 c 0,0 0.058,-4.64 -0.52,-7.607 l 2.369,-0.162 c 0,0 0.88,3.699 0.52,7.607 z"
   id="path15" />&#10;		<path
   style="fill:#cfd8dc"
   d="m 509.207,252.875 v 5.804 c 0,0.324 0.262,0.586 0.586,0.586 h 9.689 c 0.324,0 0.586,-0.262 0.586,-0.586 v -5.709 c 0,-0.322 -0.259,-0.583 -0.58,-0.586 l -9.689,-0.095 c -0.326,-0.003 -0.592,0.26 -0.592,0.586 z"
   id="path16" />&#10;		<path
   style="fill:#b5c4c9"
   d="m 482.005,172.287 c 3.667,-0.896 15.784,-2.476 29.392,-2.686 13.608,-0.21 23.275,-0.31 28.608,1.073 0,0 -2.391,56.708 -4.391,80.717 0,0 -23.445,3.825 -48.693,-1.167 0,0 -2.982,-15.001 -3.916,-35.908 -1.332,-29.852 -1,-42.029 -1,-42.029 z"
   id="path17" />&#10;		<path
   style="fill:#994239"
   d="m 516.515,162.376 c 0,0 -1.547,5.112 0.902,7.748 0,0 -4.054,7.948 -13.092,1.438 0,0 1.721,-4.346 0,-7.168 z"
   id="path18" />&#10;		<path
   style="fill:#0e3944"
   d="m 488.386,266.076 c 0,0 -3.289,4.482 -3.956,10.815 l 3.956,7.612 c 0,0 3.456,-13.242 0,-18.427 z"
   id="path19" />&#10;		<g
   id="g38">&#10;			<path
   style="fill:#b0574d"
   d="m 498.838,150.714 c 0,0 -3.247,-3.24 -3.647,0.548 -0.463,4.389 3.523,6.157 4.302,4.761 0.779,-1.397 -0.655,-5.309 -0.655,-5.309 z"
   id="path20" />&#10;			<path
   style="fill:#b0574d"
   d="m 521.577,150.943 c 0,0 3.247,-3.241 3.647,0.548 0.463,4.389 -3.523,6.157 -4.302,4.761 -0.779,-1.397 0.655,-5.309 0.655,-5.309 z"
   id="path21" />&#10;			<path
   style="fill:#b0574d"
   d="m 509.865,166.611 c -7.205,0 -11.271,-4.706 -11.271,-18.822 0,-7.281 3.704,-11.747 11.775,-11.747 8.07,0 11.469,4.466 11.469,11.747 0,15.167 -4.529,18.822 -11.973,18.822 z"
   id="path22" />&#10;			<path
   style="fill:#994239"
   d="m 519.451,152.824 c 0.127,0.724 -0.505,1.44 -1.411,1.597 -0.906,0.158 -1.742,-0.301 -1.868,-1.025 -0.127,-0.724 0.505,-1.439 1.411,-1.597 0.906,-0.159 1.742,0.301 1.868,1.025 z"
   id="path23" />&#10;			<path
   style="fill:#994239"
   d="m 504.632,153.218 c -0.047,0.734 -0.83,1.28 -1.748,1.22 -0.917,-0.06 -1.622,-0.703 -1.574,-1.437 0.048,-0.733 0.83,-1.28 1.748,-1.22 0.917,0.06 1.622,0.703 1.574,1.437 z"
   id="path24" />&#10;			<g
   id="g25">&#10;				<path
   style="fill:#73231a"
   d="m 516.156,145.499 c -0.095,0 -0.19,-0.037 -0.26,-0.111 -0.999,-1.047 -2.747,-1.002 -2.773,-1.002 -0.195,0.002 -0.365,-0.149 -0.371,-0.349 -0.007,-0.199 0.149,-0.365 0.348,-0.371 0.077,-0.005 2.099,-0.052 3.316,1.225 0.137,0.144 0.132,0.372 -0.011,0.509 -0.069,0.067 -0.16,0.099 -0.249,0.099 z"
   id="path25" />&#10;			</g>&#10;			<g
   id="g26">&#10;				<path
   style="fill:#73231a"
   d="m 502.59,145.499 c -0.089,0 -0.178,-0.032 -0.248,-0.099 -0.144,-0.137 -0.149,-0.365 -0.013,-0.509 1.218,-1.278 3.237,-1.229 3.316,-1.225 0.199,0.007 0.354,0.173 0.348,0.371 -0.006,0.199 -0.18,0.352 -0.371,0.349 -0.013,-0.003 -1.784,-0.036 -2.771,1.002 -0.071,0.074 -0.166,0.111 -0.261,0.111 z"
   id="path26" />&#10;			</g>&#10;			<path
   style="fill:#73231a"
   d="m 515.534,149.322 c 0,0.895 -0.403,1.62 -0.9,1.62 -0.497,0 -0.9,-0.726 -0.9,-1.62 0,-0.895 0.403,-1.62 0.9,-1.62 0.497,0 0.9,0.725 0.9,1.62 z"
   id="path27" />&#10;			<path
   style="fill:#73231a"
   d="m 505.912,149.322 c 0,0.895 -0.403,1.62 -0.9,1.62 -0.497,0 -0.9,-0.725 -0.9,-1.62 0,-0.895 0.403,-1.62 0.9,-1.62 0.497,0 0.9,0.726 0.9,1.62 z"
   id="path28" />&#10;			<path
   style="fill:#73231a"
   d="m 505.912,158.895 c 0,0 6.353,0.818 9.622,-0.751 0,0 -1.848,4.326 -5.318,3.938 -3.47,-0.387 -4.304,-3.187 -4.304,-3.187 z"
   id="path29" />&#10;			<g
   id="g30">&#10;				<path
   style="fill:#994239"
   d="m 511.121,156.632 c -0.7,0 -1.411,-0.181 -1.626,-0.241 l 0.204,-0.737 c 0.756,0.209 1.942,0.333 2.201,0.028 0.089,-0.106 0.054,-0.352 -0.099,-0.675 -1.041,-2.215 -1.258,-7.822 -1.267,-8.059 l 0.766,-0.028 c 0.002,0.057 0.219,5.688 1.194,7.761 0.298,0.632 0.294,1.135 -0.009,1.495 -0.296,0.349 -0.826,0.456 -1.364,0.456 z"
   id="path30" />&#10;			</g>&#10;			<path
   style="fill:#73231a"
   d="m 498.833,153.185 c 0,0 0.275,-3.863 0.892,-6.266 0,0 -1.075,-5.013 1.779,-7.783 0,0 4.194,0.605 8.712,0.605 4.518,0 7.596,-0.605 7.596,-0.605 0,0 2.171,1.943 1.921,7.024 0,0 1.014,3.451 1.88,6.949 0,0 5.87,-20.993 -12.63,-20.993 -18.75,10e-4 -10.15,21.069 -10.15,21.069 z"
   id="path31" />&#10;			<path
   style="fill:#73231a"
   d="m 497.78,149.883 c 0,0 -4.622,-10.028 -2.056,-14.512 2.566,-4.484 7.419,-2.313 10.188,-4.063 2.769,-1.75 5.624,-2.25 7.822,-1 2.197,1.25 3.143,2.919 5.26,2.5 2.844,-0.563 4.313,0.625 4.625,2.375 0.363,2.031 -1.466,15.264 -1.466,15.264 0,0 0.859,-13.046 -6.619,-14.405 -7.478,-1.359 -12.514,0.516 -15.809,3.141 -3.294,2.625 -1.945,10.7 -1.945,10.7 z"
   id="path32" />&#10;			<g
   id="g37">&#10;				<path
   style="fill:#cfd8dc"
   d="m 515.222,153.252 c -1.985,0 -3.601,-1.615 -3.601,-3.601 0,-1.986 1.615,-3.601 3.601,-3.601 1.986,0 3.601,1.615 3.601,3.601 0,1.986 -1.616,3.601 -3.601,3.601 z m 0,-6.701 c -1.71,0 -3.101,1.391 -3.101,3.101 0,1.71 1.391,3.101 3.101,3.101 1.71,0 3.101,-1.391 3.101,-3.101 0,-1.71 -1.391,-3.101 -3.101,-3.101 z"
   id="path33" />&#10;				<path
   style="fill:#cfd8dc"
   d="m 505.325,153.871 c -1.985,0 -3.601,-1.615 -3.601,-3.601 0,-1.986 1.615,-3.601 3.601,-3.601 1.986,0 3.601,1.615 3.601,3.601 0,1.986 -1.615,3.601 -3.601,3.601 z m 0,-6.702 c -1.71,0 -3.101,1.391 -3.101,3.101 0,1.71 1.391,3.101 3.101,3.101 1.71,0 3.101,-1.391 3.101,-3.101 0,-1.71 -1.391,-3.101 -3.101,-3.101 z"
   id="path34" />&#10;				<path
   style="fill:#cfd8dc"
   d="m 508.797,150.489 -0.243,-0.437 c 0.079,-0.043 1.939,-1.061 3.436,-0.255 l -0.236,0.44 c -1.255,-0.675 -2.94,0.243 -2.957,0.252 z"
   id="path35" />&#10;				<path
   style="fill:#cfd8dc"
   d="m 518.572,149.673 c -0.111,0 -0.212,-0.074 -0.242,-0.187 -0.034,-0.134 0.045,-0.27 0.179,-0.305 0.084,-0.022 2.07,-0.54 3.297,-0.54 0.138,0 0.25,0.112 0.25,0.25 0,0.138 -0.112,0.25 -0.25,0.25 -1.161,0 -3.15,0.519 -3.17,0.523 -0.022,0.007 -0.043,0.009 -0.064,0.009 z"
   id="path36" />&#10;				<path
   style="fill:#cfd8dc"
   d="m 501.975,150.52 c -0.03,0 -0.061,-0.005 -0.091,-0.017 -0.016,-0.007 -1.624,-0.62 -3.234,-0.255 -0.133,0.032 -0.269,-0.053 -0.3,-0.188 -0.03,-0.135 0.054,-0.269 0.188,-0.299 1.761,-0.398 3.456,0.249 3.527,0.276 0.129,0.05 0.192,0.195 0.142,0.323 -0.038,0.1 -0.133,0.16 -0.232,0.16 z"
   id="path37" />&#10;			</g>&#10;		</g>&#10;		<path
   style="fill:#ce364c"
   d="m 541.57,254.188 c -0.64,2.37 -2.64,9.9 -2.64,9.9 0,0 1.65,4.43 1.08,4.95 -0.58,0.52 -10.63,2.52 -29.48,2.52 -18.85,0 -22.91,-1.29 -24.38,-2.52 -0.49,-0.41 -0.66,-1.39 -0.65,-2.52 0,-2.22 0.65,-5 0.65,-5 0,0 -1.57,-16.3 -2.86,-35.72 -0.54,-8.12 -1.03,-16.78 -1.34,-25.02 -0.41,-11.01 -0.5,-21.27 0.05,-28.49 0,0 3.57,-2.19 14.5,-2.54 0.71,-0.03 1.45,-0.04 2.22,-0.05 0,0 3.25,9.69 14.01,9.03 8.21,-0.51 8.77,-10.48 8.77,-10.48 0,0 0.68,-0.02 1.78,-0.03 3.97,-0.01 13.46,0.2 16.73,2.46 1.69,1.17 1.79,13.45 1.31,27.67 -0.29,8.89 -0.82,18.55 -1.32,26.7 -0.68,10.98 -1.32,19.24 -1.32,19.24 0,0 3.53,7.53 2.89,9.9 z"
   id="path38" />&#10;		<path
   style="fill:#b72e48"
   d="m 540.01,269.038 c -0.58,0.52 -10.63,2.52 -29.48,2.52 -18.85,0 -22.91,-1.29 -24.38,-2.52 -0.49,-0.41 -0.66,-1.39 -0.65,-2.52 9.08,0.48 42.97,2.09 53.43,-2.43 0,0 1.65,4.43 1.08,4.95 z"
   id="path39" />&#10;		<path
   style="fill:#b72e48"
   d="m 523.28,168.218 c -0.16,5.08 -1.93,12.23 -10.53,12.34 -10.42,0.12 -14.82,-7.48 -16.25,-10.81 0.71,-0.03 1.45,-0.04 2.22,-0.05 0,0 3.25,9.69 14.01,9.03 8.21,-0.51 8.77,-10.48 8.77,-10.48 0,0 0.68,-0.02 1.78,-0.03 z"
   id="path40" />&#10;		<path
   style="fill:#cfd8dc"
   d="m 505.056,168.25 6.508,4.29 4.659,-4.849 2.449,1.813 c 0,0 0.49,5.221 -1.254,8.721 l -5.522,-4.1 -5.738,4.934 c 0,0 -3.018,-3.57 -3.834,-9.118 z"
   id="path41" />&#10;		<path
   style="fill:#cfd8dc"
   d="m 541.32,198.348 c -0.29,8.89 -0.82,18.55 -1.32,26.7 -10.3,1.16 -39.34,3.95 -56.71,0.75 -0.54,-8.12 -1.03,-16.78 -1.34,-25.02 9.72,0.19 45.03,0.64 59.37,-2.43 z"
   id="path42" />&#10;	</g>&#10;	<g
   id="g90">&#10;		<path
   style="fill:#a1b3b7"
   d="m 290.491,172.288 c 7.17,3.02 32.03,58.861 25.42,65.212 -3.88,3.728 -12.225,6.23 -14.859,3.079 -12.98,-15.522 -14.541,-39.768 -14.541,-39.768 z"
   id="path43" />&#10;		<path
   style="fill:#b5c4c9"
   d="m 304.661,221.892 c 0.791,0.363 4.5,4.083 4.5,4.083 0,0 4.25,-0.75 6.75,4.842 1.636,3.658 1.417,6.742 -3.667,10.242 -5.083,3.5 -10.625,1.167 -12.604,-2.167 -1.979,-3.333 -5.396,-14.333 -5.396,-14.333 0,0 7.334,-4.084 10.417,-2.667 z"
   id="path44" />&#10;		<path
   style="fill:#a1b3b7"
   d="m 193.489,164.542 c -0.904,-0.364 -8.085,1.131 -9.665,3.574 l 2.951,4.851 6.714,-1.396 z"
   id="path45" />&#10;		<path
   style="fill:#ffc3ba"
   d="m 192.013,161.806 c 0.148,1.377 4.148,14.752 4.148,14.752 l -8.5,2.75 c 0,0 -1.211,-11.278 -3.043,-14.452 -1.832,-3.173 7.395,-3.05 7.395,-3.05 z"
   id="path46" />&#10;		<path
   style="fill:#b5c4c9"
   d="m 232.49,170.675 c -6.411,2.383 -28.578,28.217 -28.578,28.217 0,0 -7.167,-31.627 -9.667,-30.776 l -0.756,-3.574 c -3.645,3.042 -9.665,3.574 -9.665,3.574 l 0.587,2.727 c 0,0 -0.238,2.226 0.765,14.301 1.002,12.075 4.22,34.323 11.73,36.665 6.56,2.046 9.738,-1.98 36.882,-22.781 0,0 6.29,-11.797 5.624,-15.383 -0.667,-3.587 -6.922,-12.97 -6.922,-12.97 z"
   id="path47" />&#10;		<g
   id="g49">&#10;			<path
   style="fill:#072228"
   d="m 195.754,422.381 c 0,1.088 0.111,1.854 0.111,1.854 h 31.454 c 0,-0.622 -0.011,-1.243 -0.044,-1.854 -0.355,-8.227 -2.953,-15.366 -2.953,-15.366 l -7.861,-3.375 c -0.677,4.052 -2.42,6.639 -4.608,8.327 -0.577,0.455 -1.177,0.833 -1.799,1.155 -0.289,0.156 -0.577,0.3 -0.877,0.433 -0.655,0.3 -1.332,0.544 -2.01,0.744 -2.776,0.844 -5.585,1.021 -7.55,1.321 -3.352,0.521 -3.863,4.396 -3.863,6.761 z"
   id="path48" />&#10;			<path
   style="fill:#0e3944"
   d="m 207.823,414.892 c 0,0 3.225,0.167 3.029,1.083 -0.196,0.917 -2.779,2.5 -5.696,2.75 -2.917,0.25 -6.333,-1.917 -6.333,-1.917 0,0 0.25,-0.25 3.583,-0.75 3.334,-0.5 5.417,-1.166 5.417,-1.166 z"
   id="path49" />&#10;		</g>&#10;		<g
   id="g51">&#10;			<path
   style="fill:#072228"
   d="m 253.974,417.384 c 2.257,-1.185 2.963,-5.081 3.171,-7.993 h 13.762 c 2.167,5.512 3.461,8.69 2.575,12.989 -0.133,0.633 -0.322,1.244 -0.589,1.854 h -20.95 c 0,0 -0.278,-0.788 -0.355,-1.854 -0.146,-1.598 0.143,-3.819 2.386,-4.996 z"
   id="path50" />&#10;			<path
   style="fill:#0e3944"
   d="m 268.698,417.226 c 0,0 -4.18,-1.921 -8.75,-1.543 -4.57,0.377 -6.983,2.75 -6.792,3 1.522,1.992 6.917,-1 10.667,0.625 3.75,1.625 4.875,-2.082 4.875,-2.082 z"
   id="path51" />&#10;		</g>&#10;		<path
   style="fill:#662c33"
   d="m 285.906,258.808 c -2.084,62.785 -10,115.667 -10.75,137.917 -0.384,11.397 -1.675,19.085 -1.675,19.085 0,0 -10.858,-8.777 -17.009,-2.256 l 0.208,-9.915 1.134,-5.981 2.733,-110.982 -4.851,-0.311 -23.206,111.027 c 0,0 -5.127,14.68 -5.171,19.835 l -16.467,-5.26 4.355,-11.88 -0.455,-3.358 2.195,-8.671 c 0,0 20.188,-118.324 18.881,-130.261 0,0 -0.089,-1.989 1.077,-2.489 9.484,-4.065 40.252,-2.372 48.668,-0.925 1.51,0.259 0.333,4.425 0.333,4.425 z"
   id="path52" />&#10;		<path
   style="fill:#072228"
   d="m 285.574,250.225 v 4.158 c 0,0 -11.431,4.425 -27.716,4.425 -16.285,0 -20.952,-3.5 -20.952,-3.5 l -0.025,-3.917 z"
   id="path53" />&#10;		<path
   style="fill:#0e3944"
   d="m 271.823,251.183 c 0,0 0.375,4.625 0,7.625 h 2.375 c 0,0 0.625,-3.75 0,-7.625 z"
   id="path54" />&#10;		<path
   style="fill:#0e3944"
   d="m 245.587,258.89 c 0,0 -0.059,-4.64 0.52,-7.607 l -2.37,-0.162 c 0,0 -0.88,3.699 -0.52,7.607 z"
   id="path55" />&#10;		<path
   style="fill:#cfd8dc"
   d="m 263.288,252.875 v 5.804 c 0,0.324 -0.262,0.586 -0.586,0.586 h -9.689 c -0.324,0 -0.586,-0.262 -0.586,-0.586 v -5.709 c 0,-0.322 0.259,-0.583 0.58,-0.586 l 9.689,-0.095 c 0.326,-0.003 0.592,0.26 0.592,0.586 z"
   id="path56" />&#10;		<path
   style="fill:#cfd8dc"
   d="m 290.49,172.287 c -3.667,-0.896 -15.784,-2.476 -29.392,-2.686 -13.608,-0.21 -23.275,-0.31 -28.608,1.073 0,0 2.391,56.708 4.391,80.717 0,0 23.445,3.825 48.693,-1.167 0,0 2.982,-15.001 3.916,-35.908 1.333,-29.852 1,-42.029 1,-42.029 z"
   id="path57" />&#10;		<path
   style="fill:#a1b3b7"
   d="m 255.079,168.25 c 2.083,-1.192 12.568,-1.381 13.916,-0.135 1.349,1.246 -0.824,5.193 -0.824,5.193 l -7.239,4.917 -6.187,-5.48 z"
   id="path58" />&#10;		<path
   style="fill:#f2ada2"
   d="m 255.98,162.376 c 0,0 1.547,5.112 -0.902,7.748 l 5.853,9.184 c 0,0 4.601,-5.846 7.239,-7.746 0,0 -1.721,-4.346 0,-7.168 z"
   id="path59" />&#10;		<g
   id="g74">&#10;			<path
   style="fill:#8b383e"
   d="m 252.689,130.313 c -6.657,1.995 -7.125,13.62 -3.076,23.87 4.049,10.25 21.946,2.57 24.31,-1.09 2.364,-3.66 5.975,-17.634 -0.511,-21.661 -12.48,-7.749 -20.723,-1.119 -20.723,-1.119 z"
   id="path60" />&#10;			<path
   style="fill:#ffc3ba"
   d="m 273.672,149.516 c 0,0 3.397,-3.39 3.815,0.573 0.484,4.591 -3.685,6.44 -4.5,4.98 -0.815,-1.461 0.685,-5.553 0.685,-5.553 z"
   id="path61" />&#10;			<path
   style="fill:#ffc3ba"
   d="m 249.886,149.755 c 0,0 -3.397,-3.39 -3.815,0.573 -0.484,4.591 3.685,6.44 4.5,4.98 0.815,-1.46 -0.685,-5.553 -0.685,-5.553 z"
   id="path62" />&#10;			<path
   style="fill:#ffc3ba"
   d="m 249.613,146.458 c 0,10.03 1.9,15.25 5.26,17.72 1.95,1.45 4.4,1.97 7.26,1.97 2.91,0 5.33,-0.73 7.2,-2.49 2.99,-2.78 4.59,-8.14 4.59,-17.2 0,-7.62 -3.87,-12.29 -12.31,-12.29 -8.44,0 -12,4.67 -12,12.29 z"
   id="path63" />&#10;			<path
   style="fill:#ed93a4"
   d="m 252.109,151.723 c -0.132,0.758 0.529,1.506 1.476,1.671 0.947,0.165 1.823,-0.315 1.954,-1.072 0.132,-0.758 -0.529,-1.506 -1.476,-1.671 -0.946,-0.166 -1.822,0.314 -1.954,1.072 z"
   id="path64" />&#10;			<path
   style="fill:#ed93a4"
   d="m 267.611,152.135 c 0.05,0.767 0.869,1.339 1.828,1.276 0.96,-0.062 1.697,-0.735 1.647,-1.503 -0.05,-0.767 -0.868,-1.339 -1.828,-1.276 -0.959,0.063 -1.697,0.736 -1.647,1.503 z"
   id="path65" />&#10;			<g
   id="g66">&#10;				<path
   style="fill:#8b383e"
   d="m 254.552,143.941 c 0.098,0.015 0.202,-0.008 0.287,-0.074 1.2,-0.922 3,-0.596 3.028,-0.591 0.201,0.033 0.401,-0.096 0.439,-0.301 0.039,-0.205 -0.096,-0.401 -0.3,-0.44 -0.079,-0.017 -2.161,-0.39 -3.624,0.735 -0.165,0.127 -0.196,0.363 -0.07,0.528 0.06,0.08 0.148,0.129 0.24,0.143 z"
   id="path66" />&#10;			</g>&#10;			<g
   id="g67">&#10;				<path
   style="fill:#8b383e"
   d="m 268.977,143.993 c 0.092,-0.011 0.181,-0.057 0.245,-0.135 0.132,-0.161 0.108,-0.398 -0.052,-0.53 -1.428,-1.17 -3.519,-0.86 -3.6,-0.846 -0.205,0.032 -0.346,0.224 -0.314,0.43 0.032,0.206 0.232,0.342 0.43,0.315 0.013,-0.005 1.848,-0.267 3.006,0.684 0.084,0.068 0.187,0.095 0.285,0.082 z"
   id="path67" />&#10;			</g>&#10;			<path
   style="fill:#1a4850"
   d="m 255.332,148.195 c 0,0.936 0.422,1.695 0.942,1.695 0.52,0 0.942,-0.759 0.942,-1.695 0,-0.936 -0.422,-1.695 -0.942,-1.695 -0.521,0 -0.942,0.759 -0.942,1.695 z"
   id="path68" />&#10;			<path
   style="fill:#1a4850"
   d="m 265.397,148.195 c 0,0.936 0.421,1.695 0.941,1.695 0.52,0 0.942,-0.759 0.942,-1.695 0,-0.936 -0.421,-1.695 -0.942,-1.695 -0.521,0 -0.941,0.759 -0.941,1.695 z"
   id="path69" />&#10;			<path
   style="fill:#8b383e"
   d="m 269.581,136.782 c 0,0 -4.241,0.638 -15.756,-0.189 0,0 -0.864,3.906 -2.806,5.634 0,0 -1.219,5.5 -1.107,9.55 0,0 -7.325,-22.028 12.941,-21.452 20.601,0.585 10.816,21.021 10.816,21.021 0,0 -0.122,-3.119 -0.794,-6.579 -10e-4,-0.002 -2.733,-3.519 -3.294,-7.985 z"
   id="path70" />&#10;			<path
   style="fill:#8b383e"
   d="m 249.71,150.158 c 0.514,1.9 1.826,4.775 3.451,5.9 1.625,1.125 2.443,-1.437 8.347,-0.5 0,0 2.444,-1.125 4.83,-0.313 2.386,0.813 3.244,0.791 4.19,0.552 0.946,-0.239 3.065,-5.639 3.065,-5.639 0,0 1.977,15.962 -11.54,16.275 -13.517,0.313 -12.343,-16.275 -12.343,-16.275 z"
   id="path71" />&#10;			<g
   id="g72">&#10;				<path
   style="fill:#ed93a4"
   d="m 261.66,153.093 0.564,-0.569 -1.491,-1.481 c 1.445,-2.044 1.438,-6.774 1.437,-6.984 l -0.801,0.004 c 0,0.051 0.008,5.14 -1.468,6.739 l -0.262,0.284 z"
   id="path72" />&#10;			</g>&#10;			<path
   style="fill:#1a4850"
   d="m 257.485,156.766 c 0,0 2.906,0.263 8.294,-0.14 0,0 -1.239,3.265 -4.847,2.931 -3.608,-0.333 -3.447,-2.791 -3.447,-2.791 z"
   id="path73" />&#10;			<path
   style="fill:#8b383e"
   d="m 275.28,134.884 c 0,0 0.114,-5.27 -12.211,-6.985 -10.533,-1.466 -13.11,5.703 -13.456,7.784 -0.346,2.081 3.75,4.545 6.603,4.56 l -1.233,-2.035 c 0,0 4.473,2.021 8.99,2.035 l -1.529,-1.274 c 0,0 8.221,2.461 11.133,1.274 2.912,-1.186 1.703,-5.359 1.703,-5.359 z"
   id="path74" />&#10;		</g>&#10;		<path
   style="fill:#b5c4c9"
   d="m 261.914,178.57 c 0,0 -0.055,0.263 -0.157,0.757 -0.094,0.493 -0.239,1.228 -0.391,2.168 -0.319,1.878 -0.717,4.579 -1.088,7.835 -0.389,3.254 -0.74,7.065 -1.047,11.154 -0.293,4.09 -0.558,8.458 -0.714,12.832 -0.095,2.186 -0.169,4.373 -0.211,6.527 -0.056,2.154 -0.111,4.274 -0.121,6.326 -0.064,4.104 -0.05,7.935 -0.033,11.22 0,3.285 0.087,6.021 0.107,7.937 0.033,1.916 0.051,3.011 0.051,3.011 0,0 -0.05,-1.094 -0.137,-3.009 -0.075,-1.915 -0.24,-4.65 -0.334,-7.934 -0.111,-3.284 -0.235,-7.117 -0.288,-11.225 -0.049,-2.054 -0.054,-4.177 -0.06,-6.334 -0.019,-2.158 -0.008,-4.349 0.025,-6.541 0.031,-4.384 0.172,-8.769 0.349,-12.88 0.191,-4.11 0.434,-7.946 0.732,-11.231 0.28,-3.286 0.604,-6.021 0.873,-7.937 0.127,-0.959 0.253,-1.709 0.337,-2.229 0.092,-0.517 0.141,-0.792 0.141,-0.792 z"
   id="path75" />&#10;		<path
   style="fill:#b5c4c9"
   d="m 255.079,168.25 c 0,0 0.124,4.725 5.853,8.391 0,0 5.586,-1.839 8.063,-8.526 0,0 2,1.526 2.917,3.443 0,0 -0.083,5.083 -1.25,7.917 l -4.882,-4 c 0,0 -4.16,3.25 -4.847,5.25 h -1.292 c 0,0 -0.955,-3.167 -2.425,-5 l -4.887,3.167 c 0,0 -1,-5.75 -0.583,-7.083 0.415,-1.334 3.333,-3.559 3.333,-3.559 z"
   id="path76" />&#10;		<g
   id="g79">&#10;			<path
   style="fill:#ffc3ba"
   d="m 187.077,151.219 c 0,0 1.856,3.5 3.098,5.001 1.243,1.501 3.576,6.117 -0.306,8.438 -3.882,2.321 -12.357,-2.883 -12.357,-2.883 -2.792,-2.474 -2.049,-5.53 -2.049,-5.53 -1.338,-1.077 -0.689,-3.888 -0.689,-3.888 l -1.515,-2.549 c 2.881,-1.613 2.782,1.502 6.292,4.096 0.848,0.627 3.118,1 4.219,1.374 l 0.004,-0.003 c 1.493,0.508 2.818,0.751 2.818,0.751 0,0 -0.003,-0.004 -0.002,-0.01 -0.034,-0.192 -0.451,-2.752 -0.396,-4.066 0.063,-1.362 0.883,-0.731 0.883,-0.731 z"
   id="path77" />&#10;			<path
   style="fill:#f2ada2"
   d="m 177.101,159.901 c 0,0 -0.357,-2.229 0.344,-2.341 0,0 0.935,0.29 1.245,1.025 0.311,0.735 0.14,1.967 1.878,3.108 1.738,1.141 0.424,-6.701 0.424,-6.701 -0.625,1.785 -3.495,0.116 -3.912,-1.226 -0.417,-1.342 -1.016,-1.826 -1.571,-2.017 -0.555,-0.191 -0.736,0.609 -0.736,0.609 0,0 0.456,-0.108 0.859,0.139 0.404,0.248 1.837,1.74 1.933,2.454 0.096,0.715 -0.251,-0.686 -0.883,-0.36 -0.633,0.326 -0.779,0.988 -0.779,0.988 0,0 0.625,-0.563 1.063,-0.034 0.438,0.529 0.645,1.617 0.645,1.617 0,0 -2.017,-0.28 -0.51,2.739 z"
   id="path78" />&#10;			<path
   style="fill:#f2ada2"
   d="m 186.592,156.025 c 0,0 -1.821,1.395 -0.469,3.15 1.359,1.756 0.175,2.843 0.175,2.843 0,0 -3.577,-3.681 -2.527,-6.741 l 0.004,-0.003 c 1.491,0.509 2.817,0.751 2.817,0.751 z"
   id="path79" />&#10;		</g>&#10;		<g
   id="g85">&#10;			<path
   style="fill:#105e99"
   d="m 290.531,212.798 -0.64,6.06 -2.26,21.6 -1.12,10.7 -0.17,1.61 c 0,0 -26.6,8.05 -50.43,0.42 l 0.09,-1.65 0.24,-4.31 c 0,0 -0.48,-2.65 -0.92,-6.54 -0.43,-3.72 -0.82,-8.57 -0.74,-13.3 0.07,-3.94 -0.27,-8.8 -0.69,-13.18 -0.61,-6.38 -1.4,-11.73 -1.4,-11.73 0,0 0.05,-0.78 0.12,-2.07 0.22,-3.96 0.62,-12.78 0.36,-18.82 -0.36,-8 1.27,-11.89 1.27,-11.89 0,0 0.63,-0.08 1.64,-0.18 2.72,-0.28 8.14,-0.76 11.09,-0.43 0.73,0.07 1.3,0.2 1.65,0.39 0,0 0.12,19.24 9.69,29.65 0,0 14.27,-10.41 17.68,-28.77 0,0 0.38,0.01 1.02,0.03 2.23,0.09 7.65,0.39 11.71,1.38 0.63,0.16 1.22,0.33 1.77,0.52 0,0 -0.63,22.62 -0.38,34.18 0.061,3.17 0.19,5.52 0.42,6.33 z"
   id="path80" />&#10;			<path
   style="fill:#0d527c"
   d="m 286.512,251.158 -0.17,1.61 c 0,0 -26.6,8.05 -50.43,0.42 l 0.09,-1.65 c 5.529,1.49 24.999,5.69 50.51,-0.38 z"
   id="path81" />&#10;			<path
   style="fill:#0d527c"
   d="m 277.012,170.388 c -3.53,20.65 -19.15,30.26 -19.15,30.26 -9.66,-12.32 -10.82,-26.26 -10.89,-31.56 0.73,0.07 1.3,0.2 1.65,0.39 0,0 0.12,19.24 9.69,29.65 0,0 14.27,-10.41 17.68,-28.77 -0.001,0 0.379,0.01 1.02,0.03 z"
   id="path82" />&#10;			<path
   style="fill:#0d527c"
   d="m 290.111,206.468 c -3.06,-9.08 -1.91,-28.12 -1.39,-34.7 0.63,0.16 1.22,0.33 1.77,0.52 0,0 -0.63,22.62 -0.38,34.18 z"
   id="path83" />&#10;			<path
   style="fill:#0d527c"
   d="m 232.611,200.408 c 0.22,-3.96 0.62,-12.78 0.36,-18.82 -0.36,-8 1.27,-11.89 1.27,-11.89 0,0 0.63,-0.08 1.64,-0.18 -0.12,7.28 -0.66,25.36 -3.27,30.89 z"
   id="path84" />&#10;			<path
   style="fill:#0d527c"
   d="m 289.891,218.858 -2.26,21.6 -2.06,-7.57 -7.83,13.63 -5.83,-12.46 -8.62,12.46 -5.81,-11.93 -8.88,10.8 -5.47,-11.83 -5.22,9.82 -2.59,-2.69 c -0.43,-3.72 -0.82,-8.57 -0.74,-13.3 0.07,-3.94 -0.27,-8.8 -0.69,-13.18 l 2.02,-3.1 7.22,14.12 8.51,-12.5 5.84,13.33 8.3,-13.1 6.13,13.1 7.83,-14.65 5.83,14.65 z"
   id="path85" />&#10;		</g>&#10;		<path
   style="fill:#a1b3b7"
   d="m 304.661,221.892 c 0.457,2.772 -2.17,9.179 -9.252,6.381 0,0 -2.029,-1.535 0.278,-5.416 2.308,-3.882 8.463,-4.068 8.974,-0.965 z"
   id="path86" />&#10;		<g
   id="g89">&#10;			<path
   style="fill:#cfd8dc"
   d="m 277.661,197.568 2,-2.061 c 0,0 13.5,-1.22 17.125,2.061 0,0 5.201,-6.844 14,-9.183 l 1,6.133 -5.625,19.806 -9.375,8.534 -12.25,-6.133 z"
   id="path87" />&#10;			<path
   style="fill:#74b0ce"
   d="m 315.911,217.778 c 0,0 -11.25,2.97 -16,10.02 0,0 -11.75,-2.13 -21.5,-1.17 l -2.42,-29.64 c 0,0 13.92,-1.32 21.67,1.52 0,0 4.84,-6.58 16.5,-10.15 z"
   id="path88" />&#10;			<path
   style="fill:#6197ad"
   d="m 315.911,217.778 c 0,0 -11.25,2.97 -16,10.02 l -2.25,-29.29 c 0,0 4.84,-6.58 16.5,-10.15 z"
   id="path89" />&#10;		</g>&#10;		<path
   style="fill:#ffc3ba"
   d="m 304.93,217.363 c 0.924,-0.568 0.795,2.055 1.147,3.03 0.651,1.805 -0.756,3.959 -1.378,4.354 -0.622,0.396 -1.518,0.792 -2.917,2.243 -1.4,1.451 -5.802,1.64 -6.372,1.282 -0.57,-0.358 -2.021,-1.15 -2.021,-1.942 0,-0.792 -0.792,-2.639 0,-2.771 0.792,-0.132 2.021,1.912 2.021,2.44 0,0.528 2.201,0.661 2.201,0.661 0,0 -1.319,-1.518 -1.583,-3.233 -0.264,-1.715 -0.732,-2.796 0.299,-2.653 2.01,0.278 0.888,2.191 3.597,5.009 0.111,0.115 0.59,-0.244 0.59,-0.244 0,0 0.396,-2.243 0.132,-4.486 -0.264,-2.243 0.424,-3.559 1.136,-3.363 0.712,0.196 1.371,2.307 1.371,2.967 0,0.66 0.264,2.03 0.264,2.03 0,0 0.7,-1.057 0.617,-1.832 -0.161,-1.495 -0.443,-2.669 0.896,-3.492 z"
   id="path90" />&#10;	</g>&#10;	<g
   id="g142">&#10;		<path
   style="fill:#662c33"
   d="m 401.971,184.902 c 1.012,1.416 -3.227,10.995 0.773,17.576 4,6.581 -0.152,14.066 -6.638,13.386 0,0 5.268,-1.165 2.391,-5.61 -2.877,-4.445 -4.377,-8.57 -6.252,-14.695 -1.875,-6.125 4.077,-18.564 9.726,-10.657 z"
   id="path91" />&#10;		<path
   style="fill:#8b383e"
   d="m 395.29,172.558 c 0,0 -1.226,-3.5 -8.761,-2.75 -7.535,0.75 -13.535,9.784 -12.41,19.705 1.125,9.921 6.119,13.987 16.872,13.954 10.753,-0.034 14.628,-13.359 14.003,-19.571 -0.625,-6.213 -4.407,-11.838 -9.704,-11.338 z"
   id="path92" />&#10;		<path
   style="fill:#f2a668"
   d="m 409.457,211.135 c 9.037,2.923 7.787,25.173 7.537,29.923 -0.25,4.75 3.5,17.307 2.5,20.278 -1,2.972 -4.824,6.848 -10.037,6.285 -5.213,-0.563 -8.527,-11.595 -9.62,-14.829 -1.093,-3.234 9.62,-41.657 9.62,-41.657 z"
   id="path93" />&#10;		<g
   id="g98">&#10;			<path
   style="fill:#74b0ce"
   d="m 400.32,342.348 c 0,0 8.48,20.6 -3.21,66.47 h -6.91 c 0,0 -2.13,-60.14 -3.55,-66.47 -1.11,-5 -3.21,-22.12 -3.9,-36.73 v -0.06 c -0.06,-1.37 -0.11,-2.71 -0.15,-4.02 -0.39,0.09 -0.8,0.14 -1.22,0.18 -0.34,0.02 -0.68,0.03 -1.04,0.01 -0.07,0 -0.15,-0.01 -0.23,-0.01 0.43,6.36 0.6,13.5 0.6,20.08 0,9.29 -0.34,17.44 -0.74,20.62 -0.81,6.3 3.56,66.52 3.56,66.52 l -6.93,-0.23 c -16.12,-46.34 -10.32,-66.75 -10.32,-66.75 0,0 -14.74,-41.71 -11.43,-56.43 3.3,-14.71 11.02,-25.61 11.02,-25.61 l 12.87,2.1 0.11,-0.23 1.04,0.2 h 0.15 v 0.03 l 13.31,2.62 c 0,0 3.05,5.06 6.5,13.12 0.16,0.39 0.33,0.78 0.5,1.18 1.36,3.28 2.77,7.01 4.06,11.06 4.73,14.84 -4.09,52.35 -4.09,52.35 z"
   id="path94" />&#10;			<g
   id="g97">&#10;				<path
   style="fill:#6197ad"
   d="m 379.52,294.488 c 0.47,2.38 1.08,4.81 1.86,7.23 -0.34,0.02 -0.68,0.03 -1.04,0.01 -5.35,-17.01 -2.72,-34.28 -2.68,-34.46 l 0.98,0.16 c -0.02,0.15 -1.86,12.25 0.69,26.08 0.29,-0.09 0.66,-0.27 0.98,-0.68 0.51,-0.66 0.96,-2.09 0.18,-5.12 -1.69,-6.57 -0.12,-19.5 -0.05,-20.04 l 0.99,0.12 c -0.01,0.13 -1.61,13.29 0.03,19.67 0.71,2.76 0.58,4.78 -0.38,6.01 -0.5,0.63 -1.11,0.9 -1.56,1.02 z"
   id="path95" />&#10;				<path
   style="fill:#6197ad"
   d="m 400.35,278.938 c -7.76,-1.78 -11.76,-10.97 -11.93,-11.39 l 0.92,-0.4 c 0.04,0.1 3.7,8.51 10.51,10.61 0.16,0.39 0.33,0.78 0.5,1.18 z"
   id="path96" />&#10;				<path
   style="fill:#6197ad"
   d="m 357.76,275.816 c 7.76,-1.78 11.76,-10.97 11.93,-11.39 l -0.92,-0.4 c -0.04,0.1 -3.7,8.51 -10.51,10.61 -0.16,0.39 -0.33,0.78 -0.5,1.18 z"
   id="path97" />&#10;			</g>&#10;		</g>&#10;		<path
   style="fill:#af6837"
   d="m 334.327,243.568 c -0.667,-2.44 7.356,-14.839 9.595,-13.128 0,0 -0.761,18.021 -3.261,18.521 -2.5,0.5 -6.334,-5.393 -6.334,-5.393 z"
   id="path98" />&#10;		<path
   style="fill:#f2a668"
   d="m 366.72,203.479 c -6.476,-0.857 -27.933,45.048 -27.933,45.048 0,0 0.623,8.631 4.873,9.601 4.25,0.97 20.875,-16.5 20.875,-16.5 z"
   id="path99" />&#10;		<path
   style="fill:#ff8b66"
   d="m 337.75,245.658 c -2.378,-6.855 -3.15,-25.929 -1.406,-34.545 l 4.278,0.399 c 0,0 2.812,20.759 5.695,27.113 2.883,6.354 2.386,11.521 -1.676,14.074 -4.062,2.553 -6.391,-5.599 -6.891,-7.041 z"
   id="path100" />&#10;		<path
   style="fill:#ff8b66"
   d="m 392.91,265.129 c 0,0 -14.67,5.17 -28.51,-5.28 0,0 -2.57,-52.83 2.32,-56.37 2.14,-1.55 6.36,-0.31 10.43,1.58 5.25,2.44 10.27,5.95 10.27,5.95 0,0 9.11,-1.29 16.29,-0.5 4.57,0.49 8.35,1.83 8.52,4.86 0.45,7.809 -19.32,49.76 -19.32,49.76 z"
   id="path101" />&#10;		<path
   style="fill:#ef6e4b"
   d="m 404.1,210.628 c -3.08,-0.32 -3.65,2.01 -6.73,3.13 -3.09,1.13 -6.79,2 -8.19,2.13 -1.4,0.13 -2.14,1.87 -2.14,1.87 0,0 -0.5,-2.35 -1.26,-2.55 -0.74,-0.19 -7.27,-6.76 -8.63,-10.15 5.25,2.44 10.27,5.95 10.27,5.95 0,0 9.11,-1.29 16.29,-0.5 0.25,0.081 0.39,0.12 0.39,0.12 z"
   id="path102" />&#10;		<path
   style="fill:#ef6e4b"
   d="m 386.242,193.534 c 0,0 1.168,14.105 -2.757,16.122 0,0 2.9,5.346 10.674,2.092 0,0 -1.314,-7.255 3.828,-15.868 3.445,-5.768 -11.745,-2.346 -11.745,-2.346 z"
   id="path103" />&#10;		<g
   id="g117">&#10;			<path
   style="fill:#ff8b66"
   d="m 400.41,188.691 c 0,0 2.92,-3.393 3.589,0.263 0.775,4.236 -2.972,6.252 -3.834,4.951 -0.861,-1.301 0.245,-5.214 0.245,-5.214 z"
   id="path104" />&#10;			<path
   style="fill:#ff8b66"
   d="m 378.301,190.598 c 0,0 -3.4,-2.912 -3.508,0.803 -0.125,4.305 3.885,5.73 4.539,4.314 0.654,-1.416 -1.031,-5.117 -1.031,-5.117 z"
   id="path105" />&#10;			<path
   style="fill:#ff8b66"
   d="m 390.857,204.977 c 7.011,-0.534 10.619,-5.415 9.573,-19.15 -0.54,-7.085 -4.475,-11.156 -12.328,-10.558 -7.853,0.598 -10.829,5.195 -10.29,12.28 1.125,14.759 5.803,17.979 13.045,17.428 z"
   id="path106" />&#10;			<path
   style="fill:#db614d"
   d="m 380.508,192.271 c -0.069,0.714 0.599,1.363 1.491,1.45 0.893,0.086 1.673,-0.422 1.742,-1.136 0.069,-0.714 -0.599,-1.363 -1.491,-1.45 -0.893,-0.086 -1.673,0.422 -1.742,1.136 z"
   id="path107" />&#10;			<path
   style="fill:#db614d"
   d="m 394.958,191.557 c 0.101,0.71 0.903,1.184 1.791,1.058 0.888,-0.126 1.527,-0.804 1.426,-1.515 -0.101,-0.71 -0.903,-1.184 -1.791,-1.058 -0.889,0.127 -1.527,0.805 -1.426,1.515 z"
   id="path108" />&#10;			<g
   id="g109">&#10;				<path
   style="fill:#0c476b"
   d="m 382.997,184.868 c 0.143,0.067 0.317,0.031 0.421,-0.096 0.893,-1.092 2.606,-1.18 2.623,-1.18 0.194,-0.009 0.344,-0.173 0.336,-0.367 -0.008,-0.193 -0.171,-0.344 -0.367,-0.336 -0.083,0.004 -2.047,0.106 -3.136,1.439 -0.123,0.15 -0.1,0.371 0.05,0.494 0.022,0.019 0.047,0.035 0.073,0.046 z"
   id="path109" />&#10;			</g>&#10;			<g
   id="g110">&#10;				<path
   style="fill:#0c476b"
   d="m 393.153,183.005 c 0.056,0.026 0.119,0.038 0.185,0.031 0.017,-0.002 1.726,-0.172 2.772,0.77 0.145,0.131 0.367,0.118 0.496,-0.026 0.129,-0.144 0.118,-0.366 -0.026,-0.496 -1.279,-1.154 -3.235,-0.956 -3.318,-0.947 -0.193,0.021 -0.331,0.194 -0.311,0.387 0.015,0.127 0.094,0.231 0.202,0.281 z"
   id="path110" />&#10;			</g>&#10;			<path
   style="fill:#1a4850"
   d="m 384.06,188.574 c 0.067,0.871 0.513,1.547 0.996,1.51 0.484,-0.037 0.822,-0.772 0.756,-1.643 -0.066,-0.871 -0.512,-1.547 -0.996,-1.51 -0.483,0.037 -0.822,0.772 -0.756,1.643 z"
   id="path111" />&#10;			<path
   style="fill:#1a4850"
   d="m 393.948,187.861 c 0.066,0.871 0.512,1.547 0.996,1.509 0.484,-0.037 0.822,-0.772 0.756,-1.643 -0.066,-0.871 -0.512,-1.547 -0.996,-1.51 -0.484,0.038 -0.822,0.774 -0.756,1.644 z"
   id="path112" />&#10;			<path
   style="fill:#1a4850"
   d="m 393.185,196.371 c 0,0 -4.32,0.943 -6.656,-0.058 0,0 1.517,3.137 3.879,2.665 2.363,-0.471 2.777,-2.607 2.777,-2.607 z"
   id="path113" />&#10;			<path
   style="fill:#1a4850"
   d="m 386.385,187.962 c 0,0 -0.802,-2.096 -1.633,-1.878 -0.831,0.218 -1.329,2.104 -1.329,2.104 l -1.295,-0.565 1.257,0.068 c 0,0 0.502,-1.965 1.335,-2.032 1.185,-0.095 1.665,2.303 1.665,2.303 z"
   id="path114" />&#10;			<path
   style="fill:#1a4850"
   d="m 393.212,187.706 c 0,0 0.475,-2.193 1.329,-2.103 0.854,0.09 1.632,1.878 1.632,1.878 l 1.195,-0.754 -1.232,0.257 c 0,0 -0.794,-1.867 -1.627,-1.807 -1.186,0.085 -1.297,2.529 -1.297,2.529 z"
   id="path115" />&#10;			<g
   id="g116">&#10;				<path
   style="fill:#db614d"
   d="m 389.388,193.057 c 0.154,0.072 0.325,0.127 0.51,0.162 l 0.142,-0.745 c -0.634,-0.121 -0.8,-0.495 -0.826,-0.787 -0.038,-0.412 0.184,-0.818 0.407,-0.905 0.131,-0.05 0.276,0.029 0.435,0.237 l 0.603,-0.46 c -0.528,-0.692 -1.094,-0.569 -1.313,-0.483 -0.563,0.22 -0.952,0.958 -0.886,1.68 0.054,0.588 0.391,1.049 0.928,1.301 z"
   id="path116" />&#10;			</g>&#10;			<path
   style="fill:#8b383e"
   d="m 389.18,176.291 c 0,0 -8.52,15.323 -13.016,13.23 0,0 -1.195,-16.394 11.817,-16.394 13.012,0 15.589,7.325 15.55,14.579 0,0 -1.818,2.683 -3.428,2.302 0,10e-4 2.02,-13.409 -10.923,-13.717 z"
   id="path117" />&#10;		</g>&#10;		<path
   style="fill:#ffb878"
   d="m 412.24,221.168 c -1.363,8.166 -4.377,33.373 -16.496,43.266 0,0 2.626,3.534 0.5,4.25 -2.908,0.98 -13.071,-0.283 -16.764,-1.056 -0.11,-0.02 -0.23,-0.05 -0.34,-0.07 -0.34,-0.07 -0.67,-0.14 -0.99,-0.21 -23.48,-5.06 -16.49,-7.5 -16.49,-7.5 0,0 -10.078,-60.704 8.459,-57.227 2.107,0.395 8.25,2.33 8.25,2.33 -0.617,5.982 6.427,17.179 6.651,22.146 0.03,0.38 0,0.74 -0.07,1.05 0.06,-0.19 0.429,-2.244 1.579,-3.714 1.279,-1.63 12.968,-9.081 12.968,-9.081 l 2.059,-5.106 c 6.688,-0.25 12.514,-0.048 10.684,10.922 z"
   id="path118" />&#10;		<path
   style="fill:#f2a668"
   d="m 343.921,230.44 c 0,0 -6.095,16.734 -9.595,13.128 0,0 4.333,13.893 9.333,14.56 5,0.667 7.339,-19.333 7.339,-19.333 0,0 -4.339,-7.285 -4.839,-6.643 -0.5,0.643 -0.667,2.227 -0.667,2.227 z"
   id="path119" />&#10;		<g
   id="g121">&#10;			<path
   style="fill:#072228"
   d="m 374.309,407.141 c 0,0 2.315,5.138 1.601,8.583 -0.431,2.08 -2.667,4.75 -0.875,8.083 h 14.049 c 0,0 1.628,-3.75 -1.671,-7.25 -1.824,-1.935 -3.17,-10.917 -3.17,-10.917 -1.57,0.25 -1.167,1.5 -1.167,1.5 0,0 0.048,-4.235 -3.5,-3.667 -4.253,0.681 -3.25,4.417 -3.25,4.417 0,0 -0.496,-1.363 -2.017,-0.749 z"
   id="path120" />&#10;			<path
   style="fill:#0e3944"
   d="m 375.587,418.641 c 0,0 3.833,-4.977 11.667,-1 0,0 0.333,3.5 -3.333,2.833 -3.667,-0.667 -5.834,2 -8.334,-1.833 z"
   id="path121" />&#10;		</g>&#10;		<g
   id="g123">&#10;			<path
   style="fill:#072228"
   d="m 398.491,407.141 c 0,0 -1.01,5.732 0.401,7.583 1.643,2.154 9.893,2.404 5.878,9.084 h -14.049 c 0,0 -2.163,-1.43 -1.33,-7.25 0.716,-5.005 -0.833,-10.917 -0.833,-10.917 1.57,0.25 2.167,1.5 2.167,1.5 0,0 -0.048,-4.235 3.5,-3.667 4.253,0.681 3.25,4.417 3.25,4.417 0,0 0.446,-0.902 1.016,-0.75 z"
   id="path122" />&#10;			<path
   style="fill:#0e3944"
   d="m 392.543,418.641 c 0,0 4.666,-4.596 12.034,-0.209 0,0 -0.034,2.709 -3.7,2.042 -3.668,-0.667 -5.834,2 -8.334,-1.833 z"
   id="path123" />&#10;		</g>&#10;		<g
   id="g125">&#10;			<path
   style="fill:#ff8b66"
   d="m 345.867,202.738 c 0,0 0,0 -2.26,5.07 -2.25,5.08 -2.95,4.42 -5.87,5.09 -2.73,0.63 -4.43,-4.23 -4.58,-6.42 -0.14,-1.85 -3.1,-5.52 -2.8,-7.08 0.12,-0.63 0.53,-0.26 1.31,1.01 0.92,1.49 2.27,2.54 2.27,2.54 0.97,-1.69 -2.89,-6.75 -1.58,-8.4 0.64,-0.8 2.42,6.62 3.59,6.84 0,0 0.41,-0.58 -0.17,-4.29 -0.33,-2.13 -0.69,-4.32 -0.12,-4.73 1.04,-0.74 0.96,3.84 2.81,8.7 0,0 0.05,-2.35 -0.05,-4.53 -0.1,-1.99 -0.4,-3.84 0.49,-3.8 0.73,0.03 0.8,3.14 0.92,5.12 0.23,3.69 1.2,6.34 1.8,7.67 0.28,0.64 0.49,0.97 0.49,0.97 2.73,-4.98 3.75,-3.76 3.75,-3.76 z"
   id="path124" />&#10;			<path
   style="fill:#ef6e4b"
   d="m 342.117,206.498 c 0,0 -2.33,0.75 -2.96,2.51 0,0 -0.5,-2.79 2.47,-3.48 0.28,0.64 0.49,0.97 0.49,0.97 z"
   id="path125" />&#10;		</g>&#10;		<path
   style="fill:#cfd8dc"
   d="m 384.95,228.148 c 0,0 -1.855,-4.089 4.907,-8.089 6.762,-4 10.117,-7.158 10.752,-9.766 0.635,-2.609 6.26,3.766 6.885,9.766 l -7.657,-2.311 c 0,0 -4.224,4.436 -8.846,5.436 -4.622,0.999 -6.041,4.964 -6.041,4.964 z"
   id="path126" />&#10;		<path
   style="fill:#cfd8dc"
   d="m 385.669,224.183 c 0.325,-1.75 -7.24,-13.609 -5.425,-18.313 0,0 -3.25,-4.438 -10.25,6.188 l 6.142,0.25 c 0,0 0.591,3.967 3.347,6.611 4.574,4.389 5.467,9.228 5.467,9.228 z"
   id="path127" />&#10;		<g
   id="g131">&#10;			<circle
   style="fill:none;stroke:#0c476b;stroke-width:0.5;stroke-miterlimit:10"
   cx="394.353"
   cy="188.508"
   r="3.694"
   id="circle127" />&#10;			<path
   style="fill:none;stroke:#0c476b;stroke-width:0.5;stroke-miterlimit:10"
   d="m 388.828,188.87 c 0,2.04 -1.654,3.693 -3.694,3.693 -2.04,0 -3.694,-1.654 -3.694,-3.693 0,-2.039 1.654,-3.694 3.694,-3.694 2.04,0 3.694,1.654 3.694,3.694 z"
   id="path128" />&#10;			<path
   style="fill:none;stroke:#0c476b;stroke-width:0.5;stroke-miterlimit:10"
   d="m 388.828,188.87 c 0,0 0.928,-0.689 1.797,0"
   id="path129" />&#10;			<path
   style="fill:none;stroke:#0c476b;stroke-width:0.5;stroke-linecap:round;stroke-miterlimit:10"
   d="m 398.046,188.508 c 0,0 3.697,0.144 4.864,-0.319"
   id="path130" />&#10;			<path
   style="fill:none;stroke:#0c476b;stroke-width:0.5;stroke-linecap:round;stroke-miterlimit:10"
   d="m 381.441,188.87 c 0,0 -2.822,0.73 -4.614,0.397"
   id="path131" />&#10;		</g>&#10;		<polygon
   style="fill:#cfd8dc"
   points="377.836,235.759 397.643,238.808 390.911,266.407 373.244,265.225 "
   id="polygon131" />&#10;		<g
   id="g133">&#10;			<path
   style="fill:#105e99"
   d="m 396.861,237.791 -5,27.17 c 0,0 -12.61,1.82 -15.88,1.87 -0.35,0 -0.59,-0.01 -0.7,-0.05 l 3.66,-29.33 17.17,-0.23 v 0.57 z"
   id="path132" />&#10;			<path
   style="fill:#0d527c"
   d="m 396.111,237.221 v 0.57 h -16.2 l -3.93,29.04 c -0.35,0 -0.59,-0.01 -0.7,-0.05 l 3.66,-29.33 z"
   id="path133" />&#10;		</g>&#10;		<g
   id="g136">&#10;			<path
   style="fill:#ce364c"
   d="m 401.004,244.656 -6.652,24.503 c 0,0 -13.734,-2.587 -15.23,-2.389 -1.496,0.206 -2.011,-2.028 -2.011,-2.028 l 3.833,-22.93 16.699,0.456 v 1.745 z"
   id="path134" />&#10;			<path
   style="fill:#b72e48"
   d="m 397.643,242.267 v 1.435 l -12.729,-0.748 -5.793,23.816 c -1.496,0.206 -2.011,-2.028 -2.011,-2.028 l 3.833,-22.93 z"
   id="path135" />&#10;			<path
   style="fill:#cfd8dc"
   d="m 399.62,244.391 -1.977,-1.239 -14.305,-0.788 c 0,0 1.042,0.501 2.347,0.788 1.307,0.287 13.935,1.239 13.935,1.239 z"
   id="path136" />&#10;		</g>&#10;		<path
   style="fill:#af6837"
   d="m 402.744,253.178 c -1.62,-0.17 -3.038,9.059 -2.394,10.907 0.644,1.848 0.987,3.048 2.394,3.591 1.407,0.543 8.125,-6.368 7.5,-8.618 -0.625,-2.25 -7.5,-5.88 -7.5,-5.88 z"
   id="path137" />&#10;		<g
   id="g141">&#10;			<path
   style="fill:#ff8b66"
   d="m 408.648,253.787 c 0,0 -21.217,-2.148 -22.975,-2.595 0,0 -5.996,-4.709 -6.524,-4.669 -0.529,0.039 -4.887,3.308 -5.068,4.034 -0.182,0.726 0.726,0.935 0.726,0.935 0,0 -0.593,1.153 -0.75,1.607 -0.158,0.454 0.66,1.09 0.66,1.09 0,0 -0.192,1.476 0.676,2.1 0,0 0.421,1.476 0.868,1.623 0.447,0.147 1.658,0.77 1.658,0.77 0,0 0.951,-0.514 -0.676,-1.678 0,0 4.582,0.636 6.93,0.363 0,0 23.976,6.809 28.733,6.719 4.755,-0.092 -4.258,-10.299 -4.258,-10.299 z"
   id="path138" />&#10;			<path
   style="fill:#ef6e4b"
   d="m 375.392,256.288 c 0.185,-0.48 1.769,-1.23 1.894,-1.438 0.125,-0.208 -1.083,-0.083 -1.417,0.25 -0.333,0.333 -0.477,1.188 -0.477,1.188 z"
   id="path139" />&#10;			<path
   style="fill:#ef6e4b"
   d="m 374.716,254.188 c 0.236,-0.463 3.152,-2.338 3.111,-2.713 -0.042,-0.375 -1.583,0.333 -2.25,0.958 -0.666,0.625 -0.861,1.755 -0.861,1.755 z"
   id="path140" />&#10;			<path
   style="fill:#ef6e4b"
   d="m 374.807,251.491 c 0.478,-0.725 3.354,-2.266 3.021,-2.641 -0.333,-0.375 -1.5,0.542 -2.125,1.125 -0.625,0.583 -0.896,1.516 -0.896,1.516 z"
   id="path141" />&#10;		</g>&#10;		<path
   style="fill:#f2a668"
   d="m 408.619,253.176 c 6.875,-1.15 10.786,5.575 11.019,7.358 0.234,1.783 -2.019,10.274 -9.353,9.386 -2.272,-0.275 -7.541,-2.245 -7.541,-2.245 0,0 3.704,-4.201 3.06,-8.451 -0.644,-4.25 -3.06,-6.047 -3.06,-6.047 z"
   id="path142" />&#10;	</g>&#10;	<g
   id="g187">&#10;		<g
   id="g144">&#10;			<path
   style="fill:#ce364c"
   d="m 187.122,321.058 -7.88,17 -1.7,-2.5 -1.67,2.5 -4.87,-17.82 4.19,-8.48 5.81,-8.32 c 1,1.37 6.12,17.62 6.12,17.62 z"
   id="path143" />&#10;			<polygon
   style="fill:#b72e48"
   points="177.542,335.558 175.872,338.058 171.002,320.238 179.242,338.058 "
   id="polygon143" />&#10;			<path
   style="fill:#cfd8dc"
   d="m 172.216,322.863 c 0.011,0.025 4.656,14.612 4.656,14.612 l 0.667,-0.417 0.333,1 0.669,-1.031 z"
   id="path144" />&#10;		</g>&#10;		<path
   style="fill:#ff8b66"
   d="m 173.307,304.056 c 0,0 -0.025,3.384 0.357,5.363 0.382,1.979 0.936,3.46 0.936,3.46 l 0.593,-1.125 c 0,0 2.378,3.669 2.552,4.409 0.174,0.74 0.87,2.946 1.654,3.579 0.464,0.374 0.742,0.107 0.717,-0.684 0,0 0.528,0.873 0.807,0.353 0.235,-0.439 -0.179,-0.802 0.148,-1.544 0.608,-1.383 0.365,-2.617 0.365,-2.617 0.621,-0.486 0.121,-3.924 0.323,-4.652 0.202,-0.728 -2.237,-5.577 -4.634,-8.549 -2.395,-2.974 -3.818,2.007 -3.818,2.007 z"
   id="path145" />&#10;		<path
   style="fill:#ff8b66"
   d="m 172.749,286.944 c 0,0 3.668,14.057 4.729,15.555 1.062,1.497 -4.167,2.191 -4.167,2.191 0,0 -2.347,-6.934 -5.712,-14.186 -3.364,-7.252 5.15,-3.56 5.15,-3.56 z"
   id="path146" />&#10;		<path
   style="fill:#ffb878"
   d="m 127.723,182.238 c 1.344,-3.766 24.921,-0.382 24.921,-0.382 0,0 2.344,7.542 0.146,13.543 -0.246,0.672 -0.505,1.286 -0.77,1.86 0.337,0.683 0.719,1.746 0.77,3.182 0.022,0.62 -0.04,1.238 -0.146,1.823 0,0 2.325,1.017 2.22,3.972 0,0 2.395,0.08 2.645,2.58 0,0 2.625,0.48 2.625,2.678 0,0 2.375,0.947 2.625,3.697 0,0 2,3.125 1.125,5 0,0 1.068,2 0.221,4.375 0,0 0.904,2.625 -0.346,4.375 0,0 0.75,4.875 -0.625,7 0,0 -0.75,0.705 -1.542,0.705 -1.22,0 -1.792,-0.372 -1.792,-0.372 -0.307,-0.773 0.355,-3.375 0.355,-3.375 -0.812,0.747 -0.98,2.25 -0.98,2.25 -0.217,-1.319 0.791,-2.792 0.791,-2.792 0,0 -0.739,0.615 -0.966,1.875 0,0 -0.244,-1.783 0.134,-2.62 1.375,-3.048 2.742,-3.41 2.742,-3.41 0,0 -1.383,-3.028 -1.375,-4.52 0,0 -1.184,-2.095 -1.963,-4.794 0,0 -1.312,-0.814 -2.529,-3.699 0,0 -3.679,-1.237 -4.588,-2.957 0,0 -3.459,-1.418 -4.935,-4.668 0,0 -2.302,-1.322 -3.466,-3.495 -0.564,-0.338 -1.055,-0.737 -1.404,-1.229 -3.663,-0.6 -8.12,-1.833 -10.406,-4.364 -4.285,-4.743 -4.831,-12.473 -3.487,-16.238 z"
   id="path147" />&#10;		<path
   style="fill:#7ab0c1"
   d="m 160.405,213.598 c 4.967,4.96 4.026,46.233 4.026,46.233 0,0 9.031,19.977 9.861,26.477 0.83,6.5 0.83,6.5 0.83,6.5 l 1.75,3.5 c 0,0 -3.104,2.579 -6.214,2.829 l -1.364,-4.307 c 0,0 -6.494,-1.009 -17.803,-29.492 -1.32,-3.323 -0.369,-21.96 0,-29.579 0.509,-10.501 8.914,-22.161 8.914,-22.161 z"
   id="path148" />&#10;		<path
   style="fill:#447d8e"
   d="m 131.872,206.237 c 0,0 -0.867,8.139 3.254,13.418 0,0 8.343,-3.721 9.92,-10.221 0,-0.001 -7.424,-3.644 -13.174,-3.197 z"
   id="path149" />&#10;		<g
   id="g152">&#10;			<path
   style="fill:#ff8b66"
   d="m 54.058,181.324 c 1.853,5.111 6.431,4.58 6.239,9.184 -0.04,0.95 -0.43,1.61 -0.933,2.068 -0.962,0.876 -2.377,1.007 -3.58,0.512 -2.762,-1.137 -6.611,-1.946 -8.582,-2.184 -2.255,-0.283 -1.347,-1.001 -1.347,-1.001 -0.211,-0.009 -0.411,-0.006 -0.611,-0.003 -1.522,0.003 -2.643,0.234 -1.947,-0.737 0.779,-1.101 5.1,-1.309 5.1,-1.309 -6.24,-1.194 -7.229,0.153 -6.629,-0.91 0.816,-1.455 6.363,-1.234 6.53,-1.227 -3.599,-1.35 -5.698,-1.116 -4.832,-1.913 0.878,-0.808 7.526,0.737 9.967,1.339 0.55,0.134 0.891,0.226 0.891,0.226 -1.787,-4.064 -0.266,-4.045 -0.266,-4.045 z"
   id="path150" />&#10;			<path
   style="fill:#ef6e4b"
   d="m 53.432,185.143 c 0.55,0.134 0.891,0.226 0.891,0.226 0,0 -0.255,1.834 1.675,3.259 0,0 -2.647,-0.488 -2.566,-3.485 z"
   id="path151" />&#10;			<path
   style="fill:#ef6e4b"
   d="m 50.37,189.816 c -0.531,-0.056 -3.572,-0.405 -4.515,0.089 -0.211,-0.009 -0.411,-0.006 -0.611,-0.003 0.292,-1.144 4.487,-0.235 5.126,-0.086 z"
   id="path152" />&#10;		</g>&#10;		<path
   style="fill:#ff8b66"
   d="m 59.953,188.392 c 0.344,2.116 10.503,12.166 10.503,12.166 l -5.251,5.679 c 0,0 -6.788,-12.588 -8.104,-12.868 -1.317,-0.28 2.852,-4.977 2.852,-4.977 z"
   id="path153" />&#10;		<path
   style="fill:#7ab0c1"
   d="m 118.118,202.958 c -6.995,-0.15 -32.995,12.6 -32.995,12.6 0,0 -17.5,-20.791 -19.5,-21.146 l -2.5,-2.802 c 0,0 -5,2.887 -5,6.292 l 2.75,2.045 c 0,0 1.5,5.392 3.75,8.605 2.25,3.213 12.75,18.065 16.75,19.595 4,1.53 35.6,-6.339 35.6,-6.339 z"
   id="path154" />&#10;		<g
   id="g155">&#10;			<path
   style="fill:#ff8b66"
   d="m 166.05,404.507 -6.73,1.57 c 0,0 -10.52,-56.38 -12.94,-62.34 -2.08,-5.14 -10.97,-24.8 -13.92,-39.9 -0.14,0.07 -1.06,-0.09 -2.31,-0.33 h -0.01 c -0.31,-0.07 -0.64,-0.14 -0.99,-0.21 -0.31,-0.07 -0.64,-0.14 -0.97,-0.21 -0.25,15.05 -3.52,33.61 -4.52,38.81 -1.21,6.31 -0.56,63.7 -0.56,63.7 l -6.91,-0.23 c -13.11,-46.47 -6.19,-63.93 -6.19,-63.93 0,0 -12.02,-41.83 -7.76,-56.58 1.41,-4.92 3.15,-9.38 4.83,-13.13 0.14,-0.31 0.27,-0.61 0.42,-0.9 3.2,-6.98 6.11,-11.31 6.11,-11.31 l 14.05,1.76 0.13,-0.23 0.41,0.08 v 4.41 l 1.78,-0.09 0.4,-0.03 h 0.01 l 5.83,-0.31 0.8,-0.04 5.1,-0.27 c 0,0 3.06,4.87 7.42,12.7 0.16,0.3 0.33,0.6 0.49,0.9 1.55,2.81 3.25,5.97 5.03,9.4 7.05,13.65 4.64,52.83 4.64,52.83 0,0 10.18,15.75 6.36,63.88 z"
   id="path155" />&#10;		</g>&#10;		<g
   id="g157">&#10;			<path
   style="fill:#ff8b66"
   d="m 156.952,424.238 h 11.16 c 0,0 0.81,-2.09 0.65,-4.93 -0.1,-1.63 -0.99,-3.54 -1.56,-5.14 -0.42,-1.17 -0.66,-2.18 -0.29,-2.78 0.87,-1.41 -0.98,-4.13 -0.65,-9.81 l -7.27,2.77 c 0.62,6.57 -0.73,7.08 -0.07,8.56 0.26,0.59 0.15,1.36 -0.12,2.16 -0.46,1.34 -1.38,2.78 -1.85,3.68 -1.67,3.14 0,5.49 0,5.49 z"
   id="path156" />&#10;			<path
   style="fill:#0e3944"
   d="m 156.952,424.238 h 11.16 c 0,0 0.81,-2.09 0.65,-4.93 -0.1,-1.63 -0.99,-3.54 -1.56,-5.14 0,0 0.028,3.813 -3.84,4.89 -2.861,0.797 -5.46,-0.65 -4.56,-3.99 -0.46,1.34 -1.38,2.78 -1.85,3.68 -1.67,3.14 0,5.49 0,5.49 z"
   id="path157" />&#10;		</g>&#10;		<g
   id="g159">&#10;			<path
   style="fill:#ff8b66"
   d="m 126.014,424.238 h -11.16 c 0,0 -0.81,-2.09 -0.65,-4.93 0.1,-1.63 0.99,-3.54 1.56,-5.14 0.42,-1.17 0.66,-2.18 0.29,-2.78 -0.87,-1.41 0.728,-2.58 -1.033,-10.283 l 8.038,0.473 c 0.139,8.563 1.645,9.85 0.985,11.33 -0.26,0.59 -0.15,1.36 0.12,2.16 0.46,1.34 1.38,2.78 1.85,3.68 1.67,3.14 0,5.49 0,5.49 z"
   id="path158" />&#10;			<path
   style="fill:#0e3944"
   d="m 126.014,424.238 h -11.16 c 0,0 -0.81,-2.09 -0.65,-4.93 0.1,-1.63 0.99,-3.54 1.56,-5.14 0,0 -0.028,3.813 3.84,4.89 2.861,0.797 5.46,-0.65 4.56,-3.99 0.46,1.34 1.38,2.78 1.85,3.68 1.67,3.14 0,5.49 0,5.49 z"
   id="path159" />&#10;		</g>&#10;		<path
   style="fill:#8bbddb"
   d="m 141.832,265.308 c 0,0 -14.67,5.17 -28.51,-5.28 0,0 -2.57,-52.83 2.32,-56.37 2.14,-1.55 6.36,-0.31 10.43,1.58 1.89,0.88 3.75,1.89 5.35,2.84 2.86,1.67 4.92,3.11 4.92,3.11 0,0 3.95,-0.56 8.7,-0.72 2.46,-0.08 5.14,-0.05 7.59,0.22 4.57,0.49 8.35,1.83 8.52,4.86 0.45,7.81 -19.32,49.76 -19.32,49.76 z"
   id="path160" />&#10;		<path
   style="fill:#ef6e4b"
   d="m 135.16,193.711 c 0,0 1.168,14.105 -2.757,16.122 0,0 2.9,5.346 10.674,2.092 0,0 -1.314,-7.255 3.829,-15.868 3.444,-5.767 -11.746,-2.346 -11.746,-2.346 z"
   id="path161" />&#10;		<g
   id="g177">&#10;			<path
   style="fill:#ffb878"
   d="m 128.012,192.704 c 0,0 -4.89,-2.799 -3.64,-14.285 1.25,-11.486 16.388,-12.102 19.131,-10.169 0,0 7.119,-0.442 10.557,6.683 3.437,7.125 1.187,16.076 -4.438,20.038 -5.625,3.962 -21.61,-2.267 -21.61,-2.267 z"
   id="path162" />&#10;			<path
   style="fill:#ff8b66"
   d="m 129.068,187.978 c 0,0 -3.193,-3.137 -3.555,0.562 -0.418,4.286 3.485,5.981 4.234,4.613 0.75,-1.368 -0.679,-5.175 -0.679,-5.175 z"
   id="path163" />&#10;			<path
   style="fill:#ff8b66"
   d="m 151.259,188.029 c 0,0 3.144,-3.187 3.563,0.507 0.485,4.279 -3.392,6.035 -4.162,4.678 -0.771,-1.356 0.599,-5.185 0.599,-5.185 z"
   id="path164" />&#10;			<path
   style="fill:#ff8b66"
   d="m 139.949,203.408 c -7.031,0.055 -11.035,-4.507 -11.142,-18.282 -0.055,-7.105 3.526,-11.491 11.401,-11.553 7.876,-0.061 11.226,4.271 11.281,11.377 0.115,14.801 -4.277,18.401 -11.54,18.458 z"
   id="path165" />&#10;			<path
   style="fill:#db614d"
   d="m 149.199,189.881 c 0.129,0.706 -0.482,1.409 -1.365,1.57 -0.883,0.161 -1.702,-0.281 -1.831,-0.987 -0.129,-0.706 0.482,-1.408 1.365,-1.569 0.882,-0.162 1.702,0.28 1.831,0.986 z"
   id="path166" />&#10;			<path
   style="fill:#db614d"
   d="m 134.74,190.378 c -0.041,0.716 -0.8,1.255 -1.696,1.204 -0.896,-0.051 -1.589,-0.674 -1.547,-1.39 0.041,-0.716 0.8,-1.255 1.696,-1.204 0.896,0.051 1.588,0.673 1.547,1.39 z"
   id="path167" />&#10;			<g
   id="g168">&#10;				<path
   style="fill:#ffb878"
   d="m 146.099,182.712 c -0.136,0.078 -0.313,0.058 -0.427,-0.061 -0.981,-1.013 -2.696,-0.958 -2.713,-0.957 -0.194,0.007 -0.357,-0.144 -0.365,-0.337 -0.008,-0.194 0.142,-0.357 0.337,-0.365 0.083,-0.003 2.048,-0.066 3.246,1.171 0.135,0.139 0.131,0.362 -0.008,0.497 -0.021,0.021 -0.045,0.038 -0.07,0.052 z"
   id="path168" />&#10;			</g>&#10;			<g
   id="g169">&#10;				<path
   style="fill:#ffb878"
   d="m 135.823,181.705 c -0.054,0.031 -0.116,0.048 -0.182,0.046 -0.017,0 -1.734,-0.027 -2.698,1 -0.133,0.143 -0.355,0.149 -0.497,0.015 -0.141,-0.133 -0.148,-0.355 -0.015,-0.497 1.178,-1.257 3.144,-1.223 3.227,-1.221 0.194,0.005 0.347,0.165 0.342,0.359 -0.003,0.128 -0.074,0.239 -0.177,0.298 z"
   id="path169" />&#10;			</g>&#10;			<g
   id="g171">&#10;				<path
   style="fill:#1a4850"
   d="m 145.924,186.494 c 0.007,0.873 -0.381,1.584 -0.866,1.588 -0.485,0.004 -0.884,-0.701 -0.891,-1.574 -0.007,-0.873 0.381,-1.584 0.866,-1.588 0.486,-0.004 0.885,0.7 0.891,1.574 z"
   id="path170" />&#10;				<path
   style="fill:#1a4850"
   d="m 136.004,186.523 c 0.007,0.873 -0.381,1.584 -0.866,1.587 -0.485,0.004 -0.884,-0.701 -0.891,-1.574 -0.007,-0.873 0.381,-1.584 0.866,-1.588 0.486,-0.003 0.885,0.702 0.891,1.575 z"
   id="path171" />&#10;			</g>&#10;			<path
   style="fill:#1a4850"
   d="m 136.91,195.027 c 0,0 4.384,0.579 6.628,-0.614 0,0 -1.42,2.223 -3.814,1.95 -2.395,-0.272 -2.814,-1.336 -2.814,-1.336 z"
   id="path172" />&#10;			<g
   id="g174">&#10;				<path
   style="fill:#1a4850"
   d="m 143.504,186.079 c 0,0 0.624,-2.156 1.47,-2.008 0.846,0.148 1.501,1.985 1.501,1.985 l 1.243,-0.671 -1.247,0.173 c 0,0 -0.665,-1.916 -1.5,-1.913 -1.19,0.003 -1.467,2.434 -1.467,2.434 z"
   id="path173" />&#10;				<path
   style="fill:#1a4850"
   d="m 136.679,186.395 c 0,0 -0.657,-2.146 -1.501,-1.985 -0.844,0.161 -1.47,2.008 -1.47,2.008 l -1.253,-0.652 1.25,0.153 c 0,0 0.635,-1.926 1.47,-1.937 1.189,-0.013 1.504,2.413 1.504,2.413 z"
   id="path174" />&#10;			</g>&#10;			<path
   style="fill:#ffb878"
   d="m 151.323,190.001 c 0,0 -1.763,-5.889 -1.95,-10.451 0,0 -1.924,-4.438 -9.149,-4.5 -7.226,-0.063 -9.879,4.008 -9.879,4.008 0,0 -0.109,7.439 -1.197,11.934 0,0 -0.365,-2.294 -1.508,-4.024 0,0 -2.254,-13.389 12.583,-15.216 14.837,-1.827 12.421,15.257 12.421,15.257 0,0 -0.746,0.193 -1.321,2.992 z"
   id="path175" />&#10;			<g
   id="g176">&#10;				<path
   style="fill:#db614d"
   d="m 140.415,191.406 c -0.148,0.085 -0.313,0.153 -0.495,0.204 l -0.204,-0.73 c 0.622,-0.174 0.756,-0.56 0.758,-0.853 0.003,-0.414 -0.251,-0.799 -0.481,-0.868 -0.134,-0.039 -0.273,0.052 -0.413,0.273 l -0.639,-0.408 c 0.468,-0.734 1.042,-0.658 1.268,-0.591 0.58,0.172 1.029,0.875 1.024,1.6 -0.006,0.59 -0.303,1.078 -0.818,1.373 z"
   id="path176" />&#10;			</g>&#10;			<path
   style="fill:#ffb878"
   d="m 139.917,173.872 c 0,0 -0.421,4.977 3.268,8.064 0,0 -1.532,-3.064 -1.641,-5.064 0,0 3.002,5.125 5.759,5.625 2.757,0.5 6.757,1.983 6.757,1.983 0,0 -1.784,-12.108 -13.767,-12.858 -11.983,-0.75 -14.632,6.722 -12.42,14.924 0,0 4.755,-2.049 5.658,-6.799 0,0 -1.155,3.623 5.187,2.187 0.001,0 -1.318,-3.812 1.199,-8.062 z"
   id="path177" />&#10;		</g>&#10;		<path
   style="fill:#cfd8dc"
   d="m 174.292,372.058 c 0,0 -1.66,0.37 -4.56,0.87 -0.83,0.14 -1.77,0.3 -2.81,0.45 -2.41,0.38 -5.33,0.78 -8.63,1.13 -0.9,0.1 -1.83,0.2 -2.79,0.28 -3.64,0.34 -7.65,0.61 -11.91,0.73 -0.93,0.03 -1.87,0.05 -2.82,0.06 -2.33,0.02 -4.71,0 -7.14,-0.08 -0.94,-0.03 -1.89,-0.07 -2.84,-0.12 -3.06,-0.16 -6.16,-0.43 -9.27,-0.83 -0.94,-0.11 -1.88,-0.24 -2.81,-0.38 -2.42,-0.37 -4.84,-0.81 -7.23,-1.36 -0.95,-0.21 -1.89,-0.43 -2.83,-0.68 -2.1,-0.54 -4.18,-1.17 -6.21,-1.87 v -0.01 c -0.97,-0.33 -1.92,-0.68 -2.86,-1.05 -0.66,-0.26 -1.31,-0.53 -1.96,-0.81 0,0 -0.89,-59.33 2.89,-80 3.78,-20.66 12.81,-28.36 12.81,-28.36 0,0 0.49,0.19 1.37,0.51 0.05,0.02 0.1,0.04 0.16,0.05 1.07,0.39 2.67,0.92 4.63,1.49 0.04,0.02 0.08,0.03 0.12,0.03 1.47,0.44 3.13,0.88 4.95,1.3 0.04,0.01 0.08,0.02 0.12,0.03 1.37,0.32 2.82,0.62 4.32,0.88 0.03,0.01 0.05,0.01 0.08,0.01 1.27,0.23 2.58,0.43 3.91,0.58 0.03,0.01 0.06,0.01 0.09,0.01 1.49,0.18 3.02,0.31 4.55,0.38 h 0.12 c 0.83,0.04 1.66,0.06 2.48,0.05 0.12,0 0.24,0 0.36,-0.01 0.42,0 1.117,-0.521 1.527,-0.541 0,0 10.843,14.511 15.843,26.221 5,11.71 16.34,81.04 16.34,81.04 z"
   id="path178" />&#10;		<g
   id="g185">&#10;			<path
   style="fill:#a1b3b7"
   d="m 169.732,372.928 c -0.83,0.14 -1.77,0.3 -2.81,0.45 -0.4,-3.51 -0.94,-8.16 -1.58,-13.59 -0.37,-3.11 -0.78,-6.49 -1.21,-10.06 -0.45,-3.56 -0.89,-7.33 -1.42,-11.22 -0.53,-3.88 -1.05,-7.9 -1.69,-11.96 -0.57,-4.08 -1.32,-8.19 -2.04,-12.3 -0.42,-2.04 -0.83,-4.09 -1.25,-6.12 -0.41,-2.04 -0.98,-4.03 -1.45,-6.03 -1.04,-3.97 -2.23,-7.83 -3.6,-11.49 -1.36,-3.66 -2.86,-7.14 -4.44,-10.36 -0.74,-1.64 -1.57,-3.17 -2.36,-4.67 -0.78,-1.5 -1.53,-2.95 -2.31,-4.31 -1.18,-2.13 -2.3,-4.11 -3.35,-5.92 0.12,0 0.24,0 0.36,-0.01 1.07,1.74 2.2,3.66 3.4,5.7 0.81,1.34 1.6,2.78 2.41,4.26 0.82,1.49 1.69,3.01 2.47,4.64 1.66,3.2 3.25,6.67 4.71,10.33 1.46,3.66 2.75,7.53 3.89,11.51 0.52,2 1.13,4 1.59,6.04 0.47,2.04 0.94,4.09 1.4,6.13 0.82,4.12 1.66,8.24 2.33,12.31 0.73,4.07 1.34,8.08 1.96,11.96 0.62,3.88 1.14,7.64 1.68,11.2 0.51,3.57 0.99,6.94 1.43,10.05 0.75,5.37 1.39,9.97 1.88,13.46 z"
   id="path179" />&#10;			<path
   style="fill:#a1b3b7"
   d="m 158.292,374.508 c -0.9,0.1 -1.83,0.2 -2.79,0.28 -0.24,-3.06 -0.53,-6.86 -0.87,-11.21 -0.94,-11.61 -2.25,-27.1 -3.88,-42.54 -0.4,-3.86 -0.85,-7.72 -1.3,-11.51 -0.26,-1.89 -0.5,-3.77 -0.75,-5.62 -0.28,-1.85 -0.55,-3.68 -0.86,-5.47 -0.63,-3.55 -1.53,-6.97 -2.41,-10.17 -0.89,-3.21 -1.85,-6.22 -2.75,-8.99 -1.83,-5.53 -3.54,-10.07 -4.77,-13.24 -0.1,-0.26 -0.2,-0.5 -0.29,-0.74 h 0.12 c 0.09,0.22 0.19,0.45 0.29,0.69 1.31,3.14 3.13,7.65 5.09,13.14 0.97,2.75 2.01,5.74 2.98,8.94 0.96,3.21 1.95,6.59 2.67,10.2 0.36,1.79 0.67,3.62 1,5.47 0.29,1.86 0.59,3.73 0.88,5.63 0.55,3.79 1.1,7.64 1.59,11.49 2.01,15.43 3.69,30.89 4.91,42.48 0.44,4.33 0.82,8.12 1.14,11.17 z"
   id="path180" />&#10;			<path
   style="fill:#a1b3b7"
   d="m 143.592,375.518 c -0.93,0.03 -1.87,0.05 -2.82,0.06 -0.11,-3.13 -0.25,-7.14 -0.4,-11.78 -0.43,-11.44 -1.03,-26.7 -1.89,-41.94 -0.22,-3.81 -0.47,-7.62 -0.74,-11.36 -0.31,-3.74 -0.56,-7.44 -1.11,-10.93 -0.25,-1.77 -0.65,-3.49 -0.88,-5.21 -0.26,-1.71 -0.49,-3.38 -0.68,-5.01 -0.4,-3.27 -0.7,-6.36 -0.96,-9.21 -0.51,-5.71 -0.84,-10.47 -1.05,-13.81 -0.03,-0.51 -0.06,-0.98 -0.08,-1.42 0.03,0.01 0.06,0.01 0.09,0.01 0.04,0.43 0.08,0.9 0.12,1.4 0.29,3.33 0.74,8.08 1.39,13.77 0.33,2.84 0.7,5.92 1.18,9.16 0.23,1.62 0.5,3.29 0.8,4.97 0.27,1.69 0.7,3.4 1,5.18 0.65,3.56 0.99,7.24 1.4,10.99 0.36,3.75 0.71,7.55 1.02,11.36 1.24,15.24 2.21,30.49 2.92,41.93 0.28,4.67 0.51,8.7 0.69,11.84 z"
   id="path181" />&#10;			<path
   style="fill:#a1b3b7"
   d="m 133.632,375.498 c -0.94,-0.03 -1.89,-0.07 -2.84,-0.12 -0.3,-3.07 -0.68,-6.94 -1.12,-11.41 -1.06,-11.41 -2.43,-26.63 -3.37,-41.89 -0.22,-3.81 -0.42,-7.63 -0.53,-11.4 -0.06,-1.88 -0.07,-3.75 -0.08,-5.6 0.05,-1.86 0.09,-3.7 0.24,-5.48 0.49,-7.15 1.07,-13.8 1.58,-19.51 0.62,-6.97 1.16,-12.52 1.48,-15.77 0.03,0.01 0.05,0.01 0.08,0.01 -0.24,3.27 -0.64,8.82 -1.1,15.8 -0.37,5.71 -0.78,12.38 -1.09,19.52 -0.11,1.8 -0.1,3.6 -0.11,5.42 0.06,1.84 0.11,3.69 0.21,5.56 0.21,3.75 0.5,7.55 0.82,11.35 1.31,15.19 3.05,30.36 4.39,41.73 0.57,4.65 1.06,8.67 1.44,11.79 z"
   id="path182" />&#10;			<path
   style="fill:#a1b3b7"
   d="m 124.672,263.438 c -0.05,0.15 -0.1,0.31 -0.15,0.47 -0.53,1.63 -1.13,3.62 -1.78,5.91 -0.66,2.29 -1.35,4.89 -2.02,7.74 -0.68,2.85 -1.31,5.96 -1.86,9.27 -0.5,3.31 -0.91,6.83 -0.95,10.44 0.03,0.92 0.05,1.84 0.08,2.77 0.04,0.93 0.09,1.86 0.13,2.8 0.09,1.89 0.18,3.79 0.27,5.72 0.18,3.84 0.37,7.75 0.55,11.66 1.02,21.5 2.04,43 2.58,54.33 -0.94,-0.11 -1.88,-0.24 -2.81,-0.38 -0.27,-11.46 -0.77,-32.67 -1.26,-53.89 -0.1,-3.91 -0.19,-7.82 -0.28,-11.67 -0.04,-1.93 -0.09,-3.84 -0.13,-5.72 -0.02,-0.95 -0.05,-1.89 -0.07,-2.83 v -2.77 c 0.12,-3.73 0.62,-7.26 1.21,-10.58 0.63,-3.31 1.34,-6.42 2.09,-9.26 0.74,-2.85 1.49,-5.43 2.2,-7.71 0.71,-2.28 1.36,-4.25 1.92,-5.87 0.05,-0.16 0.11,-0.31 0.16,-0.46 0.04,0.01 0.08,0.02 0.12,0.03 z"
   id="path183" />&#10;			<path
   style="fill:#a1b3b7"
   d="m 119.602,262.108 c -0.07,0.13 -0.13,0.27 -0.2,0.41 -0.75,1.54 -1.64,3.42 -2.6,5.61 -0.97,2.17 -1.99,4.66 -3.04,7.39 -1.03,2.75 -2.05,5.75 -2.93,8.98 -0.21,0.81 -0.41,1.64 -0.62,2.47 -0.17,0.83 -0.34,1.68 -0.51,2.53 -0.13,0.87 -0.24,1.76 -0.36,2.65 -0.08,0.86 -0.11,1.79 -0.17,2.69 -0.09,1.82 -0.09,3.68 -0.13,5.56 0.01,1.89 0.01,3.8 0.02,5.72 0.05,3.85 0.12,7.76 0.22,11.67 0.42,15.64 1.09,31.28 1.62,43 0.23,4.73 0.43,8.82 0.58,12.02 -0.95,-0.21 -1.89,-0.43 -2.83,-0.68 -0.07,-3.08 -0.17,-6.89 -0.28,-11.25 -0.25,-11.74 -0.55,-27.4 -0.59,-43.07 -0.01,-3.92 0.01,-7.84 0.06,-11.69 0.04,-1.93 0.08,-3.85 0.12,-5.74 0.08,-1.89 0.12,-3.76 0.26,-5.6 0.09,-0.93 0.13,-1.82 0.24,-2.75 0.15,-0.89 0.27,-1.77 0.43,-2.65 0.2,-0.87 0.39,-1.73 0.58,-2.59 0.23,-0.83 0.46,-1.66 0.69,-2.47 0.96,-3.24 2.06,-6.24 3.16,-8.97 1.13,-2.72 2.2,-5.19 3.23,-7.34 1.01,-2.16 1.95,-4.02 2.73,-5.55 0.07,-0.13 0.13,-0.26 0.2,-0.38 0.04,0.02 0.08,0.03 0.12,0.03 z"
   id="path184" />&#10;			<path
   style="fill:#a1b3b7"
   d="m 114.852,260.588 c -0.8,1.2 -1.69,2.6 -2.56,4.22 -1.13,2.07 -2.31,4.45 -3.39,7.13 -1.08,2.7 -2.13,5.63 -3.01,8.85 -0.26,0.8 -0.36,1.61 -0.56,2.44 -0.16,0.83 -0.37,1.66 -0.5,2.52 -0.22,1.73 -0.49,3.48 -0.69,5.28 -0.17,1.8 -0.34,3.63 -0.51,5.49 -0.12,1.86 -0.25,3.74 -0.37,5.64 -0.15,1.9 -0.2,3.82 -0.3,5.74 -0.09,1.92 -0.18,3.85 -0.23,5.79 -0.52,15.46 -0.52,30.94 -0.45,42.55 0.04,5.79 0.1,10.63 0.16,14.01 -0.97,-0.33 -1.92,-0.68 -2.86,-1.05 0.03,-3.31 0.08,-7.76 0.17,-12.98 0.22,-11.62 0.58,-27.12 1.48,-42.6 0.1,-1.94 0.24,-3.87 0.38,-5.8 0.14,-1.93 0.24,-3.85 0.43,-5.75 0.17,-1.9 0.34,-3.79 0.51,-5.65 0.22,-1.86 0.43,-3.7 0.64,-5.5 0.26,-1.81 0.56,-3.58 0.83,-5.31 0.16,-0.86 0.39,-1.71 0.57,-2.55 0.22,-0.83 0.35,-1.69 0.64,-2.47 0.95,-3.18 2.1,-6.16 3.23,-8.83 1.16,-2.67 2.41,-5.04 3.59,-7.09 0.9,-1.58 1.81,-2.96 2.64,-4.13 0.05,0.02 0.1,0.04 0.16,0.05 z"
   id="path185" />&#10;		</g>&#10;		<path
   style="fill:#ef6e4b"
   d="m 145.042,210.468 c -3.76,6.35 -10.11,8.65 -10.11,8.65 -1.63,-1.85 -3.21,-9.51 -3.51,-11.04 2.86,1.67 4.92,3.11 4.92,3.11 0,0 3.95,-0.56 8.7,-0.72 z"
   id="path186" />&#10;		<path
   style="fill:#6197ad"
   d="m 131.872,206.237 c 0,0 0.633,7.696 3.254,12.446 0,0 7.218,-3.875 9.92,-9.25 0,0 3.452,3 3.827,7.5 l -6.278,-1 -8.027,4 -3.444,-6.958 -4.875,-0.917 c -0.002,0 2.542,-3.742 5.623,-5.821 z"
   id="path187" />&#10;	</g>&#10;	<g
   id="g228">&#10;		<polygon
   style="fill:#105e99"
   points="707.968,153.058 708.384,153.475 689.828,184.381 689.211,182.558 "
   id="polygon187" />&#10;		<path
   style="fill:#ffc3ba"
   d="m 679.793,197.16 c 0,0 2.634,-6.595 3.011,-7.39 0.376,-0.795 0.423,-3.241 0.541,-4.276 0.118,-1.035 1.999,-3.257 3.222,-3.369 1.223,-0.112 2.54,-0.948 3.199,-1.988 0.659,-1.04 0.564,1.136 0.564,1.136 0,0 2.258,-1.141 3.011,-0.671 0.753,0.471 0.565,1.6 -0.564,2.258 0,0 0.659,0.47 0.47,1.411 -0.188,0.941 -0.753,2.208 -0.753,2.208 0,0 -0.47,1.932 -1.035,2.873 -0.565,0.941 -3.2,2.352 -3.858,2.352 -0.658,0 -1.505,6.021 -1.505,6.021 z"
   id="path188" />&#10;		<path
   style="fill:#b5c4c9"
   d="m 639.634,202.035 c 7,-0.644 30.859,17.992 30.859,17.992 l 9.49,-25.139 6.809,1.42 c 0,0 -4.575,31.535 -9.908,35.42 -5.333,3.884 -33.25,-9.226 -33.25,-9.226 z"
   id="path189" />&#10;		<path
   style="fill:#a1b3b7"
   d="m 596.978,212.56 c -3.281,3.448 -14.946,37.275 -14.127,44.582 0.818,7.307 8.218,4.63 10.263,2.808 2.046,-1.822 11.375,-23.75 11.375,-23.75 z"
   id="path190" />&#10;		<path
   style="fill:#0e3944"
   d="m 626.448,167.691 c 0,0 4.631,-0.966 10.355,10.201 4.106,8.012 -4.252,14.303 -2.168,18.996 2.083,4.693 5,2.722 5,2.722 0,0 -5.317,10.494 -21.41,10.614 -16.093,0.12 -18.84,-10.614 -18.84,-10.614 0,0 3.947,0.634 4.727,-4.271 0.779,-4.906 -4.113,-8.209 -1.92,-17.78 2.192,-9.571 21.819,-16.986 24.256,-9.868 z"
   id="path191" />&#10;		<path
   style="fill:#b5c4c9"
   d="m 612.925,207.308 c 1.543,-1.333 12.537,-3.829 14.585,-2.581 2.048,1.249 -5.823,11.331 -5.823,11.331 0,0 -7.804,-2.647 -8.761,-3.907 -0.958,-1.259 -0.001,-4.843 -0.001,-4.843 z"
   id="path192" />&#10;		<path
   style="fill:#0e3944"
   d="m 652.315,336.725 c 0,0 -17.931,-4.667 -38.681,-5.167 0,0 20.868,-39.25 34.434,-43 13.566,-3.75 4.247,48.167 4.247,48.167 z"
   id="path193" />&#10;		<g
   id="g194">&#10;			<path
   style="fill:#ffc3ba"
   d="m 592.367,404.507 6.73,1.57 c 0,0 10.52,-56.38 12.94,-62.34 2.08,-5.14 10.97,-24.8 13.92,-39.9 0.14,0.07 1.06,-0.09 2.31,-0.33 h 0.01 c 0.31,-0.07 0.64,-0.14 0.99,-0.21 0.31,-0.07 0.64,-0.14 0.97,-0.21 0.25,15.05 3.52,33.61 4.52,38.81 1.21,6.31 0.56,63.7 0.56,63.7 l 6.91,-0.23 c 13.11,-46.47 6.19,-63.93 6.19,-63.93 0,0 12.02,-41.83 7.76,-56.58 -1.41,-4.92 -3.15,-9.38 -4.83,-13.13 -0.14,-0.31 -0.27,-0.61 -0.42,-0.9 -3.2,-6.98 -6.11,-11.31 -6.11,-11.31 l -14.05,1.76 -0.13,-0.23 -0.41,0.08 v 4.41 l -1.78,-0.09 -0.4,-0.03 h -0.01 l -5.83,-0.31 -0.8,-0.04 -5.1,-0.27 c 0,0 -3.06,4.87 -7.42,12.7 -0.16,0.3 -0.33,0.6 -0.49,0.9 -1.55,2.81 -3.25,5.97 -5.03,9.4 -7.05,13.65 -4.64,52.83 -4.64,52.83 0,0 -10.18,15.75 -6.36,63.88 z"
   id="path194" />&#10;		</g>&#10;		<path
   style="fill:#ffc3ba"
   d="m 616.306,264.797 c 0,0 14.67,5.17 28.51,-5.28 0,0 2.57,-52.83 -2.32,-56.37 -2.14,-1.55 -6.36,-0.31 -10.43,1.58 -5.25,2.44 -10.27,5.95 -10.27,5.95 0,0 -9.11,-1.29 -16.29,-0.5 -4.57,0.49 -8.35,1.83 -8.52,4.86 -0.45,7.81 19.32,49.76 19.32,49.76 z"
   id="path195" />&#10;		<path
   style="fill:#f2ada2"
   d="m 605.116,210.297 c 3.08,-0.32 3.65,2.01 6.73,3.13 3.09,1.13 6.79,2 8.19,2.13 1.4,0.13 2.14,1.87 2.14,1.87 0,0 0.5,-2.35 1.26,-2.55 0.74,-0.19 7.27,-6.76 8.63,-10.15 -5.25,2.44 -10.27,5.95 -10.27,5.95 0,0 -9.11,-1.29 -16.29,-0.5 -0.25,0.08 -0.39,0.12 -0.39,0.12 z"
   id="path196" />&#10;		<path
   style="fill:#f2ada2"
   d="m 622.974,193.203 c 0,0 -1.168,14.105 2.757,16.122 0,0 -2.9,5.346 -10.674,2.092 0,0 1.314,-7.255 -3.828,-15.868 -3.445,-5.768 11.745,-2.346 11.745,-2.346 z"
   id="path197" />&#10;		<g
   id="g211">&#10;			<path
   style="fill:#ffc3ba"
   d="m 607.805,186.359 c 0,0 -2.92,-3.393 -3.59,0.263 -0.775,4.236 2.972,6.252 3.834,4.951 0.862,-1.301 -0.244,-5.214 -0.244,-5.214 z"
   id="path198" />&#10;			<path
   style="fill:#ffc3ba"
   d="m 629.914,188.266 c 0,0 3.4,-2.912 3.508,0.803 0.125,4.305 -3.885,5.73 -4.539,4.314 -0.654,-1.416 1.031,-5.117 1.031,-5.117 z"
   id="path199" />&#10;			<path
   style="fill:#ffc3ba"
   d="m 617.357,202.644 c -7.011,-0.534 -10.619,-5.415 -9.573,-19.15 0.54,-7.085 4.475,-11.156 12.328,-10.558 7.853,0.598 10.829,5.195 10.29,12.281 -1.124,14.758 -5.802,17.979 -13.045,17.427 z"
   id="path200" />&#10;			<path
   style="fill:#ed93a4"
   d="m 627.707,189.939 c 0.069,0.714 -0.599,1.363 -1.491,1.45 -0.893,0.087 -1.673,-0.422 -1.742,-1.136 -0.069,-0.714 0.599,-1.363 1.491,-1.45 0.893,-0.087 1.673,0.422 1.742,1.136 z"
   id="path201" />&#10;			<path
   style="fill:#ed93a4"
   d="m 613.257,189.225 c -0.101,0.71 -0.903,1.184 -1.791,1.058 -0.888,-0.126 -1.527,-0.804 -1.426,-1.515 0.101,-0.71 0.903,-1.184 1.791,-1.057 0.889,0.125 1.527,0.803 1.426,1.514 z"
   id="path202" />&#10;			<g
   id="g203">&#10;				<path
   style="fill:#0e3944"
   d="m 625.218,182.536 c -0.143,0.067 -0.317,0.031 -0.421,-0.096 -0.893,-1.092 -2.606,-1.18 -2.623,-1.18 -0.194,-0.009 -0.344,-0.173 -0.336,-0.367 0.008,-0.193 0.171,-0.344 0.367,-0.336 0.083,0.004 2.047,0.106 3.136,1.439 0.123,0.15 0.1,0.371 -0.05,0.494 -0.022,0.019 -0.047,0.034 -0.073,0.046 z"
   id="path203" />&#10;			</g>&#10;			<g
   id="g204">&#10;				<path
   style="fill:#0e3944"
   d="m 615.062,180.673 c -0.056,0.026 -0.119,0.038 -0.185,0.031 -0.017,-0.002 -1.726,-0.172 -2.772,0.77 -0.145,0.131 -0.366,0.118 -0.496,-0.026 -0.129,-0.144 -0.118,-0.366 0.026,-0.496 1.279,-1.154 3.235,-0.956 3.318,-0.947 0.193,0.021 0.331,0.194 0.311,0.387 -0.015,0.126 -0.094,0.23 -0.202,0.281 z"
   id="path204" />&#10;			</g>&#10;			<path
   style="fill:#1a4850"
   d="m 624.154,186.242 c -0.067,0.871 -0.513,1.547 -0.996,1.51 -0.484,-0.037 -0.822,-0.772 -0.756,-1.643 0.066,-0.871 0.512,-1.547 0.996,-1.51 0.484,0.036 0.823,0.772 0.756,1.643 z"
   id="path205" />&#10;			<path
   style="fill:#1a4850"
   d="m 614.267,185.441 c -0.066,0.871 -0.512,1.547 -0.996,1.51 -0.484,-0.037 -0.822,-0.772 -0.756,-1.643 0.066,-0.871 0.512,-1.547 0.996,-1.51 0.484,0.037 0.822,0.772 0.756,1.643 z"
   id="path206" />&#10;			<path
   style="fill:#1a4850"
   d="m 615.03,194.039 c 0,0 4.32,0.943 6.656,-0.058 0,0 -1.517,3.137 -3.88,2.665 -2.362,-0.472 -2.776,-2.607 -2.776,-2.607 z"
   id="path207" />&#10;			<path
   style="fill:#1a4850"
   d="m 621.83,185.63 c 0,0 0.802,-2.096 1.633,-1.878 0.831,0.218 1.33,2.104 1.33,2.104 l 1.295,-0.565 -1.257,0.068 c 0,0 -0.502,-1.965 -1.335,-2.032 -1.186,-0.096 -1.666,2.303 -1.666,2.303 z"
   id="path208" />&#10;			<path
   style="fill:#1a4850"
   d="m 615.003,185.374 c 0,0 -0.475,-2.193 -1.329,-2.103 -0.854,0.09 -1.632,1.878 -1.632,1.878 l -1.195,-0.754 1.232,0.257 c 0,0 0.794,-1.867 1.627,-1.807 1.186,0.085 1.297,2.529 1.297,2.529 z"
   id="path209" />&#10;			<g
   id="g210">&#10;				<path
   style="fill:#ed93a4"
   d="m 618.826,190.724 c -0.154,0.072 -0.325,0.127 -0.51,0.162 l -0.142,-0.745 c 0.634,-0.121 0.8,-0.495 0.826,-0.787 0.038,-0.412 -0.184,-0.818 -0.407,-0.905 -0.131,-0.05 -0.276,0.029 -0.435,0.237 l -0.603,-0.46 c 0.528,-0.692 1.094,-0.569 1.313,-0.483 0.563,0.22 0.952,0.958 0.886,1.68 -0.053,0.589 -0.39,1.05 -0.928,1.301 z"
   id="path210" />&#10;			</g>&#10;			<path
   style="fill:#0e3944"
   d="m 623.629,173.871 c 0,0 -2.986,7.572 -14.303,7.692 0,0 -1.75,4.585 -1.72,6.227 0,0 -1.502,-1.857 -1.362,-10.607 0.14,-8.75 12.89,-11.875 18.39,-8.5 0,0 14.403,4.325 5.202,21.413 0,0 -0.13,-4.641 -1.104,-7.527 0,0 1.167,-6.253 -5.103,-8.698 z"
   id="path211" />&#10;		</g>&#10;		<path
   style="fill:#cfd8dc"
   d="m 627.259,206.558 c 0,0 -1,6.688 -4.5,13.469 0,0 -6.294,-3.512 -9.835,-11.178 0,0 -13.473,0.494 -15.947,3.71 -2.474,3.216 5.781,34.352 17.156,48.925 0,0 -1.407,1.302 2.171,3.313 3.579,2.011 16.704,2.547 19.204,1.279 2.5,-1.268 9.408,-4.975 10.141,-6.559 0.734,-1.584 -0.16,-3.209 -0.16,-3.209 0,0 1.334,-47.758 -2.552,-52.678 -3.883,-4.919 -15.678,2.928 -15.678,2.928 z"
   id="path212" />&#10;		<path
   style="fill:#105e99"
   d="m 616.306,264.797 c 0,0 -10.921,14.14 -14.282,26.221 -2.831,10.177 -5.046,26.29 -6.402,43.98 0,0 16.013,7.06 49.479,1.727 0,0 5.8,-10.678 10,-24.506 0,0 -0.381,11.867 -2.786,24.506 0,0 6.079,-25.417 4.775,-47.167 -0.641,-10.701 -5.799,-21.184 -12.275,-30.041 10e-4,0 -12.833,6.319 -28.509,5.28 z"
   id="path213" />&#10;		<path
   style="fill:#ffffff"
   d="m 627.509,204.727 c 0,0 3.047,0.848 5.916,6.35 l -4.693,0.606 -5.973,8.344 -9.368,-5.591 -5.013,2.483 c 0,0 -2.156,-4.98 4.547,-9.611 0,0 1.46,4.62 9.585,11.81 -10e-4,0 4.181,-5.596 4.999,-14.391 z"
   id="path214" />&#10;		<g
   id="g216">&#10;			<path
   style="fill:#ffc3ba"
   d="m 601.464,424.238 h -11.16 c 0,0 -0.81,-2.09 -0.65,-4.93 0.1,-1.63 0.99,-3.54 1.56,-5.14 0.42,-1.17 0.66,-2.18 0.29,-2.78 -0.87,-1.41 0.98,-4.13 0.65,-9.81 l 7.27,2.77 c -0.62,6.57 0.73,7.08 0.07,8.56 -0.26,0.59 -0.15,1.36 0.12,2.16 0.46,1.34 1.38,2.78 1.85,3.68 1.67,3.14 0,5.49 0,5.49 z"
   id="path215" />&#10;			<path
   style="fill:#0e3944"
   d="m 601.464,424.238 h -11.16 c 0,0 -0.81,-2.09 -0.65,-4.93 0.1,-1.63 0.99,-3.54 1.56,-5.14 0,0 -0.029,3.813 3.84,4.89 2.861,0.797 5.46,-0.65 4.56,-3.99 0.46,1.34 1.38,2.78 1.85,3.68 1.67,3.14 0,5.49 0,5.49 z"
   id="path216" />&#10;		</g>&#10;		<g
   id="g218">&#10;			<path
   style="fill:#ffc3ba"
   d="m 632.402,424.238 h 11.16 c 0,0 0.81,-2.09 0.65,-4.93 -0.1,-1.63 -0.99,-3.54 -1.56,-5.14 -0.42,-1.17 -0.66,-2.18 -0.29,-2.78 0.87,-1.41 -0.728,-2.58 1.033,-10.283 l -8.038,0.473 c -0.139,8.563 -1.645,9.85 -0.985,11.33 0.26,0.59 0.15,1.36 -0.12,2.16 -0.46,1.34 -1.38,2.78 -1.85,3.68 -1.67,3.14 0,5.49 0,5.49 z"
   id="path217" />&#10;			<path
   style="fill:#0e3944"
   d="m 632.402,424.238 h 11.16 c 0,0 0.81,-2.09 0.65,-4.93 -0.1,-1.63 -0.99,-3.54 -1.56,-5.14 0,0 0.029,3.813 -3.84,4.89 -2.861,0.797 -5.46,-0.65 -4.56,-3.99 -0.46,1.34 -1.38,2.78 -1.85,3.68 -1.67,3.14 0,5.49 0,5.49 z"
   id="path218" />&#10;		</g>&#10;		<g
   id="g220">&#10;			<path
   style="fill:#ffb878"
   d="m 621.913,209.719 1.36,25.304 c -3.8,0.066 -21.888,4.707 -21.888,4.707 -4.018,-4.633 -12.116,-6.323 -12.116,-6.323 0.528,-7.965 -4.292,-23.914 -4.292,-23.914 8.847,-0.326 15.275,4.079 15.275,4.079 7.345,-3.103 21.661,-3.853 21.661,-3.853 z"
   id="path219" />&#10;			<path
   style="fill:#f2a668"
   d="m 601.385,239.73 c -4.018,-4.633 -12.116,-6.323 -12.116,-6.323 0.528,-7.965 -4.292,-23.914 -4.292,-23.914 8.847,-0.326 15.275,4.079 15.275,4.079 0,0 2.396,15.332 1.133,26.158 z"
   id="path220" />&#10;		</g>&#10;		<path
   style="fill:#b5c4c9"
   d="m 583.459,252.153 c 1.976,-4.247 4.778,-3.397 11.727,-10.579 0,0 -0.051,4.439 4.199,4.962 0,0 -2.25,8.902 -5.083,13.296 -2.833,4.394 -7.314,2.638 -9.324,2.099 -2.01,-0.539 -2.768,-7.093 -1.519,-9.778 z"
   id="path221" />&#10;		<path
   style="fill:#92a1a5"
   d="m 595.622,240.475 c 0.774,-1.039 5.298,1.863 4.675,5.303 -0.624,3.439 -5.662,2.109 -5.996,0.778 -0.333,-1.331 1.321,-6.081 1.321,-6.081 z"
   id="path222" />&#10;		<g
   id="g224">&#10;			<path
   style="fill:#f2ada2"
   d="m 605.029,230.943 c 0.86,-0.116 2.152,-0.052 2.9,0.303 0.748,0.355 0.257,1.138 -2.058,1.593 0,0 2.196,-0.066 2.46,0.24 0.264,0.306 -0.849,0.955 -1.684,1.355 0,0 1.037,-0.02 1.283,0.238 0.246,0.258 -1.39,1.654 -1.39,1.654 0,0 0.513,-0.684 0.768,-0.168 0.255,0.515 -1.612,2.455 -1.612,2.455 l -3.724,-3.467 z"
   id="path223" />&#10;			<path
   style="fill:#ffc3ba"
   d="m 597.88,240.574 c 0,0 -0.914,-3.079 -0.915,-3.586 -0.006,-2.75 0.987,-4.379 0.206,-5.35 -0.781,-0.971 1.173,-1.143 1.628,0.37 0.315,1.047 0.039,1.091 0.207,2.438 0,0 0.499,-1.008 1.125,-1.63 0.626,-0.622 3.093,-1.296 4.392,-1.722 1.298,-0.425 1.725,-0.379 2.182,0.282 0.458,0.661 -1.517,1.613 -1.517,1.613 0,0 1.167,0.116 1.302,0.731 0.135,0.615 -0.867,1.25 -0.867,1.25 0,0 0.711,0.675 0.369,1.685 -0.342,1.01 0.198,1.748 -0.632,2.28 -0.83,0.533 -2.395,1.659 -3.525,2.279 -0.66,0.362 -2.196,0.805 -3.955,-0.64 z"
   id="path224" />&#10;		</g>&#10;		<path
   style="fill:#ffc3ba"
   d="m 597.043,237.702 c -0.162,1.62 -3.678,6.667 -3.678,6.667 0,0 0.641,2.717 5.016,4.272 l 4.041,-8.486 z"
   id="path225" />&#10;		<path
   style="fill:#cfd8dc"
   d="m 595.622,240.475 c 0,0 0.096,4.833 4.675,5.303 l -0.912,5.031 c 0,0 -3.516,-0.131 -5.41,-2.5 -1.894,-2.369 -0.609,-5.917 -0.609,-5.917 z"
   id="path226" />&#10;		<path
   style="fill:#cfd8dc"
   d="m 680.168,194.683 -2.25,3.905 c 0,0 4.625,3.595 8.875,4.595 v -6.875 c 0,0 -5,-1.75 -6.625,-1.625 z"
   id="path227" />&#10;		<path
   style="fill:#f2ada2"
   d="m 690.33,181.272 c -0.376,1.681 -1.976,3.093 -1.976,3.093 0,0 -0.583,2.407 -0.95,2.521 -0.367,0.114 0.95,2.268 0.95,2.885 0,0.616 1.976,0 1.976,0 0,0 -1.673,-0.413 -1.495,-0.98 0.178,-0.568 1.025,-0.89 0.46,-1.623 -0.565,-0.732 0.564,-2.184 0.564,-2.184 0,0 -0.094,-1.394 0,-1.429 0.094,-0.036 1.223,-0.694 1.223,-0.694 0,0 -0.376,0.117 -0.565,-0.735 z"
   id="path228" />&#10;	</g>&#10;</g>&#10;</svg>
